<svg width="830" height="448" viewBox="0 0 830 448" fill="none" xmlns="http://www.w3.org/2000/svg">
<path d="M637.579 135.084C636.738 135.836 635.679 136.335 634.535 136.519C633.391 136.702 632.212 136.561 631.147 136.114C630.082 135.667 629.177 134.934 628.546 134.006C627.916 133.078 627.587 131.997 627.601 130.897C627.615 129.798 627.972 128.73 628.626 127.826C629.28 126.923 630.204 126.224 631.28 125.818C632.356 125.412 633.538 125.316 634.676 125.543C635.815 125.769 636.861 126.308 637.682 127.092C638.238 127.623 638.678 128.253 638.974 128.945C639.271 129.637 639.419 130.378 639.409 131.122C639.399 131.867 639.233 132.601 638.918 133.281C638.604 133.962 638.149 134.575 637.579 135.084V135.084Z" fill="url(#paint0_linear_0_1)"/>
<path d="M611.139 200.34C610.476 200.967 609.643 201.384 608.744 201.54C607.846 201.695 606.921 201.582 606.086 201.215C605.251 200.848 604.543 200.242 604.051 199.474C603.558 198.706 603.304 197.81 603.318 196.898C603.333 195.986 603.616 195.098 604.133 194.347C604.65 193.595 605.377 193.012 606.223 192.672C607.069 192.331 607.997 192.248 608.891 192.432C609.784 192.617 610.603 193.061 611.245 193.709C611.68 194.147 612.023 194.669 612.254 195.242C612.484 195.815 612.598 196.429 612.588 197.047C612.578 197.664 612.445 198.274 612.196 198.84C611.947 199.405 611.588 199.915 611.139 200.34V200.34Z" fill="url(#paint1_linear_0_1)"/>
<path d="M542.705 227.986C541.834 228.811 540.738 229.36 539.555 229.565C538.373 229.77 537.156 229.621 536.057 229.138C534.959 228.654 534.028 227.857 533.38 226.847C532.732 225.837 532.397 224.657 532.416 223.457C532.435 222.257 532.808 221.09 533.488 220.101C534.168 219.112 535.124 218.345 536.238 217.897C537.351 217.449 538.572 217.34 539.747 217.582C540.923 217.825 542.001 218.409 542.846 219.261C543.418 219.839 543.869 220.525 544.173 221.279C544.476 222.033 544.626 222.84 544.613 223.653C544.6 224.466 544.424 225.268 544.097 226.012C543.769 226.756 543.296 227.428 542.705 227.986V227.986Z" fill="url(#paint2_linear_0_1)"/>
<path d="M489.065 273.402C487.838 274.562 486.296 275.335 484.633 275.623C482.969 275.911 481.257 275.702 479.712 275.022C478.166 274.342 476.856 273.22 475.945 271.799C475.033 270.377 474.562 268.719 474.589 267.03C474.616 265.342 475.14 263.699 476.097 262.308C477.053 260.916 478.399 259.838 479.966 259.207C481.532 258.577 483.25 258.423 484.903 258.764C486.557 259.106 488.073 259.927 489.262 261.127C490.067 261.939 490.702 262.904 491.129 263.965C491.556 265.026 491.767 266.162 491.748 267.306C491.73 268.449 491.483 269.578 491.022 270.625C490.561 271.672 489.896 272.616 489.065 273.402V273.402Z" fill="url(#paint3_linear_0_1)"/>
<path d="M391.707 215.947C390.835 216.772 389.74 217.321 388.557 217.526C387.374 217.731 386.158 217.582 385.059 217.099C383.961 216.615 383.029 215.818 382.382 214.808C381.734 213.797 381.399 212.618 381.418 211.418C381.437 210.218 381.81 209.051 382.49 208.062C383.17 207.073 384.126 206.306 385.24 205.858C386.353 205.41 387.574 205.301 388.749 205.543C389.925 205.786 391.002 206.37 391.847 207.222C392.42 207.8 392.871 208.486 393.175 209.24C393.478 209.994 393.628 210.801 393.615 211.614C393.601 212.427 393.426 213.229 393.098 213.973C392.771 214.717 392.298 215.388 391.707 215.947V215.947Z" fill="url(#paint4_linear_0_1)"/>
<path d="M356.879 298.234C355.586 299.457 353.961 300.272 352.207 300.575C350.453 300.879 348.649 300.659 347.02 299.942C345.391 299.225 344.01 298.043 343.049 296.545C342.089 295.046 341.591 293.298 341.62 291.518C341.649 289.739 342.202 288.007 343.21 286.54C344.218 285.074 345.636 283.937 347.287 283.273C348.939 282.608 350.749 282.446 352.492 282.806C354.235 283.165 355.833 284.032 357.086 285.295C357.935 286.152 358.604 287.169 359.054 288.287C359.504 289.406 359.726 290.603 359.707 291.808C359.687 293.014 359.427 294.203 358.942 295.307C358.456 296.41 357.754 297.406 356.879 298.234V298.234Z" fill="url(#paint5_linear_0_1)"/>
<path d="M83.8786 115.234C82.5856 116.457 80.9605 117.272 79.2068 117.575C77.4532 117.879 75.649 117.659 74.02 116.942C72.391 116.225 71.0097 115.043 70.0492 113.545C69.0887 112.046 68.5915 110.298 68.62 108.518C68.6486 106.739 69.2016 105.007 70.2098 103.54C71.2179 102.074 72.6363 100.937 74.2875 100.273C75.9386 99.6082 77.749 99.4457 79.4921 99.8056C81.2351 100.165 82.8333 101.032 84.0864 102.295C84.9352 103.152 85.6043 104.169 86.0543 105.287C86.5043 106.406 86.7261 107.603 86.7068 108.808C86.6875 110.014 86.4272 111.203 85.9416 112.307C85.4559 113.41 84.7545 114.406 83.8786 115.234V115.234Z" fill="url(#paint6_linear_0_1)"/>
<path d="M15.8786 16.2341C14.5856 17.4571 12.9605 18.2715 11.2068 18.5752C9.45315 18.879 7.64901 18.6585 6.02002 17.9415C4.39103 17.2246 3.00973 16.0429 2.0492 14.5446C1.08867 13.0462 0.591481 11.2978 0.62004 9.5182C0.648598 7.73864 1.20164 6.00705 2.20975 4.5403C3.21786 3.07354 4.63631 1.93685 6.28747 1.27251C7.93862 0.608175 9.74904 0.445712 11.4921 0.805553C13.2351 1.16539 14.8333 2.03157 16.0864 3.29547C16.9352 4.15164 17.6043 5.16886 18.0543 6.28735C18.5043 7.40584 18.7261 8.60302 18.7068 9.80849C18.6875 11.014 18.4272 12.2034 17.9416 13.3069C17.4559 14.4104 16.7545 15.4056 15.8786 16.2341V16.2341Z" fill="url(#paint7_linear_0_1)"/>
<path d="M431.707 345.947C430.835 346.772 429.74 347.321 428.557 347.526C427.374 347.731 426.158 347.582 425.059 347.099C423.961 346.615 423.029 345.818 422.382 344.808C421.734 343.797 421.399 342.618 421.418 341.418C421.437 340.218 421.81 339.051 422.49 338.062C423.17 337.073 424.126 336.306 425.24 335.858C426.353 335.41 427.574 335.301 428.749 335.543C429.925 335.786 431.002 336.37 431.847 337.222C432.42 337.8 432.871 338.486 433.175 339.24C433.478 339.994 433.628 340.801 433.615 341.614C433.601 342.427 433.426 343.229 433.098 343.973C432.771 344.717 432.298 345.388 431.707 345.947V345.947Z" fill="url(#paint8_linear_0_1)"/>
<path d="M508.707 445.947C507.835 446.772 506.74 447.321 505.557 447.526C504.374 447.731 503.158 447.582 502.059 447.099C500.961 446.615 500.029 445.818 499.382 444.808C498.734 443.797 498.399 442.618 498.418 441.418C498.437 440.218 498.81 439.051 499.49 438.062C500.17 437.073 501.126 436.306 502.24 435.858C503.353 435.41 504.574 435.301 505.749 435.543C506.925 435.786 508.002 436.37 508.847 437.222C509.42 437.8 509.871 438.486 510.175 439.24C510.478 439.994 510.628 440.801 510.615 441.614C510.601 442.427 510.426 443.229 510.098 443.973C509.771 444.717 509.298 445.388 508.707 445.947V445.947Z" fill="url(#paint9_linear_0_1)"/>
<path d="M775.179 149.113C775.692 149.765 776.386 150.251 777.174 150.511C777.962 150.771 778.81 150.792 779.61 150.573C780.41 150.353 781.128 149.902 781.673 149.277C782.218 148.651 782.567 147.879 782.675 147.056C782.784 146.233 782.647 145.397 782.282 144.651C781.917 143.906 781.341 143.285 780.625 142.865C779.908 142.446 779.085 142.248 778.256 142.294C777.427 142.341 776.631 142.631 775.967 143.128C775.52 143.468 775.145 143.893 774.863 144.378C774.581 144.863 774.398 145.4 774.325 145.956C774.252 146.513 774.289 147.078 774.436 147.62C774.583 148.162 774.835 148.669 775.179 149.113Z" fill="url(#paint10_linear_0_1)"/>
<path d="M674.179 153.113C674.692 153.765 675.386 154.251 676.174 154.511C676.962 154.771 677.81 154.792 678.61 154.573C679.41 154.353 680.128 153.902 680.673 153.277C681.218 152.651 681.567 151.879 681.675 151.056C681.784 150.233 681.647 149.397 681.282 148.651C680.917 147.906 680.341 147.285 679.625 146.865C678.908 146.446 678.085 146.248 677.256 146.294C676.427 146.341 675.631 146.631 674.967 147.128C674.52 147.468 674.145 147.893 673.863 148.378C673.581 148.863 673.398 149.4 673.325 149.956C673.252 150.513 673.289 151.078 673.436 151.62C673.583 152.162 673.835 152.669 674.179 153.113Z" fill="url(#paint11_linear_0_1)"/>
<path d="M822.179 170.113C822.692 170.765 823.386 171.251 824.174 171.511C824.962 171.771 825.81 171.792 826.61 171.573C827.41 171.353 828.128 170.902 828.673 170.277C829.218 169.651 829.567 168.879 829.675 168.056C829.784 167.233 829.647 166.397 829.282 165.651C828.917 164.906 828.341 164.285 827.625 163.865C826.908 163.446 826.085 163.248 825.256 163.294C824.427 163.341 823.631 163.631 822.967 164.128C822.52 164.468 822.145 164.893 821.863 165.378C821.581 165.863 821.398 166.4 821.325 166.956C821.252 167.513 821.289 168.078 821.436 168.62C821.583 169.162 821.835 169.669 822.179 170.113Z" fill="url(#paint12_linear_0_1)"/>
<path d="M774.179 194.144C774.692 194.796 775.386 195.283 776.174 195.542C776.962 195.802 777.81 195.823 778.61 195.604C779.41 195.384 780.128 194.933 780.673 194.308C781.218 193.682 781.567 192.91 781.675 192.087C781.784 191.264 781.647 190.428 781.282 189.683C780.917 188.937 780.341 188.316 779.625 187.897C778.908 187.477 778.085 187.279 777.256 187.326C776.427 187.372 775.631 187.663 774.967 188.16C774.52 188.499 774.145 188.924 773.863 189.409C773.581 189.895 773.398 190.431 773.325 190.988C773.252 191.544 773.289 192.11 773.436 192.651C773.583 193.193 773.835 193.7 774.179 194.144Z" fill="url(#paint13_linear_0_1)"/>
<defs>
<linearGradient id="paint0_linear_0_1" x1="633.561" y1="125.636" x2="633.274" y2="137.551" gradientUnits="userSpaceOnUse">
<stop offset="0.494792" stop-color="#005A9E"/>
<stop offset="1" stop-color="#E6F4F1"/>
</linearGradient>
<linearGradient id="paint1_linear_0_1" x1="608.015" y1="192.513" x2="607.803" y2="202.402" gradientUnits="userSpaceOnUse">
<stop offset="0.494792" stop-color="#005A9E"/>
<stop offset="1" stop-color="#E6F4F1"/>
</linearGradient>
<linearGradient id="paint2_linear_0_1" x1="538.595" y1="217.689" x2="538.316" y2="230.699" gradientUnits="userSpaceOnUse">
<stop offset="0.494792" stop-color="#005A9E"/>
<stop offset="1" stop-color="#E6F4F1"/>
</linearGradient>
<linearGradient id="paint3_linear_0_1" x1="483.282" y1="258.914" x2="482.89" y2="277.218" gradientUnits="userSpaceOnUse">
<stop offset="0.494792" stop-color="#005A9E"/>
<stop offset="1" stop-color="#E6F4F1"/>
</linearGradient>
<linearGradient id="paint4_linear_0_1" x1="387.597" y1="205.65" x2="387.318" y2="218.66" gradientUnits="userSpaceOnUse">
<stop offset="0.494792" stop-color="#005A9E"/>
<stop offset="1" stop-color="#E6F4F1"/>
</linearGradient>
<linearGradient id="paint5_linear_0_1" x1="350.783" y1="282.963" x2="350.37" y2="302.257" gradientUnits="userSpaceOnUse">
<stop offset="0.494792" stop-color="#005A9E"/>
<stop offset="1" stop-color="#E6F4F1"/>
</linearGradient>
<linearGradient id="paint6_linear_0_1" x1="77.7829" y1="99.9634" x2="77.37" y2="119.257" gradientUnits="userSpaceOnUse">
<stop offset="0.494792" stop-color="#005A9E"/>
<stop offset="1" stop-color="#E6F4F1"/>
</linearGradient>
<linearGradient id="paint7_linear_0_1" x1="9.78288" y1="0.963429" x2="9.37004" y2="20.2568" gradientUnits="userSpaceOnUse">
<stop offset="0.494792" stop-color="#005A9E"/>
<stop offset="1" stop-color="#E6F4F1"/>
</linearGradient>
<linearGradient id="paint8_linear_0_1" x1="427.597" y1="335.65" x2="427.318" y2="348.66" gradientUnits="userSpaceOnUse">
<stop offset="0.494792" stop-color="#005A9E"/>
<stop offset="1" stop-color="#E6F4F1"/>
</linearGradient>
<linearGradient id="paint9_linear_0_1" x1="504.597" y1="435.65" x2="504.318" y2="448.66" gradientUnits="userSpaceOnUse">
<stop offset="0.494792" stop-color="#005A9E"/>
<stop offset="1" stop-color="#E6F4F1"/>
</linearGradient>
<linearGradient id="paint10_linear_0_1" x1="778.556" y1="142.449" x2="778.364" y2="151.446" gradientUnits="userSpaceOnUse">
<stop offset="0.494792" stop-color="#005A9E"/>
<stop offset="1" stop-color="#E6F4F1"/>
</linearGradient>
<linearGradient id="paint11_linear_0_1" x1="677.556" y1="146.449" x2="677.364" y2="155.446" gradientUnits="userSpaceOnUse">
<stop offset="0.494792" stop-color="#005A9E"/>
<stop offset="1" stop-color="#E6F4F1"/>
</linearGradient>
<linearGradient id="paint12_linear_0_1" x1="825.556" y1="163.449" x2="825.364" y2="172.446" gradientUnits="userSpaceOnUse">
<stop offset="0.494792" stop-color="#005A9E"/>
<stop offset="1" stop-color="#E6F4F1"/>
</linearGradient>
<linearGradient id="paint13_linear_0_1" x1="777.556" y1="187.48" x2="777.364" y2="196.477" gradientUnits="userSpaceOnUse">
<stop offset="0.494792" stop-color="#005A9E"/>
<stop offset="1" stop-color="#E6F4F1"/>
</linearGradient>
</defs>
</svg>
