<svg width="138" height="138" viewBox="0 0 138 138" fill="none" xmlns="http://www.w3.org/2000/svg">
<g filter="url(#filter0_d_548_1683)">
<path d="M69 0C86.2391 0 102.772 6.84819 114.962 19.0381C127.152 31.2279 134 47.7609 134 65C134 82.2391 127.152 98.7721 114.962 110.962C102.772 123.152 86.2391 130 69 130C51.7609 130 35.2279 123.152 23.0381 110.962C10.8482 98.7721 4 82.2391 4 65C4 47.7609 10.8482 31.2279 23.0381 19.0381C35.2279 6.84819 51.7609 0 69 0ZM69 120.714C83.7763 120.714 97.9475 114.844 108.396 104.396C118.844 93.9475 124.714 79.7763 124.714 65C124.714 50.2237 118.844 36.0525 108.396 25.604C97.9475 15.1556 83.7763 9.28571 69 9.28571C54.2237 9.28571 40.0525 15.1556 29.604 25.604C19.1556 36.0525 13.2857 50.2237 13.2857 65C13.2857 79.7763 19.1556 93.9475 29.604 104.396C40.0525 114.844 54.2237 120.714 69 120.714ZM62.0357 84.7878L91.7221 65L62.0357 45.2121V84.7878ZM63.5771 35.0721L99.7729 59.2057C100.727 59.8417 101.509 60.7033 102.05 61.7141C102.591 62.7249 102.874 63.8536 102.874 65C102.874 66.1464 102.591 67.2751 102.05 68.2859C101.509 69.2967 100.727 70.1583 99.7729 70.7943L63.5771 94.9278C62.5283 95.627 61.3095 96.0284 60.0505 96.0892C58.7915 96.1501 57.5396 95.8681 56.4282 95.2734C55.3169 94.6786 54.3878 93.7934 53.74 92.7121C53.0923 91.6308 52.7501 90.394 52.75 89.1336V40.8571C52.7501 39.5967 53.0923 38.3599 53.74 37.2786C54.3878 36.1973 55.3169 35.3121 56.4282 34.7174C57.5396 34.1226 58.7915 33.8406 60.0505 33.9015C61.3095 33.9623 62.5283 34.3637 63.5771 35.0629V35.0721Z" fill="white"/>
</g>
<defs>
<filter id="filter0_d_548_1683" x="0" y="0" width="138" height="138" filterUnits="userSpaceOnUse" color-interpolation-filters="sRGB">
<feFlood flood-opacity="0" result="BackgroundImageFix"/>
<feColorMatrix in="SourceAlpha" type="matrix" values="0 0 0 0 0 0 0 0 0 0 0 0 0 0 0 0 0 0 127 0" result="hardAlpha"/>
<feOffset dy="4"/>
<feGaussianBlur stdDeviation="2"/>
<feComposite in2="hardAlpha" operator="out"/>
<feColorMatrix type="matrix" values="0 0 0 0 0 0 0 0 0 0 0 0 0 0 0 0 0 0 0.25 0"/>
<feBlend mode="normal" in2="BackgroundImageFix" result="effect1_dropShadow_548_1683"/>
<feBlend mode="normal" in="SourceGraphic" in2="effect1_dropShadow_548_1683" result="shape"/>
</filter>
</defs>
</svg>
