<svg width="17" height="12" viewBox="0 0 17 12" fill="none" xmlns="http://www.w3.org/2000/svg">
<path fill-rule="evenodd" clip-rule="evenodd" d="M8.50003 0C10.5724 0 12.5541 1.07296 14.4009 2.83586C15.0309 3.43729 15.6009 4.07938 16.1027 4.72173C16.4055 5.10934 16.6204 5.41425 16.7381 5.59591L17 6.00005L16.7381 6.40415C16.6204 6.58577 16.4055 6.89069 16.1027 7.27832C15.6009 7.92065 15.0309 8.56271 14.4009 9.16418C12.5541 10.927 10.5724 12 8.50003 12C6.42759 12 4.4459 10.927 2.59911 9.16418C1.96906 8.56271 1.39907 7.92065 0.897287 7.27832C0.594506 6.89069 0.379529 6.58577 0.26183 6.40415L0 6.00005L0.26183 5.59591C0.379529 5.41425 0.594506 5.10934 0.897287 4.72173C1.39907 4.07938 1.96906 3.43729 2.59911 2.83586C4.4459 1.07296 6.42759 0 8.50003 0ZM14.8993 5.63767C14.4398 5.04954 13.9175 4.46116 13.3444 3.91415C11.7539 2.39579 10.0995 1.5 8.49994 1.5C6.90052 1.5 5.2461 2.39579 3.65547 3.91415C3.08242 4.46116 2.5601 5.04954 2.10069 5.63767C2.00147 5.76469 1.90978 5.88588 1.82595 6.00005C1.90978 6.11417 2.00147 6.23531 2.10069 6.36239C2.5601 6.95045 3.08242 7.53887 3.65547 8.08589C5.2461 9.60419 6.90052 10.5001 8.49994 10.5001C10.0995 10.5001 11.7539 9.60419 13.3444 8.08589C13.9175 7.53887 14.4398 6.95045 14.8993 6.36239C14.9985 6.23531 15.0902 6.11417 15.174 6.00005C15.0902 5.88588 14.9985 5.76469 14.8993 5.63767ZM5.46077 6.00005C5.46077 7.65686 6.82148 9.00002 8.50003 9.00002C10.1785 9.00002 11.5392 7.65686 11.5392 6.00005C11.5392 4.34315 10.1785 3 8.50003 3C6.82148 3 5.46077 4.34315 5.46077 6.00005ZM10.0196 6.00005C10.0196 6.82841 9.33922 7.49999 8.50003 7.49999C7.66074 7.49999 6.98038 6.82841 6.98038 6.00005C6.98038 5.17158 7.66074 4.50001 8.50003 4.50001C9.33922 4.50001 10.0196 5.17158 10.0196 6.00005Z" fill="#878787"/>
</svg>
