<svg width="12" height="14" viewBox="0 0 12 14" fill="none" xmlns="http://www.w3.org/2000/svg">
<path fill-rule="evenodd" clip-rule="evenodd" d="M3.6 2.8H2.4V2.1H1.2V4.2H10.8V2.1H9.6V2.8H8.4V2.1H3.6V2.8ZM10.8 5.6H1.2V12.6H10.8V5.6ZM8.4 0.7H3.6V0H2.4V0.7H1.2C0.537258 0.7 0 1.3268 0 2.1V12.6C0 13.3732 0.537258 14 1.2 14H10.8C11.4628 14 12 13.3732 12 12.6V2.1C12 1.3268 11.4628 0.7 10.8 0.7H9.6V0H8.4V0.7ZM3 8.4V7H4.2V8.4H3ZM5.4 8.4H6.6V7H5.4V8.4ZM7.8 8.4V7H9V8.4H7.8ZM3 9.8V11.2H4.2V9.8H3ZM6.6 11.2H5.4V9.8H6.6V11.2Z" fill="white"/>
</svg>
