<svg width="36" height="36" viewBox="0 0 36 36" fill="none" xmlns="http://www.w3.org/2000/svg">
<circle cx="18" cy="18" r="18" fill="url(#paint0_linear_14_7226)"/>
<path d="M25.1483 21.3945C25.1483 21.6498 25.0898 21.9123 24.9654 22.1676C24.841 22.423 24.68 22.6642 24.4678 22.8911C24.1093 23.2742 23.7142 23.5508 23.2678 23.7281C22.8288 23.9055 22.3532 23.9977 21.841 23.9977C21.0947 23.9977 20.2971 23.8274 19.4556 23.4799C18.6142 23.1323 17.7727 22.6642 16.9386 22.0754C16.0971 21.4796 15.2995 20.8199 14.5386 20.0893C13.7849 19.3516 13.1044 18.5785 12.4971 17.7698C11.8971 16.9612 11.4142 16.1526 11.063 15.3511C10.7117 14.5424 10.5361 13.7693 10.5361 13.0316C10.5361 12.5493 10.6239 12.0882 10.7995 11.6626C10.9752 11.2299 11.2532 10.8327 11.641 10.478C12.1093 10.0312 12.6215 9.81128 13.163 9.81128C13.3678 9.81128 13.5727 9.85384 13.7556 9.93896C13.9459 10.0241 14.1142 10.1518 14.2459 10.3362L15.9435 12.6557C16.0752 12.833 16.1703 12.9961 16.2361 13.1522C16.302 13.3011 16.3386 13.4501 16.3386 13.5849C16.3386 13.7551 16.2874 13.9253 16.1849 14.0885C16.0898 14.2516 15.9508 14.4219 15.7752 14.5921L15.2191 15.1525C15.1386 15.2305 15.102 15.3227 15.102 15.4362C15.102 15.4929 15.1093 15.5426 15.1239 15.5993C15.1459 15.6561 15.1678 15.6986 15.1825 15.7412C15.3142 15.9753 15.541 16.2803 15.863 16.6491C16.1922 17.018 16.5434 17.3939 16.9239 17.7698C17.3191 18.1458 17.6995 18.4934 18.0874 18.8125C18.4678 19.1246 18.7825 19.3374 19.0313 19.4651C19.0678 19.4793 19.1117 19.5006 19.163 19.5219C19.2215 19.5431 19.28 19.5502 19.3459 19.5502C19.4703 19.5502 19.5654 19.5077 19.6459 19.4297L20.202 18.8977C20.3849 18.7203 20.5605 18.5856 20.7288 18.5004C20.8971 18.4011 21.0654 18.3515 21.2483 18.3515C21.3874 18.3515 21.5337 18.3799 21.6947 18.4437C21.8556 18.5075 22.0239 18.5998 22.2069 18.7203L24.6288 20.3872C24.8191 20.5149 24.9508 20.6639 25.0313 20.8412C25.1044 21.0185 25.1483 21.1959 25.1483 21.3945Z" stroke="white" stroke-width="1.2" stroke-miterlimit="10"/>
<path d="M22.6098 14.7766C22.6098 14.351 22.2659 13.6984 21.7537 13.1664C21.2854 12.677 20.6635 12.2939 20.0488 12.2939" stroke="white" stroke-width="1.2" stroke-linecap="round" stroke-linejoin="round"/>
<path d="M25.1708 14.7765C25.1708 12.0314 22.8805 9.81128 20.0488 9.81128" stroke="white" stroke-width="1.2" stroke-linecap="round" stroke-linejoin="round"/>
<defs>
<linearGradient id="paint0_linear_14_7226" x1="-6.70552e-08" y1="18" x2="36" y2="18" gradientUnits="userSpaceOnUse">
<stop stop-color="#0099B5"/>
<stop offset="1" stop-color="#1EB53A"/>
</linearGradient>
</defs>
</svg>
