<svg width="14" height="14" viewBox="0 0 14 14" fill="none" xmlns="http://www.w3.org/2000/svg">
<path d="M5.6759 0.40918C6.73392 0.409138 7.7709 0.695752 8.66981 1.23668C9.56872 1.7776 10.2938 2.5513 10.7632 3.47047C11.2325 4.38963 11.4276 5.41768 11.3262 6.43858C11.2249 7.45949 10.8312 8.43262 10.1896 9.24815L13.7792 12.7293C13.915 12.8613 13.9938 13.0385 13.9996 13.2248C14.0055 13.4111 13.938 13.5926 13.8108 13.7324C13.6837 13.8722 13.5064 13.9598 13.3149 13.9775C13.1235 13.9952 12.9323 13.9416 12.7802 13.8276L12.7091 13.7667L9.11794 10.287C8.40123 10.8168 7.56468 11.1735 6.67751 11.3276C5.79035 11.4817 4.87807 11.4288 4.01618 11.1733C3.15428 10.9178 2.36755 10.467 1.72107 9.85821C1.07459 9.24942 0.586956 8.50016 0.298517 7.67241C0.0100785 6.84467 -0.0708726 5.96224 0.0623624 5.09814C0.195597 4.23404 0.539188 3.41312 1.0647 2.70331C1.59022 1.9935 2.28255 1.4152 3.08441 1.01626C3.88627 0.617326 4.7746 0.409226 5.6759 0.40918ZM5.6759 1.87647C4.57192 1.87647 3.51316 2.30159 2.73253 3.05831C1.95191 3.81503 1.51335 4.84136 1.51335 5.91152C1.51335 6.98169 1.95191 8.00802 2.73253 8.76474C3.51316 9.52146 4.57192 9.94658 5.6759 9.94658C6.77987 9.94658 7.83863 9.52146 8.61926 8.76474C9.39989 8.00802 9.83844 6.98169 9.83844 5.91152C9.83844 4.84136 9.39989 3.81503 8.61926 3.05831C7.83863 2.30159 6.77987 1.87647 5.6759 1.87647Z" fill="white"/>
</svg>
