<svg width="22" height="8" viewBox="0 0 22 8" fill="none" xmlns="http://www.w3.org/2000/svg">
<path d="M5.5 1.33407C6.22935 1.33407 6.92882 1.61467 7.44454 2.11414C7.96027 2.6136 8.25 3.29103 8.25 3.99738C8.25 4.70373 7.96027 5.38115 7.44454 5.88062C6.92882 6.38009 6.22935 6.66069 5.5 6.66069C4.77065 6.66069 4.07118 6.38009 3.55546 5.88062C3.03973 5.38115 2.75 4.70373 2.75 3.99738C2.75 3.29103 3.03973 2.6136 3.55546 2.11414C4.07118 1.61467 4.77065 1.33407 5.5 1.33407ZM9.10938 2.06249C8.69539 1.33707 8.05868 0.75432 7.28748 0.39498C6.51627 0.03564 5.64876 -0.0824956 4.80514 0.0569431C3.96152 0.196382 3.18356 0.58649 2.57907 1.17321C1.97459 1.75994 1.57349 2.51422 1.43138 3.33155H0.6875C0.505164 3.33155 0.330295 3.4017 0.201364 3.52657C0.0724328 3.65144 0 3.82079 0 3.99738C0 4.17397 0.0724328 4.34332 0.201364 4.46819C0.330295 4.59306 0.505164 4.66321 0.6875 4.66321H1.43138C1.602 5.65253 2.15065 6.54349 2.96833 7.15908C3.786 7.77468 4.81286 8.06987 5.84491 7.986C6.87696 7.90214 7.83867 7.44536 8.53899 6.7064C9.23931 5.96745 9.62698 5.0004 9.625 3.99738C9.625 3.6442 9.76987 3.30549 10.0277 3.05576C10.2856 2.80602 10.6353 2.66573 11 2.66573C11.3647 2.66573 11.7144 2.80602 11.9723 3.05576C12.2301 3.30549 12.375 3.6442 12.375 3.99738C12.373 5.0004 12.7607 5.96745 13.461 6.7064C14.1613 7.44536 15.123 7.90214 16.1551 7.986C17.1871 8.06987 18.214 7.77468 19.0317 7.15908C19.8493 6.54349 20.398 5.65253 20.5686 4.66321H21.3125C21.4948 4.66321 21.6697 4.59306 21.7986 4.46819C21.9276 4.34332 22 4.17397 22 3.99738C22 3.82079 21.9276 3.65144 21.7986 3.52657C21.6697 3.4017 21.4948 3.33155 21.3125 3.33155H20.5686C20.4265 2.51422 20.0254 1.75994 19.4209 1.17321C18.8164 0.58649 18.0385 0.196382 17.1949 0.0569431C16.3512 -0.0824956 15.4837 0.03564 14.7125 0.39498C13.9413 0.75432 13.3046 1.33707 12.8906 2.06249C12.3803 1.59369 11.7034 1.33289 11 1.33407C10.2685 1.33407 9.603 1.61106 9.10938 2.06249ZM19.25 3.99738C19.25 4.70373 18.9603 5.38115 18.4445 5.88062C17.9288 6.38009 17.2293 6.66069 16.5 6.66069C15.7707 6.66069 15.0712 6.38009 14.5555 5.88062C14.0397 5.38115 13.75 4.70373 13.75 3.99738C13.75 3.29103 14.0397 2.6136 14.5555 2.11414C15.0712 1.61467 15.7707 1.33407 16.5 1.33407C17.2293 1.33407 17.9288 1.61467 18.4445 2.11414C18.9603 2.6136 19.25 3.29103 19.25 3.99738Z" fill="white"/>
</svg>
