<svg width="80" height="80" viewBox="0 0 80 80" fill="none" xmlns="http://www.w3.org/2000/svg">
<g clip-path="url(#clip0_14_7249)">
<path d="M16.8 25.6C7.5672 25.6 0 33.144 0 42.352C0 45.92 1.1392 49.236 3.068 51.9616L14.7504 72.1568C16.3864 74.2944 17.4744 73.8888 18.8352 72.0448L31.72 50.1168C31.98 49.6448 32.184 49.144 32.3624 48.632C33.18 46.6393 33.6005 44.506 33.6 42.352C33.6 33.144 26.0352 25.6 16.8 25.6ZM16.8 33.4496C21.7728 33.4496 25.728 37.3944 25.728 42.3528C25.728 47.3112 21.7728 51.2544 16.8 51.2544C11.828 51.2544 7.872 47.3104 7.872 42.3528C7.872 37.3944 11.828 33.4496 16.8 33.4496ZM70.2 0C64.8144 0 60.4 4.4008 60.4 9.7728C60.4 11.8536 61.064 13.788 62.1896 15.3776L69.0048 27.1584C69.9592 28.4048 70.5936 28.168 71.3872 27.0928L78.9032 14.3008C79.0552 14.0264 79.1744 13.7344 79.2776 13.4352C79.7547 12.2731 80.0001 11.029 80 9.7728C80 4.4 75.5872 0 70.2 0ZM70.2 4.5792C73.1008 4.5792 75.408 6.88 75.408 9.7728C75.408 12.6648 73.1008 14.9648 70.2 14.9648C67.3 14.9648 64.992 12.6648 64.992 9.7728C64.992 6.88 67.3 4.5792 70.2 4.5792Z" fill="white"/>
<path fill-rule="evenodd" clip-rule="evenodd" d="M70.5671 29.9297C68.7695 29.9697 66.9671 30.0457 65.1615 30.1793L65.4399 34.6049C67.1743 34.4793 68.9117 34.3984 70.6503 34.3625L70.5671 29.9297ZM60.9871 30.5857C58.2111 30.9305 55.4111 31.4217 52.6431 32.2113L53.6855 36.5001C56.2007 35.7833 58.8071 35.3201 61.4543 34.9913L60.9871 30.5857ZM48.4983 33.6961C47.6689 34.0622 46.8659 34.4853 46.0951 34.9625L46.0919 34.9665L46.0871 34.9681C44.9871 35.6609 43.8279 36.5401 42.8815 37.8177C42.1959 38.7433 41.6351 39.9137 41.5039 41.2977L45.5799 41.7497C45.6103 41.4249 45.7767 40.9961 46.0759 40.5929H46.0775V40.5913C46.5599 39.9385 47.2831 39.3457 48.1431 38.8033L48.1463 38.8017C48.7593 38.4234 49.3976 38.0876 50.0567 37.7969L48.4983 33.6961ZM46.3999 43.7241L43.7575 47.1121C44.3839 47.6849 45.0407 48.1249 45.6751 48.4929L45.6831 48.4969L45.6911 48.5017C47.7967 49.6993 49.9679 50.3753 51.9807 51.0169L53.1375 46.7625C51.1255 46.1209 49.2287 45.5017 47.6031 44.5785C47.1375 44.3081 46.7295 44.0257 46.3999 43.7241ZM57.0679 47.9593L55.9383 52.2209L56.4727 52.3873L57.1287 52.5969C59.2999 53.3033 61.3799 54.0577 63.2391 55.1017L65.1255 51.1657C62.8775 49.9025 60.5439 49.0769 58.2951 48.3457L58.2887 48.3441L57.6151 48.1289L57.0679 47.9593ZM68.9615 54.1193L66.0631 57.2553C66.7479 57.9969 67.2607 58.8889 67.5103 59.8105L67.5119 59.8153L67.5135 59.8225C67.8111 60.8985 67.8119 62.1641 67.5791 63.4425L71.5983 64.3001C71.9263 62.4953 71.9791 60.5137 71.4399 58.5577C70.9703 56.8281 70.0743 55.3257 68.9615 54.1193ZM66.1759 66.1145C65.733 66.5823 65.2435 67.0037 64.7151 67.3721H64.7135C63.2735 68.3849 61.6031 69.1481 59.8287 69.8041L61.1519 73.9993C63.0927 73.2817 65.0855 72.4017 66.9479 71.0913L66.9527 71.0873L66.9551 71.0857C67.7199 70.5501 68.4274 69.937 69.0663 69.2561L66.1759 66.1145ZM56.0639 70.9857C53.4935 71.6769 50.8663 72.2033 48.2071 72.6497L48.8343 77.0329C51.5711 76.5729 54.3191 76.0233 57.0503 75.2889L56.0639 70.9857ZM44.2063 73.2545C41.5295 73.6201 38.8383 73.9185 36.1391 74.1729L36.4927 78.5905C39.2335 78.3329 41.9791 78.0297 44.7207 77.6545L44.2063 73.2545ZM32.0823 74.5209C29.3775 74.7353 26.6663 74.9097 23.9527 75.0569L24.1575 79.4857C26.8975 79.3377 29.6399 79.1609 32.3815 78.9433L32.0823 74.5209ZM19.8751 75.2569C18.2487 75.3329 16.6183 75.3953 14.9839 75.4529L15.1183 79.8857C16.7629 79.8292 18.4072 79.7635 20.0511 79.6889L19.8751 75.2569Z" fill="white"/>
</g>
<defs>
<clipPath id="clip0_14_7249">
<rect width="80" height="80" fill="white"/>
</clipPath>
</defs>
</svg>
