<svg
  width="11"
  height="10"
  viewBox="0 0 11 10"
  fill="none"
  xmlns="http://www.w3.org/2000/svg"
>
<path
    d="M10.2775 4.95645C10.2775 4.04356 9.99825 3.15118 9.47508 2.39215C8.9519 1.63311 8.2083 1.04151 7.33828 0.692166C6.46826 0.34282 5.51092 0.251415 4.58731 0.429511C3.66371 0.607606 2.81533 1.0472 2.14945 1.6927C1.48357 2.33821 1.03009 3.16064 0.846375 4.05599C0.662659 4.95133 0.756937 5.87939 1.11731 6.72278C1.47768 7.56618 2.08796 8.28704 2.87095 8.79421C3.65395 9.30139 4.57451 9.57208 5.51621 9.57208C6.77898 9.57208 7.99004 9.0858 8.88296 8.2202C9.77588 7.3546 10.2775 6.18059 10.2775 4.95645Z"
    fill="#0099B5"
  />
<defs>
</defs>
</svg>
