<svg
  width="11"
  height="10"
  viewBox="0 0 11 10"
  fill="none"
  xmlns="http://www.w3.org/2000/svg"
>
<path
    d="M10.2775 5.29239C10.2775 4.37951 9.99825 3.48712 9.47508 2.72808C8.9519 1.96905 8.2083 1.37745 7.33828 1.0281C6.46826 0.678757 5.51092 0.587353 4.58731 0.765448C3.66371 0.943543 2.81533 1.38314 2.14945 2.02865C1.48357 2.67415 1.03009 3.49658 0.846375 4.39193C0.662659 5.28727 0.756937 6.21532 1.11731 7.05872C1.47768 7.90211 2.08796 8.62298 2.87095 9.13015C3.65395 9.63732 4.57451 9.90803 5.51621 9.90803C6.77898 9.90803 7.99004 9.42174 8.88296 8.55614C9.77588 7.69054 10.2775 6.51653 10.2775 5.29239Z"
    fill="#1EB53A"
  />
<defs>
</defs>
</svg>
