<svg
  width="11"
  height="10"
  viewBox="0 0 11 10"
  fill="none"
  xmlns="http://www.w3.org/2000/svg"
>
<path
    d="M10.2775 5.30607C10.2775 4.39318 9.99825 3.50079 9.47508 2.74176C8.9519 1.98272 8.2083 1.39112 7.33828 1.04178C6.46826 0.692429 5.51092 0.601025 4.58731 0.77912C3.66371 0.957215 2.81533 1.39682 2.14945 2.04232C1.48357 2.68783 1.03009 3.51025 0.846375 4.4056C0.662659 5.30094 0.756937 6.229 1.11731 7.07239C1.47768 7.91579 2.08796 8.63665 2.87095 9.14382C3.65395 9.651 4.57451 9.9217 5.51621 9.9217C6.77898 9.9217 7.99004 9.43542 8.88296 8.56982C9.77588 7.70422 10.2775 6.53021 10.2775 5.30607Z"
    fill="#6C31FF"
  />
<defs>

</defs>
</svg>
