<svg
  width="11"
  height="10"
  viewBox="0 0 11 10"
  fill="none"
  xmlns="http://www.w3.org/2000/svg"
>
<path
    d="M10.2775 4.63224C10.2775 3.71936 9.99825 2.82696 9.47508 2.06793C8.9519 1.30889 8.2083 0.717294 7.33828 0.367947C6.46826 0.0186011 5.51092 -0.0728034 4.58731 0.105292C3.66371 0.283387 2.81533 0.722987 2.14945 1.36849C1.48357 2.014 1.03009 2.83642 0.846375 3.73177C0.662659 4.62711 0.756937 5.55517 1.11731 6.39857C1.47768 7.24196 2.08796 7.96282 2.87095 8.47C3.65395 8.97717 4.57451 9.24788 5.51621 9.24788C6.77898 9.24788 7.99004 8.76158 8.88296 7.89598C9.77588 7.03038 10.2775 5.85638 10.2775 4.63224Z"
    fill="#CDAFFF"
  />
<defs>

</defs>
</svg>
