<svg width="256" height="89" viewBox="0 0 256 89" fill="none" xmlns="http://www.w3.org/2000/svg">
<path d="M5.1155 84.2342C5.10693 84.4241 5.17236 84.61 5.29802 84.7528C5.42369 84.8955 5.59979 84.984 5.78936 84.9997L14.3048 85.4284C14.4948 85.4369 14.6807 85.3716 14.8235 85.2459C14.9664 85.1203 15.0549 84.9442 15.0705 84.7547C15.0791 84.5648 15.0137 84.3789 14.888 84.2361C14.7624 84.0934 14.5862 84.0049 14.3967 83.9892L5.85064 83.5606C5.66583 83.5599 5.48756 83.6289 5.35133 83.7537C5.21509 83.8785 5.1309 84.0501 5.1155 84.2342Z" fill="white"/>
<path d="M13.5698 86.3766C13.2609 87.0728 12.7449 87.6568 12.0921 88.0493C11.4392 88.4418 10.6812 88.6237 9.92128 88.5701C9.16135 88.5166 8.43639 88.2302 7.84507 87.7501C7.25374 87.2699 6.82481 86.6193 6.61662 85.8867L13.5698 86.3766Z" fill="white"/>
<path d="M10.1394 50.6428C12.0867 50.6306 13.9937 51.1968 15.6187 52.2694C17.2437 53.342 18.5134 54.8729 19.267 56.6678C20.0206 58.4627 20.2241 60.4409 19.8517 62.3516C19.4792 64.2623 18.5476 66.0194 17.175 67.4001C15.8024 68.7809 14.0505 69.7231 12.1416 70.1074C10.2326 70.4916 8.25246 70.3006 6.45223 69.5585C4.652 68.8164 3.11274 67.5566 2.0296 65.9389C0.946457 64.3212 0.368206 62.4185 0.368168 60.4719C0.368118 57.8756 1.39563 55.3848 3.22635 53.5432C5.05708 51.7016 7.54231 50.6589 10.1394 50.6428ZM14.7341 62.8909H16.235V57.073H14.7341V62.8909ZM10.6601 61.2067C10.6331 61.543 10.6331 61.8809 10.6601 62.2172C10.7065 62.3847 10.8026 62.5342 10.9358 62.6459L11.3646 62.8602H14.0602V57.073H12.9575C12.4699 57.0031 11.9748 57.0031 11.4872 57.073C11.2659 57.1116 11.0623 57.2187 10.9052 57.3792C10.7812 57.5295 10.697 57.7085 10.6601 57.8998C10.6331 58.2667 10.6331 58.6351 10.6601 59.0021V61.2067ZM7.59706 62.8909H10.2007V57.073H7.68895V58.2366H8.69977V59.3389H7.75022V60.4106H8.69977V61.6967H7.59706V62.8909ZM5.23847 62.8909V61.8804H5.75921V62.8909H7.32137L6.5556 57.1343H4.38081L3.52315 62.8909H5.23847Z" fill="white"/>
<path d="M0.367731 60.7773C0.367731 60.2874 0.67404 59.9506 1.1335 60.0425L3.92093 60.6549L3.58398 62.8289H5.11553V61.8184H5.63625V62.8289H7.19843L6.98401 61.3285L8.39303 61.6347H7.29032V62.7677H9.89394V61.8797H10.4759C10.4759 62.0328 10.4759 62.1553 10.4759 62.2165C10.5222 62.384 10.6184 62.5335 10.7516 62.6452L11.1804 62.8595H13.876V61.1448H14.4886V62.982H15.9895V60.8386L18.8688 60.2262C18.9691 60.2027 19.0735 60.2026 19.1739 60.2258C19.2742 60.249 19.368 60.2949 19.4478 60.3599C19.5277 60.425 19.5916 60.5075 19.6346 60.6011C19.6776 60.6947 19.6985 60.7969 19.6958 60.8998C19.7867 62.2686 19.4667 63.6333 18.7769 64.8192C17.1991 67.3974 16.2641 70.3168 16.0508 73.3316C15.9941 74.9835 15.7683 76.6251 15.3769 78.2309C15.2862 78.4682 15.1273 78.6734 14.9202 78.8205C14.713 78.9676 14.4669 79.0501 14.2129 79.0576H5.6975C5.45116 79.0531 5.21443 78.9613 5.02936 78.7987C4.84429 78.6362 4.72289 78.4133 4.6867 78.1696L3.30829 69.9328C3.18127 69.3581 3.00712 68.7948 2.78757 68.2487C2.78757 68.2487 1.65423 65.8909 1.01098 64.8192C0.368294 63.5758 0.142773 62.1587 0.367731 60.7773Z" fill="white"/>
<path d="M10.507 48.8063C9.86903 48.8758 9.27926 49.1783 8.85078 49.6559C8.42231 50.1334 8.18534 50.7523 8.18534 51.3937C8.18534 52.0352 8.42231 52.6541 8.85078 53.1316C9.27926 53.6091 9.86903 53.9117 10.507 53.9811C10.8705 54.0207 11.2383 53.9833 11.5865 53.8714C11.9346 53.7594 12.2552 53.5753 12.5274 53.3312C12.7997 53.0871 13.0174 52.7884 13.1665 52.4546C13.3155 52.1208 13.3926 51.7593 13.3926 51.3937C13.3926 51.0282 13.3155 50.6667 13.1665 50.3329C13.0174 49.999 12.7997 49.7003 12.5274 49.4562C12.2552 49.2121 11.9346 49.0281 11.5865 48.9161C11.2383 48.8041 10.8705 48.7667 10.507 48.8063Z" fill="white"/>
<path d="M119.552 15.9497H137.931L142.679 11.2342H198.641L203.665 6.2125H210.986L215.58 10.8055H255.4V9.76445H216.009L211.414 5.17141H203.236L198.213 10.1931H142.158L137.533 14.8168H119.828L114.07 9.09081H106.167L97.2531 0.210938L14.0903 50.9487C13.9707 50.0451 13.5249 49.2163 12.8366 48.6185C12.1483 48.0207 11.2651 47.6951 10.3533 47.7029C9.3541 47.7029 8.3958 48.0997 7.68924 48.806C6.98268 49.5124 6.58574 50.4703 6.58574 51.4692C6.58574 52.4681 6.98268 53.4261 7.68924 54.1324C8.3958 54.8387 9.3541 55.2355 10.3533 55.2355C11.2651 55.2434 12.1483 54.9177 12.8366 54.3199C13.5249 53.7221 13.9707 52.8934 14.0903 51.9898L96.7937 1.25203L105.707 10.1319H113.702L119.552 15.9497ZM10.5065 48.744C11.0725 48.738 11.6274 48.9006 12.1005 49.2112C12.5736 49.5217 12.9435 49.9661 13.1629 50.4877C13.3823 51.0093 13.4413 51.5844 13.3324 52.1396C13.2234 52.6949 12.9515 53.2051 12.5513 53.6052C12.151 54.0052 11.6406 54.2771 11.0852 54.386C10.5298 54.4949 9.9545 54.4359 9.43274 54.2166C8.91098 53.9973 8.46642 53.6275 8.15575 53.1546C7.84506 52.6816 7.68239 52.1269 7.68845 51.5611C7.66762 51.1785 7.7251 50.7956 7.85736 50.436C7.98962 50.0763 8.19389 49.7474 8.45767 49.4694C8.72147 49.1914 9.0392 48.9701 9.39148 48.819C9.74376 48.668 10.1232 48.5904 10.5065 48.5909V48.744Z" fill="#F9F9F9"/>
</svg>
