<svg width="222" height="40" viewBox="0 0 222 40" fill="none" xmlns="http://www.w3.org/2000/svg">
<path d="M43.4462 27.8296V27.6152V27.8602C43.4563 27.9313 43.4563 28.0034 43.4462 28.0745V28.5032V28.7788V29.0238L43.1705 29.6974V29.8811V29.5137L42.9255 30.0955V30.2792V30.5854V30.3711C42.942 30.4519 42.942 30.5352 42.9255 30.616L42.7417 30.9528L42.5579 31.3203V31.6265V31.9021L41.0264 33.3412V33.0963L41.639 32.0858C42.2125 31.0436 42.7041 29.9584 43.1093 28.84L43.3849 27.9827V27.7377C43.4092 27.7656 43.4298 27.7964 43.4462 27.8296V27.8296ZM41.2102 32.8513C41.2014 32.9122 41.2014 32.9741 41.2102 33.035C41.2014 32.9741 41.2014 32.9122 41.2102 32.8513ZM41.5777 32.1164C41.5457 32.2269 41.4938 32.3307 41.4246 32.4226L41.6083 32.1164H41.5777ZM41.9759 31.3815V31.6571L42.1597 31.3203L41.9759 31.3815ZM41.9759 31.1059V30.9222V31.1059ZM41.9759 30.861V31.1059V30.861ZM42.3129 30.0955C42.3238 30.1768 42.3238 30.2591 42.3129 30.3404C42.3755 30.2338 42.4268 30.1209 42.466 30.0036L42.3129 30.0955ZM42.6804 29.1462L42.4354 29.7586C42.4354 29.5137 42.6192 29.2994 42.6804 29.085V29.1462ZM42.9867 28.3195L42.803 28.7788C42.8073 28.84 42.8073 28.9014 42.803 28.9625V28.7176L42.9867 28.2583V28.3195ZM42.9867 28.3195C42.9867 28.3195 43.3543 28.1358 43.3237 28.1664L42.9867 28.3195Z" fill="white"/>
<path d="M32.1738 1.58936L32.2046 1.62012V1.58936L32.1431 1.55859L32.1738 1.58936Z" fill="white"/>
<path d="M34.9917 2.84375L35.0225 2.87451L34.9917 2.84375Z" fill="white"/>
<path d="M32.3882 1.2207H32.4189V1.25147L32.3882 1.2207Z" fill="white"/>
<path d="M32.7558 1.4043H32.5107L32.817 1.58801C32.817 1.58801 32.7864 1.43492 32.7558 1.4043Z" fill="white"/>
<path d="M20.8096 2.04883C20.8096 2.04883 20.8403 1.9873 20.8096 2.04883V2.04883Z" fill="white"/>
<path d="M21.0244 2.04834V2.01758H20.9937L21.0244 2.04834Z" fill="white"/>
<path d="M20.8711 1.3125H21.1774C21.0771 1.33984 20.9714 1.33984 20.8711 1.3125V1.3125Z" fill="white"/>
<path d="M21.9736 1.09961C21.9736 1.09961 22.0044 1.13037 21.9736 1.09961V1.09961Z" fill="white"/>
<path d="M22.2803 0.976082L22.3111 0.945312H22.2803V0.976082Z" fill="white"/>
<path d="M22.2495 0.761719L22.3111 0.792476L22.2495 0.761719Z" fill="white"/>
<path d="M22.5864 0.761719L22.6172 0.792476L22.5864 0.761719Z" fill="white"/>
<path d="M39.3105 7.37695C39.3105 7.37695 39.3413 7.34619 39.3105 7.37695V7.37695Z" fill="white"/>
<path d="M40.2295 8.47803H40.2603V8.50879V8.47803L40.2295 8.44727V8.47803Z" fill="white"/>
<path d="M39.8013 7.86671V7.83594H39.7705L39.8013 7.86671Z" fill="white"/>
<path d="M40.8115 9.39796H40.8423L40.8115 9.36719V9.39796Z" fill="white"/>
<path d="M40.8731 9.42724L40.8423 9.39648V9.42724H40.8731Z" fill="white"/>
<path d="M12.7538 1.19141C12.6377 1.26479 12.5146 1.32633 12.3862 1.37512V1.37512C12.3862 1.37512 12.3862 1.37512 12.5394 1.37512H12.8457H12.6619L12.7538 1.19141Z" fill="white"/>
<path d="M14.1325 0.730612H14.2856C14.2856 0.730612 14.1325 0.730612 14.0406 0.730612H14.2856H14.0712H13.4586H13.6424H13.1523H13.4892H13.673H13.9487H14.3469H14.1631H13.6424H13.4586H13.2135H12.6316H12.4478H12.264H11.9577H11.7433H11.5595L11.2532 0.914326H11.4676H11.3144H11.1H11.2838C11.2838 0.914326 11.1 0.914326 11.0388 0.914326H11.2838L11.1 1.09804L11.3757 0.914326V1.06744H11.1613V1.25115H10.3955H10.6099V1.03681V0.853096H10.8856V1.00618H11.8964H12.2027H12.4478H12.6622H12.8766H13.0604H12.8766H13.1217H13.3054H13.4586H16.5217H15.7559H15.6028H15.0514H15.2352H14.837L14.1325 0.730612ZM14.4082 1.03681H14.255H14.4082ZM14.2244 0.546875C14.2244 0.546875 14.2856 0.669365 14.2856 0.699986L14.2244 0.546875Z" fill="white"/>
<path d="M10.4565 2.69093H10.4873L10.5181 2.66016L10.4565 2.69093Z" fill="white"/>
<path d="M10.8555 2.50781H10.6401C10.6401 2.50781 10.8248 2.53858 10.8555 2.50781Z" fill="white"/>
<path d="M10.3954 2.875C10.3954 2.875 10.0278 2.87502 9.99717 3.05874C9.96654 3.24246 10.3954 2.93624 10.3954 2.875Z" fill="white"/>
<path d="M10.916 2.50781C10.916 2.50781 10.8545 2.56934 10.916 2.50781V2.50781Z" fill="white"/>
<path d="M10.7324 2.66016H10.7632L10.7324 2.69093V2.66016Z" fill="white"/>
<path d="M11.7432 2.14062L11.7124 2.17138L11.7432 2.14062Z" fill="white"/>
<path d="M11.3447 2.56836C11.3447 2.56836 11.2832 2.59912 11.3447 2.56836V2.56836Z" fill="white"/>
<path d="M9.62939 3.82422C9.62939 3.82422 9.69094 3.85498 9.62939 3.82422V3.82422Z" fill="white"/>
<path d="M10.855 2.99755V2.9668L10.8242 2.99755H10.855Z" fill="white"/>
<path d="M9.4458 3.51904L9.47657 3.48828H9.4458V3.51904Z" fill="white"/>
<path d="M8.98634 4.2832C8.98634 4.2832 8.92479 4.31397 8.98634 4.2832V4.2832Z" fill="white"/>
<path d="M10.2114 2.23193L10.2422 2.20117L10.2114 2.23193Z" fill="white"/>
<path d="M10.8242 1.98779L10.855 1.95703H10.8858H10.855L10.8242 1.98779Z" fill="white"/>
<path d="M9.10879 3.39453H9.32321L8.95563 3.57827C8.95563 3.57827 8.80247 3.57827 8.74121 3.57827H8.925L9.10879 3.39453Z" fill="white"/>
<path d="M11.3755 1.80273H11.5899H11.8962L11.4061 2.0477L11.3755 1.80273Z" fill="white"/>
<path d="M8.61844 3.88477C8.51141 3.91953 8.41604 3.98309 8.34277 4.06848L8.61844 3.88477Z" fill="white"/>
<path d="M9.47656 3.88535H10.3955H10.6405H10.9162C11.1613 3.88535 11.1613 3.88535 11.2225 3.88535H11.4369H11.1306H11.2838H11.5288C11.5288 3.88535 11.5288 3.88535 11.3144 3.88535C11.5288 3.88535 11.5288 3.88535 11.5901 3.88535C11.5901 3.88535 11.5901 3.88535 11.4063 3.88535C11.4063 3.88535 11.5901 3.88535 11.6207 3.88535H11.4676H11.3144H11.4982C11.4982 3.88535 11.7739 3.88535 11.8658 3.73224H11.4369L11.1 3.91598C11.1 3.91598 11.1 3.91598 11.2531 3.91598H11.0694C10.9867 4.0049 10.8805 4.06859 10.7631 4.0997V4.0997H10.9162C10.7769 4.11911 10.6478 4.18364 10.5486 4.28341C10.5486 4.28341 10.5486 4.28341 10.5486 4.28341H10.3342C10.3342 4.28341 10.3342 4.28341 10.1504 4.28341H10.3036C10.243 4.27104 10.1804 4.27104 10.1198 4.28341V4.28341C10.1198 4.28341 10.1198 4.28341 10.1198 4.52838H10.273C10.2614 4.46768 10.2614 4.40536 10.273 4.34466L9.47656 3.88535ZM11.1919 2.10938H11.0081H11.1919Z" fill="white"/>
<path d="M11.7432 2.0171L11.7739 1.98633L11.7432 2.0171Z" fill="white"/>
<path d="M8.9253 3.85547L8.89453 3.88624L8.9253 3.85547Z" fill="white"/>
<path d="M9.87451 2.20263L10.0899 2.04883L9.87451 2.20263Z" fill="white"/>
<path d="M11.1001 1.43555H11.1309L11.0693 1.4663L11.1001 1.43555Z" fill="white"/>
<path d="M11.1303 1.80273H11.314C10.8546 2.0477 10.8546 2.01708 10.8546 2.0477H11.0077H11.2221H11.0077H10.7933H10.6095C10.6095 2.0477 10.3339 2.23142 10.3032 2.23142H10.487L11.1303 1.80273Z" fill="white"/>
<path d="M10.1812 2.14062L10.1504 2.17138L10.1812 2.14062Z" fill="white"/>
<path d="M9.87452 2.35352L9.84375 2.38427L9.87452 2.35352Z" fill="white"/>
<path d="M1.45083 12.184C1.44529 12.1024 1.44529 12.0206 1.45083 11.939V11.939V11.7553C1.43501 11.6848 1.43501 11.6116 1.45083 11.541V11.541V11.6941C1.4957 11.589 1.54684 11.4868 1.60399 11.3879V11.3879C1.61488 11.4486 1.61488 11.5109 1.60399 11.5716C1.62049 11.4908 1.62049 11.4075 1.60399 11.3266V11.4798V11.296V11.051V11.2348V11.0817C1.68492 10.932 1.77707 10.7887 1.87966 10.653C1.80064 10.7546 1.73858 10.8684 1.69588 10.9898V10.9898L1.87966 10.7449C1.87966 10.7449 1.87966 10.7449 1.87966 10.5305C1.87966 10.5305 1.87966 10.5305 2.12471 10.2549C2.12471 10.2549 2.12471 10.2549 2.12471 10.1018H2.3085H2.09408L1.91029 10.3468L2.09408 10.1937H2.46165C2.46165 10.1937 2.46165 10.1937 2.6148 9.88749L2.82921 9.70377H3.07427V9.55066C3.07427 9.55066 2.73732 9.55067 2.40038 9.88749C2.32047 9.97312 2.22741 10.0455 2.12471 10.1018L2.55354 9.70377C2.6202 9.6168 2.70351 9.54394 2.79859 9.48943C2.79859 9.48943 3.22742 9.18321 3.38057 9.3057H3.59499H3.84004L4.11572 9.12198H3.96257H4.17698H3.99319H3.77878H3.93193H3.74815C3.96257 9.12198 4.02383 9.12198 4.11572 8.87701L4.3914 8.6933H4.57517C4.57517 8.6933 4.2995 8.87701 4.14634 8.96887C4.00253 9.05566 3.86896 9.1584 3.74815 9.27509C3.41121 9.64254 2.92111 9.82626 2.55354 10.1631L2.36976 10.3468L2.18597 10.5611C2.18597 10.5611 2.36975 10.3162 2.49227 10.2243L2.85985 9.88749L3.13553 9.55066C3.31932 9.55066 3.53373 9.33632 3.62562 9.12198H3.84004H4.02382H4.20761H4.51392C4.51392 9.12198 4.51392 9.12199 4.51392 9.27509C4.65734 9.22554 4.79179 9.15317 4.91212 9.06075L5.31032 8.84641H5.49411C5.64326 8.79504 5.77921 8.71139 5.8923 8.60144H10.395L9.90495 8.81578C9.90495 8.81578 9.90496 8.60144 10.2419 8.60144C10.3452 8.55942 10.439 8.49693 10.5176 8.41773H10.3644H10.5788H10.8239H11.0996H10.8851H10.7014H10.395H10.6095H10.7933H10.0887H10.2419C10.3421 8.32877 10.4558 8.25639 10.5788 8.20337V8.20337H10.9158L9.99684 8.78516L8.98603 9.48943L8.61845 9.79563C7.66889 10.5918 7.20944 10.9898 6.68871 11.5104L6.4743 11.6941L5.67789 12.5515C5.57521 12.7017 5.46264 12.8449 5.34095 12.9801V13.1332V12.9495C5.01295 13.3623 4.70625 13.7915 4.42202 14.2356C4.52044 14.0631 4.63315 13.8993 4.75896 13.7456V13.7456V13.9294V13.7763C4.54455 14.0825 4.2995 14.2968 4.11572 14.603L4.42202 14.1743C4.42202 14.1743 4.42202 14.1743 4.63644 13.8681L4.82023 13.5925L4.60581 13.8375C4.52717 13.9344 4.45552 14.0367 4.3914 14.1437V14.3274L3.56436 15.7053C3.25805 16.2871 2.89048 17.022 2.6148 17.665L1.45083 12.184ZM4.45266 8.05028L4.66707 7.83594C4.66707 7.83594 4.66707 7.83593 4.36076 8.11151L4.45266 8.05028ZM3.10489 9.06075V8.90764C3.11679 8.86831 3.13648 8.83179 3.16279 8.80023C3.1891 8.76866 3.22149 8.74271 3.25805 8.72393V8.72393L3.10489 8.87701C2.95174 9.06074 2.95175 9.06075 2.92112 9.06075C2.89048 9.06075 2.92112 9.06075 2.92112 9.06075C2.92112 9.06075 2.7067 9.27509 2.64544 9.36695L3.10489 9.06075Z" fill="white"/>
<path d="M42.4964 19.808L42.4658 19.7774L42.4352 19.7162H42.4045L42.3433 19.6855L42.3739 19.8999V19.9305H42.4045L42.4658 19.9917V20.0224L42.4964 20.0836L42.527 20.0224L42.5577 19.9917L42.5883 19.9305L42.4964 19.808Z" fill="white"/>
<path d="M44.3955 22.8706C44.3786 22.8002 44.3786 22.7267 44.3955 22.6563L37.8712 22.9625V19.8086V19.5943L37.718 19.2574L37.473 18.3389V18.002C37.4904 17.8392 37.4904 17.6749 37.473 17.5121C37.3745 17.3631 37.2863 17.2076 37.2089 17.0467C37.2183 17.1099 37.2144 17.1745 37.1973 17.2365V17.0222V16.9916C37.2067 16.8897 37.2067 16.7872 37.1973 16.6854V16.471V16.2567V15.9199V15.3993V15.0931V14.9094V14.7257V14.4195L36.9522 13.9295V14.1132V14.3582V14.7563L36.7684 14.3582V14.0214L36.554 13.654L36.3396 13.409L36.5234 13.807L36.1864 13.2253C36.0165 13.0695 35.9251 12.9858 35.876 12.9257L36.0027 13.3477L35.9018 13.1208L35.7576 12.9191V13.3784C35.5126 13.2253 35.5126 12.8885 35.5126 12.8885V13.0415V13.2253L35.6657 13.4396V13.8377C35.677 13.9189 35.677 14.0014 35.6657 14.0826C35.7111 14.2636 35.7111 14.4529 35.6657 14.6338V14.8481V15.0625V15.3381V15.5218C35.6696 15.5932 35.6696 15.6647 35.6657 15.7361C35.7468 15.935 35.8388 16.1292 35.9414 16.3179C36.0138 16.5366 36.0138 16.7728 35.9414 16.9916C35.9547 17.0521 35.9547 17.1147 35.9414 17.1753V17.4202H35.7883V17.3896C35.7761 17.2879 35.7761 17.1851 35.7883 17.0834L35.6045 16.7466L35.3594 16.4404C35.1984 16.2338 35.0646 16.0074 34.9612 15.7667C34.7598 15.4926 34.5757 15.2063 34.4099 14.9094V14.6338V14.3582C34.1954 14.6032 34.3486 14.5726 34.1954 14.6032C34.0423 14.6338 33.3378 14.0826 33.3378 14.0826H33.154H33.0008H32.7864H32.4495V14.2357H32.2657H32.0819H30.6116C30.4585 14.1132 30.4585 13.8377 30.2441 13.8377H29.999H29.8152C29.7912 13.8487 29.7651 13.8544 29.7386 13.8544C29.7122 13.8544 29.6861 13.8487 29.6621 13.8377H29.5089H29.172H29.0188C28.9235 13.7971 28.8395 13.734 28.7738 13.654L28.5287 13.4396H28.3449L28.5594 13.7458L28.7432 13.9602V13.654C28.8963 13.7764 28.8963 14.052 28.8963 14.052H29.0801H29.2332V16.0117V16.2567H29.6008H29.8765C29.8771 16.2537 29.8777 16.2508 29.8783 16.2479C29.8777 16.2406 29.8771 16.2333 29.8765 16.226V16.0423C29.8908 16.1101 29.8913 16.18 29.8783 16.2479C29.8837 16.3222 29.8831 16.3968 29.8765 16.471C29.9294 16.5627 30.0052 16.6391 30.0965 16.6927C30.1877 16.7464 30.2913 16.7755 30.3972 16.7772H30.8567H31.0711C31.0821 16.8012 31.0878 16.8273 31.0878 16.8538C31.0878 16.8802 31.0821 16.9063 31.0711 16.9303C31.0861 17.0831 31.0861 17.2369 31.0711 17.3896V17.6346V17.7877V17.9408H30.8567C30.8567 18.0633 31.1017 18.3389 30.8567 18.3389H30.6116C30.6279 18.3722 30.6363 18.4089 30.6363 18.446C30.6363 18.4831 30.6279 18.5198 30.6116 18.5532C30.4585 18.5838 30.2134 18.7675 30.2134 18.7675L30.0296 18.9819L29.5702 19.2574C29.2332 19.3493 29.2332 19.6861 29.2332 19.6861V19.8699H29.0495C28.9702 19.8418 28.8837 19.8418 28.8044 19.8699H28.6206V20.0842C28.7345 20.1218 28.8318 20.1975 28.8963 20.2985C28.9882 20.4516 29.0494 20.4516 29.2026 20.4516H29.2026H29.4783L29.6927 20.2373H29.6314L29.9684 19.9923H30.2134C30.1973 20.0203 30.1888 20.052 30.1888 20.0842C30.1888 20.1165 30.1973 20.1481 30.2134 20.1761V24.1873C30.2778 24.4695 30.2778 24.7625 30.2134 25.0447V25.2284C30.1645 25.7865 30.0302 26.3338 29.8152 26.8513C29.4477 27.6474 28.8044 28.2904 28.4062 29.0866V29.3009C28.4436 29.4101 28.4436 29.5285 28.4062 29.6377V29.9133V30.097L28.59 30.2501V30.5257V30.5563H28.7738V30.7707V30.985V31.1993L23.7809 29.3928H23.4134C23.444 29.454 23.3521 29.6071 23.1683 29.8521V30.0664H22.9845L22.7395 30.2501L22.4945 30.5563V30.74H22.3413C22.2522 30.825 22.1702 30.9172 22.0962 31.0156V31.2606C22.1002 31.332 22.1002 31.4035 22.0962 31.4749C22.1881 31.7505 22.0043 31.7505 21.6368 32.0261C21.2692 32.3017 21.2692 32.3017 21.2692 32.3017C21.1773 32.9753 20.9935 32.9753 20.9935 32.9753C20.9039 33.0447 20.8394 33.1415 20.8098 33.2509C20.4942 33.8059 20.0405 34.27 19.4926 34.5982H19.3088C19.2176 34.5828 19.1244 34.5828 19.0332 34.5982H18.7269H18.4512H18.2368C18.053 34.4145 18.053 34.4145 18.053 34.4145V34.2307V33.9858C17.8186 33.748 17.6035 33.4921 17.4097 33.2203C17.2431 33.1401 17.0884 33.037 16.9503 32.9141C16.7665 32.7916 16.7665 32.6079 16.7665 32.6079V32.3017C15.9701 31.3831 15.9701 31.3831 15.9701 31.3831C15.8185 31.2829 15.7094 31.1302 15.6638 30.9544C15.678 30.8528 15.678 30.7498 15.6638 30.6482C15.6484 30.5262 15.6484 30.4028 15.6638 30.2808V30.0664C15.7557 29.7602 15.7557 29.7602 15.3881 29.1478V28.9335C15.3246 28.7904 15.2422 28.6565 15.143 28.5354C15.0818 28.4129 14.898 28.2598 14.898 28.2598C14.881 28.1997 14.881 28.1361 14.898 28.0761H14.8061C14.7448 27.9536 14.561 27.8005 14.4998 27.7699C14.4385 27.7393 14.4079 27.7086 14.2547 27.5249L13.8872 27.2493L13.6115 26.9738H13.7953L13.5502 26.2695L13.8565 26.7594V26.5145V26.3307V26.3001V23.6361V23.3299H13.4583H13.2439V23.3912H12.9682C12.8764 23.2075 12.7232 23.2075 12.7232 23.2075H12.0493H11.8349L11.3142 23.5137H11.0691H10.916H10.6097H10.334H10.0889C9.9874 23.5287 9.88417 23.5287 9.78263 23.5137L9.47633 23.2993C9.20065 23.2075 9.20065 22.9625 9.20065 22.9625L8.86371 22.7482H8.89433V22.5338V22.3501V22.1664H8.71055V22.0133V21.952V21.6152C8.72871 21.5243 8.72871 21.4306 8.71055 21.3396C8.92497 21.2784 8.92497 21.1559 8.92497 20.8803V20.1761V17.2365L8.86371 17.3054L8.67992 17.5121L8.86371 17.114V16.9609C8.88866 16.7611 8.94017 16.5654 9.01686 16.3792C9.38443 15.6749 9.32316 15.7361 9.38442 15.6749C9.44569 15.6136 9.53758 15.4299 9.62948 15.1543C9.72137 14.8788 10.0889 14.695 10.0889 14.4195H10.4259C10.5484 14.3582 10.7322 14.1439 10.7322 14.1439L10.9466 13.8377V13.6233C11.0001 13.4331 11.0719 13.2485 11.161 13.0722C11.2507 12.9361 11.3786 12.8296 11.5286 12.766C11.743 12.6435 11.8349 12.5822 12.0799 12.0311V11.878V11.6636V11.4187V11.1737V10.99H12.2944V8.08108H11.9268L11.6817 8.26479L11.8655 8.08108V7.86674L12.0493 7.71363H12.1412H12.3556H13.2439V7.49929V7.43803C13.235 7.3669 13.233 7.29511 13.2379 7.22369C13.2394 7.20324 13.2414 7.18283 13.2439 7.16246V7.22369H13.5809H13.7646V7.00935H13.5502C13.5262 7.02036 13.5001 7.02608 13.4737 7.02608C13.4472 7.02608 13.4211 7.02036 13.3971 7.00935H13.4583L15.69 3.70238H15.6638H15.48V3.54927H15.0818L14.7448 3.76361L14.9899 3.51865H15.1737L15.3268 3.3043H15.48V3.51865V3.54927H15.6331L15.8169 3.33493C16.0007 3.12059 15.8169 3.33494 15.8169 3.15122H16.062L15.69 3.70238H16.062L16.2457 3.42679H16.5214V3.24307C16.4976 3.18415 16.4976 3.11828 16.5214 3.05936V2.81439H16.8277H17.1034L16.9196 2.63066H16.9503H17.134H17.471H17.6548H17.6854H17.8079H18.053H18.298H18.5124H18.6656H19.5539H19.707C19.8887 2.59082 20.0768 2.59082 20.2584 2.63066C20.1665 2.81438 19.7989 2.81439 19.5845 2.81439H19.6151H19.8602H20.1052H20.3197C20.39 2.83254 20.4638 2.83254 20.5341 2.81439L20.7179 2.63066H20.7485H20.9323H21.1467H21.3917H21.5449H21.7899H21.9737H22.1269H22.1575H22.28H22.3719H22.617H22.7701C22.8088 2.64752 22.8505 2.65624 22.8927 2.65624C22.9348 2.65624 22.9765 2.64752 23.0152 2.63066H23.1683H23.3521C23.3215 2.5388 22.8927 2.20197 22.9845 2.20197H22.862H22.617H22.3107V2.01826H22.5251H22.6476H22.7089H22.862H22.8927H22.9845H23.1683H23.4134H24.2404H24.6692C24.7167 2.04245 24.7691 2.05508 24.8224 2.05508C24.8756 2.05508 24.9281 2.04245 24.9755 2.01826H25.6801C25.7286 1.99805 25.7806 1.98763 25.8332 1.98763C25.8858 1.98763 25.9378 1.99805 25.9864 2.01826H26.1089H26.1395H26.5071H26.6909C26.8102 1.97857 26.9391 1.97857 27.0584 2.01826C27.1478 2.04859 27.2447 2.04859 27.3341 2.01826H27.5485H29.0801H29.2639H30.0296H30.7342H30.8873H31.0711H31.2242H31.408H31.8062H32.0207L32.4495 2.2326L32.7558 2.41632H32.9702L32.0207 1.98763H31.8062L31.3774 1.80392H31.3161H31.1936H31.163C31.0817 1.81486 30.9993 1.81486 30.9179 1.80392H31.163H31.1936H31.3161H31.3774H31.4999H31.5612H31.745C31.7816 1.79872 31.8185 1.7956 31.8554 1.79457C31.8785 1.78453 31.9034 1.7793 31.9288 1.7793C31.961 1.7793 31.9927 1.78779 32.0207 1.80392H32.2351C32.3572 1.81783 32.4805 1.81783 32.6026 1.80392L33.0958 2.5082H33.2765H33.5522L34.2873 2.845L35.0531 3.3043H35.1827L35.1017 3.20778C34.7338 2.94958 34.3492 2.71588 33.9504 2.5082L33.399 2.26323H33.6135L34.0729 2.5082L34.7468 2.96748H34.9L35.1017 3.20778C35.147 3.23959 35.1921 3.27176 35.2369 3.3043H35.1827L36.3396 4.68223L36.7585 5.04859L36.6766 4.86594L36.9829 5.08028V4.86594L37.2056 5.11091H37.2185L36.9829 4.80471C37.0095 4.8249 37.0351 4.84646 37.0594 4.86929L37.4936 5.23552C37.664 5.34967 37.8215 5.48241 37.963 5.63145L37.4936 5.23552C37.4274 5.19113 37.3592 5.14955 37.2892 5.11091H37.2185L37.2892 5.20277L37.2056 5.11091H37.0441H36.8297L36.7585 5.04859L37.0747 5.75393C37.2892 5.84579 37.2892 6.0295 37.2892 6.0295C37.369 6.1284 37.4752 6.20271 37.5955 6.24384C37.7486 6.30509 37.963 6.45819 37.963 6.45819L37.7793 6.21324H37.963L41.0568 12.2148C41.3018 12.4904 41.0261 12.3985 41.3018 12.4904C41.5775 12.5822 41.7 13.0109 41.9757 13.0109C42.0827 13.0457 42.1781 13.1093 42.2514 13.1947V13.3784V13.5621V13.7458V13.8989C42.2332 13.9692 42.2332 14.043 42.2514 14.1132H42.0982C42.1091 14.174 42.1091 14.2362 42.0982 14.297V14.3888V14.542V14.6644C42.1487 14.6537 42.2009 14.6537 42.2514 14.6644L42.4352 14.8175L42.6496 15.2462V15.5218V15.6749V15.8892V16.073V16.2873V16.5629L42.4352 16.1648V16.073C42.4179 16.2358 42.4179 16.4 42.4352 16.5629V16.8997V17.114L43.9667 18.3082V18.5226C44.1002 18.7388 44.1936 18.9774 44.2424 19.2268V19.4106V19.7168C44.3259 19.857 44.3782 20.0137 44.3955 20.1761V21.2784C44.41 21.3284 44.41 21.3815 44.3955 21.4315V21.4621V21.6764V21.8296V21.952V22.0133V22.2582V22.6563V22.6869V22.8706Z" fill="white"/>
<path d="M20.4422 34.9656C20.4422 34.9656 20.4422 35.18 20.4115 35.1187L20.4422 34.9656Z" fill="white"/>
<path d="M26.4152 33.4959C26.4245 33.4247 26.4245 33.3527 26.4152 33.2815V33.4959Z" fill="white"/>
<path d="M22.7137 35.432C22.6767 35.4003 22.6332 35.377 22.5863 35.3637L22.3719 35.6393C22.5087 35.5849 22.6537 35.5539 22.8008 35.5474C22.7804 35.5031 22.7508 35.4637 22.7137 35.432Z" fill="white"/>
<path d="M11.8655 24.0036C11.86 24.0852 11.86 24.167 11.8655 24.2486H12.0187C12.0493 24.1567 11.8655 24.0036 11.8655 24.0036Z" fill="white"/>
<path d="M43.4155 22.8394L43.4463 22.8701L43.4771 22.7163L43.4463 22.6855L43.4155 22.8394Z" fill="white"/>
<path d="M42.8335 20.4519C42.8382 20.513 42.8382 20.5744 42.8335 20.6356V20.6356V20.3906V20.4519Z" fill="white"/>
<path d="M42.6807 19.9619L42.6499 19.9004L42.6191 20.0542L42.6499 20.085L42.6807 19.9619Z" fill="white"/>
<path d="M42.9558 21.0634V20.9716V20.941V20.9104V20.8797L42.9252 20.8185H42.9558V20.7266V20.6348L42.9252 20.6654V20.7266V20.7572L42.8945 20.696V20.7879V20.8491V20.9104V21.0022V21.0328V21.1247H42.9252L42.9558 21.0634Z" fill="white"/>
<path d="M43.1089 21.4299C43.127 21.3389 43.127 21.2453 43.1089 21.1543V21.338V21.4299Z" fill="white"/>
<path d="M43.2314 21.7671L43.2008 21.6753L43.1395 21.4609V21.4915V21.5222H43.1089H43.1395L43.1089 21.5834V21.6447L43.1395 21.7365V21.7059L43.1701 21.859V21.9508L43.2008 21.9202L43.2314 22.0427V22.0733L43.262 22.0121V21.9815V21.9508V21.9202V21.859V21.8284L43.2314 21.7671Z" fill="white"/>
<path d="M31.1016 19.4092V19.5015H31.1631V19.4399V19.3477H31.1016V19.4092Z" fill="white"/>
<path d="M31.592 19.0125H31.4082V19.2574H31.592C31.7758 19.2574 31.8064 19.2574 31.8064 19.0431C31.8064 19.0431 31.6532 18.9819 31.592 19.0125Z" fill="white"/>
<path d="M31.6532 29.6992V29.8829C31.6532 29.8829 31.6532 30.0973 31.6532 30.1891V30.3422H31.4694V30.526C31.4694 30.526 31.4694 30.526 31.4694 30.7709V30.924C31.4795 30.9951 31.4795 31.0673 31.4694 31.1384C31.4694 31.1384 31.4694 31.1384 31.4694 31.3221V31.5058C31.4472 31.586 31.4472 31.6706 31.4694 31.7508V31.7508C31.4694 31.7508 31.4694 31.7508 31.4694 31.9651C31.4694 31.9651 31.4694 31.9651 31.4694 32.2407C31.4446 32.3309 31.4446 32.4261 31.4694 32.5163C31.4694 32.5163 31.4694 32.7 31.6532 32.7919H31.9595C32.0791 32.7493 32.1849 32.6753 32.2658 32.5775V32.5775C32.4496 32.1488 32.4496 32.1488 32.8172 31.1077V32.4244C32.9146 32.1667 32.9864 31.9001 33.0316 31.6283V31.6283V31.4139C33.049 31.3332 33.049 31.2497 33.0316 31.169V31.169C33.0222 30.8149 32.9277 30.4683 32.7559 30.1585L31.6532 29.6992ZM31.4388 30.0054C31.4388 30.0054 31.4388 30.0054 31.4388 29.8217C31.4388 29.638 31.4388 29.8217 31.4388 29.8217V30.0054ZM31.1631 30.4954C31.1631 30.4954 31.1325 30.5566 31.1631 30.4954V30.4954ZM29.9072 32.9756V32.8225C29.916 32.8834 29.916 32.9453 29.9072 33.0062V33.0062V32.9756ZM29.9072 34.2923L30.0604 34.5066L29.9072 34.2923ZM30.3054 34.5066C30.3054 34.5066 30.3054 34.5066 30.5811 34.3229C30.8568 34.1392 30.1523 34.5372 30.0604 34.5678L30.3054 34.5066ZM31.837 30.6484C31.837 30.6484 31.837 30.6791 31.837 30.6484V30.6484Z" fill="white"/>
<path d="M41.2406 9.82644C41.3867 10.0428 41.5197 10.2677 41.6388 10.5001V10.5001V10.745L41.455 10.4082C41.3981 10.2431 41.3154 10.0881 41.21 9.94892L41.2406 9.82644ZM41.2406 9.67333C41.2506 9.60223 41.2506 9.53008 41.2406 9.45898V9.67333Z" fill="white"/>
<path d="M16.4302 11.9688H16.3994L16.3071 12.061V12.0918L16.4302 11.9688Z" fill="white"/>
<path d="M17.8691 5.14062C17.8691 5.14062 17.8691 5.14064 17.8691 5.32436V5.50808H18.0529L17.8691 5.14062Z" fill="white"/>
<path d="M41.0569 9.39654V9.45779V9.42716L41.0875 9.51903L41.1181 9.54964L41.1794 9.67213V9.61089L41.21 9.6415L41.1488 9.58027V9.54964L41.0875 9.45779L40.9956 9.30469L41.0569 9.39654Z" fill="white"/>
<path d="M40.9648 9.21289L41.0264 9.33594L41.0572 9.3667L41.0264 9.30519L40.9956 9.24366L40.9648 9.21289Z" fill="white"/>
<path d="M40.6279 8.66211L40.6587 8.69288L40.6895 8.75441V8.78516L40.6279 8.69288V8.66211Z" fill="white"/>
<path d="M40.1074 7.92661L40.2912 8.17158L40.5975 8.60026L40.3218 8.17158V8.01847L40.1074 7.68164L40.2912 7.95723L40.1074 7.92661Z" fill="white"/>
<path d="M36.646 4.13037L36.6152 4.09961V4.13037H36.646Z" fill="white"/>
<path d="M37.4116 4.86523L37.5963 5.01906L37.4116 4.86523Z" fill="white"/>
<path d="M37.7178 5.11008L38.0547 5.41628V5.23257L37.8403 5.04883L38.1466 5.38565L38.3304 5.56939L38.1466 5.35505H37.9628C37.8976 5.32055 37.8442 5.26719 37.8097 5.20194V5.20194L37.7178 5.11008ZM38.9737 6.51861C38.9737 6.51861 39.0043 6.51861 38.9737 6.51861V6.51861Z" fill="white"/>
<path d="M39.5255 7.13092L39.5561 7.19216L39.5867 7.22279L39.5561 7.19216L39.648 7.28403L39.6786 7.37589H39.7093L39.648 7.28403V7.31465V7.28403L39.4949 7.1003L39.4336 7.03906L39.4642 7.06968L39.5255 7.13092Z" fill="white"/>
<path d="M35.2368 3.02734L35.3291 3.11964L35.3599 3.1504L35.2983 3.08887L35.2676 3.05811L35.2368 3.02734Z" fill="white"/>
<path d="M35.4825 3.21142V3.18067V3.21142L35.4209 3.1499L35.3594 3.11914L35.4825 3.21142Z" fill="white"/>
<path d="M35.2369 3.05874L35.5126 3.24245V3.08934H35.3288L35.0531 2.875H34.8081L35.2369 3.05874Z" fill="white"/>
<path d="M37.2278 4.65184H37.3809L37.1665 4.4375L37.4115 4.62121L37.2278 4.65184Z" fill="white"/>
<path d="M37.4732 4.86475H37.4424V4.83398V4.86475H37.4732Z" fill="white"/>
<path d="M42.2822 16.5928V16.6543L42.313 16.685V16.562L42.2822 16.5312V16.5928Z" fill="white"/>
<path d="M9.5989 39.9244H9.35385L9.07817 39.7101L7.88357 38.5465H7.78932L7.94483 38.7302L7.69978 38.5465H7.78932L7.60789 38.3322H7.45474L7.43023 38.1791H7.39347L7.33221 37.9647L7.40629 38.0295L7.33221 37.5667C7.20926 37.4286 7.10617 37.274 7.02591 37.1074L6.71959 36.7706C6.63259 36.7039 6.5597 36.6206 6.50518 36.5256V36.3112H6.68896V36.0357V35.7601C6.68896 34.8721 5.95382 34.2291 5.61688 33.4636C5.63379 33.3931 5.63379 33.3197 5.61688 33.2492V32.7287V32.545V32.1163C5.62904 31.8426 5.57658 31.5698 5.46372 31.3202C5.44099 31.1971 5.38841 31.0814 5.31057 30.9833C5.31057 30.6159 4.72859 30.4628 4.51417 30.1566V30.0035C4.2385 29.6667 4.20786 29.6667 4.08533 29.636C4.10021 29.7067 4.10021 29.7797 4.08533 29.8504V29.8198V29.7891V29.6667V29.636V29.6054V29.1767V28.7787V28.7787C4.08533 28.3806 4.08533 28.3194 3.93218 28.0744V27.7988V25.2574V25.0736V24.7981V24.7674V24.5531V24.4306V24.3694C3.92447 24.2368 3.92447 24.1039 3.93218 23.9713V23.6345V23.2976V22.5015V22.3178V22.2566C3.91785 22.1962 3.91785 22.1333 3.93218 22.0729V21.7973V21.7666C3.94728 21.8681 3.94728 21.9713 3.93218 22.0729V22.2566V22.3178V22.5015V23.2976C3.96719 23.5208 3.96719 23.7481 3.93218 23.9713V24.2469V24.3694V24.4306V24.5531V24.7674V24.7981V25.0736V25.2574C4.22759 26.4635 4.62729 27.6417 5.12678 28.7787V28.9624C5.7551 30.3736 6.5248 31.7175 7.4241 32.9737V33.1574L7.60789 33.4023C8.73342 34.8862 10.0403 36.2235 11.498 37.383L12.325 37.9647H12.4782H12.5701L12.8764 38.1791H13.0602L9.5989 39.9244Z" fill="white"/>
<path d="M3.84029 34.4434L3.68714 34.1985H3.80965C3.81217 34.2809 3.82243 34.3629 3.84029 34.4434Z" fill="white"/>
<path d="M3.62588 34.1372C3.44209 34.0454 3.44209 33.831 3.44209 33.831H3.56461C3.56461 33.8616 3.56461 33.8922 3.62588 34.1372Z" fill="white"/>
<path d="M5.64751 36.2194C5.67633 36.2044 5.70734 36.1941 5.7394 36.1888L5.64751 36.2194Z" fill="white"/>
<path d="M4.60606 35.0558C4.60606 35.0558 4.63669 35.0558 4.63669 35.0252L4.60606 35.0558Z" fill="white"/>
<path d="M3.71777 33.831L3.87092 34.0147L3.80965 33.9841C3.77902 33.9535 3.71777 33.831 3.71777 33.831Z" fill="white"/>
<path d="M5.15742 35.5457L4.94301 35.2702V35.4845L5.15742 35.5457Z" fill="white"/>
<path d="M4.02407 34.2291C4.01527 34.29 4.01527 34.3519 4.02407 34.4128V34.2291Z" fill="white"/>
<path d="M2.92137 32.5756C2.99371 32.6706 3.05534 32.7733 3.10515 32.8818L2.92137 32.7287C2.92378 32.6777 2.92378 32.6266 2.92137 32.5756Z" fill="white"/>
<path d="M2.64569 31.9019V32.0857L2.4619 31.9326C2.53525 31.8607 2.59723 31.7781 2.64569 31.6876C2.65152 31.7589 2.65152 31.8306 2.64569 31.9019Z" fill="white"/>
<path d="M0.624051 25.1043C0.60666 25.185 0.60666 25.2685 0.624051 25.3492V25.3186C0.638925 25.2479 0.638925 25.1749 0.624051 25.1043Z" fill="white"/>
<path d="M41.5777 17.6338L41.6084 17.603L41.5777 17.5723L41.5161 17.6338V17.6645L41.5777 17.6338Z" fill="white"/>
<path d="M40.8115 15.9798C40.8115 15.9798 40.8115 15.9798 40.8115 16.1636C40.8115 16.3473 40.8115 16.1636 40.8115 16.1636C40.8115 16.1636 40.8115 16.3473 40.9647 16.1636V15.9492C40.934 16.049 40.934 16.1557 40.9647 16.2554L40.8115 15.9798Z" fill="white"/>
<path d="M41.3018 17.3574V17.419L41.3941 17.4497V17.419L41.3018 17.3574Z" fill="white"/>
<path d="M16.5215 25.9019C16.5522 25.8022 16.5522 25.6955 16.5215 25.5957V25.5957H16.7053L16.5215 25.9019Z" fill="white"/>
<path d="M26.3232 9.85694H26.354L26.3232 9.82617V9.85694Z" fill="white"/>
<path d="M43.5381 19.043V19.0122L43.5689 18.9814V18.9199L43.5073 18.9814L43.5381 19.043Z" fill="white"/>
<path d="M43.3848 19.1343L43.4463 19.1958V19.1343L43.3848 19.1035V19.1343Z" fill="white"/>
<path d="M42.1597 11.48V11.5107L42.1289 11.4492L42.0981 11.3569V11.3262L42.1289 11.4185L42.1597 11.48Z" fill="white"/>
<path d="M42.2515 11.6322V11.8772V12.1221L42.0983 11.8465V12.1527V12.4589V14.0512V13.8062V13.99V13.8062V14.1737V14.5411V14.7248C42.0851 14.7957 42.0851 14.8684 42.0983 14.9392V14.9392V14.7248V14.5717V14.3574V11.6016L42.2515 11.6322ZM43.1092 14.1124C43.1236 14.0624 43.1236 14.0093 43.1092 13.9593V13.9593V14.1124Z" fill="white"/>
<path d="M41.9453 11.0205V11.0513L41.9146 10.9898V10.959V11.0205H41.9453Z" fill="white"/>
<path d="M42.2212 11.5708L42.1904 11.5093L42.1597 11.4785L42.2212 11.5708Z" fill="white"/>
<path d="M7.97559 16.0107L8.03713 16.0723L8.0679 16.103L8.09867 16.0415L8.03713 15.9492L7.97559 16.0107Z" fill="white"/>
<path d="M8.18991 15.7665V15.7358L8.22054 15.644V15.5521L8.15928 15.5215H8.12865L8.09801 15.5521L8.06738 15.6133V15.7052V15.7358V15.8583L8.15928 15.7665H8.18991Z" fill="white"/>
<path d="M8.3125 15.9495C8.3125 15.9495 8.3125 15.9495 8.58818 15.6739V15.4902H8.37376L8.3125 15.9495Z" fill="white"/>
<path d="M8.61881 16.1036C8.63243 16.0749 8.63951 16.0436 8.63951 16.0118C8.63951 15.98 8.63243 15.9486 8.61881 15.9199C8.59354 15.9367 8.57281 15.9594 8.55847 15.9862C8.54413 16.0129 8.53662 16.0427 8.53662 16.073C8.53662 16.1034 8.54413 16.1332 8.55847 16.1599C8.57281 16.1866 8.59354 16.2094 8.61881 16.2261V16.1036Z" fill="white"/>
<path d="M8.95557 15.9819C9.10942 15.9819 9.10943 15.9819 9.10943 15.8281C9.10943 15.8281 9.10943 15.8281 9.10943 16.0127L8.95557 15.9819Z" fill="white"/>
<path d="M13.6124 11.6016H13.4585V11.7862L13.6124 11.6016Z" fill="white"/>
<path d="M13.9178 11.3563H14.1323V11.1113L13.8872 11.295L13.9178 11.3563Z" fill="white"/>
<path d="M38.8819 18.584C38.8819 18.584 38.8819 18.7983 38.8819 18.9208V19.1658C39.0657 19.9313 39.2188 19.8394 39.2801 19.7782C39.3672 19.7052 39.431 19.6083 39.4637 19.4995C39.4963 19.3906 39.4964 19.2746 39.4639 19.1658C39.4796 19.0849 39.4796 19.0017 39.4639 18.9208V18.9208C39.4639 18.9208 39.4639 18.7677 39.4639 18.7064V18.9208L38.8819 18.584ZM38.8819 19.1964C38.8688 19.3594 38.8688 19.5232 38.8819 19.6863C38.9282 19.4793 39.0112 19.2823 39.1269 19.1045L38.8819 19.1964ZM39.1269 19.5026C39.1431 19.4746 39.1516 19.443 39.1516 19.4107C39.1516 19.3785 39.1431 19.3468 39.1269 19.3189C39.1269 19.3189 39.5558 19.3189 39.5251 19.4107L39.1269 19.5026Z" fill="white"/>
<path d="M17.8696 1.55859L17.8081 1.58936L17.8696 1.65089L17.9004 1.68165L17.9312 1.62012L17.962 1.55859H17.9004H17.8696Z" fill="white"/>
<path d="M22.3718 11.9988H22.6475V11.8457H22.4331H22.188C22.1876 11.8687 22.1923 11.8914 22.2018 11.9123C22.2113 11.9332 22.2255 11.9517 22.2431 11.9664C22.2608 11.9811 22.2815 11.9917 22.3038 11.9973C22.326 12.0029 22.3493 12.0034 22.3718 11.9988Z" fill="white"/>
<path d="M29.6925 29.8519V29.6375V29.3926H29.3862L29.6925 29.8519Z" fill="white"/>
<path d="M14.4385 4.34464V4.31402H14.4079V4.2834L14.3773 4.00781L14.3466 4.25278L14.2547 4.19154L14.2854 4.34464L14.2547 4.37526V4.43651H14.2854L14.316 4.46712L14.2854 4.49775L14.316 4.46712L14.2854 4.49775L14.2241 4.52836V4.5896L14.2854 4.55898L14.316 4.52836L14.3773 4.68146V4.37526H14.4079H14.3773L14.4079 4.34464H14.4385Z" fill="white"/>
<path d="M15.8474 27.0046L15.8167 26.9434L15.7555 26.974L15.6942 27.0352L15.6636 27.1271L15.6942 27.2189L15.7555 27.372L15.878 27.1577L15.9393 27.1271L15.9086 27.0658L15.8474 27.0046Z" fill="white"/>
<path d="M17.104 12.3066L17.1348 12.2451L17.104 12.1836L16.981 12.2759L17.0425 12.3374L17.104 12.3066Z" fill="white"/>
<path d="M13.52 7.92676L13.5816 7.95752V7.92676L13.5508 7.89599L13.52 7.86523L13.4893 7.89599L13.52 7.92676Z" fill="white"/>
<path d="M24.2708 18.9806C23.5716 18.9745 22.8863 19.1767 22.3024 19.5613C21.7184 19.9459 21.2622 20.4955 20.9918 21.1402C20.7214 21.7848 20.649 22.4954 20.784 23.1813C20.9189 23.8672 21.255 24.4974 21.7495 24.9917C22.244 25.486 22.8744 25.822 23.5606 25.9569C24.2467 26.0918 24.9575 26.0195 25.6024 25.7492C26.2473 25.4789 26.7971 25.0228 27.1819 24.4391C27.5666 23.8553 27.7688 23.1703 27.7627 22.4713C27.7547 21.548 27.3843 20.6648 26.7311 20.0118C26.078 19.3589 25.1945 18.9886 24.2708 18.9806Z" fill="white"/>
<path d="M73.4642 22.8699L80.8463 30.1575H92.1797L98.3059 36.0978H116.072L120.421 31.7497H221.503V31.3211H120.421L116.041 35.6691H98.214L92.0878 29.5451H80.8463L73.5868 22.2881H28.7738C28.7178 21.1305 28.2112 20.0406 27.3623 19.2513C26.5133 18.462 25.3893 18.0358 24.2302 18.0638C23.0712 18.0918 21.969 18.5717 21.1592 19.401C20.3493 20.2304 19.896 21.3435 19.896 22.5024C19.896 23.6614 20.3493 24.7744 21.1592 25.6038C21.969 26.4332 23.0712 26.9131 24.2302 26.9411C25.3893 26.9691 26.5133 26.5429 27.3623 25.7536C28.2112 24.9643 28.7178 23.8744 28.7738 22.7168L73.4642 22.8699ZM24.271 26.8199C23.4182 26.8258 22.5826 26.5792 21.8698 26.1112C21.1569 25.6431 20.5986 24.9746 20.2653 24.1898C19.932 23.405 19.8386 22.5391 19.9969 21.7014C20.1552 20.8636 20.558 20.0914 21.1547 19.4822C21.7513 18.8729 22.5151 18.454 23.3496 18.278C24.1841 18.1021 25.0521 18.1771 25.844 18.4935C26.636 18.81 27.3164 19.3538 27.7997 20.0563C28.2829 20.7589 28.5472 21.5887 28.5594 22.4412V22.4412V22.8699C28.4675 23.9448 27.9764 24.9465 27.1827 25.6776C26.389 26.4086 25.3503 26.8161 24.271 26.8199V26.8199Z" fill="white"/>
<path d="M116.225 36.4661H97.8464L91.7202 30.5257H80.3868L73.311 23.2381H29.1413C28.993 24.4619 28.3831 25.5829 27.436 26.3722C26.4889 27.1616 25.2761 27.5598 24.0452 27.4856C22.8144 27.4113 21.6583 26.8702 20.813 25.9727C19.9678 25.0752 19.4971 23.889 19.4971 22.6563C19.4971 21.4237 19.9678 20.2375 20.813 19.34C21.6583 18.4425 22.8144 17.9014 24.0452 17.8272C25.2761 17.7529 26.4889 18.1511 27.436 18.9405C28.3831 19.7299 28.993 20.8509 29.1413 22.0746H73.8011L81.0607 29.3622H92.3941L98.3365 35.3025H115.735L120.115 30.9544H221.748V32.118H120.666L116.225 36.4661ZM24.3323 18.5532C23.5717 18.5532 22.8272 18.7726 22.1883 19.1852C21.5494 19.5977 21.0431 20.1858 20.7303 20.8789C20.4176 21.5719 20.3115 22.3405 20.4249 23.0924C20.5384 23.8442 20.8665 24.5473 21.3698 25.1174C21.8732 25.6874 22.5304 26.1 23.2626 26.3058C23.9949 26.5116 24.7709 26.5018 25.4977 26.2775C26.2245 26.0532 26.871 25.624 27.3598 25.0415C27.8485 24.4589 28.1587 23.7476 28.253 22.9932V22.0746C28.1398 21.1003 27.6708 20.2021 26.936 19.5523C26.2011 18.9025 25.2521 18.5467 24.271 18.5532H24.3323Z" fill="white"/>
</svg>
