<svg width="206" height="17" viewBox="0 0 206 17" fill="none" xmlns="http://www.w3.org/2000/svg">
<path d="M136.924 16.5312H118.975L112.512 10.0703H0.92334V9.05981H112.849L119.281 15.5207H136.373L141.55 10.4377H148.962L156.099 3.33381H198.829C198.957 2.44475 199.417 1.63711 200.117 1.07348C200.816 0.509855 201.704 0.232113 202.6 0.296156C203.496 0.360199 204.335 0.761275 204.947 1.41865C205.559 2.07602 205.9 2.94086 205.9 3.83905C205.9 4.73724 205.559 5.60208 204.947 6.25945C204.335 6.91683 203.496 7.31793 202.6 7.38197C201.704 7.44601 200.816 7.16825 200.117 6.60462C199.417 6.04099 198.957 5.23335 198.829 4.34429H156.559L149.422 11.4788H141.979L136.924 16.5312ZM202.321 1.22103C201.623 1.22103 200.953 1.49846 200.459 1.99231C199.965 2.48616 199.687 3.15595 199.687 3.85435C199.687 4.55276 199.965 5.22257 200.459 5.71642C200.953 6.21027 201.623 6.48769 202.321 6.48769C203.02 6.48769 203.69 6.21027 204.184 5.71642C204.678 5.22257 204.956 4.55276 204.956 3.85435C204.956 3.15595 204.678 2.48616 204.184 1.99231C203.69 1.49846 203.02 1.22103 202.321 1.22103Z" fill="#FDFEFF"/>
</svg>
