<svg width="256" height="89" viewBox="0 0 256 89" fill="none" xmlns="http://www.w3.org/2000/svg">
<path d="M250.669 80.2526C250.678 80.4426 250.612 80.6285 250.487 80.7712C250.361 80.914 250.185 81.0025 249.995 81.0181L241.48 81.4468C241.387 81.4509 241.295 81.4367 241.208 81.4051C241.121 81.3734 241.041 81.325 240.973 81.2624C240.904 81.1998 240.849 81.1244 240.81 81.0404C240.771 80.9565 240.749 80.8657 240.745 80.7731C240.736 80.5832 240.802 80.3973 240.927 80.2545C241.053 80.1118 241.229 80.0233 241.419 80.0076L249.934 79.579C250.028 79.5704 250.122 79.5815 250.211 79.6115C250.3 79.6416 250.382 79.6898 250.451 79.7532C250.52 79.8167 250.575 79.8938 250.613 79.9798C250.65 80.0658 250.67 80.1587 250.669 80.2526V80.2526Z" fill="white"/>
<path d="M250.792 82.274C250.796 82.3665 250.782 82.4589 250.75 82.5459C250.718 82.633 250.67 82.7129 250.607 82.7811C250.545 82.8494 250.469 82.9047 250.385 82.9437C250.301 82.9828 250.21 83.005 250.118 83.0089L241.572 83.4376C241.478 83.4461 241.384 83.435 241.295 83.405C241.206 83.375 241.125 83.3267 241.055 83.2633C240.986 83.1999 240.931 83.1227 240.893 83.0367C240.856 82.9507 240.836 82.8578 240.837 82.7639V82.7639C240.828 82.6705 240.839 82.5762 240.869 82.4873C240.899 82.3984 240.948 82.3167 241.011 82.2475C241.075 82.1783 241.152 82.1231 241.238 82.0855C241.324 82.0479 241.417 82.0287 241.511 82.029L250.026 81.6004C250.216 81.5918 250.402 81.6572 250.545 81.7828C250.688 81.9084 250.776 82.0845 250.792 82.274Z" fill="white"/>
<path d="M250.884 84.2342C250.893 84.4241 250.827 84.61 250.701 84.7528C250.576 84.8955 250.4 84.984 250.21 84.9997L241.695 85.4284C241.505 85.4369 241.319 85.3716 241.176 85.2459C241.033 85.1203 240.945 84.9442 240.929 84.7547V84.7547C240.92 84.5648 240.986 84.3789 241.111 84.2361C241.237 84.0934 241.413 84.0049 241.603 83.9892L250.149 83.5606C250.334 83.5599 250.512 83.6289 250.648 83.7537C250.784 83.8785 250.869 84.0501 250.884 84.2342V84.2342Z" fill="white"/>
<path d="M242.43 86.3766C242.739 87.0728 243.255 87.6568 243.907 88.0493C244.56 88.4418 245.318 88.6237 246.078 88.5701C246.838 88.5166 247.563 88.2302 248.154 87.7501C248.746 87.2699 249.175 86.6193 249.383 85.8867L242.43 86.3766Z" fill="white"/>
<path d="M250.21 60.7784H250.731C250.731 60.1354 250.578 59.3392 250.486 58.3594C250.332 59.4617 250.241 60.2885 250.21 60.7784Z" fill="white"/>
<path d="M243.716 58.1133H243.379V61.8796C243.594 61.8796 243.716 61.8796 243.778 61.8796C243.807 61.6457 243.807 61.4091 243.778 61.1753V58.8175C243.8 58.6447 243.8 58.4698 243.778 58.297C243.78 58.2304 243.758 58.1651 243.716 58.1133Z" fill="white"/>
<path d="M245.861 50.6428C243.913 50.6306 242.006 51.1968 240.381 52.2694C238.756 53.342 237.487 54.8729 236.733 56.6678C235.979 58.4627 235.776 60.4409 236.148 62.3516C236.521 64.2623 237.452 66.0194 238.825 67.4001C240.198 68.7809 241.949 69.7231 243.858 70.1074C245.767 70.4916 247.748 70.3006 249.548 69.5585C251.348 68.8164 252.887 67.5566 253.97 65.9389C255.054 64.3212 255.632 62.4185 255.632 60.4719C255.632 57.8756 254.604 55.3848 252.774 53.5432C250.943 51.7016 248.458 50.6589 245.861 50.6428V50.6428ZM241.266 62.8909H239.765V57.073H241.266V62.8909ZM245.34 61.2067C245.367 61.543 245.367 61.8809 245.34 62.2172C245.294 62.3847 245.197 62.5342 245.064 62.6459L244.635 62.8602H241.94V57.073H243.043C243.53 57.0031 244.025 57.0031 244.513 57.073C244.734 57.1116 244.938 57.2187 245.095 57.3792C245.219 57.5295 245.303 57.7085 245.34 57.8998C245.367 58.2667 245.367 58.6351 245.34 59.0021V61.2067ZM248.403 62.8909H245.799V57.073H248.311V58.2366H247.3V59.3389H248.25V60.4106H247.3V61.6967H248.403V62.8909ZM250.762 62.8909V61.8804H250.241V62.8909H248.679L249.444 57.1343H251.619L252.477 62.8909H250.762Z" fill="white"/>
<path d="M243.777 61.881C243.783 61.8199 243.783 61.7584 243.777 61.6973H243.349V61.881C243.594 61.881 243.716 61.881 243.777 61.881Z" fill="white"/>
<path d="M255.632 60.7773C255.632 60.2874 255.325 59.9506 254.866 60.0425L252.079 60.6549L252.416 62.8289H250.884V61.8184H250.363V62.8289H248.801L249.015 61.3285L247.606 61.6347H248.709V62.7677H246.106V61.8797H245.524C245.524 62.0328 245.524 62.1553 245.524 62.2165C245.477 62.384 245.381 62.5335 245.248 62.6452L244.819 62.8595H242.124V61.1448H241.511V62.982H240.01V60.8386L237.131 60.2262C237.03 60.2027 236.926 60.2026 236.826 60.2258C236.725 60.249 236.632 60.2949 236.552 60.3599C236.472 60.425 236.408 60.5075 236.365 60.6011C236.322 60.6947 236.301 60.7969 236.304 60.8998C236.213 62.2686 236.533 63.6333 237.223 64.8192C238.8 67.3974 239.735 70.3168 239.949 73.3316C240.005 74.9835 240.231 76.6251 240.623 78.2309C240.713 78.4682 240.872 78.6734 241.079 78.8205C241.287 78.9676 241.533 79.0501 241.787 79.0576H250.302C250.548 79.0531 250.785 78.9613 250.97 78.7988C251.155 78.6362 251.277 78.4133 251.313 78.1696L252.691 69.9328C252.818 69.3581 252.992 68.7948 253.212 68.2487C253.212 68.2487 254.345 65.8909 254.989 64.8192C255.631 63.5758 255.857 62.1587 255.632 60.7773Z" fill="white"/>
<path d="M136.447 15.9497H118.068L113.32 11.2342H57.3577L52.3342 6.2125H45.0134L40.4188 10.8055H0.598633V9.76445H39.9899L44.5846 5.17141H52.763L57.7865 10.1931H113.841L118.466 14.8168H136.171L141.93 9.09081H149.832L158.746 0.210938L241.909 50.9487C242.028 50.0451 242.474 49.2163 243.162 48.6185C243.851 48.0207 244.734 47.6951 245.646 47.7029C246.645 47.7029 247.603 48.0997 248.31 48.8061C249.016 49.5124 249.413 50.4703 249.413 51.4692C249.413 52.4681 249.016 53.4261 248.31 54.1324C247.603 54.8387 246.645 55.2355 245.646 55.2355C244.734 55.2434 243.851 54.9177 243.162 54.3199C242.474 53.7221 242.028 52.8934 241.909 51.9898L159.205 1.25203L150.292 10.1319H142.297L136.447 15.9497ZM245.493 48.744C244.927 48.738 244.372 48.9006 243.899 49.2112C243.425 49.5217 243.056 49.9661 242.836 50.4877C242.617 51.0093 242.558 51.5844 242.667 52.1396C242.776 52.6949 243.048 53.2051 243.448 53.6052C243.848 54.0052 244.358 54.2771 244.914 54.386C245.469 54.4949 246.045 54.4359 246.566 54.2166C247.088 53.9973 247.533 53.6275 247.843 53.1546C248.154 52.6816 248.317 52.1269 248.311 51.5611C248.331 51.1785 248.274 50.7956 248.142 50.436C248.009 50.0763 247.805 49.7474 247.541 49.4694C247.278 49.1914 246.96 48.9701 246.608 48.819C246.255 48.668 245.876 48.5903 245.493 48.5909V48.744Z" fill="#F9F9F9"/>
</svg>
