<svg width="103" height="99" viewBox="0 0 103 99" fill="none" xmlns="http://www.w3.org/2000/svg">
<g opacity="0.89">
<path d="M8.17305 55.1514L7.98925 54.3552C7.98925 53.8347 7.77485 53.0386 7.62169 52.0281C7.18208 49.275 7.0179 46.485 7.13159 43.6994C7.13159 42.8114 7.1316 41.9234 7.28475 41.0048C7.43791 40.0862 7.52979 39.1064 7.68295 38.1265C8.66421 31.5596 11.1831 25.3171 15.0344 19.9075C17.5833 16.2038 20.6819 12.91 24.2236 10.1396C27.3502 7.74016 30.767 5.74431 34.3931 4.19931C36.0165 3.64814 37.4562 3.03574 38.8652 2.66829L42.3877 1.74968L45.4508 1.25977L46.1247 6.83265L43.3986 7.26133L40.3355 8.02684C39.1715 8.36366 37.885 8.91481 36.4453 9.40474C33.2699 10.7451 30.2836 12.4952 27.5624 14.6102C24.4402 17.041 21.6946 19.9198 19.4146 23.1532C17.204 26.4266 15.4616 29.9926 14.238 33.7478C13.7219 35.4954 13.3229 37.2753 13.0434 39.0758C13.0434 39.9331 12.7371 40.7599 12.6758 41.5866C12.6145 42.4134 12.6758 43.1789 12.6758 43.9444C12.5691 46.383 12.7231 48.8261 13.1352 51.232C13.232 52.1511 13.3958 53.0619 13.6253 53.9572L8.17305 55.1514Z" fill="white"/>
<path d="M8.17318 55.1521L7.95877 54.3254C7.95877 53.9886 7.80561 53.5293 7.74435 52.9781C7.68309 52.4269 7.74435 52.3657 7.74435 51.9983C7.30454 49.2452 7.14035 46.4552 7.25425 43.6696V40.975C7.25425 40.3626 7.25425 39.7502 7.4993 39.1071C7.74435 38.4641 7.4993 38.4335 7.4993 38.0967C7.70034 36.5817 8.02822 35.0863 8.47949 33.6261C8.47949 33.075 8.75516 32.5544 8.87768 32.0033C10.3246 27.6492 12.3876 23.5247 15.0039 19.7552C19.8904 12.7794 26.6563 7.33245 34.5157 4.04696L36.1085 3.43457C37.1194 3.06712 38.0689 2.73031 38.9572 2.48535L42.5104 1.59736L45.5735 1.10742L46.2474 6.71093L43.5212 7.13961L41.4077 7.66015L40.4275 7.90512C39.6924 8.11946 38.9266 8.39505 38.1302 8.70125L36.5374 9.25242C33.3793 10.6085 30.4051 12.3574 27.685 14.4578C24.5555 16.8805 21.8087 19.7605 19.5372 23.0009C17.322 26.2825 15.5793 29.8593 14.3606 33.6261C14.3606 34.116 14.0849 34.606 13.9624 35.0959C13.6007 36.3498 13.3344 37.6293 13.166 38.9234C13.166 39.2296 13.166 39.5664 13.166 39.842C13.0667 40.3687 12.9951 40.9001 12.9516 41.4343V43.792C12.84 46.2295 12.9837 48.672 13.3804 51.0797C13.4883 51.9994 13.6624 52.9101 13.9011 53.8049V53.8049L8.17318 55.1521ZM45.6041 1.26053L42.541 1.75044L39.0185 2.63843C38.1302 2.8834 37.1806 3.25084 36.1698 3.61828L34.5464 4.20007C30.9097 5.72397 27.4903 7.72136 24.3769 10.1404C20.8349 12.9104 17.7362 16.2042 15.1877 19.9082C12.6228 23.6811 10.621 27.807 9.24526 32.1563C9.24526 32.6769 8.96958 33.2281 8.81643 33.7486C8.38895 35.2131 8.07155 36.7074 7.86688 38.2192C7.86688 38.556 7.86687 38.8928 7.71371 39.2296C7.56056 39.5665 7.49929 40.4851 7.43802 41.0975V43.792C7.30909 46.5778 7.47337 49.3693 7.92813 52.1208C7.92813 52.4882 7.92813 52.7944 7.92813 53.1006C7.92813 53.4068 7.92814 54.111 8.17318 54.4479L8.35696 55.2134L13.7786 54.0498C13.5573 53.1631 13.3936 52.2631 13.2885 51.3552C12.8937 48.9371 12.75 46.4847 12.8597 44.037V41.6792C12.8924 41.1456 12.9538 40.6141 13.0435 40.087C13.0435 39.7808 13.0435 39.4746 13.0435 39.1684C13.2079 37.871 13.4846 36.5904 13.8705 35.3408L14.2381 33.8405C15.4614 30.0795 17.2148 26.5121 19.4453 23.2459C21.7078 19.9892 24.4555 17.0978 27.5932 14.6722C30.3163 12.56 33.3022 10.8103 36.4761 9.46676C37.0275 9.28304 37.5482 9.09931 38.0383 8.88497C38.5284 8.67062 39.6311 8.30318 40.3662 8.11946L41.3464 7.87449L43.4293 7.32333L46.1555 6.89465L45.6041 1.26053Z" fill="white"/>
</g>
<g opacity="0.65">
<path d="M27.5629 82.7101C27.5629 82.7101 27.134 82.4651 26.3989 81.9445L23.3358 79.7705C22.2025 78.7906 20.8853 77.5965 19.5376 76.2492C18.1678 74.8308 16.889 73.3274 15.7087 71.748C14.5928 70.155 13.5701 68.4987 12.6456 66.7875C11.7573 65.1034 11.0222 63.5112 10.4096 62.1026L9.15371 58.6731C9.00436 58.2422 8.88159 57.8025 8.78613 57.3565L14.1772 55.8867C14.1772 55.8867 14.1772 56.3154 14.5141 57.0503C14.8511 57.7852 15.1574 58.7956 15.6168 60.1123C16.0763 61.429 16.7808 62.715 17.5772 64.1848C18.4222 65.6833 19.3636 67.1255 20.3952 68.5023C21.4289 69.8839 22.5438 71.2029 23.734 72.4523C24.9286 73.6158 26.062 74.6569 27.0728 75.5143L29.6458 77.4434C30.289 77.8721 30.6872 78.0864 30.6872 78.0864L27.5629 82.7101Z" fill="white"/>
<path d="M27.5628 82.7101C27.162 82.4859 26.7735 82.2406 26.3988 81.9752L23.3357 79.7705C22.2942 78.8825 20.9465 77.6883 19.5375 76.2798L18.9248 75.6061C17.8178 74.3907 16.7944 73.1018 15.8617 71.748C14.8963 70.4917 14.0163 69.1721 13.2275 67.798C13.0437 67.4612 12.8293 67.1244 12.6149 66.7875C11.8185 65.2565 11.0527 63.7255 10.3788 62.1333L9.15359 58.6731C8.87791 57.8464 8.75537 57.3565 8.75537 57.3565L14.1771 55.8867C14.2506 56.2848 14.3635 56.6745 14.514 57.0503C14.6569 57.4994 14.8713 58.0812 15.1572 58.7957L15.5861 60.0511C16.1374 61.2453 16.7807 62.6538 17.5464 64.0929C17.7302 64.3991 17.914 64.7054 18.1284 65.0116C18.7941 66.2116 19.5519 67.3582 20.3951 68.441C21.1854 69.5078 22.0341 70.5301 22.9375 71.503L23.7339 72.3604C24.8672 73.4627 26.0006 74.5038 27.0727 75.4224L28.6348 76.586L29.615 77.3209C30.2583 77.7496 30.6565 77.9639 30.6565 77.9639L27.5628 82.7101ZM8.78601 57.3259C8.88537 57.7709 9.00807 58.2104 9.15359 58.6425L10.4094 62.072C11.0527 63.5724 11.8185 65.134 12.6455 66.7263C12.8293 67.0631 13.0437 67.3999 13.2581 67.7368C14.029 69.1148 14.8992 70.4349 15.8617 71.6867C16.7944 73.0405 17.8178 74.3295 18.9248 75.5449L19.5375 76.2186C20.9465 77.6271 22.2942 78.8213 23.3357 79.7093L26.3988 81.9139L27.5628 82.6488L30.6258 77.9946C30.2664 77.8302 29.9272 77.6246 29.615 77.3821L28.6042 76.6473L27.042 75.4531C25.9699 74.5651 24.8366 73.4934 23.7033 72.391L22.9068 71.5337C21.9971 70.5664 21.148 69.5437 20.3645 68.4717C19.5223 67.3923 18.7547 66.2567 18.0672 65.0728L17.5158 64.1542C16.75 62.715 16.1068 61.3065 15.5554 60.0817L15.096 58.8569C14.8509 58.1526 14.6365 57.5402 14.4527 57.0809C14.3117 56.7149 14.209 56.3352 14.1464 55.948L8.78601 57.3259Z" fill="white"/>
</g>
<path d="M86.5884 29.065L85.7614 27.3196C85.5816 26.9137 85.3663 26.5243 85.1181 26.1561L84.6587 25.3905L84.1992 24.6557C83.8684 24.0544 83.4893 23.481 83.0659 22.9409C80.0486 18.686 76.2041 15.083 71.7621 12.3472C67.3201 9.61141 62.372 7.79902 57.2134 7.0184C55.978 6.80731 54.7292 6.68454 53.4764 6.65097H52.098H50.107V1.01684H51.6692C59.8759 1.06978 67.9132 3.35628 74.9181 7.63082C79.9996 10.8124 84.3943 14.9766 87.8443 19.8789C88.3155 20.5033 88.7453 21.158 89.1308 21.8386C89.2839 22.1448 89.4677 22.4204 89.6209 22.696C89.774 22.9716 89.9578 23.2165 90.111 23.4615C90.4154 23.9186 90.6817 24.4 90.9074 24.9006L91.8876 26.9216L86.5884 29.065ZM51.5773 6.49786H52.0674H53.4458C54.6995 6.5161 55.9495 6.63902 57.1828 6.86531C62.358 7.61891 67.3217 9.43275 71.7631 12.1932C76.2089 14.924 80.0541 18.5283 83.0659 22.7878C83.4986 23.3277 83.8879 23.9011 84.2299 24.5026L84.6587 25.2375L85.1181 26.003C85.3726 26.3673 85.5882 26.7573 85.7614 27.1665C86.2515 28.177 86.5578 28.7894 86.5884 28.9119L91.6731 26.646L90.7236 24.6557C90.4925 24.1577 90.2264 23.6768 89.9272 23.2165L89.4371 22.4204L88.9164 21.5936C88.5417 20.9133 88.1221 20.2586 87.6605 19.6339C84.2213 14.7223 79.8245 10.5562 74.7343 7.38585C67.7496 3.08723 59.7181 0.788781 51.5161 0.741264C51.0163 0.708641 50.5149 0.708641 50.0151 0.741264V6.28352H51.4548L51.5773 6.49786Z" fill="white"/>
<g opacity="0.53">
<path d="M93.235 30.6562C93.2926 30.865 93.3643 31.0696 93.4495 31.2686C93.6557 31.7957 93.8196 32.3384 93.9396 32.8915C94.1233 33.5652 94.3378 34.3613 94.5522 35.2187C94.7666 36.076 94.7666 36.076 94.8891 36.5353L95.0729 37.9133C95.0729 38.8319 95.3486 39.7505 95.5017 40.6078C95.6549 41.4652 95.5017 42.3226 95.5017 42.9962C95.5017 44.4047 95.5017 45.354 95.5017 45.354H89.8963C89.8963 45.354 89.8963 44.5272 89.8963 43.3024C89.8963 42.69 89.8963 41.9857 89.8963 41.2202C89.8963 40.4547 89.6512 39.6586 89.5287 38.8318L89.3449 37.6377L89.0692 36.5047C88.8548 35.7392 88.7017 35.0656 88.5485 34.4532C88.4188 33.9864 88.2655 33.5265 88.0891 33.0753C88.0891 32.7384 87.9053 32.5241 87.9053 32.5241L93.235 30.6562Z" fill="white"/>
<path d="M95.7775 45.2009H90.1414V43.1494C90.1414 42.935 90.1414 42.7207 90.1414 42.4757C90.1709 42.0067 90.1709 41.5362 90.1414 41.0672L89.7739 38.6788L89.5901 37.4846L89.4063 36.7804L89.1612 35.7087C89.1612 35.2187 88.8856 34.7288 88.7937 34.3307C88.7132 33.9643 88.6004 33.6056 88.4567 33.259C88.4567 33.259 88.4567 33.0141 88.4567 32.9222C88.4567 32.8303 88.2729 32.371 88.2729 32.371L93.6027 30.5645C93.6027 30.5645 93.6027 30.7788 93.8171 31.1768C94.0315 31.5749 93.8171 31.3912 93.8171 31.5137C93.9898 31.929 94.1231 32.3595 94.2153 32.7997C94.3991 33.4734 94.6135 34.2695 94.828 35.1269L95.1343 36.4129C95.1343 36.8722 95.1343 37.3315 95.3487 37.8214V38.5869C95.3487 39.2606 95.5631 39.9036 95.6243 40.516C95.6856 41.1284 95.6243 41.6796 95.6243 42.1695C95.6243 42.6595 95.6243 42.6901 95.6243 42.9044L95.7775 45.2009ZM90.172 45.2009H95.7163V42.8738C95.6996 42.6291 95.6996 42.3836 95.7163 42.1389C95.7163 41.649 95.7163 41.0672 95.7163 40.4854L95.4406 38.5869V37.7908C95.4406 37.3315 95.4406 36.8416 95.2262 36.4129L94.8892 35.0962C94.6748 34.2389 94.4604 33.4428 94.3072 32.7691C94.1964 32.334 94.0635 31.9047 93.909 31.483C93.8964 31.3711 93.8964 31.2582 93.909 31.1462L93.6946 30.5645L88.4261 32.371L88.6405 32.861C88.6273 32.9831 88.6273 33.1063 88.6405 33.2284C88.7732 33.5657 88.8757 33.9141 88.9468 34.2695C89.0693 34.6982 89.1919 35.1575 89.3144 35.6474L89.5901 36.7497L89.7739 37.454L89.9576 38.6482L90.3252 41.0366C90.3252 41.5265 90.3252 41.9858 90.3252 42.4451C90.3093 42.6694 90.3093 42.8945 90.3252 43.1187L90.172 45.2009Z" fill="white"/>
</g>
<g opacity="0.82">
<path d="M45.2981 89.3852L42.817 88.9871C41.3467 88.6197 39.3557 88.2216 37.426 87.548L34.6692 86.5069C33.8651 86.1904 33.0779 85.8327 32.3106 85.4352L30.6566 84.6391C30.4432 84.5443 30.2383 84.4316 30.0439 84.3022L32.8007 79.4336L33.3521 79.7092L34.7917 80.4135C36.2422 81.1428 37.7477 81.7571 39.2945 82.2507C40.9485 82.8325 42.6945 83.1999 43.9504 83.5367L46.1558 83.8736L45.2981 89.3852Z" fill="white"/>
<path d="M45.3286 89.4158L42.8475 89.0177L41.8673 88.7728C40.3753 88.4472 38.9027 88.0383 37.4565 87.548L34.7916 86.5681C34.247 86.3538 33.7153 86.1084 33.1988 85.8333L32.433 85.4964L30.8096 84.6697L30.197 84.3635L32.9844 79.4642L33.5051 79.7398L34.3015 80.1072L34.9448 80.4441C36.3856 81.1393 37.8691 81.7428 39.3862 82.2507V82.2507C40.7952 82.71 42.2349 83.0774 43.4295 83.353H44.0728L46.2476 83.6899L45.3286 89.4158ZM30.0132 84.3022L30.5952 84.6084L32.2492 85.4046L33.015 85.772C33.5315 86.0472 34.0633 86.2926 34.6078 86.5069L37.2421 87.4561C38.743 87.9767 40.3052 88.3747 41.6223 88.6809L42.6025 88.9259L45.053 89.2933L45.9106 83.8123L43.7358 83.4755L43.1232 83.3224C41.7464 83.0282 40.3865 82.6602 39.0493 82.22V82.22C37.5293 81.72 36.0453 81.1164 34.6078 80.4135L33.9646 80.1072L33.1682 79.7092L32.6474 79.4336L30.0132 84.3022Z" fill="white"/>
</g>
<g opacity="0.86">
<path d="M86.5271 73.1254C86.1552 73.6165 85.7564 74.0868 85.3325 74.5339C84.2735 75.758 83.1379 76.9137 81.9325 77.994C81.1562 78.7535 80.3381 79.4691 79.482 80.1374L76.4189 82.2808L73.1108 84.3018C71.9774 84.9448 70.7216 85.4653 69.527 86.0777C65.0121 88.0311 60.2141 89.2508 55.3143 89.6909C53.3232 89.6909 51.6385 89.9665 50.4746 89.844H48.6367L49.0655 84.2711C51.0033 84.4016 52.9477 84.4016 54.8854 84.2711C59.166 83.9098 63.3628 82.8764 67.3216 81.2091C71.2689 79.49 74.8864 77.0964 78.0117 74.1358C79.0996 73.1843 80.1229 72.1613 81.0748 71.0738C81.46 70.6884 81.8087 70.2681 82.1163 69.8184L86.5271 73.1254Z" fill="white"/>
<path d="M51.4854 89.9059H50.6278H48.7593L49.1881 84.3024C49.525 84.3024 50.3827 84.3024 51.6692 84.3024C52.9557 84.3024 53.8746 84.3024 55.008 84.3024C59.2974 83.8949 63.4949 82.8097 67.4441 81.0873C71.3867 79.3595 75.0028 76.9669 78.1343 74.014C78.922 73.3336 79.6591 72.5968 80.3397 71.8094L81.1055 70.9826C81.482 70.6002 81.8301 70.1909 82.1469 69.7578L86.5272 73.3404C86.1674 73.8412 85.7679 74.3122 85.3325 74.7489L84.5668 75.5756C83.7628 76.5144 82.8927 77.3944 81.9631 78.209L81.1668 78.9132C80.6432 79.424 80.091 79.9045 79.5127 80.3524L79.2983 80.5055L76.6027 82.4958L73.264 84.5167C72.4982 84.9454 71.6712 85.3435 70.8748 85.7109L69.6802 86.2621C65.1684 88.23 60.3697 89.4603 55.4674 89.9059H53.5071H51.4854ZM48.8205 89.7222H50.6278H51.4854H53.5071C54.1601 89.6895 54.8144 89.6895 55.4674 89.7222C60.367 89.2611 65.1634 88.0314 69.6802 86.0784L70.8748 85.4966C71.6712 85.1292 72.4982 84.7311 73.264 84.3024L76.5721 82.3121L79.2676 80.2912H79.4821C80.0671 79.8627 80.62 79.392 81.1361 78.8826L81.9325 78.1784C82.8621 77.3638 83.7322 76.4838 84.5362 75.545L85.3019 74.6877C85.7364 74.2611 86.1359 73.8003 86.4965 73.3097L82.1776 69.7884C81.883 70.2298 81.5443 70.6402 81.1668 71.0132L80.401 71.84C79.722 72.6384 78.9848 73.3855 78.1956 74.0752C75.0448 77.0183 71.4205 79.4096 67.4747 81.1485C63.5144 82.8111 59.3183 83.8442 55.0386 84.2106C53.9359 84.2106 52.8026 84.2106 51.6998 84.2106C50.5971 84.2106 49.5557 84.2106 49.2187 84.2106L48.8205 89.7222Z" fill="white"/>
</g>
<g opacity="0.72">
<path d="M96.3595 45.3848C96.3595 45.3848 96.3595 47.0383 96.1451 49.5491C96.1451 50.8045 95.7469 52.2437 95.5324 53.7747C95.318 55.3057 94.736 56.8367 94.3378 58.5515C93.9396 60.2662 93.2351 61.6135 92.5919 63.1445C91.9486 64.6755 91.3054 65.8697 90.6928 66.972C90.0801 68.0744 89.4982 68.9317 89.1 69.5441C88.9181 69.8744 88.7134 70.1916 88.4874 70.4934L83.9233 67.4313C84.1158 67.1681 84.2898 66.8919 84.4441 66.6046L85.8225 64.3387C86.3738 63.3895 86.8639 62.1953 87.5072 60.9705C88.1504 59.7456 88.4874 58.3371 89.0081 56.9592C89.5288 55.5813 89.7738 54.1422 90.0495 52.7949C90.3252 51.4476 90.4784 50.1921 90.5703 49.0898C90.5703 46.9158 90.7847 45.446 90.7847 45.446L96.3595 45.3848Z" fill="white"/>
<path d="M88.4872 70.4634L83.8926 67.4013L84.4133 66.5746L84.6584 66.1459L85.7917 64.3087L86.7719 62.349C86.9863 61.9203 87.2007 61.4304 87.4457 60.9711C87.6908 60.5118 88.1503 59.1951 88.4872 58.2153L88.9467 56.9598C88.9467 56.4393 89.2223 55.9188 89.3449 55.3982C89.4674 54.8777 89.835 53.6529 89.9881 52.7955C90.1413 51.9381 89.9881 51.785 90.2025 51.3257C90.3435 50.5865 90.4458 49.8404 90.5088 49.0904L90.7233 45.416H96.3287C96.3287 45.416 96.3287 47.0695 96.1143 49.5804C96.1143 50.4071 95.8693 51.3563 95.7161 52.3362C95.7161 52.8261 95.5629 53.316 95.471 53.806C95.2673 54.8388 95.0117 55.8608 94.7053 56.868C94.7053 57.4191 94.4296 57.9397 94.3071 58.4908C94.1845 59.042 93.9089 59.5013 93.7251 60.0219C93.3575 61.0936 92.9899 62.104 92.5611 63.0839C92.3161 63.5432 92.1017 64.0331 91.8566 64.4924C91.6116 64.9517 91.0602 66.1765 90.6314 66.9114L89.0692 69.4835C88.7016 70.1265 88.4566 70.4634 88.4566 70.4634H88.4872ZM83.9538 67.4013L88.4872 70.4634L89.0998 69.5448L90.662 66.9421C91.1193 66.1614 91.5285 65.3536 91.8872 64.523L92.5611 63.1145C92.9899 62.1653 93.3575 61.1242 93.7557 60.0525L94.3071 58.5521C94.3071 58.0009 94.5827 57.4498 94.7359 56.9292C95.0116 55.8269 95.2872 54.8164 95.5017 53.8672C95.5017 53.3773 95.5017 52.8567 95.7161 52.3974C95.8999 51.4176 96.0224 50.4683 96.1143 49.6416C96.1143 47.3145 96.3287 45.7222 96.3593 45.5079H90.7845L90.6314 49.0292C90.6314 49.7029 90.4476 50.4377 90.3251 51.2339C90.2025 52.03 90.3251 52.2137 90.08 52.7343C89.835 53.2548 89.7124 54.4184 89.4674 55.3064C89.2224 56.1944 89.1917 56.3474 89.0692 56.8986L88.6097 58.154C88.2421 59.1033 87.9358 60.0219 87.5376 60.9099L86.8638 62.2878C86.5268 62.992 86.2205 63.6657 85.8836 64.2475L84.7809 66.0847L84.5052 66.5134L83.9845 67.3401L83.9538 67.4013Z" fill="white"/>
</g>
<g opacity="0.86">
<path d="M53.6293 98.0206H53.8744V94.3768H53.6293V98.0206Z" fill="white"/>
<path d="M51.7302 98.2655H52.0059L52.0978 98.0206V94.7136H51.7302V98.2655Z" fill="white"/>
<path d="M49.9843 98.2655H50.3518L50.4437 94.6217H50.168L49.9843 98.2655Z" fill="white"/>
<path d="M48.2383 98.2655H48.6059L48.8203 94.6217H48.4527L48.2383 98.2655Z" fill="white"/>
<path d="M55.214 98.143L55.2221 98.2655L55.0996 98.143H55.214L54.9771 94.5911H55.2221L55.4978 98.143H55.214Z" fill="white"/>
<path d="M46.4923 98.2655H46.8599L47.1662 94.7136H46.8293L46.4923 98.2655Z" fill="white"/>
<path d="M56.6005 94.6217L56.9681 98.2655H57.305L56.9375 94.6217H56.6005Z" fill="white"/>
<path d="M44.6851 98.2655H45.022L45.0833 98.1737L45.4815 94.6523H45.1446L44.6851 98.2655Z" fill="white"/>
<path d="M58.1933 94.6523L58.6834 98.2655H59.0816L58.5609 94.6523H58.1933Z" fill="white"/>
<path d="M42.9698 98.2655H43.368L43.9193 94.683H43.5518L42.9698 98.2655Z" fill="white"/>
<path d="M59.8168 94.683L60.3987 98.2655H60.797L60.1843 94.7442L60.0005 94.5299V94.683H59.8168Z" fill="white"/>
<path d="M41.2544 98.1124H41.6527L42.2959 94.5299H41.9283L41.2544 98.1124Z" fill="white"/>
<path d="M61.4096 94.4074L62.1141 97.9593V97.99H62.4816L61.7465 94.4074H61.4096Z" fill="white"/>
<path d="M39.5391 97.7756H39.9373L40.7031 94.2236H40.3355L39.5391 97.7756Z" fill="white"/>
<path d="M63.0024 94.0399L63.8294 97.5919H64.2276L63.3393 94.0399H63.0024Z" fill="white"/>
<path d="M38.0382 97.3775H38.222L39.2941 93.8256H38.9265L38.0382 97.3775Z" fill="white"/>
<path d="M65.7591 97.1632L65.9736 97.3775L64.9321 93.6419H64.5645L65.5447 97.1632H65.7591Z" fill="white"/>
<path d="M36.3535 96.9795H36.5373L37.7319 93.4888H37.3643L36.3535 96.9795Z" fill="white"/>
<path d="M34.6994 96.459V96.9795L36.0472 92.9988H35.6796L34.5157 96.459H34.6994Z" fill="white"/>
<path d="M66.1574 93.3051L67.2294 96.7958L67.5664 95.8159L66.3411 91.8965V93.3051H66.1574Z" fill="white"/>
<path d="M68.8835 96.2752L68.8624 96.214H68.8529L67.6889 92.8151L68.8624 96.214H69.1898L68.8835 96.2752Z" fill="white"/>
<path d="M33.076 94.9585H33.2598L34.5157 91.5903V90.886L34.3319 91.5291L33.076 94.9585Z" fill="white"/>
<path d="M69.1898 91.2841L70.5682 94.7136L70.469 94.7246L70.4763 94.7442H70.2925L70.469 94.7246L69.1898 91.2841Z" fill="white"/>
<path d="M32.9841 90.9779L31.6057 94.3461L33.1373 90.9779H32.9841Z" fill="white"/>
<path d="M72.1537 93.9481L72.1917 94.0399L72.0079 93.9481H72.1537L70.8132 90.7023L72.1917 93.9481H72.1537Z" fill="white"/>
<path d="M31.4526 90.3349L29.9823 93.6725L31.7895 90.3349H31.4526Z" fill="white"/>
<path d="M72.2835 90.0287L73.7844 93.3663L73.9682 93.2744L72.2835 89.6613V90.0287Z" fill="white"/>
<path d="M28.267 92.9376H28.4201L29.8598 89.6613L28.267 92.9376Z" fill="white"/>
<path d="M73.7538 89.3244L75.3772 92.6314V92.5396H75.561L73.9682 89.3244H73.7538Z" fill="white"/>
<path d="M76.9394 91.8047L76.3027 90.6111L75.2241 88.6508V88.5895L76.3027 90.6111L76.9088 91.7128L76.9394 91.8047Z" fill="white"/>
<path d="M25.112 91.3147H25.2957L26.8886 88.2527L25.112 91.3147Z" fill="white"/>
<path d="M76.6331 87.8853L78.471 90.9473H78.6854L76.8169 87.8853H76.6331Z" fill="white"/>
<path d="M23.5804 90.4574H23.7642L25.6327 87.3953H25.4796L23.5804 90.4574Z" fill="white"/>
<path d="M78.0115 86.9973L79.9719 90.0593H80.0944H80.2476L78.3484 86.9973H78.0115Z" fill="white"/>
<path d="M24.2849 86.4461L22.2939 89.5081L24.4075 86.4461H24.2849Z" fill="white"/>
<path d="M79.3899 86.048L81.4115 89.1101L81.5647 88.9876L79.3899 85.7725V86.048Z" fill="white"/>
<path d="M22.9372 85.4662L20.8236 88.5283L23.0903 85.4662C23.0401 85.4533 22.9874 85.4533 22.9372 85.4662Z" fill="white"/>
<path d="M80.707 85.0376L82.8512 88.0996H82.8205L80.707 85.0376Z" fill="white"/>
<path d="M19.2921 87.3953L19.0777 87.8546L21.4975 84.3333L19.2921 87.3953Z" fill="white"/>
<path d="M82.0548 84.1802L84.2602 87.0585H84.2908L82.0548 84.1802Z" fill="white"/>
<path d="M17.7299 86.1705L18.0362 86.4461L20.0272 83.3535L17.7299 86.1705Z" fill="white"/>
<path d="M83.3107 83.1697L85.608 85.9868L85.7611 85.9562L83.4638 83.1697H83.3107Z" fill="white"/>
<path d="M16.3822 85.0682L16.6885 85.3132L18.7714 82.3124L16.3822 85.0682Z" fill="white"/>
<path d="M84.5359 82.1287L86.9557 84.8539H86.9251L84.5359 82.1287Z" fill="white"/>
<path d="M85.7917 81.0263L88.2729 83.6903L88.2116 83.7515H88.3954L85.7917 81.0263Z" fill="white"/>
<path d="M16.6272 80.3527L14.0542 82.9554L16.8723 80.5976L16.6272 80.3527Z" fill="white"/>
<path d="M86.9251 79.8934L89.4981 82.4655L89.4062 82.6186V82.4042L86.9251 79.8934Z" fill="white"/>
<path d="M15.5245 79.1891L12.9209 81.7306L15.7083 79.1891H15.5245Z" fill="white"/>
<path d="M88.1503 78.7298L90.7846 81.21L90.6927 81.3019H90.9377L88.1503 78.7298Z" fill="white"/>
<path d="M14.4524 78.0256L11.7263 80.4445L14.6975 78.2705L14.4524 78.0256Z" fill="white"/>
<path d="M90.4477 76.2802L93.2657 78.5767L93.4801 78.5155V78.3011L90.6927 75.974L90.4477 76.2802Z" fill="white"/>
<path d="M91.4891 74.9941L94.3684 77.2294L94.5522 77.3519V77.1988L91.4891 74.9941Z" fill="white"/>
<path d="M11.665 74.2593L8.60193 76.4027L11.9407 74.2593H11.665Z" fill="white"/>
<path d="M92.408 73.6775L95.4711 75.8209L95.6855 75.6678C95.7 75.6178 95.7 75.5647 95.6855 75.5147L92.6224 73.3713L92.408 73.6775Z" fill="white"/>
<path d="M93.4189 72.3608L96.4819 74.3817L96.6964 74.0755L93.6333 72.0546L93.4189 72.3608Z" fill="white"/>
<path d="M6.15145 73.1876L6.33525 73.5244L9.21454 71.381V71.2279L6.15145 73.1876Z" fill="white"/>
<path d="M94.0927 70.9829L97.1558 72.912L97.3396 73.0038V72.8507L94.2765 70.9829H94.0927Z" fill="white"/>
<path d="M5.23254 71.7178L5.41631 72.0546L8.4794 70.1561L8.29562 69.85L5.23254 71.7178Z" fill="white"/>
<path d="M4.49738 70.0337V70.4624L7.56047 68.3189L4.49738 70.0337Z" fill="white"/>
<path d="M95.7162 68.0434L98.9324 69.7887L98.7793 69.6356L95.7162 67.8903V68.0434Z" fill="white"/>
<path d="M3.54783 68.5333L3.73161 68.8701L6.82533 67.2166V66.8798L3.54783 68.5333Z" fill="white"/>
<path d="M96.5432 66.7267L99.8207 68.3189L99.9126 68.4721V68.3189L96.8495 66.7267H96.5432Z" fill="white"/>
<path d="M2.93522 67.2166V67.4003L6.24334 65.8081V65.655L2.93522 67.2166Z" fill="white"/>
<path d="M2.2307 65.4712V65.8081L5.60009 64.1852V64.0321L2.2307 65.4712Z" fill="white"/>
<path d="M97.799 63.7259L101.168 65.1038L101.23 64.767L97.9522 63.3891H97.4928L97.799 63.5422V63.7259Z" fill="white"/>
<path d="M1.55682 63.9709V64.3383L4.92621 62.8073C4.91866 62.7565 4.91866 62.7049 4.92621 62.6542L1.55682 63.9709Z" fill="white"/>
<path d="M98.4117 62.3174L101.842 63.6034V63.5422L98.136 62.0724L98.4117 62.3174Z" fill="white"/>
<path d="M0.944207 62.5317V62.6848L4.37485 61.6131V61.3069L0.944207 62.5317Z" fill="white"/>
<path d="M98.963 60.7557L102.455 61.9499L102.332 61.7662L98.963 60.6026V60.7557Z" fill="white"/>
<path d="M3.94602 59.8984L0.454102 61.0007L3.94602 60.2658V59.8984Z" fill="white"/>
<path d="M99.4838 59.2247L102.976 60.2658V60.1127L99.4838 59.041C99.4981 59.1014 99.4981 59.1643 99.4838 59.2247Z" fill="white"/>
</g>
</svg>
