<svg width="356" height="17" viewBox="0 0 356 17" fill="none" xmlns="http://www.w3.org/2000/svg">
<path d="M69.075 16.5312H87.0247L93.4879 10.0703H205.076V9.05981H93.1509L86.7184 15.5207H69.6264L64.4498 10.4377H57.0371L49.9001 3.33381H7.17001C7.04221 2.44475 6.58221 1.63711 5.88263 1.07348C5.18304 0.509855 4.29584 0.232113 3.39963 0.296156C2.5034 0.360199 1.6647 0.761275 1.05243 1.41865C0.44017 2.07602 0.0997925 2.94086 0.0997925 3.83905C0.0997925 4.73725 0.44017 5.60208 1.05243 6.25945C1.6647 6.91683 2.5034 7.31793 3.39963 7.38197C4.29584 7.44601 5.18304 7.16825 5.88263 6.60462C6.58221 6.04099 7.04221 5.23335 7.17001 4.34429H49.4406L56.5776 11.4788H64.0209L69.075 16.5312ZM3.67809 1.22103C4.37674 1.22103 5.04677 1.49846 5.54079 1.99231C6.03481 2.48616 6.31235 3.15595 6.31235 3.85435C6.31235 4.55276 6.03481 5.22257 5.54079 5.71642C5.04677 6.21027 4.37674 6.48769 3.67809 6.48769C2.97945 6.48769 2.30942 6.21027 1.8154 5.71642C1.32138 5.22257 1.04384 4.55276 1.04384 3.85435C1.04384 3.15595 1.32138 2.48616 1.8154 1.99231C2.30942 1.49846 2.97945 1.22103 3.67809 1.22103Z" fill="#FDFEFF"/>
</svg>
