<svg width="203" height="20" viewBox="0 0 203 20" fill="none" xmlns="http://www.w3.org/2000/svg">
<path d="M105.775 19.4661H124.153L130.279 13.5257H141.613L148.688 6.23814H192.858C193.006 7.46186 193.616 8.58286 194.564 9.37223C195.511 10.1616 196.723 10.5598 197.954 10.4856C199.185 10.4113 200.341 9.8702 201.186 8.97271C202.032 8.07521 202.502 6.88902 202.502 5.65635C202.502 4.42368 202.032 3.23751 201.186 2.34001C200.341 1.44251 199.185 0.901402 197.954 0.827151C196.723 0.7529 195.511 1.15111 194.564 1.94048C193.616 2.72986 193.006 3.85085 192.858 5.07458H148.198L140.939 12.3622H129.605L123.663 18.3025H106.265L101.884 13.9544H0.251205V15.118H101.333L105.775 19.4661ZM197.667 1.55325C198.428 1.55322 199.172 1.77264 199.811 2.18517C200.45 2.5977 200.956 3.1858 201.269 3.87887C201.582 4.57194 201.688 5.34053 201.575 6.09236C201.461 6.8442 201.133 7.54734 200.63 8.11735C200.126 8.68737 199.469 9.10002 198.737 9.30582C198.005 9.51161 197.229 9.50178 196.502 9.2775C195.775 9.05322 195.128 8.62404 194.64 8.04145C194.151 7.45887 193.841 6.74764 193.746 5.99317V5.07458C193.86 4.10034 194.329 3.20214 195.064 2.5523C195.798 1.90245 196.747 1.5467 197.729 1.55325H197.667Z" fill="white"/>
</svg>
