<svg width="141" height="138" viewBox="0 0 141 138" fill="none" xmlns="http://www.w3.org/2000/svg">
<g opacity="0.72">
<path d="M30.2058 109.129L30.3589 109.313L30.8796 109.864L31.2472 110.262L31.6761 110.721L32.1968 111.242L32.8094 111.824C33.667 112.65 34.7391 113.63 35.8725 114.702C37.0058 115.774 38.6292 116.876 40.3446 118.009C42.1819 119.224 44.0838 120.338 46.0419 121.346L46.8077 121.744H47.0221H47.2365L47.6347 121.928L49.2888 122.694C50.4222 123.153 51.5861 123.612 52.8113 124.041L53.2402 124.194H53.6996L54.6186 124.47C55.2312 124.653 55.8745 124.868 56.5177 125.021L58.4168 125.511L59.397 125.725H59.8871H60.3772H60.8673H61.3574L62.3682 125.909H63.379H63.8691H64.3898C65.7376 125.909 67.0853 126.154 68.4637 126.246H72.5376C73.8854 126.246 75.2638 126.246 76.5809 126.001C77.898 125.756 79.2458 125.664 80.5323 125.449L81.4819 125.266H81.972H82.462L83.381 125.051L84.3305 124.837L85.2495 124.592L86.1684 124.317L87.945 123.796L88.3738 123.643H88.5882H88.8026L89.6603 123.337H90.0891L90.4873 123.184L91.3144 122.877C93.4072 122.053 95.4524 121.112 97.4405 120.06C99.2171 119.081 100.81 118.101 102.188 116.998L102.678 116.662L103.169 116.325L104.087 115.651L104.914 115.008H105.098H105.282L105.65 114.702L106.844 113.691L107.12 113.477L107.334 113.293L107.733 112.926L108.284 112.436L108.468 112.252L114.594 118.836L114.41 119.05L113.767 119.601L113.307 119.999L113.032 120.244C112.944 120.342 112.84 120.425 112.725 120.489C112.327 120.856 111.868 121.255 111.316 121.683L110.888 122.02H110.673L110.459 122.204L109.509 122.939L108.437 123.704L107.886 124.102L107.304 124.5C105.528 125.731 103.687 126.866 101.79 127.899C99.5391 129.118 97.2172 130.202 94.8369 131.145L93.8874 131.512L93.3973 131.696L92.9072 131.88L91.927 132.247H91.6819H91.4369L90.9162 132.431L88.8333 133.043L87.7918 133.35L86.7197 133.625L85.617 133.901L84.5143 134.115H83.963H83.4116L82.2783 134.329C80.7774 134.574 79.2152 134.789 77.7143 134.942C76.2134 135.095 74.6512 135.217 72.9971 135.248H69.4439H68.28C66.6871 135.248 65.2169 135.064 63.5322 134.881H62.9502H62.3682L61.2042 134.697L60.0402 134.513H59.4889H58.9069H58.3249L57.7429 134.36L56.6096 134.146L54.3735 133.564L52.1987 132.951L51.1267 132.584L50.6059 132.431L50.0546 132.247C48.6762 131.757 47.2978 131.206 45.9807 130.655L44.0509 129.798L43.5915 129.583H43.3464H43.132L42.1824 129.124C39.9104 127.974 37.7111 126.685 35.5968 125.266C33.7918 124.076 32.0534 122.788 30.3895 121.408C28.8886 120.183 27.6634 119.05 26.6526 118.07L25.9481 117.396C25.7337 117.182 25.5499 116.968 25.3355 116.784L24.8147 116.233L24.4165 115.804L23.8345 115.192L23.6201 114.947L30.2058 109.129Z" fill="white"/>
<path d="M71.0366 136.228H68.2186C66.4726 136.228 64.9104 136.014 63.4708 135.83H62.8888H62.3068H61.8167H61.1428H60.5914H59.9788H59.3968H59.0905H58.8455H58.386H57.804L56.6707 135.585H56.1806L54.4347 135.156L52.5049 134.575H52.2598L51.4941 134.33H51.1878H50.9121H50.6364H50.3914H50.1157C48.6454 133.84 47.2364 133.258 46.0418 132.768L45.5823 132.554L44.112 131.88L43.8057 131.696H43.5607H43.3156L42.9174 131.482L42.3967 131.237C40.1199 130.077 37.9109 128.789 35.7804 127.379C34.0038 126.185 32.2579 124.868 30.6038 123.521C28.9497 122.173 28.1227 121.408 26.8669 120.183L26.5299 119.846L26.1623 119.509L25.6722 118.989L25.3966 118.713L25.1515 118.468L24.8758 118.162V118.009L24.4776 117.58L24.2939 117.397L24.1101 117.182L30.757 111.058L30.9407 111.242L31.3696 111.701L31.6146 111.946L32.0741 112.406L32.2579 112.62L32.5948 112.957L33.1768 113.539C33.9732 114.273 35.0453 115.284 36.2399 116.386C37.4345 117.489 39.303 118.713 40.712 119.724C42.5458 120.935 44.4481 122.039 46.4094 123.031L47.1445 123.429L47.5427 123.613L47.9409 123.827L49.1355 124.347L49.595 124.562C50.6977 125.021 51.8617 125.511 53.1175 125.909H53.3626H53.5464H53.9139H54.3121L54.8328 126.093H55.2004L56.732 126.522C57.1608 126.522 57.6203 126.766 58.0491 126.889H58.6311H59.2437H59.6113H59.9482H60.1933H60.4383H60.9284H61.4491H62.2455H62.4293H63.0419H63.4401H63.9302H64.4509C65.6149 126.889 66.9014 127.134 68.5249 127.226H72.5988C73.8853 127.226 75.2024 127.226 76.642 126.95C78.0817 126.675 79.3682 126.613 80.5934 126.399H81.2367H81.543H82.0331H82.2169H82.4925H83.0439H83.4421H83.8709H84.3917L85.1574 126.185H85.5556H86.0457H86.3827L87.8529 125.725H88.0674H88.2818H88.4962H88.7106H88.9863L89.5683 125.511H89.9052L90.3034 125.358H90.671L91.1304 125.174C93.2288 124.375 95.2749 123.444 97.2566 122.388C98.8494 121.5 100.32 120.52 102.004 119.326L102.494 118.958L102.831 118.713L103.475 118.254L103.72 118.07L104.149 117.734L104.547 117.427L104.914 117.152L105.895 116.356L106.14 116.141L106.354 115.958L106.568 115.774L106.752 115.59C106.948 115.441 107.132 115.277 107.304 115.1H107.487L113.614 121.684L113.399 121.898L112.756 122.449L112.572 122.633L112.296 122.878H112.113L111.929 123.061L110.489 124.225L110.091 124.562L109.877 124.746L109.632 124.929L108.958 125.45L108.682 125.634L108.069 126.093L107.64 126.43C107.457 126.43 107.304 126.675 107.059 126.797L106.477 127.226C104.699 128.444 102.859 129.569 100.963 130.594C98.7183 131.814 96.4072 132.908 94.0404 133.87L93.489 134.085L93.0602 134.238L92.5701 134.422H92.4169H92.08H91.6512L91.0998 134.605L90.6097 134.789H90.334H90.089L88.3737 135.31H88.0061L86.9646 135.585C86.6163 135.709 86.2575 135.801 85.8926 135.861H85.4944H84.7898L83.6871 136.106H83.2277H82.7376H82.37H81.6349C80.2054 136.351 78.6739 136.565 77.0402 136.749C75.2943 136.902 73.7627 137.024 72.3231 137.055H70.424L71.0366 136.228ZM23.5894 115.161L23.7731 115.345V115.529L24.202 115.988L24.5083 116.294L24.7533 116.539L25.029 116.846L25.5497 117.366L25.9173 117.734L26.2542 118.04C27.5101 119.265 28.7353 120.336 29.9606 121.377C31.1858 122.418 33.3912 124.041 35.1678 125.235C37.294 126.653 39.5034 127.941 41.7841 129.094L42.3048 129.339L42.703 129.553H42.9174H43.1625L43.4994 129.706L44.9391 130.349L45.4292 130.563C46.6238 131.053 48.0328 131.635 49.5031 132.125H49.7481H50.0238H50.2689H50.5445H50.8815L51.6166 132.37H51.8616L53.822 132.952L55.5373 133.38H56.0275L57.1608 133.625H57.7428H58.2022H58.4473H58.7842H59.3356H59.9482H60.4996H61.1734H61.6635H62.2455H62.8275C64.2672 133.809 65.8906 133.932 67.5753 134.023H72.8744C74.3141 134.023 75.9375 133.87 77.5916 133.717C79.2457 133.564 80.6547 133.319 82.1556 133.074H82.9214H83.2889H83.8097H84.2691L85.3718 132.829L86.0457 132.676H86.4746L87.5466 132.401L88.5881 132.125H88.925L90.671 131.574H90.916H91.1611L91.6818 131.39L92.2332 131.206L92.662 131.053H92.9989H93.1521L93.6422 130.87L94.071 130.716L94.5917 130.502C96.9685 129.54 99.2898 128.446 101.545 127.226C103.444 126.185 105.313 125.052 107.059 123.858L107.64 123.429L108.192 123.061L108.651 122.725L109.233 122.265L109.509 122.082L110.213 121.561L110.428 121.377L110.642 121.194C110.788 121.098 110.922 120.985 111.041 120.857C111.592 120.459 112.051 120.061 112.48 119.693L112.664 119.54H112.848L113.123 119.295L113.338 119.111C113.554 118.941 113.758 118.757 113.95 118.56L114.134 118.377L108.008 111.824L107.824 111.977L107.304 112.467H107.12L106.905 112.681L106.691 112.865L106.446 113.049L105.466 113.875L105.098 114.151L104.7 114.457L104.271 114.763L103.995 114.978L103.352 115.437L103.046 115.682H102.862L102.372 116.049C100.81 117.09 99.3089 118.07 97.6242 118.958C95.6455 120.02 93.599 120.951 91.498 121.745C91.3504 121.819 91.1967 121.881 91.0386 121.928L90.671 122.082H90.2728H89.9358L89.3538 122.296L88.8638 122.449H88.6493H88.4655H88.2205L86.7502 122.908H86.4439H85.9538H85.525L84.7286 123.123H84.2079H83.8097H83.3808H82.8601H82.5844H82.37H81.8799H81.5736H80.9304C79.7357 123.306 78.4186 123.49 76.979 123.643C75.5393 123.796 74.2222 123.888 72.9357 123.919H68.5861C66.9933 123.919 65.7068 123.735 64.5428 123.582H64.0221H63.532H63.1338H62.5212H62.3374H61.5104H61.0203H60.5302H60.2851H60.0401H59.7031H59.305H58.723H58.141L56.8239 123.245L55.2923 122.786H54.9247L54.404 122.602H54.0058H53.6076H53.3932H53.1481C51.9229 122.173 50.7283 121.714 49.6562 121.255L49.1968 121.04L48.0021 120.52L47.5733 120.306L47.1445 120.122L46.4094 119.724C44.4444 118.739 42.5417 117.635 40.712 116.417C39.1805 115.406 37.6489 114.273 36.2093 113.079C34.7696 111.885 33.7894 110.966 33.1462 110.232L32.5336 109.619L32.1966 109.282L32.0128 109.099L31.5534 108.639L31.3083 108.364L30.8795 107.904L30.7263 107.721L23.5894 115.161Z" fill="white"/>
</g>
<path opacity="0.79" d="M79.5825 128.145H80.1339H80.5321L81.696 127.962L83.2276 127.717C84.3916 127.502 85.8006 127.227 87.3934 126.798C89.1781 126.354 90.937 125.813 92.6619 125.175C94.7568 124.461 96.8031 123.612 98.7881 122.634L99.5845 122.236L100.35 121.837L101.147 121.409L101.943 120.98L102.739 120.521L103.536 120.031L104.332 119.541L104.73 119.296L105.129 119.02C109.559 116.124 113.586 112.654 117.105 108.701C118.853 106.623 120.449 104.423 121.884 102.118C122.251 101.567 122.619 101.046 122.956 100.465L123.232 100.036V99.8521V99.6378L123.722 98.7805C124.365 97.6475 125.008 96.5146 125.559 95.3816C125.835 94.8304 126.111 94.2486 126.356 93.6975C126.504 93.4233 126.627 93.1364 126.723 92.8401C126.871 92.5765 126.994 92.2998 127.091 92.0134L127.459 91.156C127.523 91.0288 127.574 90.8954 127.612 90.7579C127.676 90.6202 127.728 90.4767 127.765 90.3292L128.102 89.5025L128.377 88.6758C129.106 86.6191 129.72 84.5234 130.215 82.3986C130.644 80.4389 130.981 78.6017 131.196 76.9788C131.196 76.5808 131.196 76.1827 131.196 75.7846C131.196 75.3866 131.196 75.0498 131.196 74.6823C131.196 74.3149 131.196 73.978 131.196 73.6718C131.196 73.3656 131.196 73.0288 131.196 72.7226C131.211 72.4473 131.211 72.1712 131.196 71.8959C131.18 71.6512 131.18 71.4057 131.196 71.161V70.518C131.179 70.3448 131.179 70.1706 131.196 69.9974V69.0176H140.262C140.262 69.0176 140.262 69.4156 140.262 70.1199V70.7323C140.246 70.977 140.246 71.2225 140.262 71.4672C140.262 71.7121 140.262 71.9877 140.262 72.2939C140.262 72.6001 140.262 72.9063 140.262 73.2432C140.262 73.58 140.262 73.9168 140.262 74.3149C140.262 74.7129 140.262 75.0498 140.262 75.4478C140.262 75.8459 140.262 76.2746 140.262 76.7339C140.262 77.1932 140.262 77.5912 140.262 78.0505C140.017 79.9184 139.65 82.0006 139.129 84.1746C138.569 86.5967 137.884 88.9882 137.077 91.3397C137.077 91.6459 136.832 91.9521 136.74 92.2583L136.372 93.2075L136.188 93.6975L136.005 94.1568C136.005 94.4936 135.729 94.7998 135.606 95.1366C135.484 95.4735 135.331 95.749 135.208 96.0859C135.086 96.4227 134.933 96.7289 134.749 97.0657C134.565 97.4026 134.167 98.3517 133.83 98.9948C133.217 100.281 132.513 101.567 131.778 102.853L131.196 103.802L131.042 104.047V104.292L130.736 104.751C130.338 105.394 129.94 106.037 129.511 106.65C127.802 109.188 125.93 111.612 123.905 113.907C116.415 122.344 106.941 128.784 96.3376 132.646C94.1935 133.412 92.1412 134.024 90.2114 134.484C88.2817 134.943 86.8114 135.28 85.4943 135.525L83.7177 135.831L82.4006 136.015H81.9104H81.2978L79.5825 128.145Z" fill="#EBFBF7"/>
<g opacity="0.89">
<path d="M73.7017 124.594H74.3449H76.0909C78.1441 124.453 80.1888 124.208 82.2171 123.859C83.5036 123.614 84.8819 123.338 86.3216 122.971C87.7612 122.603 89.3847 122.144 90.7937 121.624C93.982 120.505 97.0585 119.09 99.983 117.398C102.928 115.726 105.708 113.778 108.284 111.58C109.54 110.539 110.704 109.467 111.745 108.518C112.787 107.569 113.736 106.405 114.594 105.456C115.961 103.864 117.239 102.198 118.423 100.465L118.974 99.6382C119.127 99.3932 119.28 99.1789 119.372 98.9951L119.709 98.4746L124.518 101.537L124.151 102.118L123.691 102.823C123.507 103.068 123.324 103.404 123.079 103.741C122.129 105.119 120.72 107.048 118.882 109.222C117.933 110.294 116.891 111.458 115.819 112.621C114.747 113.785 113.399 114.948 112.021 116.112C106.299 120.934 99.7506 124.679 92.6928 127.166C91.0081 127.748 89.3234 128.237 87.7612 128.636C86.1991 129.034 84.6981 129.37 83.2279 129.615C80.9562 130.006 78.6661 130.282 76.3666 130.442H74.4368H73.7629L73.7017 124.594Z" fill="white"/>
<path d="M73.8241 130.258V124.594H74.8962H76.2133C78.2674 124.463 80.3126 124.217 82.3395 123.859C83.8404 123.583 85.1881 123.308 86.444 122.971C87.6999 122.634 89.5071 122.144 90.9161 121.624C94.1048 120.518 97.1816 119.114 100.105 117.429C103.052 115.744 105.841 113.797 108.437 111.611C109.601 110.631 110.765 109.559 111.898 108.549C113.032 107.538 113.797 106.558 114.747 105.487C116.111 103.9 117.379 102.233 118.545 100.496L118.943 99.9138C119.006 99.8288 119.057 99.7362 119.097 99.6383V99.4545L119.372 99.0259L119.709 98.5053L124.518 101.567L124.151 102.18L123.783 102.731C123.694 102.837 123.612 102.95 123.538 103.068L123.17 103.649C121.858 105.559 120.447 107.399 118.943 109.161C117.871 110.386 116.83 111.488 115.88 112.529C114.931 113.57 113.399 114.918 112.082 116.02C106.364 120.863 99.8012 124.61 92.7233 127.074C91.1612 127.625 89.6603 128.115 87.7918 128.574C85.9233 129.034 84.7287 129.248 83.2584 129.554C80.9989 129.952 78.7181 130.218 76.4277 130.35H74.9268H73.7935L73.8241 130.258ZM73.8241 124.594V130.228H74.9574H76.4277C78.7283 130.095 81.0192 129.829 83.289 129.432C84.8818 129.126 86.3521 128.819 87.8224 128.452C89.2927 128.084 91.1918 127.503 92.754 126.951C96.2755 125.718 99.679 124.171 102.923 122.328C106.171 120.461 109.246 118.309 112.113 115.898C113.43 114.795 114.716 113.601 115.911 112.407C117.106 111.213 117.963 110.263 118.974 109.039C120.478 107.295 121.879 105.465 123.17 103.558C123.324 103.368 123.458 103.163 123.569 102.945C123.658 102.839 123.74 102.726 123.814 102.608L124.181 102.027L124.549 101.445L119.77 98.3828L119.464 98.9034C119.358 99.0369 119.266 99.1805 119.188 99.332V99.5157L119.005 99.7607L118.606 100.373C117.438 102.099 116.17 103.756 114.808 105.334C113.859 106.436 112.909 107.477 111.96 108.396C111.01 109.314 109.662 110.57 108.498 111.458C103.315 115.871 97.3516 119.278 90.9161 121.501C89.4515 122.033 87.9585 122.483 86.444 122.848C85.1881 123.185 83.8404 123.461 82.3395 123.736C80.3126 124.095 78.2674 124.34 76.2133 124.471H74.8962H73.8547L73.8241 124.594Z" fill="white"/>
</g>
<g opacity="0.64">
<path d="M12.0721 92.0137L12.3172 92.6567C12.3172 92.8711 12.5009 93.1466 12.6235 93.4528L12.8379 93.9428V94.2183C12.8494 94.3098 12.8494 94.4024 12.8379 94.4939C13.7444 96.6701 14.7669 98.7961 15.901 100.863C16.6361 102.149 17.4631 103.496 18.4127 104.905C19.3623 106.313 20.3731 107.722 21.4758 109.192C23.8779 112.189 26.532 114.975 29.4092 117.52C32.2631 120.065 35.3384 122.35 38.5984 124.349C40.1606 125.298 41.6615 126.125 43.2237 126.89L44.3264 127.441L45.4291 127.962L46.5012 128.421L47.0219 128.666L47.5427 128.85C49.7347 129.756 51.974 130.543 54.2508 131.208L55.3535 131.514L56.1499 131.728L56.8544 131.881L55.5373 137.209L54.8022 137.025L53.9139 136.811L52.7193 136.474C50.2542 135.762 47.8307 134.914 45.4598 133.933L44.8778 133.688L44.3264 133.443L43.1625 132.953L41.9679 132.402L40.7732 131.789C39.1192 130.963 37.4345 130.044 35.7498 129.034C32.1885 126.865 28.8264 124.385 25.7028 121.623C22.5808 118.818 19.7109 115.744 17.1262 112.437C15.901 110.876 14.7676 109.375 13.7568 107.783C12.746 106.191 11.8577 104.721 11.0613 103.404C9.78656 101.176 8.6411 98.8752 7.63061 96.5149C7.63572 96.4128 7.63572 96.3107 7.63061 96.2087C7.6232 96.1067 7.6232 96.0044 7.63061 95.9025L7.38558 95.3819L7.04864 94.5246L6.77295 93.7897L12.0721 92.0137Z" fill="white"/>
<path d="M55.9664 137.331L55.2313 137.147H54.7718H54.343H54.0367L53.1484 136.902C50.6717 136.195 48.2377 135.347 45.8582 134.361L45.3988 134.177H45.215H44.8474H44.5411L43.6835 133.779L42.4889 133.228L41.5699 132.769H41.2636C39.5789 131.911 37.8942 130.993 36.2401 129.982C32.6875 127.815 29.3355 125.335 26.2238 122.572C23.0801 119.789 20.2083 116.713 17.6472 113.386C16.4832 111.916 15.3193 110.324 14.2472 108.762C13.1751 107.201 12.5012 106.037 11.5517 104.353C10.2831 102.126 9.14773 99.8252 8.15163 97.4635V97.2798C8.15163 97.2798 8.15163 97.2798 8.15163 97.0961C8.15163 96.9124 8.15163 96.7287 7.93722 96.5756V96.2081C7.86758 96.0481 7.80622 95.8846 7.75342 95.7182L7.47775 94.9833L12.6237 93.0236L12.8688 93.6667C12.8688 93.8198 12.8688 94.0035 13.0832 94.1872V94.4628C13.0717 94.5543 13.0717 94.6468 13.0832 94.7383C13.0793 94.8097 13.0793 94.8813 13.0832 94.9527V95.2283C13.9882 97.4051 15.0108 99.5312 16.1463 101.597C17.0346 103.159 17.831 104.445 18.6274 105.639C19.4238 106.833 20.6797 108.701 21.6905 109.895C24.0667 112.905 26.7118 115.693 29.5933 118.224C32.4492 120.766 35.5243 123.051 38.7825 125.052C40.2528 125.94 41.8456 126.798 43.4078 127.594L43.806 127.808L44.5411 128.176L45.6132 128.666L46.1952 128.911L46.6853 129.156H47.0528H47.3591H47.5736C49.7619 130.062 52.0019 130.839 54.2817 131.483L55.1088 131.728H55.3845L56.1809 131.942L56.8854 132.126L55.9664 137.331ZM6.95703 94.0647L7.2327 94.7383C7.28507 94.9149 7.34641 95.0886 7.41648 95.2589L7.56964 95.5957L7.78405 96.1469C7.78405 96.1469 7.78405 96.1469 7.78405 96.3V96.4837V96.6368C8.93184 99.042 10.21 101.383 11.6129 103.649C12.5625 105.302 13.4201 106.711 14.3084 108.028C15.1967 109.344 16.5139 111.09 17.7085 112.682C22.8705 119.224 29.1686 124.783 36.3014 129.094C37.9555 130.105 39.6402 131.023 41.3249 131.881H41.6006C41.9069 132.034 42.2132 132.218 42.5195 132.34L43.7141 132.891L44.5718 133.289H44.8781L45.2762 133.473H45.5213L46.0114 133.657C48.3809 134.641 50.8046 135.49 53.2709 136.198L54.1592 136.443H54.4655H54.8943H55.3538L56.0889 136.627L57.3755 131.299L56.7016 131.146L55.9052 130.931H55.6295L54.4962 131.207C52.2267 130.563 49.997 129.786 47.8186 128.88H47.6042H47.2979H46.8997L46.4096 128.666L45.8276 128.39L44.7249 127.9L43.9898 127.533L43.6222 127.318C41.9987 126.522 40.5591 125.665 38.9663 124.777C35.7131 122.768 32.6387 120.484 29.777 117.948C26.9029 115.41 24.2584 112.623 21.8743 109.62C20.8022 108.242 19.7301 106.803 18.8112 105.333C17.8922 103.863 17.2184 102.853 16.3301 101.291C15.1945 99.225 14.172 97.0989 13.267 94.9221V94.6465C13.267 94.6465 13.267 94.6465 13.267 94.4628C13.2548 94.3611 13.2548 94.2583 13.267 94.1566V93.9116C13.206 93.724 13.1344 93.54 13.0526 93.3604C12.9932 93.1481 12.911 92.9428 12.8075 92.748L6.95703 94.0647Z" fill="white"/>
</g>
<g opacity="0.5">
<path d="M32.35 19.6879L31.5842 20.331C31.0635 20.7596 30.3283 21.4027 29.44 22.2294C26.9149 24.5501 24.5795 27.069 22.4562 29.762C21.1697 31.4461 19.822 33.3139 18.5355 35.3655L18.0454 36.1616L17.5859 36.9271L17.3409 37.3558L17.1264 37.7539L16.667 38.5806L16.2075 39.438L15.748 40.2953C15.4724 40.8771 15.1661 41.4589 14.8904 42.0713C12.5383 47.0956 10.8596 52.4081 9.89755 57.8714C8.94708 63.3288 8.68979 68.8844 9.13178 74.4063C9.3571 76.946 9.72526 79.4711 10.2345 81.9695C10.699 84.2035 11.2818 86.4112 11.9804 88.5835C12.6237 90.6044 13.3282 92.411 14.0021 94.0033C14.676 95.5955 15.3498 97.0653 15.9012 98.0451C16.2075 98.5963 16.4526 99.0862 16.667 99.5149C16.8814 99.9436 17.1264 100.28 17.2796 100.587C17.4327 100.893 17.5859 101.077 17.6472 101.23V101.444L10.7246 105.547L10.5714 105.302L10.1426 104.567L9.46872 103.373L8.58042 101.72C7.9678 100.495 7.20202 98.9637 6.46688 97.1878C5.73174 95.4118 4.90471 93.3296 4.16957 91.0637C3.38148 88.6209 2.72706 86.137 2.20919 83.623C1.61669 80.8048 1.20742 77.9511 0.98395 75.0799C0.711733 72.0259 0.640109 68.9573 0.769535 65.8939C0.785588 65.7003 0.785588 65.5057 0.769535 65.3121V64.7303V63.5667V62.3725V61.7908C0.769535 61.5764 0.769535 61.3927 0.769535 61.1783C0.769535 60.964 0.769535 60.4128 0.769535 60.0148L0.953313 58.8206C0.953313 58.0245 1.19837 57.259 1.32089 56.4628C2.40921 50.3108 4.30425 44.3292 6.95699 38.6725C7.2633 37.9682 7.60023 37.3252 7.93717 36.6516L8.42726 35.7023L8.94798 34.7531L9.46872 33.8039C9.56224 33.6574 9.64415 33.5038 9.71375 33.3446L9.98944 32.8853L10.5408 31.9973C10.6961 31.6909 10.87 31.3944 11.0615 31.1093C12.4327 28.9319 13.9152 26.8265 15.503 24.8015C16.8352 23.0753 18.2564 21.4196 19.7607 19.841L20.7409 18.8306L21.2003 18.3713L21.6598 17.912L22.5175 17.0852L23.3139 16.3197C24.3553 15.3705 25.1824 14.6662 25.7643 14.2069L26.622 13.4414L32.35 19.6879Z" fill="white"/>
<path d="M10.878 105.578C10.8874 105.487 10.8874 105.394 10.878 105.303C10.8724 105.242 10.8724 105.18 10.878 105.119C10.763 104.943 10.6606 104.759 10.5717 104.568C10.3988 104.314 10.2452 104.048 10.1122 103.772L9.89783 103.374C9.68341 103.037 9.49961 102.639 9.28519 102.241L9.00953 101.751C8.33565 100.373 7.60049 98.9031 6.86535 97.1884C6.13021 95.4736 5.24192 93.1159 4.59867 91.0643C3.79164 88.6247 3.12685 86.1403 2.60766 83.6236C2.03886 80.8013 1.62982 77.949 1.38244 75.0806C1.13501 72.0251 1.07362 68.9574 1.19864 65.8945V65.6801C1.18358 65.5581 1.18358 65.4347 1.19864 65.3127V64.7309C1.19864 64.486 1.19864 64.2716 1.19864 64.0267V63.5674V62.5263V61.7914C1.19864 61.7914 1.19864 61.4852 1.19864 61.3321V60.8115V60.0154C1.1838 59.74 1.1838 59.4641 1.19864 59.1887C1.19864 59.1887 1.19864 58.9437 1.19864 58.8212L1.47433 57.1065V56.4635C2.5808 50.3023 4.48574 44.3115 7.14104 38.6425C7.38609 38.1219 7.63114 37.5708 7.90681 37.0502L8.09059 36.6522L8.45817 35.9785C8.45268 35.8765 8.45268 35.7743 8.45817 35.6723C8.44805 35.5807 8.44805 35.4883 8.45817 35.3967L8.79511 34.7231L9.28519 33.8351L9.56088 33.3452C9.56673 33.2636 9.56673 33.1818 9.56088 33.1002V32.9165L9.83655 32.396L10.0816 31.9979L10.4492 31.4467L10.633 31.1099C11.9943 28.9333 13.4665 26.8279 15.0438 24.8021C16.3916 23.118 17.8312 21.4339 19.3015 19.8723L19.9754 19.1986L20.2817 18.8618L20.4961 18.6475L20.7412 18.3719L20.9862 18.1575L21.2006 17.9432L21.9358 17.2389L22.4565 16.749L22.7322 16.5041C23.5898 15.7079 24.3862 15.0036 25.152 14.3606C25.9178 13.7176 26.0403 13.6257 26.0403 13.6257L31.125 19.7498C31.125 19.7498 30.8187 19.9641 30.3286 20.3928C29.8385 20.8215 28.9196 21.587 28.1845 22.2913C25.6615 24.5938 23.3357 27.1031 21.2312 29.7932C19.8174 31.584 18.5084 33.455 17.3105 35.3967L17.1267 35.7029C17.0069 35.8545 16.9042 36.0188 16.8204 36.1929L16.5141 36.6828L16.3303 36.989V37.2339L16.0853 37.6626L15.8096 38.1832L15.6258 38.4894L15.3501 39.0099L15.1663 39.3161V39.5917C15.0524 39.7792 14.95 39.9734 14.86 40.1735L14.6762 40.5409L14.0024 41.9495C11.6434 46.9737 9.9545 52.2858 8.97889 57.7495C8.03108 63.2074 7.78404 68.764 8.24376 74.2845C8.44786 76.8266 8.8162 79.353 9.34647 81.8476C9.80207 84.0837 10.385 86.2919 11.0924 88.4616C11.6752 90.3009 12.3499 92.1097 13.1141 93.8814C13.8186 95.5349 14.5231 96.9434 15.0132 97.9233L15.2582 98.4132L15.7789 99.393L16.1159 100.005L16.3609 100.434L16.6366 100.893V101.077V101.322L10.878 105.578ZM27.2655 13.4727L26.4079 14.2075C25.6421 14.8506 24.8151 15.5548 23.988 16.3509L23.7123 16.5959L23.161 17.0858L22.4565 17.7901L22.3033 17.9432C22.2243 18.0067 22.1525 18.0786 22.0889 18.1575L21.8439 18.3719L21.5682 18.6475L21.3844 18.8618L21.0781 19.168L20.4042 19.8723C18.9339 21.4339 17.3411 22.9343 16.1465 24.8021C14.5275 26.8251 13.0143 28.9305 11.6131 31.1099L11.4294 31.4161L11.0618 31.9979L10.8167 32.396L10.5411 32.8859V33.1002L10.3879 33.3452L10.1122 33.8045C9.96728 34.1103 9.80359 34.4068 9.62214 34.6925C9.49168 34.9075 9.37899 35.1328 9.28519 35.3661C9.13223 35.6418 9.13223 35.6418 8.97905 35.9174L8.61131 36.6215L8.42753 37.0196C8.15186 37.5401 7.90681 38.0607 7.66176 38.6119C5.00702 44.2678 3.11192 50.2497 2.02569 56.4022C2.01115 56.6163 2.01115 56.8311 2.02569 57.0452L1.75 58.76C1.75 58.76 1.75 59.0049 1.75 59.1274C1.73516 59.4028 1.73516 59.6788 1.75 59.9542V60.7503V61.3015C1.76285 61.4441 1.76285 61.5875 1.75 61.7301V62.465V63.5061V63.9654C1.75 64.2104 1.75 64.4247 1.75 64.6697C1.75 64.9146 1.75 65.0677 1.75 65.2515V65.8333C1.62498 68.8962 1.68635 71.9639 1.93378 75.0193C2.16595 77.8794 2.57515 80.7223 3.15902 83.5317C3.68237 86.0545 4.33671 88.5483 5.11939 91.0031C5.79327 93.024 6.55904 95.1062 7.41671 97.1271C8.27437 99.1481 8.887 100.342 9.56088 101.69L9.83655 102.179C10.051 102.608 10.2348 102.976 10.4492 103.343L10.6636 103.741L11.0924 104.537L11.4294 105.058V105.272L11.5825 105.517L17.7393 101.445V101.23C17.7481 101.169 17.7481 101.107 17.7393 101.047L17.4637 100.587L17.2186 100.128L16.8817 99.5155L16.3609 98.5663L16.1159 98.0457C15.6258 97.0965 14.9213 95.6574 14.2168 94.0039C13.4477 92.2342 12.7729 90.4251 12.1951 88.5841C11.4918 86.4108 10.8988 84.2033 10.4185 81.9701C8.81466 74.0275 8.70041 65.8563 10.0816 57.872C11.0527 52.4072 12.7418 47.0945 15.1051 42.0719C15.3195 41.582 15.5339 41.1227 15.7789 40.6328L15.9627 40.296C15.9627 40.0816 16.1771 39.8979 16.269 39.6836C16.3609 39.4692 16.269 39.6836 16.269 39.4386L16.4528 39.1018L16.7285 38.5812L16.9123 38.275L17.188 37.7545L17.5249 37.1727V36.9277V36.6522L17.8312 36.1316L18.1375 35.6417L18.3213 35.3661C19.5223 33.4264 20.8313 31.5557 22.2421 29.7626C24.3636 27.0776 26.6882 24.5594 29.1953 22.23C29.961 21.5258 30.6656 20.8827 31.3394 20.3316L32.1358 19.6886L27.2655 13.4727Z" fill="white"/>
</g>
<g opacity="0.52">
<path d="M45.3068 18.5559H45.0005L44.5104 18.8315L43.8672 19.1989L43.0707 19.6889L42.1518 20.24L41.1104 20.9137L40.559 21.2811L39.977 21.6792C38.1848 22.9257 36.4666 24.2752 34.8311 25.7211L34.1572 26.3028L33.4833 26.9459L33.1463 27.2521L32.8094 27.5889L32.1355 28.2319C31.9265 28.4716 31.7014 28.6966 31.4617 28.9056L31.1553 29.2424L30.8184 29.6098L30.1751 30.3141L29.5319 31.0184L28.9193 31.7532C28.7049 31.9982 28.4904 32.2126 28.3067 32.4575L27.1121 33.9579L26.0093 35.4583L25.4886 36.1932L24.9679 36.9587C23.6508 38.949 22.5481 40.8781 21.6598 42.5622C20.7715 44.2463 20.1282 45.6242 19.6994 46.7572C19.5156 47.2777 19.3318 47.6758 19.2399 47.9514L19.0561 48.38L15.3192 46.9409C15.3077 46.788 15.3077 46.6345 15.3192 46.4816C15.3192 46.206 15.6255 45.7773 15.8399 45.1955C16.2994 44.0932 16.9732 42.5316 17.9228 40.725C18.9994 38.623 20.1854 36.5788 21.476 34.6009L22.0273 33.7742L22.5787 32.9781L23.7733 31.3858L25.0292 29.7935L25.6724 29.028L26.3463 28.2319L27.0202 27.4664L27.7247 26.7315L28.0922 26.3641L28.4292 25.9966L29.1337 25.2618C29.3836 25.0425 29.6189 24.8073 29.8382 24.5575C29.9748 24.4616 30.0983 24.3484 30.2058 24.2207L30.5734 23.8838L31.3085 23.2102L32.013 22.5672C33.7692 21.0362 35.6099 19.6051 37.5266 18.2804L38.1392 17.8517L38.7518 17.4536L39.8545 16.7187L40.8347 16.1063L41.6924 15.6164L42.3969 15.2183L42.887 14.9121H43.2239L45.3068 18.5559Z" fill="white"/>
<path d="M18.9336 48.5326L15.166 47.0935L15.3498 46.6035C15.3498 46.4198 15.3498 46.1749 15.6255 45.8993C15.9011 45.6237 15.6255 45.5318 15.8705 45.3175C16.2993 44.2764 17.0039 42.6841 17.9534 40.8469C19.0131 38.7358 20.1997 36.6907 21.5066 34.7229C21.6107 34.5371 21.7339 34.3626 21.8742 34.2023C21.9366 34.1173 21.9881 34.0247 22.0273 33.9268L22.2417 33.6512L22.6093 33.1306V32.8857C22.9462 32.457 23.2832 31.9671 23.6508 31.5384L24.7228 30.1605L24.9066 29.9461C25.03 29.7755 25.163 29.6119 25.3048 29.4562L25.5499 29.15H25.703C25.8598 28.9322 26.034 28.7274 26.2237 28.5376L26.8976 27.7721L27.3571 27.2822L28.0003 26.5779C28.11 26.4837 28.2124 26.3813 28.3066 26.2717L28.7355 25.843L29.0112 25.5674L29.1949 25.3837L29.7157 24.8632H29.8688L30.0832 24.6794L30.3589 24.4651L31.0634 23.7915L31.7986 23.1484C33.5406 21.5911 35.3824 20.1489 37.3121 18.831L37.6491 18.586L37.9247 18.4023L38.2923 18.1573H38.5067L39.4869 17.5143L39.8239 17.3L40.4977 16.9019L41.2635 16.4426L41.9374 16.0445L42.305 15.8302H42.5806L44.5104 19.3822H44.3266L44.0203 19.5659L43.4383 19.9027L42.6419 20.362L42.0905 20.6988L41.723 20.9438L40.9266 21.4643H40.6815H40.4977L40.1302 21.7093L39.5482 22.1074C37.7598 23.348 36.0418 24.6871 34.4022 26.1186L34.1572 26.3636L33.7283 26.731L33.0544 27.3434C32.9499 27.4632 32.8374 27.5758 32.7175 27.6802L32.5031 27.864L31.8292 28.5376L31.186 29.1806L30.849 29.5175L30.5121 29.8543L30.1445 30.2523L29.8688 30.5585L29.2562 31.2628L28.613 31.9977L28.4292 32.2426L28.0003 32.7326L27.7859 33.0082L26.8364 34.2023L25.9481 35.3965L25.7337 35.7027L25.3661 36.1927L25.1823 36.4682C25.1765 36.5498 25.1765 36.6317 25.1823 36.7132L24.8454 37.2031C23.6294 39.0077 22.5148 40.8784 21.5066 42.8066C20.6489 44.5214 19.975 45.8687 19.5768 47.0016C19.5066 47.1902 19.4248 47.3743 19.3318 47.5528C19.3318 47.8284 19.148 48.0427 19.0868 48.1958V48.6245L18.9336 48.5326ZM15.1966 47.0628L18.9336 48.4714V48.0733L19.1787 47.4303C19.1787 47.4303 19.1787 47.0628 19.4237 46.8791C19.8219 45.8993 20.4958 44.3989 21.3534 42.6841C22.3614 40.7459 23.476 38.865 24.6922 37.05L25.0291 36.5601C25.0291 36.5601 25.0292 36.407 25.2129 36.3151C25.2457 36.2234 25.2979 36.1398 25.3661 36.0702L25.7337 35.5496L25.9481 35.2434C26.2238 34.876 26.5301 34.4473 26.8364 34.0799C27.1283 33.6628 27.4454 33.264 27.7859 32.8857L28.0003 32.5795L28.4292 32.0895L28.613 31.8446C28.8274 31.6303 29.0418 31.3547 29.2562 31.1097L29.8688 30.4054L30.1751 30.0992L30.5427 29.7012L30.849 29.3643L31.186 28.9969L31.8598 28.3539L32.5337 27.6802C32.5888 27.5941 32.6619 27.5209 32.7481 27.4659C32.8452 27.3482 32.9587 27.2451 33.0851 27.1597L33.7283 26.5167L34.1572 26.1492L34.4328 25.9349C36.0551 24.486 37.7633 23.1363 39.5482 21.893L40.1302 21.4949L40.4977 21.25H40.7122H40.9266L41.7536 20.7294L42.1212 20.4845L42.6725 20.1477L43.4689 19.6884L44.0509 19.3515L44.3572 19.1678H44.541L42.6419 15.6465H42.3662L41.9987 15.8608L41.2942 16.2589L40.5284 16.7182L39.8851 17.1162L39.5482 17.3306L38.568 17.9736L38.323 18.1267L37.9554 18.3717L37.7103 18.5554L37.3428 18.8004C35.4284 20.1259 33.5973 21.5678 31.8598 23.1178L31.1247 23.7609L30.3895 24.4039C30.3241 24.5003 30.241 24.5834 30.1445 24.6488L29.9301 24.8632V25.0163L29.3787 25.5368L29.2256 25.7205L28.9193 25.9961L28.4904 26.4248L28.2148 26.731L27.6328 27.374L27.1733 27.864L26.4994 28.6295C26.3097 28.8193 26.1355 29.0241 25.9787 29.2419L25.703 29.5481L25.3355 30.0074L25.1517 30.2523C24.7841 30.681 24.4165 31.1403 24.0796 31.5996L23.0382 32.9775L22.885 33.2225L22.5174 33.7124C22.4639 33.826 22.3914 33.9295 22.303 34.0186V34.2636C22.17 34.4401 22.0473 34.6241 21.9354 34.8147C20.621 36.7779 19.4341 38.8234 18.3822 40.9388C17.4327 42.776 16.7282 44.3989 16.2993 45.44C16.205 45.6178 16.1231 45.802 16.0543 45.9911C15.9456 46.2295 15.8535 46.475 15.7786 46.726L15.1966 47.0628Z" fill="white"/>
</g>
<path d="M125.375 30.406V30.1917L125.192 29.9467L125.008 29.7017L124.426 28.9362C124.238 28.7343 124.064 28.5195 123.905 28.2932L123.66 28.0176L123.323 27.589L123.078 27.3134L121.945 25.9967L121.148 25.1087L120.842 24.7719L120.23 24.1595C118.912 22.7816 117.473 21.373 115.911 20.0258C114.121 18.4677 112.25 17.0061 110.305 15.6471H110.029L109.509 15.2796L109.019 14.9734L108.682 14.7284L108.345 14.5141L107.947 14.2385L107.61 14.0548L107.089 13.718C105.71 12.8912 104.638 12.2788 103.566 11.7277C102.494 11.1765 101.3 10.5641 99.7987 9.89044H99.5536L97.8383 9.18619H97.4707L96.8581 8.94122L96.3068 8.72688L95.8473 8.54317C94.2239 7.96138 92.7842 7.53269 91.6815 7.16524L90.1806 6.73656H89.568C89.2162 6.25909 88.7391 5.88819 88.1896 5.66486H87.8833H87.6995L86.8112 5.45052L85.7085 5.20555L84.7896 5.02184H84.1157H83.7481H83.5643H82.9824H82.4616H81.3895H80.8382H80.44H79.7355H79.3373H78.7247H78.2652C76.458 5.02184 74.5282 4.77687 72.6291 4.77687H69.8111H68.7696H67.7588H67.1156H66.4417H65.7678C64.2056 4.77687 63.011 5.1137 61.9083 5.2668C59.5803 5.66487 57.2524 6.18541 54.9857 6.79782C52.719 7.41022 51.1262 7.99199 49.2577 8.69626H49.0433H48.6451L48.2163 8.87999L47.7875 9.06371L47.083 9.33928L46.5928 9.58425L45.1532 10.2273H44.8775L44.3262 10.4722L43.6216 10.8397H43.4379L43.009 11.054H42.7027H42.4883L41.5694 11.5439L39.6396 7.992L40.6505 7.47144L41.0487 7.28773L41.6613 6.98153L42.427 6.61408L42.9172 6.36913L43.2847 6.1854L44.9388 5.48114L45.3676 5.2668L46.1947 4.92998H46.5316H46.8379H47.1748H47.6037H47.8181C49.8253 4.1637 51.8699 3.49941 53.9443 2.93966C56.3726 2.26107 58.8372 1.71926 61.3263 1.31679C62.4903 1.10245 63.7461 0.949346 65.4002 0.765625H66.1047H66.748H67.4525H68.157H69.6273C70.6381 0.765625 71.6489 0.765625 72.6904 0.765625C74.7426 0.765625 76.7337 0.765631 78.8166 1.01059H79.2454H79.9499H80.685H81.6652H82.5535H83.4112H84.0238H84.5445H85.0346H85.6166H86.0148H86.7499L87.8833 1.25554L88.9554 1.46988H89.3536L90.0887 1.65361H90.6094L92.3248 2.14353C93.6725 2.54159 95.0509 3.0009 96.7356 3.61331L97.7158 3.98074L98.5122 4.31756H98.7572L100.35 4.99121L100.871 5.20555C102.433 5.90982 103.689 6.55284 104.853 7.16524C106.017 7.77765 107.119 8.39006 108.59 9.27805L108.988 9.52302L109.478 9.82921L109.784 10.0129L110.213 10.2885L110.642 10.5947L111.071 10.8703L111.622 11.2377L111.898 11.4215C113.955 12.8724 115.939 14.4258 117.84 16.0757C119.455 17.4566 120.998 18.9181 122.466 20.4544L123.078 21.0975L123.415 21.4649C123.721 21.8017 124.028 22.1079 124.273 22.4141C124.518 22.7203 125.314 23.5777 125.712 24.0982L126.172 24.6188C126.158 24.6896 126.158 24.7624 126.172 24.8331L126.509 25.2618L126.723 25.5068L127.244 26.1804L127.52 26.5785L127.826 26.9459L128.04 27.2215V27.4665L125.375 30.406ZM72.6291 3.58268C74.5282 3.58268 76.458 3.58269 78.2652 3.82765H78.7247H79.3679H79.7355H80.44H80.8688H81.3895H82.4922H82.9824H83.5643H83.7481H84.1157H84.7896L85.7391 4.01136L86.8112 4.25633L87.7301 4.47067H88.0364C88.2978 4.50285 88.5547 4.56447 88.8022 4.65439H89.3842L90.9157 5.08307C92.141 5.45051 93.4581 5.87921 95.0509 6.46099L95.5104 6.64471L96.0617 6.85905L96.6743 7.07339L97.0726 7.2571L98.7879 7.96138H99.0329C100.503 8.63502 101.698 9.2168 102.801 9.79859C103.903 10.3804 104.945 10.9622 106.323 11.7889L106.844 12.1257L107.15 12.3094L107.579 12.585L107.916 12.7994L108.253 12.9831L108.712 13.3199L109.264 13.6874L109.509 13.8405C111.459 15.1918 113.331 16.6538 115.114 18.2192C116.636 19.5192 118.088 20.8991 119.464 22.3529L120.046 22.9653L120.352 23.3021L121.179 24.1901L122.312 25.5068L122.557 25.813L122.894 26.211L123.139 26.5172L123.63 27.1297L124.242 27.8952L124.426 28.1401L124.61 28.3851V28.5688L127.826 26.211L127.673 25.9967L127.458 25.7211L128.01 27.099C127.938 26.9626 127.845 26.8385 127.734 26.7316L127.213 26.0273L126.999 25.813C126.896 25.6628 126.784 25.5196 126.662 25.3843L126.509 25.17L126.049 24.6188C125.621 24.0982 125.13 23.5165 124.579 22.9347C124.31 22.6032 124.024 22.2864 123.721 21.9855L123.384 21.618L122.772 20.975C121.363 19.4746 119.709 17.9129 118.177 16.5657C116.265 14.9257 114.271 13.3825 112.204 11.942L111.929 11.7583L111.377 11.3909L110.979 11.1153L110.52 10.8091L110.091 10.5335L109.784 10.3498L109.264 10.0436L108.896 9.79859C107.426 8.9106 106.262 8.26759 105.159 7.68581C104.056 7.10402 102.709 6.43035 101.146 5.72609L100.656 5.51175L99.0636 4.83812H98.7879L97.9915 4.5013L97.0113 4.13385C95.3572 3.52144 93.9482 3.06213 92.6311 2.66406L90.9157 2.17415H90.3644C90.1346 2.09498 89.8991 2.03356 89.6599 1.99044H89.2617L88.1896 1.74547L87.0562 1.5005H86.3211H85.8923H85.3409H84.8508H84.3301H83.7175H82.8598H81.9715H80.9913H80.2562H79.5517H79.0922C77.1625 1.5005 75.1715 1.25554 72.966 1.25554H69.903H67.7282H67.0236H66.3498H65.6146C63.9606 1.43926 62.5516 1.59236 61.5407 1.8067C59.0516 2.20917 56.5871 2.75098 54.1587 3.42957C52.0827 3.98367 50.0377 4.64806 48.0325 5.41989H47.7875H47.3586H47.0217H46.746H46.3784L45.5514 5.75672L45.1226 5.94043L43.4991 6.67533L43.1009 6.85905L42.6108 7.10401L41.8451 7.47144L41.2324 7.77766L40.8343 7.96138L39.8541 8.48191L41.7532 12.0032L42.6721 11.5133H42.8865H43.1928L43.6523 11.299L44.3874 10.9315L44.9388 10.6866H45.2145L46.6235 10.0436L47.1442 9.79859L47.8487 9.52302L48.2776 9.33928L48.7064 9.15556H49.1046H49.319C51.1875 8.4513 53.1172 7.80827 55.0163 7.2571C56.9155 6.70594 59.6416 6.12415 61.9696 5.72609C63.0723 5.54237 64.2362 5.38928 65.829 5.23618H66.5029H67.1768H67.8201H68.8309H69.8111L72.6291 3.58268Z" fill="white"/>
<g opacity="0.67">
<path d="M126.816 40.2956V40.0201L126.387 39.2546C126.203 38.9484 125.989 38.5197 125.682 38.0604L125.253 37.2949L124.702 36.4375C123.967 35.2433 122.987 33.8041 121.823 32.2119C120.493 30.4362 119.061 28.7391 117.534 27.1289L116.248 25.7816C116.034 25.5673 115.789 25.353 115.574 25.108L114.87 24.4343L114.134 23.7607L113.399 23.0871L111.837 21.7398L111.01 21.0968L110.612 20.7599L110.183 20.4231L109.325 19.7801L108.437 19.1371C107.242 18.2797 105.987 17.4529 104.7 16.6568C103.414 15.8607 102.066 15.0952 100.657 14.3909C99.2478 13.6866 97.8388 13.013 96.3685 12.4006C94.8891 11.7574 93.3757 11.1952 91.8352 10.7165L91.2838 10.5328L90.7018 10.349L89.5378 10.0122C88.7414 9.79787 87.9757 9.55292 87.1793 9.36919C84.0391 8.61354 80.8432 8.1118 77.6224 7.86881C76.0296 7.86881 74.5593 7.65447 72.8746 7.65447H69.4134H68.2494C62.7203 8.05738 57.2704 9.20054 52.0456 11.0533L51.6168 11.237H51.188L50.3609 11.5432L48.7681 12.1863L47.2979 12.8293L45.9195 13.4723C45.4906 13.7173 45.0312 13.901 44.633 14.1153L43.469 14.7584C43.0708 14.9421 42.7339 15.1564 42.3969 15.3402H42.1212H41.8762L41.4167 15.6464C40.8041 15.9832 40.2834 16.32 39.7933 16.6262L38.6293 17.3917L37.8942 17.8816H37.6491L34.9536 13.9929L35.2293 13.8091L35.9951 13.2886L37.2509 12.4618L38.9969 11.3901L39.487 11.1145L39.7627 10.9308H40.0383L41.2023 10.2878C41.6005 10.0428 42.0293 9.8285 42.4582 9.61416L43.8366 8.90989L45.3068 8.72617L46.8996 8.0219L48.615 7.34827L49.5033 7.01145L49.9627 6.82771H50.4222C53.0693 5.86055 55.7819 5.08289 58.5394 4.50059C59.2745 4.31687 60.0403 4.19438 60.7754 4.04128L61.9394 3.85757H62.4908H63.1034L64.2674 3.67383H65.462H66.6566H67.2692H67.8818H69.107H72.8746C74.5593 3.67383 76.244 3.67383 77.9594 3.88817C81.4283 4.16739 84.8696 4.72028 88.2513 5.54166C89.109 5.72539 89.936 5.97035 90.7937 6.21531L92.0496 6.58276L92.6622 6.76648L93.3054 6.98082C94.9595 7.50136 96.583 8.11376 98.1758 8.7874C99.7686 9.46105 101.239 10.1653 102.801 10.9308C104.363 11.6963 105.864 12.5231 107.151 13.3804C108.437 14.2378 109.877 15.1258 111.163 16.0444L112.113 16.7487L113.032 17.4529L113.491 17.7898L113.951 18.1572L114.839 18.8615C115.39 19.3514 115.972 19.8107 116.493 20.3006L117.32 21.0355L118.086 21.7704L118.852 22.5053L119.587 23.2096C120.077 23.6995 120.536 24.1894 120.965 24.6793C122.605 26.411 124.149 28.2305 125.59 30.1297C126.846 31.8444 127.888 33.3755 128.654 34.6921C128.868 34.9983 129.052 35.3045 129.235 35.6107L129.726 36.4069L130.461 37.7235L130.92 38.5503V38.8259L126.816 40.2956Z" fill="white"/>
<path d="M126.816 40.3267L126.663 40.0818L126.264 39.3162L126.111 39.0713C126.111 38.7651 125.774 38.4589 125.56 38.0914L125.376 37.8159L125.101 37.3259C125.01 37.1559 124.907 36.9923 124.794 36.836L124.58 36.4686C123.63 34.9682 122.681 33.5903 121.67 32.243C120.343 30.4831 118.922 28.7965 117.412 27.1906L116.463 26.1802L116.126 25.8433L115.666 25.3841L115.452 25.1697C115.373 25.1062 115.301 25.0343 115.237 24.9554L114.747 24.4961L114.012 23.8224L113.522 23.3631L113.277 23.1488L112.113 22.1383L111.684 21.8015L111.133 21.3422L110.888 21.1278L110.459 20.791L110.245 20.6073H110.03L109.326 20.0561L108.468 19.4131C107.12 18.4639 105.895 17.6677 104.731 16.9329C103.567 16.198 102.035 15.3712 100.688 14.667C99.34 13.9627 97.8391 13.2891 96.3688 12.6766C94.8985 12.0642 93.5507 11.5437 91.866 10.9925L91.1922 10.7782H90.7021H90.3651L89.5381 10.5332H89.2318L87.2101 10.0127C84.0706 9.24762 80.8747 8.73564 77.6533 8.48167C75.938 8.48167 74.4064 8.29795 72.9055 8.29795H69.2911H68.2803C62.751 8.69976 57.3009 9.84296 52.0765 11.6968H51.8008H51.5252H51.372L50.8819 11.8805H50.545L49.4116 12.3398L48.9828 12.5235L48.3395 12.7991C48.0619 12.9399 47.7754 13.0627 47.4819 13.1666L46.9612 13.4422L46.1035 13.8402L45.6134 14.0852L44.817 14.4832L44.3575 14.7282L43.653 15.0956L42.5809 15.708H42.3053H42.1215L41.8152 15.8918C41.4143 16.1158 41.0258 16.3611 40.6512 16.6267L40.2224 16.8716L39.3953 17.4228L39.0277 17.6371L38.507 18.0046H38.3233L38.0782 18.1883L35.3521 14.2689L35.5971 14.0852H35.7809L36.3935 13.6871C36.5061 13.5915 36.6294 13.5092 36.7611 13.4422L37.6494 12.8604L38.0782 12.5848L39.3953 11.7887L39.7323 11.5743L40.0079 11.4212H40.2224L41.1719 10.9007L41.6314 10.6251L42.4278 10.227L43.3774 9.76771L43.8062 9.55337L44.817 9.06346L45.3071 8.72663C45.6458 8.55515 45.9935 8.40183 46.3485 8.26733L46.8999 8.02236L47.5125 7.77742L48.5846 7.31811L49.1972 7.10377H49.5035H49.9324H50.2387C52.9059 6.16694 55.6267 5.38984 58.3865 4.77662L60.0712 4.4398H60.6225H61.3883H61.7865H62.0928H62.3379H62.7054H62.9505H63.655H64.1144H64.7883H65.3091C65.6146 4.4097 65.9224 4.4097 66.228 4.4398H66.6568H72.783C74.3758 4.4398 76.0911 4.4398 77.8677 4.65414C81.3455 4.92621 84.7969 5.4688 88.1903 6.27701L90.2732 6.82817H90.7021L91.7741 7.13439H91.9579L92.6012 7.34873L93.2138 7.53245C94.9904 8.11423 96.5832 8.72663 98.0841 9.33903C99.585 9.95144 101.147 10.717 102.709 11.5131C104.272 12.3092 105.772 13.0441 107.059 13.9321C108.345 14.8201 109.663 15.6162 111.072 16.6267L111.96 17.2391L112.573 17.6984L112.909 17.9433L113.185 18.1577H113.369L113.583 18.3414H113.798L114.104 18.5864L114.686 19.0763L115.084 19.4131L116.371 20.5154L116.646 20.7604C116.834 20.9076 117.009 21.0716 117.167 21.2503L117.902 21.924L118.362 22.3833L118.637 22.6589L118.944 22.9344L119.373 23.3937L119.801 23.8224L120.782 24.8329C122.404 26.5819 123.937 28.4112 125.376 30.3139C126.448 31.7531 127.49 33.3759 128.439 34.8457L128.715 35.2744C128.799 35.4484 128.902 35.6127 129.021 35.7643C129.021 35.9787 129.236 36.193 129.358 36.3767V36.591C129.603 36.9891 129.818 37.3565 129.971 37.6628V37.9077C130.108 38.1919 130.261 38.468 130.43 38.7345V39.0101L126.816 40.3267ZM72.5686 7.65493H72.8749C74.3758 7.65493 75.938 7.65492 77.6227 7.83865C80.8441 8.09262 84.04 8.6046 87.1795 9.36966L89.2011 9.8902H89.5381L90.3651 10.1352H90.7021H91.1615L91.7435 10.3189C93.4282 10.87 94.8066 11.4212 96.2462 12.003C97.6859 12.5848 99.3093 13.2891 100.565 13.9933C101.821 14.6976 103.261 15.4631 104.578 16.2592C105.895 17.0553 106.998 17.7902 108.315 18.7394L109.203 19.3825L109.908 19.9337L110.091 20.0867H110.336L110.765 20.4236C110.832 20.5105 110.915 20.5834 111.01 20.6379L111.562 21.0972L111.96 21.434L113.124 22.4445L113.369 22.6589L113.89 23.1181L114.594 23.7918L115.115 24.2817L115.299 24.4654L115.544 24.6798L116.003 25.1391L116.309 25.4759L117.29 26.4864C118.791 28.1093 120.353 29.824 121.547 31.5693C122.588 32.9282 123.559 34.3385 124.457 35.7949L124.672 36.1317C124.672 36.3155 124.886 36.4686 124.978 36.6217L125.254 37.1116L125.437 37.4178C125.652 37.7546 125.836 38.0914 125.989 38.367C125.994 38.4486 125.994 38.5304 125.989 38.612L126.418 39.3775L126.571 39.6224L130.706 37.4178C130.696 37.3262 130.696 37.2338 130.706 37.1422L130.247 36.3461L130.093 36.0705C130.093 35.7643 129.726 35.4275 129.481 35.0294V34.7845L129.144 34.2027C129.031 34.0464 128.928 33.8828 128.838 33.7128L128.562 33.2841C127.551 31.6612 126.51 30.222 125.499 28.7523C124.069 26.8423 122.535 25.0125 120.904 23.2712L119.955 22.2608L119.526 21.8321L119.066 21.3728L118.791 21.0972L118.484 20.8216L118.025 20.3623L117.29 19.6887L116.738 19.2294L116.463 18.9844C116.064 18.617 115.636 18.2189 115.207 17.8821L114.778 17.5453L114.196 17.0553L113.92 16.8104L113.675 16.6267C113.675 16.6267 113.675 16.6266 113.461 16.4429H113.277L113.001 16.2286L112.695 15.9836L112.082 15.5243L111.225 14.8813C109.816 13.9015 108.499 13.0135 107.212 12.2173C105.926 11.4212 104.149 10.5026 102.863 9.79834C101.576 9.09407 99.7994 8.29795 98.2066 7.6243C96.6138 6.95066 95.1435 6.39951 93.3363 5.81772L92.7237 5.63398L92.1111 5.41964H91.9273L90.8552 5.08282H90.4264L88.3129 4.53165C84.9302 3.72108 81.4889 3.17845 78.0209 2.90878C76.2443 2.75568 74.5289 2.69444 72.9361 2.69444H68.801H67.9433H66.7487H66.2892C65.9837 2.66435 65.6759 2.66435 65.3703 2.69444H64.8496H64.1757H63.7163H63.0117H62.7667H62.4297H62.1541H61.8478H61.4496H60.6838H60.1324L58.4477 3.03127C55.6944 3.63036 52.983 4.40772 50.3306 5.35841H50.0242H49.8711H49.4116H49.1053L48.5233 5.57275L47.4206 6.03206L46.808 6.27701L46.2873 6.49135L45.3071 8.72663L44.8476 8.94098L43.8368 9.40028L43.3774 9.64525L42.4584 10.1045L41.662 10.5026L41.1719 10.7782L40.2224 11.2987H40.0079H39.7629L39.3953 11.5131L38.0782 12.3092L37.6494 12.5848L36.7611 13.1666L36.3935 13.4115L35.8115 13.8096H35.6277H35.3827L38.0782 17.6677H38.2926H38.4764L39.0277 17.3003L39.3647 17.086L40.1917 16.5348L40.6206 16.2898C41.0059 16.0245 41.4046 15.7792 41.8152 15.555L42.1215 15.3712H42.3665L43.4386 14.7588L44.1431 14.3914L44.6332 14.1464C44.8892 13.9955 45.1553 13.8625 45.4296 13.7484C45.5833 13.6486 45.7477 13.5665 45.9197 13.5034L46.7467 13.1053L47.2981 12.8604L48.1558 12.4623L48.7684 12.1867L49.2278 12.003L50.3612 11.5437H50.6675L51.1882 11.36H51.4945H51.8008C57.0244 9.5029 62.4749 8.35961 68.0046 7.96113H69.0154H72.4461L72.5686 7.65493Z" fill="white"/>
</g>
<g opacity="0.66">
<path d="M129.94 68.9862V68.435C129.94 68.0676 129.94 67.547 129.94 66.904C129.94 65.5567 129.787 63.6583 129.48 61.423C129.133 58.8491 128.611 56.3017 127.918 53.7986C127.12 50.9354 126.096 48.1402 124.855 45.4392C124.242 44.0613 123.538 42.714 122.833 41.3974C122.129 40.0807 121.363 38.8559 120.567 37.6617C120.391 37.3544 120.196 37.0578 119.985 36.7737C119.801 36.4981 119.587 36.2225 119.403 35.9163C119.216 35.6381 119.011 35.3722 118.79 35.1202L118.514 34.6915L118.208 34.3241C117.442 33.283 116.646 32.3338 115.88 31.4764C114.41 29.7617 113.062 28.4144 112.113 27.4958C111.623 27.0365 111.255 26.669 110.979 26.4547L110.581 26.0872L114.716 21.4023L115.145 21.8004L116.401 22.964C117.473 23.9745 118.943 25.4748 120.628 27.3733C121.424 28.3225 122.313 29.3636 123.17 30.4353L123.507 30.864L123.844 31.3233L124.488 32.2419L125.161 33.1605L125.805 34.1404C126.662 35.457 127.52 36.8656 128.316 38.3047C129.113 39.7439 129.848 41.3667 130.552 42.8059C131.903 45.7762 133.02 48.8476 133.891 51.992C134.662 54.7546 135.235 57.5686 135.606 60.4125C135.884 62.4431 136.048 64.4877 136.097 66.5366C136.097 67.2715 136.097 67.8533 136.097 68.2513V68.8637L129.94 68.9862Z" fill="white"/>
<path d="M129.909 68.9862V68.0982C129.909 67.7614 129.909 67.3633 129.909 66.904C129.854 65.0701 129.701 63.2405 129.45 61.423C129.123 58.8582 128.611 56.3204 127.918 53.8292C127.121 50.9657 126.097 48.1704 124.855 45.4699C124.212 44.0919 123.538 42.714 122.834 41.428C122.129 40.1419 121.486 39.1008 120.567 37.6617L120.383 37.3861L119.985 36.7737L119.709 36.4063L119.372 35.947L119.005 35.4264C118.941 35.3194 118.869 35.2171 118.79 35.1202C118.784 35.0489 118.784 34.9772 118.79 34.9059L118.637 34.7221L118.453 34.5078V34.3241C117.657 33.283 116.861 32.3338 116.125 31.4764C114.931 30.0985 113.675 28.7818 112.327 27.4958L111.806 27.0365C111.618 26.8263 111.413 26.6317 111.194 26.4547L110.796 26.0872L114.961 21.4023L115.421 21.8004L116.095 22.4128L116.677 22.964C118.178 24.4031 119.556 25.8729 120.873 27.3427C121.67 28.2919 122.558 29.333 123.446 30.4047L123.599 30.619V30.8334L123.783 31.0477L123.936 31.2927L124.181 31.5989L124.61 32.1807L124.825 32.5175L125.253 33.1299L125.652 33.7423C125.744 33.8574 125.826 33.9804 125.897 34.1097C126.807 35.4522 127.646 36.8423 128.408 38.2741C129.235 39.7745 130.001 41.3361 130.675 42.7447C132.003 45.7241 133.119 48.7938 134.014 51.9307C134.772 54.705 135.335 57.529 135.698 60.3819C135.985 62.4122 136.158 64.4566 136.219 66.506C136.219 67.1184 136.219 67.6389 136.219 68.0064V68.2207C136.206 68.4246 136.206 68.6292 136.219 68.8331H129.909V68.9862ZM110.612 26.1179L111.01 26.4547L111.623 27.0365L112.143 27.4958C113.491 28.8124 114.747 30.0985 115.942 31.4764C116.677 32.3644 117.473 33.283 118.27 34.3241V34.5078V34.7221L118.423 34.9365V35.1202L118.637 35.4264L119.005 35.947C119.134 36.0978 119.247 36.262 119.342 36.4369L119.617 36.8043L120.015 37.3861L120.199 37.6923C121.118 39.1008 121.823 40.295 122.435 41.428C123.048 42.5609 123.844 44.0919 124.488 45.4699C125.72 48.1743 126.744 50.9689 127.551 53.8292C128.24 56.3315 128.752 58.8793 129.082 61.4536C129.334 63.271 129.488 65.1007 129.542 66.9346C129.542 67.394 129.542 67.792 129.542 68.1288V68.9862H135.668C135.642 68.7931 135.642 68.5975 135.668 68.4044V68.1901C135.668 67.8226 135.668 67.3021 135.668 66.6897C135.668 64.6075 135.423 62.6172 135.147 60.5656C134.791 57.7191 134.218 54.904 133.432 52.1451C132.574 48.9964 131.457 45.9239 130.093 42.959C129.45 41.4892 128.684 39.897 127.857 38.4884C127.094 37.0566 126.256 35.6666 125.345 34.3241C125.275 34.1848 125.193 34.0516 125.1 33.926C124.978 33.7251 124.845 33.5309 124.702 33.3442C124.577 33.1283 124.433 32.9234 124.273 32.7318L124.059 32.395L123.63 31.8132L123.385 31.4764V31.2621L123.232 31.0477L123.048 30.8334V30.619C122.16 29.4249 121.271 28.3838 120.475 27.557C119.188 26.0566 117.779 24.495 116.279 23.1783L115.697 22.6272L115.023 22.0147L114.594 21.6167L110.612 26.1179Z" fill="white"/>
</g>
</svg>
