<svg width="250" height="56" viewBox="0 0 250 56" fill="none" xmlns="http://www.w3.org/2000/svg">
<path d="M113.552 15.9497H131.931L136.679 11.2342H192.641L197.665 6.2125H204.986L209.58 10.8055H249.4V9.76445H210.009L205.414 5.17141H197.236L192.213 10.1931H136.158L131.533 14.8168H113.828L108.07 9.09081H100.167L91.2531 0.210938L8.09029 50.9487C7.97074 50.0451 7.52485 49.2163 6.83656 48.6185C6.14827 48.0207 5.26508 47.6951 4.35332 47.7029C3.35409 47.7029 2.3958 48.0997 1.68924 48.8061C0.982678 49.5124 0.585732 50.4703 0.585732 51.4692C0.585732 52.4681 0.982678 53.4261 1.68924 54.1324C2.3958 54.8387 3.35409 55.2355 4.35332 55.2355C5.26508 55.2434 6.14827 54.9177 6.83656 54.3199C7.52485 53.7221 7.97074 52.8934 8.09029 51.9898L90.7937 1.25203L99.7073 10.1319H107.702L113.552 15.9497ZM4.50648 48.744C5.07246 48.738 5.62739 48.9006 6.10052 49.2112C6.57364 49.5217 6.9435 49.9661 7.16289 50.4877C7.38229 51.0093 7.44131 51.5844 7.33237 52.1396C7.22343 52.6949 6.9515 53.2051 6.55127 53.6052C6.15104 54.0052 5.64063 54.2771 5.0852 54.386C4.52978 54.4949 3.9545 54.4359 3.43275 54.2166C2.91099 53.9973 2.46641 53.6275 2.15574 53.1546C1.84507 52.6816 1.68239 52.1269 1.68845 51.5611C1.66761 51.1785 1.7251 50.7956 1.85736 50.436C1.98962 50.0763 2.19389 49.7474 2.45768 49.4694C2.72146 49.1914 3.03919 48.9701 3.39147 48.819C3.74376 48.668 4.12316 48.5903 4.50648 48.5909V48.744Z" fill="#F9F9F9"/>
</svg>
