<svg width="186" height="187" viewBox="0 0 186 187" fill="none" xmlns="http://www.w3.org/2000/svg">
<path opacity="0.56" d="M3.98192 114.584H1.80713C5.80212 132.173 14.7729 148.242 27.6498 160.875C40.5267 173.509 56.7665 182.174 74.433 185.837V183.663C57.3336 180.039 41.6228 171.615 29.1442 159.38C16.6656 147.144 7.93675 131.604 3.98192 114.584Z" fill="#FDFBFB"/>
<path opacity="0.8" d="M116.458 182.682V184.764C133.233 180.45 148.492 171.592 160.554 159.167C172.617 146.741 181.016 131.229 184.827 114.338H182.652C178.91 130.684 170.763 145.695 159.094 157.743C147.426 169.79 132.681 178.415 116.458 182.682Z" fill="#F7F7F5"/>
<path opacity="0.76" d="M74.4327 4.38107V2.20703C56.9713 5.8566 40.9085 14.3959 28.1194 26.8282C15.3303 39.2604 6.34245 55.0727 2.20508 72.4192H4.37987C8.47809 55.6424 17.2242 40.3602 29.6149 28.3259C42.0056 16.2915 57.5389 7.99256 74.4327 4.38107Z" fill="#F1E9F5"/>
<path opacity="0.66" d="M76.5769 0.921875H73.3301V5.3618H76.5769V0.921875Z" fill="white"/>
<g opacity="0.89">
<path d="M117.01 1.65625H113.763V6.09618H117.01V1.65625Z" fill="white"/>
<path d="M182.406 72.4192H184.704C180.73 55.7695 172.286 40.5198 160.281 28.3141C148.276 16.1085 133.166 7.40994 116.581 3.15625V5.33028C132.578 9.55287 147.139 18.015 158.725 29.8234C170.311 41.6318 178.493 56.3483 182.406 72.4192Z" fill="white"/>
<path d="M185.865 72.0559L181.424 72.1055L181.46 75.351L185.901 75.3014L185.865 72.0559Z" fill="white"/>
</g>
<path opacity="0.73" d="M185.868 112.164L185.899 115.379L181.457 115.44L181.427 112.195L185.868 112.164Z" fill="#EBFBEB"/>
<path opacity="0.42" d="M5.21852 112.162L0.777344 112.213L0.814744 115.458L5.25592 115.407L5.21852 112.162Z" fill="#E7F7F1"/>
<path opacity="0.64" d="M76.3011 182.544L73.0547 182.598L73.1283 187.037L76.3747 186.983L76.3011 182.544Z" fill="#F5E9FB"/>
<path opacity="0.4" d="M118.757 180.574L115.511 180.639L115.6 185.078L118.846 185.013L118.757 180.574Z" fill="#F7FDEB"/>
<path opacity="0.44" d="M5.23805 71.316L0.796875 71.3672L0.834275 74.6127L5.27545 74.5616L5.23805 71.316Z" fill="#E7EDE9"/>
<path opacity="0.82" d="M87.0836 177.05C85.0926 177.05 83.071 176.682 81.1106 176.407L82.4277 167.221C84.2043 167.496 85.9809 167.68 87.7575 167.833L87.0836 177.05ZM105.095 176.468L103.808 167.466L106.871 166.945L108.525 175.886C107.484 176.1 106.289 176.315 105.064 176.468H105.095ZM72.8403 174.753C64.2646 172.582 56.0941 169.046 48.6419 164.281L53.5122 156.626C60.1386 160.783 67.3726 163.882 74.9538 165.812L72.8403 174.753ZM114.529 174.569L112.232 165.781C119.836 163.77 127.073 160.566 133.673 156.289L138.635 163.914C131.219 168.727 123.081 172.324 114.529 174.569ZM43.8022 160.882L40.9535 158.678L46.6815 151.604C47.5085 152.278 48.3662 152.921 49.2238 153.564L43.8022 160.882ZM145.589 159.014L139.891 151.88C141.3 150.778 142.648 149.614 143.965 148.389L150.091 155.064C148.56 156.442 147.028 157.759 145.466 159.014H145.589ZM28.2723 145.848C27.0165 144.317 25.8219 142.786 24.6885 141.04L32.0706 135.774C33.0814 137.243 34.1535 138.836 35.1336 140.06L28.2723 145.848ZM161.976 141.469L154.502 136.264C155.115 135.406 155.697 134.488 156.279 133.6L163.967 138.468C163.263 139.479 162.527 140.489 161.854 141.469H161.976ZM20.2777 133.875C16.0422 126.108 13.0744 117.714 11.4866 109.012L20.4308 107.358C21.7909 115.154 24.3972 122.681 28.1498 129.65L20.2777 133.875ZM167 133.263L158.974 128.976C162.701 122.034 165.286 114.539 166.632 106.776L175.515 108.215C174.001 116.974 171.085 125.432 166.877 133.263H167ZM10.5983 103.041C10.5983 101.877 10.3839 100.652 10.292 99.458L19.4813 98.8456C19.4813 99.948 19.5732 100.969 19.7569 101.908L10.5983 103.041ZM176.618 99.9786L167.428 99.3049C167.428 97.5596 167.612 95.753 167.612 93.977H176.801C176.71 95.9673 176.648 97.9882 176.495 99.9786H176.618ZM167.704 91.6498C167.463 83.7766 165.964 75.9926 163.263 68.5928L171.839 65.5308C174.866 73.8349 176.542 82.5705 176.801 91.4049L167.704 91.6498ZM20.0633 82.8312L11.0578 81.4533C11.3641 79.4936 11.7316 77.5033 12.1605 75.5436L21.0434 77.5645C20.5533 79.2793 20.2164 81.0553 19.9407 82.8312H20.0633ZM23.1263 70.3382L14.5191 67.4293C17.3216 59.0437 21.4589 51.165 26.7714 44.0966L34.0616 49.547C29.2655 55.8375 25.5113 62.8573 22.9426 70.3382H23.1263ZM160.2 61.7033C159.434 60.0804 158.607 58.6413 157.718 56.9571L165.591 52.4253C166.601 54.1401 167.551 55.9467 168.409 57.7226L160.2 61.7033ZM37.2165 45.3827L30.3246 39.2586C31.0904 38.34 31.9174 37.452 32.7444 36.5947L39.3607 42.7187C38.6562 43.9129 37.9517 44.5559 37.2472 45.3827H37.2165ZM148.254 43.9129C147.549 43.1168 146.814 42.3513 146.048 41.5858L152.511 35.1861C153.369 36.0435 154.196 36.9009 154.992 37.7889L148.254 43.9129ZM142.127 37.7889C136.2 32.6056 129.477 28.4081 122.217 25.3571L125.74 16.9671C133.898 20.4022 141.457 25.1156 148.131 30.9299L142.127 37.7889ZM51.6131 32.5834L46.4977 25.0508C48.1518 23.9179 49.8671 22.8462 51.5824 21.9888L56.1464 29.8888C54.6149 30.6237 52.9915 31.6648 51.6131 32.5834ZM62.824 26.4594L59.1176 18.0082C67.1792 14.3655 75.7731 12.0394 84.5719 11.1186L85.5521 20.1516C77.6944 20.969 70.02 23.0472 62.824 26.3063V26.4594ZM115.172 23.1524C113.457 22.6318 111.741 22.1725 109.996 21.7745L112.017 12.8946C113.978 13.3539 115.938 13.8744 117.837 14.4562L115.172 23.1524ZM90.6674 20.0904L90.3611 10.9043H93.2098H93.9756V20.0904H90.7593H90.6674Z" fill="white"/>
</svg>
