<svg width="69" height="70" viewBox="0 0 69 70" fill="none" xmlns="http://www.w3.org/2000/svg">
<path d="M5.28906 14.9133L5.65664 14.3621C5.87106 14.0253 6.26925 13.5353 6.72872 12.8923C8.1556 11.2011 9.72339 9.63381 11.4152 8.20743L11.7828 7.8706L12.181 7.53378L13.008 6.89075L13.2225 6.70703H13.4675L13.8963 6.3702L14.3558 6.03338L14.8459 5.72718L15.8261 5.08416L16.0711 4.93106H16.3162L16.8369 4.62485C17.5414 4.19617 18.2766 3.82873 19.0117 3.46129C20.5655 2.71044 22.173 2.07587 23.8208 1.56283C25.5252 1.03903 27.2656 0.63991 29.028 0.36864C30.7925 0.1092 32.5744 -0.0136433 34.3578 0.00120036C35.2154 0.00120036 36.1037 0.00120036 36.9614 0.00120036H38.2479H38.8605H39.5038H40.1164H40.729L41.9236 0.276783L43.0569 0.552366H43.3633H43.6389L44.1903 0.73608C44.9254 0.950421 45.6299 1.19538 46.3038 1.44034L46.7939 1.6547L47.284 1.83841L47.7741 2.05275L48.2336 2.23648C50.1894 3.08847 52.0654 4.11321 53.839 5.2985L55.3093 6.40083L55.7994 6.79889L53.1651 9.86091L52.8588 9.58534L51.5723 8.63611C50.0182 7.5482 48.3674 6.60521 46.6408 5.81904L45.7831 5.48223L45.3543 5.2985H45.1398H44.9254L44.0065 4.96168H43.7921H43.547H43.0569C42.4137 4.74733 41.7398 4.56361 41.0659 4.41051L39.9939 4.19617H39.4731H38.9218H38.3704H38.0947H37.8191H36.6857H34.3884H32.6424H32.0604H30.8658H29.7019C28.1571 4.43094 26.6316 4.77891 25.1379 5.23726C23.6868 5.68688 22.2734 6.24998 20.9108 6.92137L19.9306 7.41129H19.6856H19.4405L18.9811 7.68688C18.3685 8.0237 17.7865 8.42176 17.2045 8.78921L17.2075 8.78709C16.4092 9.37028 16.4092 9.37027 15.6109 9.95346C15.1216 10.3508 14.6315 10.7183 14.2027 11.1164C12.7766 12.3763 11.4646 13.7595 10.2819 15.2501L9.73053 15.985L9.3017 16.5361C9.21251 16.7072 9.1101 16.871 8.9954 17.026L5.28906 14.9133Z" fill="white"/>
<path d="M9.46128 17.5764L6 15.2187C6.13246 15.0524 6.2552 14.8786 6.36758 14.6981C6.57256 14.3878 6.79765 14.0911 7.04144 13.8102L7.47029 13.2284C8.87361 11.5165 10.4322 9.93794 12.1262 8.51285L12.4018 8.26789C12.4868 8.17878 12.579 8.09686 12.6775 8.02293V8.02293L13.0451 7.71672L13.5046 7.34928H13.719L13.9334 7.16556L14.2091 6.98184H14.3929L14.6379 6.79812L14.8523 6.64502L15.2812 6.33881L16.0469 5.84889L16.2613 5.69579H16.537L16.9965 5.4202L18.6812 4.5016L19.1713 4.25664C20.8418 3.22873 22.5817 2.31813 24.3785 1.53143C26.0781 0.996713 27.8202 0.607463 29.5858 0.367872C31.2584 0.114697 32.9482 -0.00816226 34.6399 0.000420346H35.0381C35.7426 0.000420346 36.4777 0.000420346 37.1822 0.000420346H37.6111H38.8057H39.4183H39.8471H40.0616H40.4597H40.6742H41.0111H41.2868H41.6543L42.4814 0.184146L43.6147 0.459729H43.921H44.1967L44.7481 0.612827L46.4634 1.19462H46.8616L47.3823 1.37833L47.7805 1.56206H47.9949H48.2706L48.6382 1.71516C50.6085 2.55747 52.4954 3.58263 54.2743 4.77718L55.377 5.60393L55.7139 5.84889L56.204 6.24695L53.5391 9.30898L53.2634 9.06402L52.9265 8.81905L52.0076 8.11479C50.4447 7.03236 48.7833 6.09943 47.0454 5.32835L46.5553 5.08338H46.2183L45.7895 4.89967H45.5751L45.2075 4.74657L44.6562 4.56284H44.4724H44.258H43.7372L42.2363 4.16477H41.7156H41.0724H40.6742H40.4904H40.1534H39.6021H38.775H38.0093H37.366H36.6309H34.793H32.4651H31.8831H31.2705H30.1065C28.5623 4.41661 27.0374 4.7747 25.5425 5.23649C24.0782 5.82428 22.6644 6.5309 21.3154 7.34928L20.3353 7.83921H20.0902H19.8758L19.6307 7.9923H19.3857L18.0992 8.78844L17.6397 9.09464L17.119 9.46207L16.8127 9.67642L16.5676 9.86014C16.3814 9.97543 16.207 10.1088 16.0469 10.2582L15.6181 10.595L14.6073 11.4218C13.1934 12.7053 11.8825 14.0976 10.6865 15.5861L10.1352 16.321L9.98202 16.5047L9.73697 16.8722L9.43067 17.3315L9.46128 17.5764ZM6 15.1881L9.33876 17.5152L9.64508 17.0559L9.89011 16.7191V16.5047L10.4415 15.7698C11.6317 14.2761 12.9542 12.8926 14.3929 11.6361C14.6992 11.3299 15.0361 11.0849 15.373 10.7787L15.8019 10.4419C15.962 10.2925 16.1364 10.1592 16.3226 10.0439L16.5983 9.86014L16.874 9.6458L17.3947 9.27836L17.8848 8.97215C18.2979 8.68224 18.7275 8.41643 19.1713 8.17603H19.3857H19.6307H19.8758H20.1208L21.0704 7.65548C22.4467 7.01529 23.858 6.45303 25.2975 5.97137C26.8042 5.52276 28.3391 5.17496 29.8921 4.93028H31.0561H31.6381H32.2507H34.7318H36.4165H36.8759H37.5192H38.285H39.112H39.6633H40.0309H40.4291H41.103H41.5931L43.094 5.35896L43.6454 5.51207H43.8291L44.3805 5.69579H44.7481H44.9931L45.422 5.87951H45.7283L46.249 6.12447C47.9872 6.88786 49.6402 7.83209 51.1806 8.94154L52.1301 9.61519L52.467 9.89077C52.57 9.94667 52.6632 10.0191 52.7427 10.1051L55.3464 7.04308L54.8869 6.64502L54.55 6.40005L53.4166 5.5733C51.6445 4.38546 49.7683 3.3606 47.8112 2.51128L47.4436 2.35818H47.1373H46.9535L46.5247 2.17447L46.0346 1.99074L45.6057 1.83764L43.921 1.25585L43.3697 1.10275H43.0634H42.7877L41.6237 0.796553L40.8273 0.612827H40.4291H40.1841H39.8471H39.6021H39.2039H39.0201H38.5913H37.9787H36.784H36.3552C35.6507 0.612827 34.9156 0.612827 34.211 0.612827H33.8128C30.3357 0.615862 26.878 1.13175 23.5515 2.14384C21.9213 2.67828 20.3255 3.31228 18.7731 4.04229L18.283 4.28726L16.5676 5.20586L16.1388 5.48145H15.955L15.71 5.63454H15.4956L14.7298 6.12447L14.301 6.43068H14.1172L13.8721 6.61439H13.6577L13.4127 6.79812L13.1983 6.98184C13.1155 7.0148 13.0419 7.06733 12.9838 7.13494L12.5244 7.50238L12.1568 7.80859L11.8811 8.05355L11.6361 8.29851C10.0011 9.71591 8.50379 11.2845 7.16397 12.9834L6.76577 13.5346C6.52051 13.8251 6.29536 14.132 6.09189 14.4532L6 15.1881Z" fill="white"/>
<path d="M0.0817994 40.4503C0.0755267 40.3586 0.0755267 40.2665 0.0817994 40.1747C0.0934397 40.073 0.0934397 39.9703 0.0817994 39.8685C0.0967526 39.7158 0.0967526 39.562 0.0817994 39.4092C0.0817994 39.0724 0.0817994 38.6437 0.0817994 38.1844C0.0649879 37.9295 0.0649879 37.6738 0.0817994 37.4189C0.065462 37.1436 0.065462 36.8675 0.0817994 36.5922C-0.113322 33.7262 0.0409465 30.8472 0.541244 28.0185C0.541244 27.253 0.816933 26.4875 1.03135 25.7526C1.01766 25.5691 1.01766 25.3849 1.03135 25.2014C1.03135 25.0177 1.03135 24.834 1.03135 24.6503C1.03135 24.4666 1.2764 23.946 1.36829 23.5786C1.46018 23.2111 1.61334 22.9049 1.70523 22.5681L2.07279 21.5883L2.44037 20.7003L2.80795 19.8429C2.80795 19.5979 3.05298 19.3224 3.1755 19.0774L3.51244 18.4037C3.72686 17.9751 3.94128 17.6382 4.09444 17.332C4.08861 17.2607 4.08861 17.189 4.09444 17.1177V16.934C4.17151 16.8423 4.23353 16.7389 4.27822 16.6278V16.3828L7.77013 18.5568V18.7712L7.40258 19.353L6.91247 20.3328C6.69806 20.7003 6.51428 21.129 6.29986 21.5883C5.25585 23.897 4.49475 26.3234 4.03316 28.8146C4.03316 29.1515 4.03316 29.4883 4.03316 29.8251C4.03316 30.1619 4.03316 30.1619 4.03316 30.315C4.03316 30.4681 4.03316 30.6518 4.03316 30.8356V31.846C4.03316 32.1829 4.03316 32.4891 4.03316 32.8259C4.03316 33.1627 4.03316 33.4689 4.03316 33.7751V34.6019C4.03316 34.9081 4.03316 35.2143 4.03316 35.4898C4.03316 35.7654 4.03316 36.041 4.03316 36.286C4.03316 36.5309 4.03316 36.7759 4.03316 37.0209C4.01667 37.2451 4.01667 37.4703 4.03316 37.6945C4.03316 38.0926 4.03316 38.46 4.03316 38.7662C4.03316 39.0724 4.03316 39.2868 4.03316 39.4705C4.03913 39.5418 4.03913 39.6135 4.03316 39.6848L0.0817994 40.4503Z" fill="white"/>
<path d="M0.0801664 40.7862C0.0882904 40.6946 0.0882904 40.6024 0.0801664 40.5107C0.0627752 40.43 0.0627752 40.3464 0.0801664 40.2657V40.082C0.0801664 40.082 0.0801664 39.837 0.0801664 39.7145C0.0934777 39.5413 0.0934777 39.3673 0.0801664 39.194V38.4897C0.0801664 38.3366 0.0801664 38.1835 0.0801664 37.9998V37.7242C0.0801664 37.7242 0.0801664 37.4793 0.0801664 37.3568C0.0953173 37.2041 0.0953173 37.0502 0.0801664 36.8975C-0.112243 34.0315 0.0420083 31.1528 0.539611 28.3238V27.6808C0.629609 27.133 0.752361 26.5911 0.90719 26.0579C0.892909 25.8745 0.892909 25.6902 0.90719 25.5068V25.5068C0.893322 25.354 0.893322 25.2002 0.90719 25.0474L1.09097 24.4044L1.24413 23.9757C1.31184 23.7163 1.39365 23.4608 1.48918 23.2102V22.9653C1.48918 22.9653 1.48918 22.7203 1.48918 22.5978C1.48918 22.4753 1.48917 22.1691 1.73421 21.9854V21.6486C1.73421 21.4649 1.73422 21.2812 1.97927 21.0668V20.9137C2.06859 20.6836 2.17086 20.4587 2.28557 20.2401L2.56126 19.6277C2.57132 19.5566 2.57132 19.4844 2.56126 19.4133L2.77568 18.954L3.08198 18.4335C3.08198 18.2191 3.29639 18.0354 3.38828 17.8517C3.37246 17.7811 3.37246 17.7079 3.38828 17.6374C3.3954 17.5559 3.3954 17.4739 3.38828 17.3924L6.91084 19.5664V19.7808C6.91084 19.7808 6.75768 20.0564 6.66579 20.2707L6.39012 20.7606L6.14507 21.2199C6.00865 21.4531 5.89578 21.6993 5.80813 21.9548L5.53246 22.4753C4.49671 24.7846 3.74583 27.2112 3.2964 29.7017V30.0386V30.7122C3.2964 30.7122 3.2964 30.7122 3.2964 30.8653C3.28262 30.9771 3.28262 31.0903 3.2964 31.2021C3.2964 31.2021 3.2964 31.4777 3.2964 31.6002V31.9982C3.2964 32.182 3.2964 32.3963 3.2964 32.6107C3.2964 32.825 3.2964 33.07 3.2964 33.3149V33.5905C3.28116 33.8046 3.28116 34.0194 3.2964 34.2335V34.9072C3.28054 35.203 3.28054 35.4994 3.2964 35.7952V35.7952C3.2804 36.0296 3.2804 36.2649 3.2964 36.4994C3.31413 36.7441 3.31413 36.9897 3.2964 37.2343V37.2343C3.28133 37.4177 3.28133 37.6021 3.2964 37.7855V38.0917C3.2964 38.3673 3.2964 38.6428 3.2964 38.8572V39.2859C3.2964 39.2859 3.2964 39.4696 3.2964 39.5614C3.2883 39.6327 3.2883 39.7046 3.2964 39.7758L0.0801664 40.7862ZM4.42975 16.7188V16.9637C4.42095 17.0246 4.42095 17.0865 4.42975 17.1474V17.1474L4.15406 17.6986L3.87839 18.2191C3.77864 18.3728 3.69644 18.5371 3.63334 18.7091V18.9234L3.35767 19.5358C3.23729 19.7622 3.13485 19.9977 3.05134 20.2401V20.3932C3.05134 20.5769 2.89821 20.7606 2.80631 20.975V21.2812L2.56126 21.8936C2.57443 22.0157 2.57443 22.1389 2.56126 22.261V22.5366C2.46586 22.7768 2.38404 23.0221 2.31621 23.2715C2.31621 23.4246 2.31621 23.5777 2.31621 23.7002L2.13243 24.3432C2.11856 24.496 2.11856 24.6497 2.13243 24.8025V24.8025C2.13243 24.9862 2.13243 25.1699 2.13243 25.3537C1.9776 25.8868 1.85485 26.4287 1.76485 26.9765C1.76485 27.1909 1.76485 27.4052 1.76485 27.6502C1.28194 30.4705 1.12775 33.3374 1.30538 36.1932C1.30538 36.3463 1.30538 36.4994 1.30538 36.6525C1.29032 36.7745 1.29032 36.8979 1.30538 37.02V37.9692C1.30538 38.1223 1.30538 38.306 1.30538 38.4591V39.1634V39.6839C1.2882 39.8058 1.2882 39.9295 1.30538 40.0514V40.2351C1.30538 40.2351 1.30538 40.2351 1.30538 40.4494C1.31481 40.5411 1.31481 40.6334 1.30538 40.725L5.31805 40.0207C5.32771 39.9496 5.32771 39.8775 5.31805 39.8064C5.31805 39.8064 5.31805 39.8064 5.31805 39.5308V39.1021C5.31805 38.898 5.31805 38.653 5.31805 38.3673V37.9692C5.28777 37.7867 5.28777 37.6005 5.31805 37.418V37.418C5.31805 37.1424 5.31805 36.8975 5.31805 36.6831C5.30205 36.4487 5.30205 36.2134 5.31805 35.9789C5.30219 35.6831 5.30219 35.3867 5.31805 35.0909V33.8967C5.30281 33.6826 5.30281 33.4677 5.31805 33.2537V32.9781C5.33332 32.7436 5.33332 32.5083 5.31805 32.2738C5.33167 32.0699 5.33167 31.8653 5.31805 31.6614C5.31805 31.6614 5.31805 31.3858 5.31805 31.2634C5.31805 31.1409 5.31805 30.9878 5.31805 30.8653C5.32996 30.7533 5.32996 30.6404 5.31805 30.5285C5.29919 30.4792 5.29919 30.4247 5.31805 30.3754V29.7017V29.3343C5.77192 26.8547 6.52265 24.4388 7.55409 22.1385L7.82978 21.5874L8.16672 20.8525L8.41175 20.3932L8.68744 19.9032C8.76573 19.7424 8.85797 19.5887 8.9631 19.4439V19.4439C8.9631 19.4439 8.9631 19.4439 8.9631 19.2602L4.42975 16.7188Z" fill="white"/>
<path d="M58.1887 9.70703L58.495 10.0132C58.7094 10.2276 59.0158 10.5338 59.3833 10.9625C59.8385 11.4394 60.268 11.9402 60.6698 12.4629L61.0374 12.9222C61.0374 12.9222 61.3131 13.2284 61.4356 13.4121L62.232 14.5144C63.4273 16.2924 64.4528 18.1787 65.2951 20.1485C66.3195 22.401 67.0801 24.7642 67.5618 27.1912C68.4859 31.7172 68.4859 36.3831 67.5618 40.9091C67.5618 41.154 67.5618 41.3684 67.4086 41.6133C67.4261 41.8171 67.4261 42.022 67.4086 42.2257C67.3283 42.6291 67.226 43.0277 67.1023 43.4199C67.1023 43.7874 66.8879 44.1242 66.796 44.461C66.7041 44.7978 66.796 44.7672 66.796 44.8897C66.7587 45.0371 66.7074 45.1807 66.6428 45.3184C66.459 45.8389 66.3365 46.237 66.214 46.5126L66.0302 46.9412L62.2626 45.349C62.3017 45.2218 62.3529 45.0988 62.4158 44.9815L62.7834 43.9098C62.8006 43.7982 62.8006 43.6846 62.7834 43.573L62.9365 43.1443C63.0046 42.8415 63.0967 42.5445 63.2122 42.2563C63.2122 41.9195 63.2122 41.5827 63.4572 41.2153C63.7023 40.8478 63.4572 40.8478 63.6104 40.6335C63.599 40.4397 63.599 40.2454 63.6104 40.0517C63.9906 38.197 64.1958 36.3106 64.223 34.4176C64.2427 32.2486 64.0374 30.0834 63.6104 27.9567C63.1789 25.8471 62.5111 23.7928 61.6194 21.8327C60.8483 20.1012 59.9259 18.4413 58.8626 16.8722L58.1581 15.9229L57.3617 15.0043L57.0554 14.6369L56.7491 14.2695L56.2283 13.6877L55.9833 13.4121L55.7689 13.1977L55.4319 12.8609L55.1562 12.5853L58.1887 9.70703Z" fill="white"/>
<path d="M66.0271 46.9586L62.2289 45.3664L62.3821 45.0295C62.3821 44.8152 62.5659 44.5396 62.6884 44.1722V43.9578C62.6752 43.8357 62.6752 43.7125 62.6884 43.5904C62.6884 43.5904 62.6884 43.3454 62.6884 43.1923L62.964 42.3043L63.1478 41.6307V41.2633C63.1478 41.2633 63.1478 41.2633 63.1478 41.0489V40.6815C63.1621 40.4878 63.1621 40.2934 63.1478 40.0997C63.5214 38.2439 63.7264 36.3582 63.7604 34.4656C63.7874 32.2963 63.582 30.1303 63.1478 28.0047C62.7235 25.897 62.066 23.843 61.1875 21.8807C60.4142 20.154 59.481 18.5035 58.4 16.9508L58.1856 16.6446L57.6955 15.9709L57.2667 15.4198L57.0216 15.1136L56.7766 14.8074C56.7766 14.8074 56.7766 14.8074 56.7766 14.593L56.4703 14.2562L56.2253 13.9806L56.0108 13.7357L55.7964 13.5213L55.582 13.307V13.1539L55.3063 12.8783L58.3694 10L58.7064 10.3368L58.8595 10.5205C59.1167 10.7431 59.3525 10.9892 59.564 11.2554L59.8397 11.5923C60.2065 11.9532 60.5445 12.3422 60.8505 12.7558V12.9702L61.0956 13.2457C61.1848 13.3523 61.2667 13.4649 61.3406 13.5826C61.6163 13.9194 61.8613 14.2868 62.137 14.6849C63.327 16.4553 64.3523 18.331 65.2001 20.2884C66.2075 22.5446 66.9576 24.9071 67.4362 27.3311C67.9197 29.75 68.1455 32.2134 68.11 34.6799C68.091 36.8314 67.855 38.9754 67.4055 41.0795C67.4055 41.0795 67.4055 41.2633 67.4055 41.3551V41.7838C67.4231 41.9262 67.4231 42.0701 67.4055 42.2125C67.4055 42.2125 67.4055 42.2125 67.4055 42.4268V42.7637C67.3197 43.0353 67.2482 43.3113 67.1911 43.5904L66.8542 44.6315C66.8642 44.7026 66.8642 44.7747 66.8542 44.8458C66.8542 44.8458 66.8542 44.9989 66.8542 45.0908V45.3664L66.6704 45.8563C66.6704 46.1625 66.4866 46.3768 66.4254 46.5606L66.2416 46.9892L66.0271 46.9586ZM62.2289 45.3358L65.9965 46.928L66.1803 46.5299L66.4254 45.8257L66.6091 45.3051V45.0602C66.6091 45.0602 66.6091 45.0602 66.6091 44.8152C66.6273 44.7449 66.6273 44.6712 66.6091 44.6009C66.6091 44.2334 66.8235 43.8966 66.9154 43.5904C67.0073 43.2842 67.0686 43.0392 67.1605 42.733V42.3962C67.1605 42.3962 67.1605 42.3962 67.1605 42.2125C67.1605 42.0288 67.1605 41.9063 67.1605 41.7532V41.3551C67.1605 41.3551 67.1605 41.1714 67.1605 41.0795C68.1004 36.5464 68.1101 31.8696 67.1886 27.3326C66.2672 22.7956 64.434 18.4928 61.8001 14.6849L61.0037 13.6132C60.9328 13.4838 60.8508 13.3609 60.7586 13.2457L60.5442 12.9702V12.7864L59.5334 11.5923L59.2271 11.286C59.0166 11.0284 58.7916 10.7831 58.5532 10.5512L58.3694 10.3674L58.0631 10.0612L55 12.9089L55.2757 13.1845L55.4901 13.3988L55.7045 13.5826L55.9189 13.8275L56.164 14.1031L56.4397 14.4399L56.6234 14.6543L56.8685 14.9911L57.1135 15.2667L57.5424 15.8179L58.0325 16.5221L58.2469 16.7977C60.8514 20.1238 62.7202 23.9644 63.7298 28.0659C64.1388 30.1948 64.3337 32.3592 64.3118 34.5268C64.2778 36.4195 64.0728 38.3052 63.6992 40.1609C63.7166 40.3545 63.7166 40.5492 63.6992 40.7427C63.7168 40.8646 63.7168 40.9883 63.6992 41.1102C63.6992 41.1102 63.6992 41.1102 63.6992 41.3245V41.7226L63.5154 42.3656C63.5154 42.7024 63.3316 42.978 63.2397 43.2536C63.1478 43.5292 63.2397 43.5292 63.2397 43.6823C63.2316 43.7944 63.2316 43.907 63.2397 44.0191V44.264C63.2397 44.6009 63.0253 44.8764 62.9334 45.0908C62.7444 45.2808 62.4955 45.3998 62.2289 45.4276V45.3358Z" fill="white"/>
<path d="M64.4374 49.9134L64.223 50.3421C64.0698 50.6176 63.8554 51.0463 63.5797 51.5056C63.304 51.9649 62.9671 52.5161 62.5689 53.0673C62.1707 53.6184 62.2013 53.6491 61.9869 53.9246L61.3437 54.8126L61.0373 55.2413L60.6698 55.67L60.0265 56.4661L59.6896 56.8336L59.3526 57.201L58.7707 57.844L57.8211 58.7626L57.3616 59.0995L54.5742 56.0374L54.8805 55.7006L55.7076 54.9045L56.2283 54.3227L56.504 54.0165C56.504 54.0165 56.504 54.0165 56.6571 54.0165L56.8103 53.8328C57.1779 53.3735 57.6067 52.9142 57.9742 52.3936C58.3418 51.8731 58.3725 51.8731 58.5562 51.6281C58.74 51.3832 58.8932 51.1076 59.0463 50.8626C59.1995 50.6177 59.6589 49.8828 59.9346 49.4847L60.1184 49.1785V48.9029L60.3635 48.4742L60.5779 48.0762L64.4374 49.9134Z" fill="white"/>
<path d="M57.5918 60L55 56.7033L55.2848 56.3736L55.4557 56.1758L56.0538 55.4835L56.538 54.8901L56.7943 54.5604L56.9367 54.3626L57.2785 53.8681C57.5409 53.5201 57.788 53.157 58.019 52.7802L58.3323 52.2857L58.5317 51.956L59.0158 51.1319C59.2437 50.7692 59.4431 50.3736 59.6139 50.044L59.8133 49.6484V49.4505C59.822 49.3629 59.822 49.2744 59.8133 49.1868L59.9842 48.7912L60.1551 48.3956L63.5443 50.5055L63.3164 51V51.2637L62.8323 52.2198L62.6614 52.5824L61.9209 53.9341L61.6361 54.3956L61.3798 54.8571L61.1234 55.2528L60.7816 55.7802C60.7309 55.8826 60.6632 55.9722 60.5823 56.044V56.2418L60.4114 56.5055V56.7033H60.4399L60.1551 57.0659L59.8418 57.4615V57.6923C59.7811 57.7294 59.7315 57.7869 59.6994 57.8571L59.1297 58.5495L58.4747 59.3077L58.2753 59.5385L57.5918 60ZM55.0285 56.7033L57.5918 60L57.9051 59.6044L58.1044 59.4066L58.7595 58.6154L59.3291 57.9231L59.4715 57.7253L59.7848 57.3297L60.4399 56.7033L60.7816 56.2088V56.011L60.9525 55.7802L61.0949 55.5824L61.2658 55.3187L61.6076 54.7582L61.8639 54.3626L62.1202 53.9011L62.4051 53.4396C62.6899 52.978 62.9177 52.5165 63.1456 52.0879L63.3164 51.7582C63.483 51.4493 63.6352 51.1301 63.7721 50.8022C63.7764 50.7034 63.7764 50.6043 63.7721 50.5055L64 50.044L60.6393 48L60.4683 48.3956L60.2975 48.7582C60.261 48.8637 60.2131 48.9634 60.1551 49.0549V49.2528L59.9557 49.6484C59.7848 49.978 59.5854 50.3736 59.3576 50.7363L58.8734 51.5604L58.6741 51.8571C58.6741 52.0549 58.4462 52.2198 58.3608 52.3846C58.1298 52.7508 57.8826 53.1029 57.6202 53.4396L57.2785 53.967L56.9937 54.3297L56.5095 54.9231C56.3342 55.1591 56.1438 55.3795 55.9399 55.5824L55.769 55.8132L55.0285 56.7033Z" fill="white"/>
<path d="M5.74853 53.9844L5.50348 53.6475L4.73771 52.4534L4.49266 52.0859C4.42265 51.9366 4.34072 51.7933 4.24763 51.6572L3.72688 50.7386C3.72688 50.4018 3.38995 50.065 3.20616 49.7281L2.9305 49.2076C2.9305 49.0239 2.9305 48.8402 2.71608 48.6871C2.10605 47.3865 1.58414 46.0464 1.1539 44.6758C1.1539 44.094 0.847578 43.6347 0.755685 43.2979C0.663792 42.9611 0.755685 42.7773 0.755685 42.7773L4.73771 41.8281C4.73771 41.8281 4.73771 42.0118 4.73771 42.1649C4.73771 42.3181 4.9215 42.8692 5.07465 43.3591C5.22781 43.8491 5.25842 43.8491 5.35032 44.1553C5.44221 44.4615 5.35032 44.4308 5.35032 44.5839C5.34204 44.7267 5.34204 44.8699 5.35032 45.0126L5.7179 45.9312C5.7179 46.2681 6.0242 46.5743 6.14673 46.8805L6.36114 47.3398C6.43074 47.499 6.51268 47.6526 6.60619 47.7991L7.06566 48.6871L7.52513 49.4832C7.65461 49.7358 7.79776 49.9811 7.95396 50.2181L8.62782 51.2592L8.81162 51.5347L5.74853 53.9844Z" fill="white"/>
<path d="M5.74694 54.2891C5.73521 54.2079 5.73521 54.1254 5.74694 54.0441L4.95053 52.8806L4.73611 52.4825V52.3294C4.726 52.2378 4.726 52.1454 4.73611 52.0538V51.8089L4.33792 51.1352C4.33792 50.8596 4.06225 50.5534 3.90909 50.2779V50.1248V49.9104C3.8399 49.8185 3.78799 49.7147 3.75593 49.6042C3.75593 49.4205 3.75592 49.2368 3.51087 49.0837C2.91816 47.7757 2.39669 46.4367 1.94872 45.0724C1.94872 44.705 1.76492 44.3988 1.67303 44.1232C1.69065 43.9808 1.69065 43.8369 1.67303 43.6945C1.66158 43.5212 1.66158 43.3473 1.67303 43.174L5.68566 42.2247V42.5309C5.67141 42.6325 5.67141 42.7356 5.68566 42.8371C5.68566 43.0821 5.68568 43.3883 5.96136 43.7557C6.23703 44.1232 5.96135 44.1538 6.17577 44.3681V44.6131C6.18391 44.7252 6.18391 44.8378 6.17577 44.9499C6.18894 45.0721 6.18894 45.1953 6.17577 45.3174V45.3174L6.54335 46.236C6.60184 46.4047 6.67353 46.5685 6.75776 46.7259C6.81642 46.8847 6.88813 47.0383 6.97218 47.1852V47.1852C6.97218 47.1852 6.97218 47.3995 6.97218 47.522L7.15596 47.8282V47.9813L7.61543 48.8387L7.89109 49.298L8.07489 49.6348V49.8798L8.35056 50.3391L8.6875 50.8596C8.6875 51.074 8.93255 51.2577 9.02444 51.4108V51.5945L5.74694 54.2891ZM0.570312 42.9902C0.586487 43.1531 0.586487 43.3173 0.570312 43.4802C0.587934 43.6225 0.587934 43.7665 0.570312 43.9088C0.570313 44.1844 0.75411 44.4906 0.846003 44.8581C1.29944 46.2104 1.82081 47.5389 2.40816 48.8387L2.65321 49.3899V49.6961V49.9104L3.08204 50.7984C3.23264 51.0119 3.36582 51.2372 3.48026 51.472L3.6334 51.6864V51.9926C3.6334 52.1457 3.6334 52.2682 3.84782 52.3906L4.64423 53.5848C4.63019 53.6556 4.63019 53.7284 4.64423 53.7992V53.7992L8.01362 51.472V51.2577L7.67668 50.7372L7.33974 50.2166L7.06407 49.7267V49.5123L6.88027 49.1755L6.6046 48.6856L6.14513 47.7976L5.96136 47.4608V47.1546V47.0015C5.87731 46.8546 5.80559 46.7009 5.74694 46.5422C5.65711 46.3875 5.58518 46.2232 5.53252 46.0523L5.16495 45.1337C5.16495 45.1337 5.16495 44.9193 5.16495 44.7968V44.4294V44.1844C5.16495 43.9701 5.16495 43.7557 4.95053 43.572C4.73611 43.3883 4.73613 42.8984 4.67486 42.6534V42.3778C4.68655 42.2659 4.68655 42.153 4.67486 42.041V42.041L0.570312 42.9902Z" fill="white"/>
<path d="M36.808 68.5912H32.8566H31.7539C29.98 68.4778 28.2182 68.2218 26.4854 67.8257C24.5055 67.3707 22.5686 66.7457 20.6962 65.9578C18.8275 65.1509 17.025 64.1987 15.3051 63.1102C13.8293 62.1316 12.4268 61.0468 11.1087 59.8644L10.2817 59.0989L9.57717 58.3946L8.96453 57.7822C8.79085 57.5972 8.62726 57.403 8.47445 57.2005L7.76993 56.435L7.5249 56.1287L10.588 53.5566V53.7404L11.2006 54.4446L11.6601 54.9346L12.2114 55.4857L12.4871 55.7919L12.824 56.0981L13.5592 56.7718C14.7126 57.8232 15.9524 58.7758 17.2655 59.6194C18.7566 60.6009 20.3357 61.4415 21.9827 62.1303C23.6434 62.8104 25.3534 63.3631 27.098 63.7838C28.6342 64.1067 30.1893 64.3317 31.7539 64.4574H32.7341H36.3179L36.808 68.5912Z" fill="white"/>
<path d="M34.632 69.0177H31.5689C29.7961 68.8938 28.0351 68.6379 26.3004 68.2521C24.3186 67.7907 22.3813 67.1554 20.5111 66.3537C18.6312 65.5704 16.8267 64.6172 15.1201 63.506C13.6313 62.5456 12.2274 61.4597 10.9237 60.2603L10.7092 60.0766L10.0966 59.5254L9.63716 59.0661C9.56338 58.9769 9.48133 58.8949 9.39211 58.8211L8.99391 58.3924L8.74886 58.1781L8.25878 57.6269L7.95248 57.2595L7.55426 56.8308C7.47239 56.7364 7.40053 56.6338 7.33984 56.5246V56.5246L10.4029 53.9219V54.075L10.7399 54.473L11.0156 54.7486V54.9323L11.3219 55.2692L11.6282 55.5754L11.8732 55.8203L12.057 56.0041L12.3327 56.249L12.9147 56.8002C14.0835 57.833 15.3219 58.7845 16.621 59.6479C18.1311 60.6065 19.7193 61.4362 21.3688 62.1281C23.0092 62.8346 24.7113 63.3881 26.4535 63.7816C27.9858 64.1261 29.5424 64.3513 31.1094 64.4552H35.6734L35.9491 68.5584H35.5815H33.7743L34.632 69.0177ZM7.43173 56.3409L7.64615 56.6165L8.04436 57.0758L8.35067 57.4126L8.84077 57.9637L9.05519 58.2087L9.45338 58.6068L9.72905 58.8517L10.1885 59.311L10.8011 59.8928L10.9849 60.0766C12.3179 61.1982 13.7306 62.2216 15.212 63.1386C16.9116 64.2434 18.7053 65.1964 20.5724 65.9863C22.4442 66.7836 24.3811 67.4188 26.3616 67.8847C28.0994 68.2533 29.8593 68.509 31.6301 68.6502H36.7761L36.5005 64.6083H31.9671C30.4 64.5044 28.8434 64.2792 27.3112 63.9347C22.2829 62.7574 17.6224 60.3596 13.7417 56.9533C13.5579 56.7389 13.3435 56.5858 13.1597 56.4021L12.884 56.1265L12.7002 55.9122L12.4858 55.6979L12.1489 55.361L11.8732 55.0548V54.8711L11.6282 54.5955L11.2606 54.1975V54.0444L7.43173 56.3409Z" fill="white"/>
<path d="M60.1902 57.8378L59.5469 58.4196L59.1794 58.7258L58.7812 59.0932L57.7397 59.92L57.1271 60.3487L56.4838 60.8386L56.1163 61.0835L55.7793 61.3285L55.0136 61.8184L54.6154 62.0328C54.4942 62.1319 54.3603 62.2143 54.2171 62.2777L53.4208 62.737H53.2063H52.9919L52.5631 62.9514L51.7054 63.4107L50.8171 63.8087L50.3883 63.9925L49.9288 64.2068L49.0405 64.5436H48.6117C48.4703 64.5734 48.3243 64.5734 48.1829 64.5436C47.1787 64.9207 46.1564 65.2477 45.1198 65.5235L43.8333 65.8297L42.8225 66.0134H42.1792H41.9342L41.3828 61.9409H41.5053H42.0873L42.9756 61.7878L44.109 61.5122C46.1394 61.007 48.1108 60.2885 49.9901 59.3688L50.7252 59.0014L51.491 58.6033L52.1955 58.1746L52.5631 57.9603L52.9 57.7459C53.819 57.1948 54.6154 56.5824 55.2892 56.0924L56.2082 55.3576C56.4458 55.1682 56.6709 54.9636 56.8821 54.7451L57.4641 54.2246L60.1902 57.8378Z" fill="white"/>
<path d="M41.6739 66.6969L41.0919 62.5938H41.582H41.8883H42.164H42.746H43.1442H43.9099C45.9241 62.0678 47.8832 61.35 49.7604 60.4504L50.2199 60.2361L50.5262 60.0523H50.7406L51.292 59.7461L51.9965 59.3481L52.3641 59.1337L52.701 58.9194C53.5263 58.4001 54.3238 57.8379 55.0902 57.2353L55.6109 56.8372L56.0091 56.5004L56.5299 56.0411L57.1425 55.5205L59.8992 58.5826L59.2254 59.1644C59.2254 59.1644 59.2254 59.1644 59.2254 59.3175H59.0416L58.7046 59.593L57.9695 60.1748L57.6632 60.4198L57.2957 60.726H57.0506L56.6524 60.5729L56.2542 60.8485L55.9785 61.0322L55.6109 61.2771L54.8758 61.7671L54.6307 61.9202C54.4876 61.9836 54.3537 62.066 54.2326 62.1651H53.9569L53.4055 62.4713H53.1911L52.7929 62.6857H52.5479L51.9659 62.9919H51.6902L51.3226 63.1756L50.8019 63.4206L50.373 63.6043L49.9136 63.788L49.0559 64.1248L48.6271 64.3086H48.3514H48.1676C47.1651 64.6818 46.1425 64.9987 45.1046 65.2578L43.818 65.564L42.8072 65.7477H42.164L41.6739 66.6969ZM41.1225 62.6244L41.7045 66.6663H41.9189H42.5622L43.5424 66.4826L44.8595 66.1764C45.8963 65.9132 46.9187 65.5964 47.9226 65.2272V65.2272H48.1983L48.6271 65.0434L49.5154 64.7066L49.9442 64.5229L50.4037 64.3392L50.9244 64.0942L51.2613 63.9105H51.5676L52.1496 63.6043H52.3947H52.5785H52.7929H52.9767L53.528 63.2981H53.8037L54.2019 63.0531H54.4776L55.2127 62.5632L55.5803 62.3182L55.8866 62.1345L56.6524 60.5729L56.9281 60.3892H57.1425L57.5407 60.083L57.8164 59.838L58.5515 59.2562L58.8884 58.9806L59.0722 58.7969C59.0722 58.7969 59.0722 58.7969 59.0722 58.6438L59.7461 58.062L56.9893 55L56.4073 55.5205C56.2548 55.6959 56.0797 55.8504 55.8866 55.9798L55.5191 56.286L54.9983 56.7147C54.3551 57.174 53.528 57.8171 52.5785 58.3988L52.2415 58.6132L51.9046 58.7969L51.1695 59.2256L50.6487 59.5318H50.4343L50.0974 59.7155L49.6685 59.9299C47.7884 60.8477 45.8173 61.5661 43.7874 62.0733L43.0216 62.257H42.6541H42.0415H41.7658H41.4595H41L41.1225 62.6244Z" fill="white"/>
</svg>
