<svg width="102" height="102" viewBox="0 0 102 102" fill="none" xmlns="http://www.w3.org/2000/svg">
<path opacity="0.52" d="M50.2961 101.794H48.8564L49.3159 94.9355H50.5412L50.2961 101.794Z" fill="white"/>
<path opacity="0.85" d="M48.7954 101.763C47.4476 101.763 46.1611 101.58 44.9053 101.427L45.7629 94.5371L49.1324 94.8127L48.7954 101.763Z" fill="white"/>
<path opacity="0.77" d="M54.7684 101.67L54.2783 94.7503C55.3969 94.6867 56.5114 94.5641 57.6171 94.3828V94.3828L58.6892 101.211C57.4333 101.425 56.1162 101.548 54.8297 101.67H54.7684Z" fill="white"/>
<path opacity="0.43" d="M59.0262 101.059L57.9541 94.3223H58.8118H59.0875L60.3127 101.151L59.0262 101.059Z" fill="white"/>
<path opacity="0.47" d="M40.1269 100.662C39.7325 100.599 39.3435 100.507 38.9629 100.386V100.386L40.617 93.6191L41.6278 93.8335L40.1269 100.662Z" fill="white"/>
<path opacity="0.47" d="M38.8096 100.325C37.5537 100.019 36.2979 99.682 35.042 99.2533L37.2168 92.6699C38.2583 93.0067 39.3303 93.3436 40.2799 93.6192L38.8096 100.325Z" fill="white"/>
<path opacity="0.42" d="M64.6317 99.9259L62.7632 93.2813C63.8659 92.9751 64.938 92.6383 66.01 92.2402L68.3993 98.7317C67.2047 99.191 65.9488 99.5891 64.6929 99.9565L64.6317 99.9259Z" fill="white"/>
<path opacity="0.51" d="M68.6747 98.6708L66.2549 92.1487L67.1738 91.7812L69.7468 98.2115L68.6135 98.6402L68.6747 98.6708Z" fill="white"/>
<path opacity="0.79" d="M30.6924 97.5672L29.5591 97.0467L32.6222 90.7695L33.5717 91.1982L30.6924 97.5672Z" fill="white"/>
<path opacity="0.74" d="M29.3447 96.956C28.1808 96.3742 27.0168 95.7925 25.9141 95.1494L29.3447 89.0254C30.3362 89.602 31.3588 90.1234 32.4078 90.587L29.3447 96.956Z" fill="white"/>
<path opacity="0.82" d="M74.0963 96.2814L71.0332 90.1574C72.0134 89.6675 72.9936 89.0857 74.0963 88.5039L77.7414 94.383C76.6387 95.0566 75.5053 95.6997 74.3413 96.3121L74.0963 96.2814Z" fill="white"/>
<path opacity="0.79" d="M77.7416 94.2312L74.0659 88.3521C74.332 88.1544 74.608 87.9704 74.893 87.801V87.5254L78.8443 93.6494L78.0173 94.17L77.7416 94.2312Z" fill="white"/>
<path opacity="0.79" d="M21.9017 92.6379L20.8296 91.8724L24.8116 86.2383L25.2404 86.5445L25.6386 86.8507V86.5751V86.9732L21.9017 92.6379Z" fill="white"/>
<path opacity="0.56" d="M20.7066 91.8732C19.6652 91.1077 18.6544 90.2809 17.6436 89.4236L22.2382 84.1875C23.0798 84.9361 23.959 85.6412 24.8724 86.3003V86.3003L20.7066 91.8732Z" fill="white"/>
<path opacity="0.61" d="M82.5812 90.8315L78.2622 85.4117C79.1403 84.7176 79.9979 83.9827 80.8352 83.207L85.4911 88.1981C84.5722 89.0555 83.592 89.9129 82.428 90.7396L82.5812 90.8315Z" fill="white"/>
<path opacity="0.57" d="M87.2985 86.6067L82.3057 81.738C83.1021 80.9419 83.8678 80.1152 84.5723 79.2578L89.8715 83.7284C89.0751 84.7082 88.1868 85.6881 87.2679 86.6373L87.2985 86.6067Z" fill="white"/>
<path opacity="0.71" d="M14.244 86.0859L14.0602 85.9021L13.417 85.1979L18.5323 80.5742L19.0837 81.1254L14.244 86.0859Z" fill="white"/>
<path opacity="0.87" d="M13.2633 84.9829C12.4057 83.9725 11.548 82.962 10.7822 81.9209L16.2958 77.6953C16.939 78.5527 17.6742 79.4407 18.4399 80.298L13.2633 84.9829Z" fill="white"/>
<path opacity="0.9" d="M90.055 83.4829L84.7559 79.1042C84.9852 78.862 85.2 78.6064 85.3991 78.3387L85.5829 78.0938V78.3387L90.9127 82.5337L90.2082 83.391L90.055 83.4829Z" fill="white"/>
<path opacity="0.45" d="M93.6085 78.7678L87.7886 75.0015C88.3706 74.0829 88.9525 73.103 89.5039 71.9395L95.6301 75.2771C95.0346 76.4387 94.3698 77.5635 93.6391 78.6453L93.6085 78.7678Z" fill="white"/>
<path opacity="0.41" d="M8.05646 78.1543C7.83442 77.8286 7.62994 77.4913 7.44385 77.1438V77.1438L13.2637 73.5L13.8151 74.388L8.05646 78.1543Z" fill="white"/>
<path opacity="0.61" d="M7.29049 76.8684C6.61661 75.7355 6.00399 74.5719 5.45264 73.439L11.5788 70.377C12.0383 71.3262 12.5896 72.3366 13.1716 73.439L7.29049 76.8684Z" fill="white"/>
<path opacity="0.41" d="M98.3255 69.8261L91.7705 67.3765C92.1687 66.3048 92.5669 65.2637 92.8732 64.3145L99.5201 66.366C99.1525 67.6214 98.6931 68.8463 98.2642 70.0711L98.3255 69.8261Z" fill="white"/>
<path opacity="0.56" d="M3.55337 69.1226C3.55337 68.7245 3.24706 68.3571 3.12454 67.959L9.49577 65.54L3.09392 67.7447C2.65781 66.5207 2.28968 65.2736 1.99121 64.009V64.009L8.73 62.2637C9.00567 63.3048 9.34261 64.4071 9.71018 65.4788V65.7238C9.71018 66.03 9.9246 66.3668 10.0471 66.7036L3.55337 69.1226Z" fill="white"/>
<path opacity="0.58" d="M99.6122 65.8764L92.9653 63.8861C93.0856 63.5654 93.1879 63.2383 93.2717 62.9062V62.9062L99.9492 64.7128C99.9492 65.0803 99.7348 65.4477 99.6122 65.8764V65.8764Z" fill="white"/>
<path opacity="0.4" d="M100.99 60.1497L94.1904 58.8943C94.4048 57.8226 94.558 56.7203 94.6805 55.6486L94.3436 55.4648H94.895L101.572 56.1385C101.45 57.4245 101.266 58.7106 101.021 59.9966L100.99 60.1497Z" fill="white"/>
<path opacity="0.81" d="M0.919434 59.3856C0.919434 59.0182 0.919434 58.6201 0.919434 58.1914L7.78077 57.2422C7.78077 57.579 7.78077 57.8852 7.78077 58.222V58.1914L0.919434 59.3856Z" fill="white"/>
<path opacity="0.62" d="M0.704958 57.9157C0.521173 56.6297 0.398664 55.3436 0.337402 54.027L7.25997 53.6289C7.25997 54.7619 7.44375 55.8948 7.59691 56.9971L0.704958 57.9157Z" fill="white"/>
<path opacity="0.76" d="M101.573 55.9868L94.6807 55.3438C94.6807 54.9764 94.6807 54.6396 94.6807 54.3027L101.481 54.8233C101.481 55.1499 101.481 55.548 101.481 56.0175L101.573 55.9868Z" fill="white"/>
<path opacity="0.42" d="M94.8951 50.2593C94.8837 49.1335 94.8121 48.0092 94.6807 46.8911V46.8911L101.573 46.248C101.726 47.5647 101.787 48.8508 101.818 50.1674L94.8951 50.2593Z" fill="white"/>
<path opacity="0.48" d="M7.16795 49.587L0.306641 49.342C0.306641 48.9133 0.306641 48.5153 0.306641 48.1172L7.25984 48.5153V49.587H7.16795Z" fill="white"/>
<path opacity="0.82" d="M7.25984 48.2999L0.306641 47.8406C0.306641 46.5545 0.521048 45.2379 0.704834 43.9824L7.56617 44.9623C7.56617 46.0952 7.29049 47.1975 7.22923 48.3305L7.25984 48.2999Z" fill="white"/>
<path opacity="0.9" d="M94.7725 46.6471C94.7725 46.2797 94.7725 45.9429 94.7725 45.6367L101.634 44.7793C101.634 45.1774 101.634 45.606 101.634 45.9735L94.7725 46.6471Z" fill="white"/>
<path opacity="0.74" d="M93.884 41.5948C93.639 40.4619 93.3327 39.3595 93.0264 38.3184L99.5814 36.3281C99.9489 37.5836 100.286 38.8696 100.562 40.0944L93.884 41.5948Z" fill="white"/>
<path opacity="0.88" d="M8.33207 40.9505L1.59326 39.3582C1.59326 38.9602 1.77706 38.5621 1.86895 38.1641L8.5771 39.94C8.5771 40.2769 8.57712 40.6137 8.33207 40.9505V40.9505Z" fill="white"/>
<path opacity="0.67" d="M8.63835 39.8177L1.93018 38.0111C2.26712 36.7863 2.66533 35.5308 3.09416 34.2754L9.64917 36.5719C9.2816 37.6436 8.97529 38.7153 8.66898 39.6339L8.63835 39.8177Z" fill="white"/>
<path opacity="0.51" d="M92.9654 38.1031C92.9654 37.7969 92.7509 37.4601 92.6284 37.0926L99.0915 34.9492C99.0915 35.3167 99.3366 35.6841 99.4285 36.0209V36.2046L92.9654 38.1031Z" fill="white"/>
<path opacity="0.61" d="M91.1884 33.3267C90.7596 32.3468 90.2389 31.3057 89.6875 30.2646L95.8137 26.9883C96.4569 28.1519 97.0083 29.3154 97.529 30.5096L91.1884 33.3267Z" fill="white"/>
<path opacity="0.47" d="M11.1499 32.715L4.87061 29.8367C4.87061 29.4693 5.20756 29.1018 5.39135 28.7344L11.5175 31.7964L11.0581 32.7456L11.1499 32.715Z" fill="white"/>
<path opacity="0.49" d="M11.7014 31.5813L5.5752 28.5193C6.15718 27.3557 6.80043 26.1922 7.44368 25.0898L13.3861 28.6724C12.8347 29.6216 12.2833 30.6015 11.7626 31.7344L11.7014 31.5813Z" fill="white"/>
<path opacity="0.4" d="M89.5959 30.0805C89.4121 29.8049 89.259 29.5293 89.0752 29.1925L95.2014 25.7324C95.4158 26.0999 95.6302 26.4367 95.814 26.8041L89.5959 30.0805Z" fill="white"/>
<path opacity="0.53" d="M86.9004 25.7642C86.2265 24.8456 85.522 23.927 84.8481 23.0697L90.0247 18.3848C90.8518 19.3646 91.6482 20.4057 92.414 21.4468L86.9004 25.7642Z" fill="white"/>
<path opacity="0.89" d="M15.6222 25.2438L10.0474 21.1406L10.7519 20.1914L16.2654 24.417L15.6222 25.2438V25.2438Z" fill="white"/>
<path opacity="0.57" d="M16.296 24.2017L10.8438 19.9761C11.6402 18.9656 12.4978 17.9552 13.3555 16.9141L18.6852 21.4459C17.9195 22.2726 17.215 23.13 16.5105 24.0486L16.296 24.2017Z" fill="white"/>
<path opacity="0.4" d="M84.6946 22.9153L84.0207 22.1192L83.8369 21.9355H84.0513L89.136 17.373L89.9324 18.2917L84.6946 22.9153Z" fill="white"/>
<path opacity="0.75" d="M81.1724 19.1805C80.3453 18.415 79.4877 17.6495 78.6606 16.9759L83.0102 11.4336C84.021 12.2603 85.0012 13.0871 86.0733 14.0057L81.1724 19.1805Z" fill="white"/>
<path opacity="0.62" d="M21.3501 18.7515L16.6636 13.6379L17.5825 12.8418L22.1159 18.0779L21.3195 18.7821L21.3501 18.7515Z" fill="white"/>
<path opacity="0.66" d="M22.3 17.8947L17.7666 12.628C18.7162 11.8012 19.7576 10.9745 20.8297 10.209L24.9649 15.7819C24.0766 16.4249 23.1883 17.1292 22.3306 17.864L22.3 17.8947Z" fill="white"/>
<path opacity="0.89" d="M78.5073 16.7621H78.201L77.4965 16.2109L77.2515 16.0272H77.4965L81.601 10.6074L82.5506 11.3423L78.5073 16.7621Z" fill="white"/>
<path opacity="0.55" d="M74.3108 13.8518C73.3306 13.2394 72.3811 12.6882 71.4009 12.1983L74.464 6.07422C75.6688 6.68662 76.8021 7.32965 77.864 8.0033L74.3108 13.8518Z" fill="white"/>
<path opacity="0.7" d="M28.3034 13.515L24.8115 7.57466L25.853 6.93164L29.2836 13.0557L28.3953 13.5762L28.3034 13.515Z" fill="white"/>
<path opacity="0.76" d="M29.4059 12.8727L26.0059 6.74863C27.1392 6.1056 28.3032 5.4932 29.4671 4.97266L32.5302 11.2498C31.4888 11.7703 30.478 12.2603 29.4671 12.8114L29.4059 12.8727Z" fill="white"/>
<path opacity="0.83" d="M71.2173 12.0755L70.2983 11.6162L73.3615 5.49219L74.4642 6.04335L71.2173 12.0755Z" fill="white"/>
<path opacity="0.82" d="M66.5309 9.99427C65.4894 9.62683 64.4173 9.25939 63.4678 8.95319L65.3975 2.30859C66.5921 2.67604 67.848 3.0741 69.1038 3.56402L66.5309 9.99427Z" fill="white"/>
<path opacity="0.41" d="M36.1753 9.74907L34.0005 3.22695L35.1645 2.82889L37.278 9.1979L35.1951 2.79827C36.451 2.36959 37.7068 2.03276 38.9627 1.72656L40.5861 8.46302C39.5447 8.70798 38.5032 9.01418 37.523 9.351H37.1861L36.1753 9.68783V9.74907Z" fill="white"/>
<path opacity="0.81" d="M63.1003 8.86227H62.9165L61.9976 8.61731L63.7129 1.88086C64.0996 1.96062 64.4788 2.0733 64.8462 2.21768L63.1003 8.86227Z" fill="white"/>
<path opacity="0.58" d="M58.1376 7.7284C57.0042 7.54468 55.9015 7.42219 54.7988 7.33033L55.3502 0.410156C56.6367 0.410156 57.9232 0.685744 59.2403 0.900085L58.1376 7.7284Z" fill="white"/>
<path opacity="0.59" d="M44.5682 7.66646L43.6187 0.89939L44.8133 0.746286L45.6403 7.48274L44.8745 0.776907C46.1917 0.623805 47.4781 0.501323 48.7646 0.470703L49.0097 7.39088C47.907 7.39088 46.8349 7.39088 45.7628 7.63584H45.4259H44.3844L44.5682 7.66646Z" fill="white"/>
<path opacity="0.75" d="M54.5235 7.29908H54.3397H53.3901L53.7577 0.378906H54.9523L54.5235 7.29908Z" fill="white"/>
</svg>
