<svg width="172" height="190" viewBox="0 0 172 190" fill="none" xmlns="http://www.w3.org/2000/svg">
<path d="M138.575 174.373L106.412 124.86L106.933 124.493C107.331 124.248 107.821 123.911 108.342 123.513L108.771 123.176C108.886 123.112 108.989 123.029 109.077 122.931H109.261L109.904 122.41L110.241 122.135C110.976 121.492 111.681 120.879 112.293 120.267C112.906 119.655 113.61 118.92 114.192 118.246L114.591 117.817L115.05 117.266L115.203 117.052L115.418 116.807L115.755 116.378L116.153 115.827L116.337 115.613L116.643 115.184V115C116.637 114.929 116.637 114.857 116.643 114.786V114.602L166.173 147.427L165.867 147.887L165.53 148.346C165.421 148.528 165.298 148.702 165.162 148.866L164.886 149.264L164.059 150.428L163.722 150.857C163.386 151.347 162.987 151.867 162.559 152.388L161.701 153.49L161.088 154.256L160.751 154.684L159.067 156.644L158.638 157.164C157.045 158.94 155.575 160.655 153.737 162.278C151.899 163.901 150.337 165.524 148.499 167.055L148.162 167.33C147.396 167.973 146.692 168.586 145.987 169.137L145.528 169.474L144.793 170.056L144.272 170.454L143.659 170.913C142.066 172.077 140.841 172.934 140.075 173.424L139.739 173.669L139.065 174.128L138.697 174.373H138.575ZM106.657 124.86L138.666 174.097L138.911 173.914L139.616 173.485L139.953 173.24C140.688 172.75 141.944 171.893 143.506 170.729L144.149 170.239L144.639 169.872L145.375 169.29L145.834 168.953L148.039 167.147L148.346 166.871C150.184 165.34 151.93 163.809 153.584 162.125C155.238 160.441 156.892 158.757 158.454 157.011L158.883 156.46C159.495 155.787 160.047 155.174 160.567 154.531L160.904 154.102L161.517 153.368L162.375 152.235C162.804 151.714 163.202 151.194 163.539 150.734L163.845 150.275C164.182 149.877 164.458 149.479 164.703 149.142L164.978 148.744L165.346 148.193L165.683 147.733V147.488L117.317 114.449V114.633L117.164 114.847V115.062L116.857 115.46V115.705L116.428 116.256L116.091 116.684L115.877 116.929L115.693 117.144C115.559 117.342 115.405 117.527 115.234 117.695C115.112 117.83 115 117.973 114.897 118.124C114.254 118.828 113.61 119.502 112.937 120.175L110.884 122.043L110.547 122.319L109.873 122.87H109.72L109.414 123.115L108.985 123.452L107.576 124.462L106.657 124.86Z" fill="white"/>
<path d="M134.041 188.979L103.992 129.331H104.237L104.819 129.025L105.126 128.872H105.309L105.646 128.688H105.891H106.106H106.259H106.473L106.81 128.504C107.948 127.805 109.042 127.038 110.088 126.208C111.293 125.246 112.448 124.224 113.549 123.146C114.64 122.077 115.663 120.942 116.612 119.747C117.465 118.708 118.263 117.624 119.001 116.501V116.501V116.317L119.308 115.797V115.613L119.491 115.307L119.675 115.031C119.685 114.94 119.685 114.847 119.675 114.756C119.784 114.591 119.876 114.417 119.951 114.235C120.069 114.072 120.172 113.897 120.257 113.715V113.715V113.47V113.317L179.222 144.733L178.64 145.835C178.425 146.233 178.15 146.754 177.782 147.336L177.169 148.407V148.652L176.404 149.908L175.76 150.979L175.485 151.408L175.209 151.867L174.627 152.786C174.501 152.922 174.397 153.077 174.321 153.245L173.984 153.735C172.085 156.614 169.971 159.492 167.858 162.248C165.293 165.372 162.563 168.356 159.679 171.189C156.769 174.024 153.701 176.692 150.49 179.181C147.672 181.355 144.762 183.406 141.791 185.305L141.331 185.611L140.964 185.825L140.382 186.193L139.616 186.652L139.156 186.928H138.881L138.299 187.264H138.023L136.767 187.999H136.522L135.45 188.581L133.612 189.53L132.938 189.867L134.041 188.979ZM104.329 129.331L134.194 188.581L134.715 188.306L136.553 187.356L137.625 186.775H137.87L139.126 186.04L139.402 185.887L139.983 185.55H140.229L140.719 185.274L141.454 184.815L142.066 184.447L142.403 184.233L142.893 183.927C145.957 182.059 148.744 180.007 151.531 177.803C157.99 172.751 163.839 166.966 168.96 160.564C171.146 157.843 173.191 155.012 175.086 152.082L175.393 151.592C175.505 151.446 175.608 151.293 175.699 151.133L176.281 150.214L176.557 149.785L176.832 149.357L177.476 148.285C177.751 147.826 178.027 147.427 178.241 147.029V146.784C178.487 146.417 178.67 146.05 178.854 145.713C179.038 145.376 179.497 144.61 179.712 144.212L180.171 143.386L121.85 112.184V112.337C121.764 112.529 121.662 112.713 121.544 112.888C121.439 113.043 121.347 113.207 121.268 113.378L121.084 113.653V113.96L120.9 114.266V114.449L120.564 114.939V115.123C119.859 116.195 119.032 117.328 118.174 118.4C117.317 119.471 116.122 120.757 115.111 121.829C114.1 122.901 112.814 123.942 111.619 124.891C110.574 125.722 109.479 126.488 108.342 127.188H108.158L107.821 127.402H107.637H107.453C107.453 127.402 107.453 127.402 107.27 127.402H107.055H106.81L106.473 127.586H106.259H105.983L105.401 127.892L104.329 129.331Z" fill="white"/>
<path d="M69.8996 173.3L69.1339 173.147H68.705C68.2404 173.07 67.7803 172.967 67.3266 172.841H66.8978L66.0708 172.657L64.5699 172.259L63.7428 172.045L62.8852 171.8L61.4149 171.34H61.0167C58.13 170.315 55.3069 169.119 52.5626 167.758L50.8472 166.962L49.9896 166.564L49.622 166.38H49.3463H49.04L47.876 165.767L47.3859 165.522C47.1617 165.372 46.9262 165.239 46.6814 165.124L46.0994 164.818L44.1391 163.685L43.1895 163.103L41.9336 162.338L40.8922 161.664L40.3715 161.297L38.6868 160.164C37.1246 159.062 35.6237 157.898 34.521 157.102C32.1386 155.181 29.8586 153.137 27.6903 150.978C25.7299 149.018 24.229 147.303 23.2488 146.171L21.5947 144.15L55.4419 117.234L55.6563 117.479V117.663L56.0545 118.122C56.6963 118.924 57.3922 119.681 58.1374 120.388C59.1472 121.472 60.2212 122.495 61.3536 123.45V123.45C61.9662 123.91 62.5789 124.4 63.2221 124.828L63.8347 125.257L64.2635 125.563L65.06 126.084H65.3356L66.1014 126.543L66.4383 126.727L67.0203 127.033H67.296L67.5717 127.186L68.123 127.462H68.3987L69.5014 127.982C70.816 128.576 72.1664 129.087 73.5447 129.513H73.9123H74.433H74.7699H75.1375L75.842 129.697H76.3627H77.006L77.6186 129.85L69.8996 173.3ZM21.9317 143.752L22.6056 144.578L23.402 145.558C24.3515 146.691 25.8524 148.406 27.8128 150.365C29.9806 152.525 32.2607 154.569 34.6435 156.49C35.7462 157.347 37.2165 158.51 38.7787 159.552L40.4634 160.684L40.9841 161.052L42.0255 161.695L43.2508 162.491L44.2309 163.073H44.4147L46.1607 164.083L46.7427 164.39L47.4472 164.788L47.9373 165.033L49.1013 165.645H49.4076H49.6832L50.0508 165.829L51.4292 166.502L52.5932 167.023C55.3967 168.28 58.2705 169.374 61.2005 170.299H61.5987L63.0383 170.728L63.896 170.973L64.723 171.187L66.2239 171.585L67.051 171.8H67.4798L68.8582 172.106H69.2564H69.7771L78.1393 130.125H77.7718C77.5533 130.093 77.338 130.042 77.1285 129.972H76.6078L75.9033 129.789H75.5357H75.1681H74.6781H74.3105C72.9098 129.358 71.5387 128.836 70.2059 128.227L69.1032 127.706H68.8275L68.2762 127.431H68.0005L67.6942 127.278L67.1429 126.972L66.7753 126.757H66.5915L66.0401 126.42L65.7645 126.237L64.9374 125.716L64.5086 125.41L63.896 125.012C63.2527 124.553 62.6095 124.063 62.0275 123.573C60.8635 122.624 59.7608 121.613 58.75 120.511C57.7392 119.408 57.2184 118.857 56.6671 118.214L56.2689 117.755V117.541L21.9317 143.752Z" fill="white"/>
<path d="M159.771 65.0898L160.046 65.8247C160.046 65.8247 160.046 66.1003 160.046 66.2534C160.046 66.4065 160.353 67.0495 160.536 67.5701V67.9681L160.812 68.7949L161.272 70.2647C161.367 70.5359 161.449 70.8118 161.517 71.0914L161.762 71.9488C161.915 72.4081 162.037 72.898 162.16 73.4185V73.8166C162.924 76.8428 163.518 79.9097 163.936 83.0027L164.151 84.8705V85.8197C164.167 85.9519 164.167 86.0856 164.151 86.2178C164.166 86.3193 164.166 86.4225 164.151 86.524C164.165 86.6359 164.165 86.749 164.151 86.8608C164.151 87.2895 164.151 87.7488 164.151 88.1775V88.6368V89.4636C164.151 89.6779 164.151 89.8922 164.151 90.1066V92.3725V96.843V98.864C164.151 100.793 163.845 102.63 163.691 104.039C163.325 107.129 162.783 110.196 162.068 113.225C161.425 115.919 160.781 118.093 160.322 119.502L159.495 121.982L119.369 107.315V107.009V106.764C119.439 106.583 119.5 106.4 119.552 106.213C119.767 105.57 120.073 104.529 120.379 103.151C120.717 101.727 120.972 100.286 121.145 98.8333V98.8333C121.145 98.0678 121.298 97.3023 121.329 96.5062C121.344 96.2615 121.344 96.016 121.329 95.7713C121.329 95.5876 121.329 95.4039 121.329 95.2202V93.1074C121.314 92.9649 121.314 92.8212 121.329 92.6787V92.0357C121.344 91.9341 121.344 91.831 121.329 91.7294V91.4232C121.329 91.2089 121.329 90.9946 121.329 90.7802C121.329 90.7802 121.329 90.5659 121.329 90.474L121.176 89.2492C120.978 87.8165 120.702 86.3957 120.349 84.993V84.6255V84.105V83.7682V83.4007L119.95 82.2066L119.767 81.7166C119.767 81.4717 119.767 81.2573 119.552 81.0736L119.338 80.4918L159.771 65.0898ZM160.108 121.492L160.475 120.482L160.873 119.257C161.302 117.879 161.976 115.705 162.619 113.133C163.326 110.104 163.857 107.037 164.212 103.947C164.396 102.538 164.58 100.701 164.672 98.7721C164.672 98.1291 164.672 97.4248 164.672 96.7512V92.0969V90.076C164.672 89.8616 164.672 89.6167 164.672 89.4023C164.672 89.188 164.672 88.8818 164.672 88.6062V88.0856V86.769C164.656 86.6572 164.656 86.5439 164.672 86.4321C164.655 86.3205 164.655 86.207 164.672 86.0953C164.672 86.0953 164.672 85.8504 164.672 85.7279L164.518 84.1663L164.335 82.9108C163.926 79.8767 163.333 76.8704 162.558 73.9085V73.4798C162.558 72.9592 162.313 72.4999 162.16 72.01L161.915 71.1526C161.915 70.8771 161.762 70.6015 161.67 70.3565L161.21 68.8867L160.935 68.06L160.781 67.6619C160.628 67.1414 160.445 66.6821 160.322 66.3453C160.199 66.0085 160.322 66.0391 160.322 65.9166L160.169 65.4573L120.073 80.5837V80.8899L120.318 81.5329L120.502 82.0228C120.502 82.2372 120.655 82.4821 120.716 82.7271C120.734 82.8592 120.734 82.993 120.716 83.1252C120.729 83.2473 120.729 83.3705 120.716 83.4926C120.734 83.6657 120.734 83.8401 120.716 84.0132V84.3806C121.096 85.7891 121.383 87.2212 121.574 88.6674L121.727 89.8616C121.712 89.9734 121.712 90.0867 121.727 90.1984V90.3515C121.713 90.5554 121.713 90.76 121.727 90.9639V91.6988C121.712 91.8106 121.712 91.9239 121.727 92.0357V95.0977C121.727 95.2814 121.727 95.4345 121.727 95.6182C121.742 95.8629 121.742 96.1084 121.727 96.3531C121.727 97.1492 121.727 97.9454 121.513 98.7109C121.329 100.181 121.053 101.773 120.747 103.059C120.441 104.345 120.165 105.202 119.92 106.121C119.92 106.335 119.92 106.519 119.705 106.703V106.948L160.108 121.492Z" fill="white"/>
<path d="M2.48145 97.0564V96.2603C2.48145 96.0765 2.48145 95.8316 2.48145 95.5866C2.48145 95.3417 2.48145 95.0661 2.48145 94.7599V94.5149C2.48145 93.0758 2.48145 90.7792 2.48145 87.9009C2.48145 86.5843 2.66522 85.1451 2.849 83.461V82.6955C2.849 82.5424 2.849 82.4199 2.849 82.2668L3.06342 80.7358C3.06342 80.4296 3.06342 80.1234 3.06342 79.8172V79.4498C3.06342 79.0823 3.06342 78.7455 3.06342 78.378L3.30847 77.092L3.49227 76.204L4.16613 73.142C4.62559 71.1517 5.11569 69.4369 5.60579 67.8447C6.88002 64.479 8.36342 61.1963 10.0473 58.0156C11.3603 55.1689 12.833 52.3984 14.4581 49.7175C15.6221 47.819 16.8473 45.9512 18.1032 44.1752C18.4401 43.7772 18.6852 43.4097 18.9302 43.1035C19.0248 42.9652 19.1271 42.8323 19.2365 42.7055L19.6347 42.1543L54.0638 68.5489C53.9837 68.6146 53.9207 68.6987 53.8801 68.7939L53.6656 69.0389L53.3287 69.4982C52.7161 70.3555 52.1341 71.2435 51.5827 72.1928C50.7797 73.4701 50.0633 74.8 49.4386 76.1734C48.7134 77.7305 48.0992 79.337 47.6007 80.9808C47.325 81.8075 47.08 82.6955 46.8962 83.4916L46.5593 84.9308C46.5468 85.0632 46.5468 85.1964 46.5593 85.3288C46.5447 85.5429 46.5447 85.7578 46.5593 85.9719V86.5536V87.1661V87.9316C46.5593 87.9316 46.5593 88.1765 46.5593 88.299C46.5593 89.1564 46.5593 89.83 46.3755 90.4118C46.3239 91.4318 46.3239 92.4538 46.3755 93.4738V94.8211L2.48145 97.0564ZM19.7573 42.3686L19.451 42.7973C19.3415 42.9242 19.2392 43.0571 19.1446 43.1954C18.8996 43.5016 18.6546 43.869 18.3482 44.2977C17.0617 46.0431 15.8365 47.9109 14.6725 49.8094C13.0587 52.4599 11.5962 55.1997 10.2923 58.0156C8.78564 61.2642 7.49633 64.6091 6.43283 68.0284C5.91211 69.6207 5.45263 71.3354 4.96254 73.2951L4.28866 76.3571L4.10488 77.2451L3.89046 78.5311L3.70669 79.5722V79.7559C3.67307 80.0648 3.62193 80.3715 3.55352 80.6746V81.5013V82.2362C3.53654 82.3683 3.53654 82.5021 3.55352 82.6343V83.3998C3.36974 85.0533 3.24722 86.4618 3.15533 87.8091C3.15533 90.6874 3.15533 92.9839 3.15533 94.423V94.7599C3.15533 95.0661 3.15533 95.3417 3.15533 95.5866C3.13861 95.8109 3.13861 96.036 3.15533 96.2603V96.7808L46.0386 94.6374V93.5657C45.988 92.5456 45.988 91.5237 46.0386 90.5037C46.0386 89.9219 46.0386 89.2482 46.2223 88.3909C46.2076 88.2688 46.2076 88.1455 46.2223 88.0234V87.2273V86.6455V86.0331C46.2223 85.8188 46.2223 85.635 46.2223 85.4207V84.992L46.5286 83.5529C46.7431 82.7261 46.9575 81.8687 47.2332 81.0114C47.7611 79.3637 48.385 77.7483 49.1017 76.1734C49.7379 74.7958 50.4538 73.4565 51.2458 72.1621C51.7972 71.2435 52.4098 70.3249 53.0224 69.4676L53.3593 69.0082L53.5431 68.7633V68.5796L19.7573 42.3686Z" fill="white"/>
<path d="M120.502 75.8982V75.6226C120.492 75.5311 120.492 75.4386 120.502 75.347C120.502 75.347 120.349 75.0408 120.227 74.8571C119.767 73.9691 119.246 73.0811 118.695 72.2238C117.913 71.0041 117.064 69.8285 116.153 68.7025L115.877 68.3656L115.264 67.6307L114.989 67.2939L114.346 66.6203V66.4672L113.825 65.916L113.488 65.5792L112.937 65.028C112.324 64.4462 111.681 63.8951 111.037 63.3439L110.731 63.099L110.057 62.5478H109.873L109.567 62.3028L109.077 61.9354L108.771 61.721H108.587L108.342 61.5373L107.699 61.078L107.209 60.7412H106.994H106.78L106.504 60.5881L105.861 60.1594L105.585 60.0063L105.248 59.8226L104.972 59.6389L104.574 59.4245L104.176 59.2102L103.808 58.9958H103.594C103.493 59.0124 103.389 59.0124 103.288 58.9958L102.92 58.8427L102.522 58.6284L102.216 58.4753H101.879H101.664H101.511L118.787 18.8527L119.246 19.067L119.951 19.3732H120.104L120.901 19.7713L122.003 20.2919L122.922 20.7512L123.627 21.1186L124.147 21.3636L126.077 21.2717L127.547 22.1291L128.466 22.6802C129.018 23.0171 129.6 23.3539 130.182 23.7519H130.365L130.825 24.0581L131.254 24.3337L132.234 25.0074L132.938 25.4973L133.459 25.8647L134.256 26.4465L135.266 27.3958L135.94 27.9163L136.277 28.1919L138.176 29.7229C139.769 31.0702 141.056 32.2031 142.189 33.3055C142.679 33.7341 143.139 34.2241 143.598 34.6834L144.119 35.2039L145.038 36.1531L145.528 36.6431L145.957 37.133L148.223 39.6745L149.387 41.083C151.388 43.5596 153.249 46.1459 154.962 48.8299C156.126 50.6671 157.229 52.5656 158.24 54.464C158.515 54.954 158.73 55.3827 158.883 55.7195L159.097 56.0869L159.373 56.6993L120.502 75.8982ZM101.389 57.2199L101.726 57.373H101.879L102.185 57.5261H102.338L102.736 57.7404L103.104 57.9241H103.38H103.533H103.747L104.145 58.1385L104.513 58.3528L104.942 58.5978H105.218L105.524 58.7815L105.8 58.9652L106.473 59.3633L106.718 59.5164H106.963H107.178L107.668 59.8226L107.882 60.0063L108.127 60.19H108.311L108.618 60.435L109.108 60.8024L109.445 61.0474L110.149 61.5986L110.425 61.8435C111.099 62.3947 111.742 62.9765 112.355 63.5583L112.906 64.1094L113.273 64.4462L113.764 64.9974C113.774 65.0479 113.774 65.1 113.764 65.1505L114.407 65.8548L114.682 66.161L115.326 66.8959L115.601 67.2633C116.52 68.3963 117.378 69.5904 118.174 70.7846C118.971 71.9788 119.216 72.53 119.706 73.4486L119.951 73.9385V74.2141L158.362 55.3214C158.304 55.1622 158.233 55.0085 158.148 54.8621L157.933 54.464C157.742 54.044 157.527 53.6351 157.29 53.2392C156.279 51.3102 155.176 49.4117 154.013 47.6051C152.372 45.0131 150.582 42.5184 148.652 40.1338L146.631 37.7454L145.803 36.8268L145.252 36.2144L144.793 35.7245L144.333 35.2345L143.414 34.2853L142.894 33.7648L141.484 32.3868C140.351 31.2845 139.065 30.1516 137.502 28.8349H137.349L135.45 27.3039L135.083 27.0283L135.266 27.702L134.225 26.9364L133.429 26.3853L132.877 25.9872L132.203 25.4973L131.223 24.8543L130.825 24.5787L130.396 24.3031L130.182 24.15C129.6 23.7826 129.048 23.4151 128.497 23.1089C127.946 22.8027 127.884 22.7109 127.547 22.5578L125.801 21.5473L124.209 20.6593L123.719 20.4143L122.983 20.0469L122.065 19.5876L120.962 19.0364L120.165 18.669H120.012L119.308 18.3628L118.879 18.1484L101.389 57.2199Z" fill="white"/>
<path d="M120.747 64.2918L120.533 64.0162L120.349 63.8019L120.012 63.4344V63.2507L119.767 62.9751L119.43 62.5771C119.341 62.5033 119.259 62.4213 119.185 62.3321L118.94 62.0565L118.419 61.5053L117.96 61.0767L117.347 60.4949L117.194 60.3112L116.857 60.005L116.673 59.8518L116.397 59.6069H116.214L116.03 59.4232L115.785 59.2088L115.509 58.9945L152.971 14.9626L153.583 15.4831L154.257 16.0649L154.839 16.5854L155.145 16.861L156.156 17.7796L156.983 18.5758L157.29 18.8513C157.902 19.4025 158.515 20.0455 159.127 20.6579L159.679 21.2091C161.302 22.8626 162.742 24.5467 163.967 25.8328L164.733 26.7208L165.315 27.3944L165.866 28.068L120.747 64.2918ZM115.233 58.4433H115.417L115.632 58.627L115.846 58.8108H115.999L116.275 59.0557L116.459 59.2088C116.578 59.3133 116.691 59.4258 116.796 59.5456H116.979L117.592 60.1581C117.742 60.2932 117.886 60.4363 118.021 60.5867L118.541 61.1379L118.817 61.3829L119.062 61.6584L119.399 62.0565L119.644 62.3627L119.797 62.5464L120.134 62.9139L120.287 63.1282L120.471 63.3426L165.254 27.3944L164.794 26.8432L164.212 26.139L163.446 25.251C162.344 23.9649 160.781 22.189 159.189 20.6273L158.637 20.0762L156.769 18.2696L156.493 17.994C156.204 17.7543 155.927 17.4987 155.666 17.2285L154.625 16.2793L154.349 16.0343L153.767 15.5137L153.063 14.932L152.542 14.4727L115.233 58.4433Z" fill="white"/>
<path d="M60.496 61.8126L22.4219 14.9636C22.4219 14.9636 22.4219 14.9636 22.6057 14.9636L23.494 14.2593L26.557 11.8403C29.9821 9.31751 33.5516 6.99663 37.2472 4.88955L37.8905 4.55273L38.6869 4.12405L40.1571 3.35854L40.8923 2.9911L41.6274 2.62366L43.0364 1.95001L44.2004 1.39885H44.4148L45.7626 0.786444H46.1608L48.2437 -0.101543L50.3572 -0.92829L51.9807 -1.51007H52.1645L53.0528 -1.81628L53.5122 -2L72.8709 54.9536H72.5953H72.3808L71.7988 55.168L70.9718 55.5048C69.4809 56.098 68.0282 56.7832 66.6222 57.5564C65.2248 58.3443 63.8747 59.2134 62.5789 60.1591L61.2925 61.1083L60.9555 61.3839L60.496 61.8126ZM22.6669 14.9024L60.5267 61.4758L60.8943 61.2002L62.1501 60.2509C63.4668 59.3048 64.8373 58.4357 66.2547 57.6482C67.6669 56.8782 69.1188 56.1832 70.6042 55.5661L71.4619 55.2292L72.0439 55.0455H72.2583H72.534L53.2365 -2H52.9608L52.1032 -1.72442H51.9194L50.2653 -1.14263L48.1518 -0.315886L46.0995 0.54148L45.7013 0.725202L44.3536 1.30699H44.1392L42.9752 1.82753L41.5662 2.5318L40.831 2.86862L40.0959 3.23606L38.6562 4.00157L37.8598 4.43025L37.2166 4.79769C33.6715 6.75817 30.2452 8.92576 26.9552 11.2892L23.8921 13.7082L23.0038 14.4124C23.0038 14.4124 22.6975 14.8411 22.6669 14.9024Z" fill="white"/>
<path d="M85.3989 189.438H82.3358H80.7124H78.9664H78.2313L75.5358 189.223C73.5141 189.009 71.2781 188.703 68.8889 188.274C63.3873 187.19 57.9948 185.612 52.777 183.559C49.7139 182.487 46.8959 181.262 44.0166 179.884C41.081 178.467 38.2185 176.904 35.44 175.199C32.6482 173.507 29.9488 171.667 27.3534 169.688C24.8416 167.789 22.3912 165.738 20.0939 163.564C17.7966 161.39 15.8362 159.43 13.9677 157.225C12.0992 155.021 10.537 153.245 8.9136 151.101L7.719 149.876L6.61628 148.376L5.81987 147.212L5.66673 146.814L4.93157 145.712L4.13519 144.487L3.95139 144.212L3.76761 143.905L3.33878 143.201L2.20543 141.303L1.80723 140.69C1.6068 140.373 1.42278 140.046 1.25588 139.71L0.490105 138.149C0.417743 137.966 0.325296 137.791 0.214439 137.628L0 137.2H0.183801L49.7446 111.479L49.9284 111.785L50.1121 112.152L50.3265 112.55L50.5103 112.856L50.8166 113.377L51.0004 113.714C51.0154 113.795 51.0154 113.878 51.0004 113.959V113.959L51.3986 114.571L51.5824 114.847L51.7662 115.122V115.306L52.5626 116.194L53.114 116.96L53.4509 117.388C54.8707 119.274 56.4599 121.027 58.1987 122.624C62.1685 126.322 66.8473 129.176 71.952 131.014C73.117 131.441 74.3029 131.809 75.5051 132.117C76.6997 132.453 77.7718 132.668 78.7214 132.851C79.6709 133.035 80.6205 133.158 81.5088 133.219H82.3665H85.7359V133.433V189.285L85.3989 189.438ZM0.490105 137.353C0.601463 137.504 0.69402 137.669 0.765772 137.843L1.59282 139.343C1.59282 139.649 1.92976 139.955 2.14418 140.323L2.54237 141.027L3.67572 142.926L4.10455 143.63L4.28833 143.905L4.47213 144.212L5.2379 145.406L5.97304 146.508L6.21809 146.876C6.49377 147.274 6.7388 147.641 7.04511 148.039L8.0253 149.448L9.09738 150.887C10.7514 153 12.4361 155.082 14.1515 157.011C15.8668 158.94 18.1948 161.298 20.2777 163.319C22.3606 165.34 24.9948 167.483 27.4759 169.443C29.957 171.402 32.7751 173.24 35.5318 174.924C38.2886 176.608 41.1985 178.169 44.1085 179.578C47.0184 180.986 49.8977 182.181 52.8077 183.252C58.0725 185.161 63.4945 186.606 69.0114 187.57C71.4006 187.998 73.6367 188.305 75.6583 188.488C76.6079 188.488 77.4655 188.672 78.3232 188.733H78.9664H80.7124H82.3052H85.0007L85.1845 133.464H82.734H82.1521H81.2944C80.3754 133.464 79.3646 133.219 78.4763 133.066C77.3804 132.886 76.2962 132.64 75.2295 132.331C74.0159 132.028 72.8195 131.66 71.6457 131.229C69.0847 130.288 66.6224 129.098 64.2942 127.677C61.9507 126.255 59.7549 124.604 57.7392 122.747C56.0057 121.124 54.4075 119.363 52.9608 117.48L52.6239 117.021L52.0725 116.255L51.8275 115.888V115.704C51.8424 115.623 51.8424 115.54 51.8275 115.459C51.8275 115.459 51.8275 115.245 51.6437 115.153L51.2455 114.541V114.387C51.2361 114.306 51.2361 114.224 51.2455 114.142L51.0617 113.836C51.0617 113.622 50.8167 113.469 50.7248 113.285C50.7139 113.183 50.7139 113.081 50.7248 112.979L50.4797 112.581V112.428L50.2959 112.06C50.2913 111.969 50.2913 111.877 50.2959 111.785L0.490105 137.353Z" fill="white"/>
<path opacity="0.62" d="M86.6151 17.9697H82.2961C79.1365 18.0369 75.9849 18.3131 72.8618 18.7965L71.5753 18.9802L70.3195 19.2252L67.869 19.7151L66.705 19.9907L65.6023 20.2662L63.5807 20.8174C62.3248 21.1542 61.314 21.4911 60.5176 21.736L59.3842 22.1035L58.3428 19.0414L59.5068 18.6127L62.5699 17.6635L64.6834 17.1124L65.8474 16.8062L67.042 16.5306L69.6149 16.01L70.9321 15.7651L72.2492 15.5507C75.5156 15.0581 78.8099 14.7718 82.1123 14.6934H86.6151V17.9697Z" fill="white"/>
<path opacity="0.63" d="M86.4619 22.9605H83.1232C81.1015 22.9605 78.4367 23.1442 75.7718 23.4811C73.3306 23.7651 70.907 24.1842 68.5122 24.7365L67.1951 25.0427L66.1537 25.3183L65.5104 25.502H65.2654L64.4077 22.44H64.6528L65.3267 22.2563L66.3987 21.9807L67.8077 21.6439C69.86 21.1845 72.6168 20.664 75.3736 20.3272C77.926 20.0245 80.492 19.8508 83.0619 19.8066H86.5845L86.4619 22.9605Z" fill="white"/>
<g opacity="0.75">
<path d="M134.797 135.826L135.012 135.581L135.594 134.877L135.992 134.387L136.39 133.744L136.942 133.07L137.493 132.274C137.605 132.149 137.707 132.016 137.799 131.876L138.106 131.447L138.749 130.529L140.097 128.508C140.985 127.069 141.904 125.446 142.731 123.945C143.558 122.445 144.324 120.73 144.967 119.199C145.61 117.668 146.192 116.137 146.621 114.912C146.835 114.269 147.05 113.688 147.203 113.167C147.356 112.647 147.509 112.218 147.601 111.82L147.938 110.656L157.771 113.32C157.771 113.32 157.771 113.81 157.403 114.698C157.035 115.586 157.097 115.647 156.913 116.26C156.729 116.872 156.484 117.515 156.239 118.25C155.749 119.72 155.106 121.312 154.34 123.18C153.574 125.048 152.686 126.854 151.736 128.661C150.787 130.468 149.715 132.305 148.673 133.928C148.152 134.754 147.632 135.52 147.142 136.255L146.376 137.326C146.281 137.501 146.168 137.666 146.039 137.816L145.671 138.306L145.028 139.194L144.415 139.99L143.864 140.695L143.405 141.276L142.731 142.073L142.486 142.379L134.797 135.826Z" fill="white"/>
<path d="M141.077 141.123L141.322 140.848C141.322 140.664 141.689 140.388 141.965 140.051L142.424 139.5L142.945 138.827L143.527 138.031L144.17 137.173L144.538 136.714C144.632 136.539 144.745 136.375 144.875 136.224L145.61 135.183C146.069 134.479 146.59 133.713 147.08 132.917C148.091 131.294 149.133 129.579 150.143 127.773C151.154 125.966 151.92 124.19 152.686 122.445C153.452 120.699 154.034 119.077 154.554 117.637C154.769 116.933 154.983 116.26 155.197 115.678C155.412 115.096 155.534 114.575 155.657 114.147C155.779 113.718 156.025 112.83 156.025 112.83L157.801 113.32C157.801 113.32 157.801 113.81 157.434 114.667C157.066 115.525 157.127 115.647 156.943 116.229C156.76 116.811 156.545 117.515 156.3 118.25C155.779 119.72 155.167 121.312 154.401 123.18C153.635 125.048 152.747 126.824 151.797 128.661C150.848 130.498 149.776 132.274 148.734 133.897C148.214 134.724 147.693 135.489 147.203 136.224L146.437 137.296L146.1 137.786L145.733 138.276L145.089 139.163L144.477 139.96C144.262 140.205 144.109 140.45 143.925 140.633L143.466 141.215L142.792 142.042L142.547 142.317L141.077 141.123Z" fill="white"/>
</g>
<g opacity="0.84">
<path d="M112.262 155.015H112.569L113.396 154.648L114.682 154.066L115.448 153.668L116.305 153.239L117.224 152.75L118.235 152.229L118.725 151.953L119.246 151.647L120.318 151.004C121.758 150.147 123.381 149.167 124.698 148.126C127.376 146.173 129.905 144.024 132.264 141.696C133.244 140.746 134.01 139.95 134.531 139.368L135.143 138.695L135.358 138.48L142.954 145.278L142.679 145.554L141.974 146.319C141.362 146.993 140.473 147.912 139.34 148.983L138.482 149.841L137.533 150.698L136.522 151.617L135.45 152.535C133.949 153.791 132.387 155.077 130.641 156.271C128.895 157.465 127.241 158.629 125.587 159.608L124.331 160.343L123.749 160.68L123.167 161.017L122.033 161.629L120.931 162.181L119.951 162.67L119.062 163.13L117.561 163.803C117.253 163.963 116.936 164.106 116.612 164.232L116.275 164.385L112.262 155.015Z" fill="white"/>
<path d="M113.479 161.579H113.815C114.139 161.453 114.456 161.31 114.765 161.151L116.205 160.508L117.062 160.079L118.042 159.589L119.084 159.038L120.187 158.425L120.769 158.119L121.351 157.782L122.545 157.078C124.169 156.098 125.853 154.996 127.477 153.802C129.1 152.608 130.724 151.413 132.163 150.189L133.327 149.056C133.695 148.78 134.001 148.474 134.338 148.198L135.257 147.341L136.115 146.514C137.187 145.473 138.044 144.555 138.657 143.911L139.362 143.146L139.453 142.932L140.832 144.156L140.587 144.432L139.852 145.228L137.248 147.892L136.39 148.719L135.41 149.607L134.399 150.495L133.327 151.413C131.809 152.748 130.225 154.005 128.58 155.18C126.895 156.374 125.18 157.507 123.525 158.517L122.3 159.252L121.688 159.589L121.106 159.895L119.972 160.538L118.9 161.089L117.889 161.579L117.001 162.008L115.531 162.712L114.581 163.141H114.214L113.479 161.579Z" fill="white"/>
</g>
<g opacity="0.51">
<path d="M80.1521 159.19H80.489H81.3773H86.8296H87.9936H89.2188C90.9035 159.19 92.6801 158.853 94.4567 158.577L95.7738 158.363L97.091 158.118C97.9486 157.934 98.8063 157.781 99.6027 157.567L101.961 156.985L103.033 156.679L103.554 156.495H104.044L104.963 156.189L105.76 155.913L106.495 155.668L107.107 155.423L107.965 155.117H108.179L111.886 164.364H111.61L110.63 164.732L109.925 165.008L109.098 165.283L108.149 165.62L107.077 165.957H106.525L105.913 166.14L104.687 166.508C103.83 166.722 102.911 166.998 101.961 167.212L98.8982 167.855L97.3973 168.131L95.8657 168.376C93.8135 168.682 91.7612 168.927 89.7396 169.049H88.2999H86.9522H85.6657H84.4404C83.6747 169.049 82.9701 169.049 82.3269 169.049H80.7035H79.662H79.2944L80.1521 159.19Z" fill="white"/>
<path d="M79.6621 167.426H81.0405H82.6333H87.1054H88.4532H89.8316C91.7307 167.426 93.7217 167.059 95.7127 166.753L97.2136 166.508L98.6839 166.232L101.533 165.62L104.136 164.946L105.361 164.579L105.943 164.426L106.495 164.242L107.536 163.936L108.455 163.599L109.252 163.323L109.956 163.078L110.906 162.711H111.151L111.886 164.364H111.641C111.304 164.458 110.976 164.581 110.661 164.732L109.956 164.977L109.129 165.283L108.179 165.589L107.107 165.926L106.556 166.11L105.943 166.293L104.718 166.63C103.861 166.875 102.942 167.12 101.992 167.335C101.042 167.549 100.093 167.763 98.9289 167.978L97.428 168.253L95.8965 168.498C93.8749 168.804 91.8226 169.049 89.7703 169.202H88.3307H86.9829H84.4712C83.7054 169.202 83.0009 169.202 82.3576 169.202H80.7342H79.6928H79.3252L79.6621 167.426Z" fill="white"/>
</g>
<g opacity="0.57">
<path d="M50.9607 150.34H51.2364L52.0328 150.799L53.258 151.473L54.8815 152.3C57.8404 153.778 60.9134 155.017 64.0707 156.005C65.7554 156.556 67.5014 157.046 69.1248 157.413L70.3194 157.689L71.4834 157.934L73.6276 158.301L75.4348 158.577L76.8438 158.76H77.7321H78.069L77.1195 168.896H76.7519H75.6798L74.0564 168.712L71.9735 168.406L69.523 167.946L68.1753 167.671L66.7969 167.365C64.8978 166.936 62.9068 166.354 60.9464 165.742C57.3342 164.572 53.8124 163.139 50.4094 161.455L48.5409 160.475L47.1012 159.71L46.1823 159.189L45.876 159.005L50.9607 150.34Z" fill="white"/>
<path d="M46.7949 157.414L47.1012 157.598L47.9895 158.118L49.3985 158.853L51.2364 159.802C54.5384 161.451 57.958 162.853 61.4671 163.997C63.3969 164.579 65.3266 165.13 67.1645 165.559L68.5428 165.865L69.8293 166.141C70.687 166.325 71.514 166.447 72.2492 166.57L74.2708 166.876L75.8636 167.059H76.8744H77.242L77.0582 168.897H76.6907H75.6492L74.0258 168.682L71.9429 168.376L69.4924 167.917L68.1446 167.641L66.7662 167.335C64.8671 166.906 62.8761 166.355 60.9158 165.712C57.3124 164.557 53.8005 163.134 50.4094 161.456L48.5102 160.476L47.1012 159.68L46.1823 159.19L45.876 159.006L46.7949 157.414Z" fill="white"/>
</g>
<g opacity="0.72">
<path d="M30.8455 130.242L31.0292 130.518L31.2437 130.855C31.3494 130.988 31.4417 131.132 31.5193 131.283C31.9788 131.926 32.6221 132.845 33.4185 133.917C35.3995 136.533 37.559 139.008 39.8816 141.327C41.1681 142.582 42.4852 143.807 43.7717 144.879C45.0582 145.95 46.3141 146.9 47.4168 147.696L48.8871 148.767L50.0817 149.533C50.3142 149.714 50.5599 149.878 50.8168 150.023L51.0925 150.207L45.6708 158.811L45.3645 158.627C45.0563 158.452 44.7596 158.258 44.4762 158.045L43.1285 157.157L41.4131 155.933C40.1266 155.014 38.7176 153.912 37.2167 152.656C35.7158 151.401 34.1536 150.023 32.7446 148.584C30.0579 145.913 27.5605 143.058 25.2706 140.041C24.3517 138.785 23.6166 137.744 23.0959 136.979L22.7589 136.489L22.5139 136.091L22.3301 135.784L30.8455 130.242Z" fill="white"/>
<path d="M23.9841 134.744L24.1679 135.05L24.4129 135.418L24.7499 135.908C25.24 136.643 25.9444 137.653 26.8634 138.97C29.1168 141.885 31.5844 144.628 34.2454 147.176C35.6851 148.584 37.3085 149.932 38.6256 151.157C39.9428 152.381 41.4743 153.453 42.6996 154.219L44.3536 155.413L45.6708 156.301C46.0383 156.546 46.3446 156.699 46.5284 156.852L46.8654 157.036L45.8545 158.597L45.5482 158.414C45.3338 158.414 45.0275 158.107 44.6599 157.832L43.3122 156.944L41.5968 155.719C40.341 154.8 38.9013 153.698 37.431 152.443C35.9608 151.187 34.368 149.809 32.9589 148.37C30.2564 145.714 27.758 142.858 25.485 139.827C24.5661 138.602 23.8309 137.531 23.3102 136.765L22.9733 136.275L22.7282 135.877L22.5444 135.571L23.9841 134.744Z" fill="white"/>
</g>
<g opacity="0.65">
<path d="M149.684 121.71C149.747 121.469 149.747 121.216 149.684 120.975C149.612 120.803 149.482 120.662 149.316 120.577C149.137 120.516 148.944 120.516 148.765 120.577C148.533 120.66 148.331 120.809 148.183 121.005C147.996 121.205 147.841 121.432 147.723 121.679C147.609 121.942 147.537 122.221 147.509 122.506C147.461 122.738 147.461 122.978 147.509 123.21C147.58 123.39 147.709 123.541 147.877 123.639C148.065 123.702 148.27 123.702 148.459 123.639C148.692 123.543 148.901 123.396 149.071 123.21C149.259 123.017 149.405 122.788 149.5 122.536C149.603 122.272 149.665 121.993 149.684 121.71V121.71ZM148.979 122.322C148.938 122.451 148.864 122.567 148.765 122.659C148.693 122.766 148.584 122.842 148.459 122.873H148.183C148.139 122.853 148.099 122.823 148.067 122.786C148.036 122.749 148.012 122.706 147.999 122.659C147.968 122.549 147.968 122.432 147.999 122.322C147.97 122.181 147.97 122.035 147.999 121.893C148.052 121.763 148.136 121.647 148.244 121.557C148.364 121.487 148.507 121.465 148.642 121.495C148.732 121.465 148.829 121.465 148.918 121.495C148.965 121.511 149.007 121.539 149.039 121.577C149.072 121.615 149.093 121.661 149.102 121.71C149.136 121.83 149.136 121.957 149.102 122.077C149.067 122.162 149.026 122.243 148.979 122.322Z" fill="white"/>
<path d="M148.367 124.312L146.958 123.639C146.958 123.639 146.682 123.639 146.529 123.945C146.376 124.251 146.529 124.282 146.529 124.374L147.264 124.741L146.56 125.078L146.069 125.323H145.855C145.751 125.379 145.666 125.464 145.61 125.568C145.457 125.843 145.457 126.027 145.61 126.088L146.988 126.854C146.988 126.854 147.264 126.854 147.417 126.517C147.57 126.18 147.417 126.18 147.417 126.119L146.682 125.721H146.896C147.047 125.615 147.212 125.533 147.387 125.476L148.091 125.108C148.091 125.108 148.275 125.108 148.367 124.833C148.459 124.557 148.642 124.374 148.367 124.312Z" fill="white"/>
<path d="M146.835 127.252L145.488 126.518C145.334 126.518 145.212 126.518 145.059 126.763L144.569 127.681L144.201 128.294L144.048 128.539C143.895 128.783 143.895 128.937 144.048 129.028C144.201 129.12 144.354 129.028 144.477 128.814L144.906 128.11L145.304 127.375L146.192 127.865L145.794 128.6L145.365 129.335C145.212 129.58 145.212 129.733 145.365 129.825C145.518 129.916 145.641 129.825 145.794 129.61L145.947 129.335L146.315 128.692L146.866 127.742C146.989 127.62 146.989 127.344 146.835 127.252ZM145.212 128.018C145.158 128.144 145.096 128.266 145.028 128.385C145.018 128.477 145.018 128.569 145.028 128.661V128.661C144.875 128.906 144.875 129.059 145.028 129.151C145.181 129.243 145.304 129.151 145.457 128.937L145.61 128.692L145.825 128.324C145.825 128.079 145.825 127.926 145.825 127.834C145.825 127.742 145.365 127.804 145.212 128.018Z" fill="white"/>
</g>
<g opacity="0.51">
<path d="M130.601 147.308C130.601 147.308 130.326 147.308 130.111 147.308L129.621 147.706L128.794 146.727C128.794 146.727 128.549 146.727 128.335 146.727C128.12 146.727 128.059 147.063 128.151 147.186L128.978 148.196L128.488 148.564C128.243 148.747 128.212 148.901 128.304 149.054C128.396 149.207 128.549 149.054 128.763 149.054L129.039 148.839L129.315 148.625L129.621 148.38L130.417 147.706C130.632 147.615 130.693 147.461 130.601 147.308Z" fill="white"/>
<path d="M126.619 148.258C126.523 148.315 126.448 148.401 126.405 148.503L126.006 149.514H124.904C124.814 149.487 124.718 149.487 124.628 149.514C124.424 149.677 124.363 149.83 124.444 149.973L125.332 151.198C125.332 151.198 125.578 151.198 125.823 151.198C126.068 151.198 126.098 150.892 126.006 150.739L125.486 150.004H126.098C126.189 150.027 126.283 150.027 126.374 150.004C126.464 149.94 126.537 149.856 126.588 149.759L126.833 149.177L127.354 149.881C127.354 149.881 127.63 149.881 127.844 149.881C128.089 149.881 128.12 149.575 128.028 149.453L127.078 148.228C127.078 148.228 126.833 148.075 126.619 148.258Z" fill="white"/>
<path d="M124.383 152.116C124.529 151.914 124.633 151.685 124.689 151.442C124.752 151.264 124.752 151.069 124.689 150.891C124.582 150.733 124.417 150.623 124.23 150.585C123.988 150.526 123.736 150.526 123.495 150.585C123.232 150.652 122.983 150.766 122.76 150.922C122.518 151.072 122.301 151.257 122.116 151.473C121.966 151.669 121.871 151.901 121.841 152.146C121.802 152.233 121.782 152.327 121.782 152.422C121.782 152.517 121.802 152.611 121.841 152.698C121.948 152.856 122.113 152.965 122.3 153.004C122.542 153.064 122.794 153.064 123.035 153.004C123.313 152.924 123.581 152.811 123.832 152.667C124.028 152.497 124.213 152.312 124.383 152.116ZM123.464 152.116H123.097C122.978 152.161 122.847 152.161 122.729 152.116C122.634 152.091 122.548 152.037 122.484 151.963C122.451 151.874 122.451 151.776 122.484 151.687C122.501 151.562 122.554 151.445 122.637 151.35C122.725 151.244 122.828 151.151 122.943 151.075L123.311 150.891H123.679C123.759 150.869 123.843 150.869 123.924 150.891C123.956 150.991 123.956 151.098 123.924 151.197C123.907 151.322 123.853 151.439 123.77 151.534L123.464 152.116Z" fill="white"/>
</g>
<g opacity="0.7">
<path d="M104.105 161.64C104.105 161.64 103.891 161.456 103.615 161.64H103.34H103.033L102.696 160.384C102.696 160.384 102.482 160.201 102.237 160.384C101.992 160.568 101.839 160.568 101.9 160.752L102.206 161.977H101.594C101.318 161.977 101.195 162.16 101.257 162.313C101.318 162.467 101.44 162.528 101.686 162.313L102.727 162.038L103.431 161.854H103.768C104.044 161.915 104.136 161.793 104.105 161.64Z" fill="white"/>
<path d="M100.552 162.834C100.828 162.834 100.95 162.65 100.92 162.497L100.552 160.997C100.552 160.844 100.368 160.783 100.093 160.844C99.8169 160.905 99.725 161.058 99.7557 161.211L100.093 162.681C100.123 162.865 100.276 162.895 100.552 162.834ZM98.4998 163.293C98.7755 163.293 98.898 163.11 98.8674 162.957V162.467H99.48C99.7659 162.467 99.8884 162.344 99.8476 162.099C99.8476 162.099 99.6638 161.885 99.3881 162.099H98.7755V161.609C98.7755 161.609 98.5917 161.395 98.316 161.609C98.0403 161.609 97.9178 161.609 97.9484 161.946L98.2548 163.446C98.071 163.293 98.2241 163.355 98.4998 163.293Z" fill="white"/>
<path d="M97.6728 163.202L97.3665 161.702C97.3665 161.518 97.1827 161.488 96.9376 161.518C96.6926 161.549 96.5394 161.671 96.57 161.855L96.7845 163.11H96.325H95.8655C95.6511 163.11 95.5286 163.11 95.5286 163.11C95.5286 163.11 95.5286 163.11 95.8349 163.11H96.1106C96.3863 163.11 96.5088 162.957 96.4782 162.774C96.4475 162.59 96.4781 162.774 96.2331 162.559L95.3142 162.069C95.1728 162.04 95.0267 162.04 94.8853 162.069V162.069C94.6097 162.069 94.4871 162.069 94.5178 162.406C94.5484 162.743 94.5178 162.406 94.5178 162.406L95.0691 162.651C94.9835 162.656 94.9002 162.68 94.8257 162.723C94.7513 162.765 94.6878 162.825 94.6403 162.896C94.5788 163.054 94.5788 163.228 94.6403 163.386C94.6403 163.386 94.6403 163.662 95.0079 163.753C95.2592 163.817 95.5223 163.817 95.7736 163.753H96.5088H97.2439C97.5809 163.478 97.7034 163.355 97.6728 163.202Z" fill="white"/>
<path d="M94.3646 163.753L94.1501 162.222C94.1501 162.222 94.1501 162.008 93.7213 162.038H92.7105H91.669C91.3934 162.038 91.2708 162.038 91.3015 162.344C91.3321 162.651 91.3015 162.559 91.7303 162.559H92.5573H93.1087H93.5069V163.569H93.2312H92.6799H91.8528C91.5465 163.569 91.424 163.569 91.424 163.875C91.424 164.182 91.6078 164.12 91.8528 164.09H92.9249H93.997C94.2727 163.998 94.3952 163.906 94.3646 163.753ZM92.8024 162.926H91.9754C91.6997 162.926 91.5772 162.926 91.5772 163.232C91.5772 163.539 91.5772 163.447 92.006 163.416H92.8637C93.1393 163.416 93.2619 163.416 93.2312 163.11C93.2006 162.804 93.0781 162.896 92.8024 162.926Z" fill="white"/>
<path d="M91.0564 164.121V162.62C91.0564 162.437 90.8726 162.375 90.597 162.406H89.5861H88.5447C88.2996 162.406 88.1465 162.406 88.1771 162.682C88.2078 162.957 88.1771 162.926 88.606 162.896H89.433H90.2294V163.876H89.4024H88.5753C88.269 163.876 88.1465 163.876 88.1465 164.182C88.1465 164.488 88.2996 164.396 88.5447 164.396H89.6168H90.6889C90.9339 164.366 91.087 164.366 91.0564 164.121ZM89.5249 163.233H88.6978C88.4222 163.233 88.269 163.233 88.269 163.508C88.269 163.784 88.4528 163.753 88.7285 163.753H89.5555C89.8312 163.753 89.9843 163.753 89.9537 163.447C89.9231 163.141 89.8005 163.233 89.5249 163.233Z" fill="white"/>
</g>
<g opacity="0.85">
<path d="M69.5846 162.926L69.8909 161.425C69.8909 161.272 69.8909 161.18 69.5539 161.119C69.217 161.058 69.1251 161.119 69.0945 161.119V161.609L68.2981 161.425H67.7467H67.471C67.226 161.425 67.0728 161.425 67.0116 161.425C66.9503 161.425 67.0116 161.701 67.3485 161.793H67.6242H68.1756L69.0026 161.976V162.221L68.1756 162.038H67.6242H67.3791C67.1035 162.038 66.9197 162.038 66.889 162.038C66.8584 162.038 66.889 162.283 67.226 162.374H67.5323H67.8692H68.2674L69.3089 162.619C69.4518 163.007 69.5437 163.109 69.5846 162.926Z" fill="white"/>
<path d="M65.4798 162.069C65.728 162.083 65.9743 162.018 66.1843 161.885C66.3475 161.783 66.4757 161.634 66.5519 161.457C66.6103 161.278 66.6103 161.085 66.5519 160.906C66.4301 160.697 66.2625 160.519 66.0618 160.385C65.5981 160.056 65.0366 159.894 64.469 159.926C64.2211 159.916 63.976 159.98 63.7645 160.109C63.5975 160.193 63.4668 160.334 63.3969 160.508C63.3384 160.687 63.3384 160.88 63.3969 161.059C63.498 161.289 63.6696 161.482 63.887 161.61C64.3506 161.939 64.9122 162.101 65.4798 162.069V162.069ZM64.7753 161.487C64.6418 161.451 64.5168 161.389 64.4077 161.304C64.2972 161.257 64.2092 161.169 64.1627 161.059C64.1406 161.011 64.1292 160.958 64.1292 160.906C64.1292 160.853 64.1406 160.801 64.1627 160.752C64.1368 160.683 64.1368 160.607 64.1627 160.538H64.5302C64.6613 160.508 64.7974 160.508 64.9284 160.538C65.0737 160.567 65.2101 160.63 65.3266 160.722C65.4302 160.778 65.5153 160.863 65.5717 160.967C65.5717 160.967 65.5717 161.181 65.5717 161.242C65.5319 161.331 65.4804 161.413 65.4185 161.487H65.051H64.7753Z" fill="white"/>
<path d="M62.8761 161.303L63.0906 160.568C63.305 159.925 63.0906 159.435 62.0185 159.129C61.6683 159.027 61.2966 159.027 60.9464 159.129C60.8 159.158 60.6649 159.229 60.5565 159.332C60.4482 159.434 60.371 159.566 60.3338 159.71L60.0581 160.415C60.0581 160.568 60.0581 160.721 60.3644 160.813C60.6707 160.905 60.8239 160.813 60.8545 160.813L61.1302 160.078C61.1302 159.741 61.4671 159.68 61.8653 159.802C62.2635 159.925 62.4167 160.17 62.2941 160.476L62.0491 161.211C62.0491 161.211 62.0491 161.486 62.386 161.578C62.723 161.67 62.6617 161.303 62.8761 161.303Z" fill="white"/>
<path d="M59.5681 160.047L60.0888 158.608C60.0888 158.445 59.9969 158.322 59.8132 158.241C59.5375 158.241 59.3843 158.241 59.3231 158.241L58.8636 159.404L58.0059 159.098C57.7915 159.098 57.7303 158.914 57.7609 158.853C57.7915 158.792 57.7609 158.853 58.0978 158.853H58.3735C58.6492 158.853 58.8023 158.853 58.8636 158.853C58.9249 158.853 58.8636 158.669 58.8636 158.516L58.5879 158.088C58.5108 157.996 58.4488 157.893 58.4041 157.781V157.781C58.3222 157.658 58.2048 157.562 58.0672 157.506V157.506C57.8221 157.506 57.669 157.506 57.5771 157.506C57.5583 157.538 57.5484 157.575 57.5484 157.613C57.5484 157.651 57.5583 157.688 57.5771 157.72L57.914 158.21C57.7565 158.149 57.5815 158.149 57.424 158.21C57.3481 158.241 57.2793 158.287 57.2214 158.344C57.1635 158.402 57.1178 158.471 57.087 158.547C57.0414 158.632 57.0176 158.726 57.0176 158.823C57.0176 158.919 57.0414 159.013 57.087 159.098C57.2579 159.291 57.4663 159.447 57.6996 159.557L59.078 160.078C59.3537 160.231 59.5068 160.2 59.5681 160.047Z" fill="white"/>
</g>
<g opacity="0.57">
<path d="M38.3713 147.615L39.3515 146.452C39.3515 146.452 39.3515 146.176 39.1984 145.992C39.0452 145.809 38.8308 145.778 38.7083 145.992L38.402 146.36L37.7587 145.839L37.1461 145.288C36.9317 145.104 36.7785 145.074 36.656 145.288C36.5335 145.503 36.656 145.564 36.656 145.747L37.2686 146.299L37.9119 146.85L37.7281 147.034L37.1155 146.482L36.4722 145.931C36.2578 145.747 36.1047 145.717 35.9821 145.931C35.8596 146.146 35.9821 146.207 36.1353 146.39L36.9011 147.095L37.483 147.585L37.7281 147.799C38.0038 147.707 38.1569 147.738 38.3713 147.615Z" fill="white"/>
<path d="M35.7984 145.38L36.8092 144.278C36.8092 144.278 36.8092 144.002 36.8092 143.788C36.8092 143.573 36.411 143.573 36.3191 143.788L35.2471 144.89C35.2471 144.89 35.2471 145.196 35.2471 145.38C35.2471 145.564 35.6759 145.502 35.7984 145.38Z" fill="white"/>
<path d="M32.2452 141.95L33.3479 140.909C33.3479 140.909 33.3479 140.633 33.3479 140.45C33.3479 140.266 33.0109 140.052 32.6434 139.684L32.1839 139.133L31.9695 138.888C31.7857 138.704 31.6326 138.643 31.51 138.888C31.3875 139.133 31.51 139.164 31.51 139.378L32.0614 139.99C32.3064 140.297 32.6128 140.603 32.6128 140.603L31.847 141.277L31.2956 140.664L30.7443 140.021C30.5605 139.837 30.3767 139.776 30.2542 140.021C30.1316 140.266 30.2542 140.297 30.2542 140.511L30.9587 141.307L31.6632 142.103C32.0614 142.011 32.2452 142.073 32.2452 141.95ZM32.2452 140.174L32.0614 139.96L31.7857 139.654C31.6019 139.439 31.4488 139.409 31.3262 139.654C31.2037 139.899 31.3262 139.929 31.3262 140.144L31.6019 140.45L31.7857 140.695C31.9695 140.878 32.1227 140.94 32.2452 140.695C32.3677 140.45 32.2452 140.389 32.2452 140.174Z" fill="white"/>
</g>
<g opacity="0.66">
<path d="M109.588 24.1244C109.659 23.8445 109.657 23.5511 109.582 23.2722C109.507 22.9934 109.361 22.7385 109.159 22.5321C108.882 22.265 108.585 22.0193 108.271 21.7973L107.72 21.4911L107.076 21.2461C106.662 21.0961 106.229 21.0034 105.79 20.9705C105.415 20.9083 105.032 20.9083 104.657 20.9705C104.371 21.0051 104.099 21.1137 103.868 21.2855C103.637 21.4574 103.455 21.6866 103.339 21.9504C103.291 22.2268 103.316 22.5112 103.413 22.7747C103.51 23.0382 103.675 23.2714 103.891 23.4508C104.135 23.7321 104.425 23.9702 104.748 24.155C105.102 24.3773 105.483 24.5523 105.882 24.6756L106.525 24.8593H107.107C107.482 24.921 107.865 24.921 108.24 24.8593C108.509 24.8602 108.773 24.7933 109.009 24.6649C109.244 24.5364 109.444 24.3505 109.588 24.1244V24.1244ZM108.822 23.8182C108.73 24.0106 108.587 24.1746 108.409 24.2931C108.231 24.4115 108.025 24.4802 107.812 24.4918C107.211 24.5499 106.605 24.4768 106.035 24.2775C104.779 23.8488 103.921 22.9302 104.136 22.2259C104.35 21.5217 105.606 21.2155 106.923 21.6748C107.524 21.8527 108.064 22.1916 108.485 22.6546C108.64 22.8009 108.753 22.9859 108.812 23.1905C108.872 23.3951 108.875 23.6118 108.822 23.8182V23.8182Z" fill="white"/>
</g>
<g opacity="0.83">
<path d="M118.012 28.0426C118.119 27.7748 118.153 27.4832 118.11 27.198C118.067 26.9127 117.948 26.6441 117.767 26.4198C117.263 25.7671 116.613 25.2425 115.868 24.8888C115.133 24.5027 114.307 24.3228 113.479 24.3682C113.188 24.3502 112.898 24.4156 112.643 24.5566C112.388 24.6976 112.178 24.9085 112.039 25.1643C111.963 25.4344 111.956 25.7195 112.021 25.9927C112.085 26.2659 112.218 26.5182 112.406 26.726C112.9 27.3609 113.542 27.8655 114.275 28.1957C114.65 28.3646 115.039 28.4979 115.439 28.5938C115.797 28.7005 116.168 28.7521 116.542 28.7469C116.826 28.7607 117.109 28.7035 117.366 28.5806C117.623 28.4576 117.845 28.2727 118.012 28.0426V28.0426ZM117.277 27.6446C117.157 27.8224 116.991 27.9645 116.797 28.0561C116.603 28.1477 116.388 28.1854 116.174 28.1651C115.901 28.2221 115.62 28.2221 115.347 28.1651C115.039 28.0999 114.741 27.9971 114.459 27.8589C114.168 27.7279 113.899 27.5523 113.662 27.3384C113.439 27.1765 113.242 26.9801 113.08 26.7566C112.934 26.5993 112.831 26.4061 112.782 26.1964C112.734 25.9868 112.742 25.7681 112.805 25.5624C112.919 25.3823 113.078 25.2344 113.265 25.1326C113.453 25.0309 113.663 24.9785 113.877 24.9806C114.162 24.9513 114.449 24.9513 114.734 24.9806C115.054 25.0518 115.363 25.1651 115.653 25.3174C115.952 25.4513 116.23 25.6266 116.48 25.838C116.707 26.0203 116.904 26.2373 117.062 26.481C117.212 26.63 117.318 26.8179 117.366 27.0235C117.415 27.2291 117.405 27.4442 117.338 27.6446H117.277Z" fill="white"/>
</g>
<g opacity="0.69">
<path d="M126.006 32.9422C126.162 32.7002 126.245 32.4186 126.245 32.1308C126.245 31.8431 126.162 31.5614 126.006 31.3194C125.834 30.9858 125.618 30.6768 125.363 30.4008C124.989 30.0941 124.577 29.8368 124.138 29.6353C123.951 29.502 123.757 29.3793 123.556 29.2678L122.943 29.0229C122.584 28.913 122.215 28.8412 121.84 28.8085C121.558 28.7636 121.269 28.7969 121.004 28.9049C120.74 29.0128 120.51 29.1913 120.34 29.4209C120.194 29.6666 120.117 29.9468 120.117 30.2324C120.117 30.5179 120.194 30.7981 120.34 31.0438C120.525 31.3581 120.752 31.6464 121.013 31.9012C121.144 32.0668 121.299 32.2114 121.473 32.3298L121.994 32.6973C122.352 32.9272 122.731 33.122 123.127 33.2791C123.474 33.4009 123.834 33.4831 124.199 33.524C124.522 33.639 124.875 33.6442 125.201 33.5391C125.528 33.4339 125.811 33.2242 126.006 32.9422V32.9422ZM125.332 32.4829C124.904 33.0954 123.648 32.9729 122.514 32.2686C122.017 31.9472 121.598 31.5182 121.289 31.0132C121.187 30.8251 121.134 30.6146 121.134 30.4008C121.134 30.1869 121.187 29.9764 121.289 29.7884C121.419 29.6168 121.593 29.4836 121.793 29.4027C121.992 29.3219 122.21 29.2964 122.422 29.3291C123.036 29.3899 123.625 29.6002 124.138 29.9415C125.179 30.707 125.761 31.8705 125.332 32.4829V32.4829Z" fill="white"/>
</g>
<g opacity="0.43">
<path d="M133.327 38.8207C133.466 38.573 133.54 38.2935 133.54 38.0092C133.54 37.725 133.466 37.4455 133.327 37.1978C133.191 36.8369 133.006 36.4968 132.776 36.1873C132.509 35.8345 132.201 35.5157 131.857 35.2381C131.519 34.9515 131.149 34.7049 130.754 34.5032C130.405 34.3306 130.034 34.2069 129.651 34.1358C129.377 34.0576 129.086 34.0563 128.81 34.1319C128.535 34.2075 128.285 34.3571 128.089 34.5645C127.943 34.8101 127.867 35.0904 127.867 35.3759C127.867 35.6614 127.943 35.9417 128.089 36.1873C128.226 36.5288 128.412 36.8485 128.64 37.1366C128.912 37.4653 129.209 37.7724 129.529 38.0552C129.854 38.321 130.202 38.5567 130.57 38.7594C130.898 38.9312 131.249 39.0549 131.612 39.1269C131.897 39.2441 132.21 39.2776 132.514 39.2233C132.818 39.1691 133.1 39.0294 133.327 38.8207V38.8207ZM132.714 38.2389C132.194 38.8207 130.968 38.5451 129.927 37.6877L129.59 37.3509L129.284 37.0141C129.107 36.7903 128.963 36.5429 128.855 36.2792C128.756 36.0958 128.704 35.8906 128.704 35.6821C128.704 35.4736 128.756 35.2684 128.855 35.085C129.007 34.9302 129.199 34.8198 129.41 34.7659C129.62 34.7119 129.841 34.7164 130.049 34.7788C130.325 34.8238 130.593 34.9062 130.846 35.0238L131.275 35.2687L131.673 35.5749C132.745 36.4629 133.327 37.6877 132.684 38.2389H132.714Z" fill="white"/>
</g>
<path opacity="0.79" d="M139.453 45.1902C139.237 45.3082 138.995 45.3699 138.749 45.3699C138.503 45.3699 138.26 45.3082 138.044 45.1902C137.732 45.0924 137.441 44.9365 137.187 44.7309C136.873 44.5319 136.585 44.2954 136.329 44.0267C135.257 42.8937 134.859 41.4852 135.471 40.9646C136.084 40.4441 137.554 40.7503 138.688 41.9445C138.941 42.228 139.167 42.5357 139.361 42.8631C139.533 43.1473 139.657 43.4576 139.729 43.7817C139.82 44.0186 139.843 44.2765 139.794 44.5257C139.746 44.7749 139.627 45.0053 139.453 45.1902V45.1902Z" fill="white"/>
<path opacity="0.6" d="M145.243 52.5997C145.022 52.7203 144.774 52.7835 144.523 52.7835C144.271 52.7835 144.024 52.7203 143.803 52.5997C143.515 52.4513 143.247 52.266 143.007 52.0486C142.724 51.8091 142.476 51.5307 142.272 51.2218L141.965 50.7625C141.871 50.6056 141.79 50.4418 141.72 50.2726C141.577 49.9842 141.484 49.6736 141.445 49.354C141.381 49.1122 141.381 48.8579 141.446 48.6163C141.51 48.3747 141.636 48.154 141.812 47.9761C142.024 47.8461 142.268 47.7773 142.517 47.7773C142.765 47.7773 143.009 47.8461 143.221 47.9761C143.536 48.1106 143.826 48.2969 144.079 48.5272L144.477 48.8947L144.875 49.354C145.094 49.6705 145.279 50.0092 145.427 50.3644C145.559 50.6656 145.641 50.9862 145.672 51.3137C145.711 51.5468 145.693 51.786 145.618 52.0103C145.543 52.2346 145.414 52.4371 145.243 52.5997V52.5997Z" fill="white"/>
<path opacity="0.72" d="M149.99 60.6225C149.756 60.7036 149.505 60.7265 149.259 60.6891C149.014 60.6518 148.781 60.5554 148.581 60.4081C148.325 60.2186 148.089 60.0031 147.877 59.7651C147.628 59.4844 147.412 59.1762 147.234 58.8465C146.877 58.251 146.667 57.5793 146.621 56.8868C146.59 56.6413 146.621 56.3918 146.712 56.1617C146.803 55.9315 146.951 55.728 147.142 55.5701C147.37 55.4523 147.629 55.404 147.885 55.4312C148.14 55.4584 148.383 55.5599 148.581 55.7232C149.194 56.1038 149.692 56.6436 150.021 57.2849C150.231 57.6151 150.386 57.977 150.481 58.3566C150.524 58.6818 150.524 59.0112 150.481 59.3364C150.519 59.5749 150.494 59.8193 150.408 60.045C150.322 60.2707 150.178 60.4699 149.99 60.6225V60.6225Z" fill="white"/>
<path opacity="0.82" d="M153.758 69.1668C153.513 69.2237 153.258 69.2169 153.017 69.1472C152.776 69.0776 152.556 68.9472 152.379 68.7687C152.143 68.5554 151.927 68.3196 151.736 68.0645C151.538 67.7514 151.364 67.4239 151.215 67.0846C150.927 66.441 150.801 65.7367 150.848 65.0331C150.85 64.7856 150.916 64.5428 151.039 64.3283C151.163 64.1137 151.34 63.9346 151.552 63.8083C151.788 63.7269 152.042 63.7124 152.285 63.7665C152.528 63.8205 152.752 63.941 152.931 64.1144C153.498 64.5733 153.932 65.1761 154.187 65.8598C154.345 66.2092 154.449 66.5811 154.493 66.9621C154.538 67.2872 154.538 67.6169 154.493 67.942C154.488 68.1924 154.417 68.4372 154.288 68.652C154.159 68.8668 153.976 69.0443 153.758 69.1668V69.1668Z" fill="white"/>
<path opacity="0.74" d="M156.454 78.0767C156.212 78.1182 155.963 78.0915 155.736 77.9996C155.509 77.9076 155.312 77.754 155.167 77.5562C154.949 77.3093 154.754 77.0428 154.585 76.76C154.416 76.4281 154.282 76.0791 154.187 75.7189C154.024 75.0447 154.024 74.3416 154.187 73.6674C154.223 73.4178 154.32 73.181 154.47 72.9781C154.619 72.7751 154.817 72.6122 155.044 72.5038C155.292 72.4606 155.547 72.4831 155.784 72.5691C156.02 72.655 156.23 72.8014 156.392 72.9937C156.884 73.5194 157.232 74.1626 157.403 74.8616C157.521 75.2277 157.583 75.6097 157.587 75.9945C157.62 76.3305 157.62 76.669 157.587 77.005C157.541 77.2831 157.406 77.5385 157.201 77.7322C156.996 77.9258 156.734 78.0468 156.454 78.0767V78.0767Z" fill="white"/>
<path opacity="0.78" d="M158.077 87.2931C157.825 87.2933 157.577 87.2285 157.357 87.1052C157.137 86.9819 156.952 86.804 156.821 86.5889C156.648 86.3193 156.504 86.0318 156.392 85.7315C156.254 85.3856 156.151 85.0265 156.086 84.6598C155.926 83.9853 155.926 83.2827 156.086 82.6082C156.142 82.3679 156.258 82.1459 156.425 81.9636C156.591 81.7813 156.801 81.6447 157.036 81.5671C157.289 81.5381 157.546 81.5834 157.774 81.6976C158.003 81.8118 158.193 81.9898 158.322 82.2102C158.534 82.4656 158.699 82.7557 158.812 83.0675C158.965 83.4191 159.068 83.7901 159.118 84.1699C159.179 84.5554 159.179 84.9479 159.118 85.3334C159.101 85.6696 159.029 86.0007 158.904 86.3133C158.854 86.5304 158.752 86.7324 158.609 86.9027C158.465 87.0731 158.283 87.2069 158.077 87.2931Z" fill="white"/>
<path opacity="0.4" d="M158.536 96.6329C158.289 96.6003 158.055 96.5041 157.857 96.3538C157.658 96.2035 157.502 96.0043 157.403 95.7756C157.236 95.4922 157.122 95.181 157.066 94.8569C156.966 94.498 156.914 94.1273 156.913 93.7546C156.881 93.0619 157.007 92.3709 157.281 91.7337C157.372 91.5032 157.522 91.3004 157.715 91.1448C157.908 90.9892 158.138 90.8862 158.383 90.8457C158.633 90.853 158.876 90.9281 159.087 91.063C159.297 91.1978 159.467 91.3873 159.578 91.6112C160.078 92.5492 160.23 93.634 160.007 94.6732C159.948 95.0061 159.834 95.3268 159.67 95.6225C159.601 95.8833 159.456 96.1182 159.255 96.2978C159.053 96.4774 158.804 96.594 158.536 96.6329Z" fill="white"/>
<g opacity="0.81">
<path d="M107.751 28.8397C107.83 28.5725 107.835 28.2887 107.765 28.0188C107.694 27.749 107.552 27.5035 107.352 27.3087C107.125 27.0258 106.856 26.7781 106.556 26.5738L106.035 26.2676L105.453 26.0533C105.058 25.9099 104.646 25.8173 104.228 25.7777C103.873 25.7147 103.51 25.7147 103.156 25.7777C102.879 25.8165 102.617 25.9274 102.397 26.0994C102.176 26.2714 102.005 26.4984 101.9 26.7576C101.847 27.0287 101.865 27.3088 101.95 27.5713C102.036 27.8339 102.187 28.0702 102.39 28.258C102.621 28.512 102.89 28.7288 103.187 28.901C103.515 29.1285 103.877 29.3041 104.259 29.4215L104.841 29.5746C105.023 29.6038 105.209 29.6038 105.392 29.5746C105.737 29.6341 106.089 29.6341 106.433 29.5746C106.697 29.5705 106.955 29.5012 107.184 29.3729C107.414 29.2447 107.609 29.0615 107.751 28.8397V28.8397ZM107.015 28.5642C106.923 28.7504 106.784 28.91 106.613 29.0279C106.441 29.1457 106.242 29.218 106.035 29.2378C105.479 29.3181 104.913 29.2657 104.381 29.0847C103.217 28.6866 102.421 27.7987 102.635 27.0638C102.85 26.3289 104.044 26.0533 105.3 26.482C105.846 26.6507 106.334 26.9689 106.709 27.4006C106.867 27.544 106.981 27.7304 107.035 27.9369C107.089 28.1435 107.083 28.3614 107.015 28.5642V28.5642Z" fill="white"/>
</g>
<g opacity="0.77">
<path d="M115.653 32.5138C115.763 32.2552 115.804 31.9725 115.771 31.6934C115.739 31.4143 115.635 31.1483 115.469 30.9215C115.269 30.6276 115.032 30.3601 114.765 30.1254C114.449 29.8554 114.099 29.6289 113.723 29.4518C113.024 29.0925 112.24 28.9336 111.456 28.9925C111.176 28.9876 110.901 29.0628 110.662 29.2093C110.423 29.3558 110.231 29.5674 110.109 29.8192C110.021 30.0788 110.003 30.357 110.057 30.6257C110.11 30.8945 110.234 31.1443 110.415 31.3502C110.838 31.964 111.421 32.4509 112.1 32.7587C112.462 32.9319 112.842 33.0653 113.233 33.1568C113.569 33.2015 113.908 33.2015 114.244 33.1568C114.514 33.1783 114.785 33.1306 115.032 33.018C115.278 32.9055 115.492 32.732 115.653 32.5138ZM114.979 32.1463C114.868 32.3204 114.714 32.4626 114.531 32.5592C114.348 32.6558 114.144 32.7035 113.938 32.6975C113.683 32.7277 113.426 32.7277 113.172 32.6975C112.871 32.6416 112.582 32.5382 112.314 32.3913C112.045 32.2634 111.788 32.1096 111.548 31.932C111.351 31.7611 111.176 31.5656 111.028 31.3502C110.894 31.1916 110.804 31.0009 110.766 30.7968C110.729 30.5928 110.745 30.3825 110.813 30.1866C110.922 30.0032 111.08 29.8542 111.27 29.7567C111.46 29.6592 111.673 29.6172 111.885 29.6355C112.16 29.6059 112.437 29.6059 112.712 29.6355C113.006 29.715 113.293 29.8174 113.57 29.9417C113.845 30.0727 114.102 30.2372 114.336 30.4316C114.552 30.6036 114.739 30.8106 114.887 31.044C114.983 31.2101 115.038 31.3964 115.049 31.5879C115.06 31.7793 115.025 31.9706 114.948 32.1463H114.979Z" fill="white"/>
</g>
<g opacity="0.55">
<path d="M123.066 37.1067C123.208 36.8657 123.284 36.5907 123.284 36.3106C123.284 36.0305 123.208 35.7555 123.066 35.5145C122.925 35.1869 122.728 34.8863 122.484 34.6265C122.191 34.3212 121.862 34.0537 121.503 33.8304L120.952 33.4935L120.401 33.2792C120.055 33.1614 119.693 33.0993 119.329 33.0955C119.053 33.0685 118.776 33.1137 118.524 33.2264C118.271 33.3392 118.052 33.5156 117.889 33.7385C117.755 33.9825 117.685 34.2563 117.685 34.5346C117.685 34.813 117.755 35.0868 117.889 35.3308C118.063 35.6276 118.268 35.9048 118.502 36.1575L118.93 36.5556L119.421 36.923C119.759 37.1333 120.118 37.3078 120.493 37.4435C120.82 37.5558 121.159 37.6277 121.503 37.6579C121.789 37.7147 122.085 37.6935 122.36 37.5965C122.635 37.4995 122.879 37.3303 123.066 37.1067V37.1067ZM122.453 36.6474C121.993 37.2904 120.83 37.1986 119.757 36.6474C119.278 36.3602 118.886 35.9472 118.624 35.4532C118.519 35.2717 118.464 35.0658 118.464 34.8561C118.464 34.6465 118.519 34.4406 118.624 34.259C118.739 34.0872 118.902 33.9524 119.092 33.8709C119.282 33.7894 119.492 33.7647 119.696 33.7997C120.274 33.8256 120.835 34.0053 121.32 34.3203C122.361 34.9021 122.882 36.035 122.453 36.6474V36.6474Z" fill="white"/>
</g>
<g opacity="0.76">
<path d="M129.866 42.5564C130.041 42.3402 130.152 42.0786 130.184 41.8022C130.217 41.5257 130.17 41.2457 130.05 40.9947C129.946 40.6413 129.78 40.3094 129.559 40.0149C129.326 39.6825 129.047 39.3837 128.732 39.1269C128.415 38.8599 128.065 38.6336 127.691 38.4532C127.361 38.2994 127.01 38.1961 126.65 38.1471C126.376 38.0819 126.091 38.09 125.822 38.1707C125.553 38.2513 125.31 38.4016 125.118 38.6064C124.981 38.8438 124.909 39.113 124.909 39.3872C124.909 39.6613 124.981 39.9306 125.118 40.168C125.233 40.4977 125.398 40.8076 125.608 41.0866C125.843 41.409 126.121 41.6974 126.435 41.944C126.727 42.2069 127.058 42.4238 127.415 42.587C127.723 42.7487 128.053 42.8623 128.395 42.9238C128.652 42.9895 128.92 42.9902 129.177 42.9261C129.434 42.8619 129.67 42.7349 129.866 42.5564V42.5564ZM129.284 42.0358C128.794 42.6176 127.63 42.3726 126.68 41.6071C126.553 41.5108 126.44 41.3975 126.343 41.2703C126.225 41.1733 126.122 41.0599 126.037 40.9335C125.885 40.7264 125.761 40.4998 125.669 40.2598C125.578 40.0742 125.53 39.8699 125.53 39.6628C125.53 39.4556 125.578 39.2513 125.669 39.0657C125.817 38.9135 126.003 38.8024 126.207 38.7433C126.411 38.6843 126.627 38.6793 126.833 38.7288C127.098 38.7765 127.356 38.8589 127.599 38.9738L127.997 39.1881L128.365 39.4637C129.437 40.3211 129.804 41.4847 129.284 42.0358V42.0358Z" fill="white"/>
</g>
<g opacity="0.71">
<path d="M135.961 48.803C136.161 48.6089 136.302 48.3619 136.367 48.0908C136.432 47.8198 136.419 47.5358 136.329 47.272C136.261 46.9177 136.137 46.5765 135.961 46.2615C135.757 45.8967 135.51 45.5575 135.226 45.2511C134.946 44.9448 134.627 44.6771 134.277 44.4549C133.965 44.2793 133.637 44.1357 133.296 44.0262C133.034 43.9377 132.753 43.9165 132.48 43.9646C132.207 44.0128 131.951 44.1287 131.734 44.3018C131.556 44.5154 131.436 44.7719 131.388 45.0459C131.34 45.3199 131.364 45.6018 131.458 45.8635C131.543 46.2076 131.677 46.5376 131.857 46.8433C132.062 47.1711 132.298 47.4786 132.561 47.7619C132.819 48.0586 133.118 48.3164 133.449 48.5274C133.74 48.7294 134.06 48.8844 134.399 48.9867C134.653 49.0939 134.931 49.1333 135.204 49.1011C135.478 49.0689 135.739 48.9662 135.961 48.803V48.803ZM135.441 48.2212C134.889 48.7418 133.756 48.3743 132.898 47.4557C132.688 47.2424 132.503 47.0062 132.347 46.7514C132.215 46.5234 132.122 46.275 132.071 46.0166C131.999 45.8212 131.982 45.6101 132.019 45.4055C132.057 45.2008 132.149 45.01 132.286 44.853C132.442 44.7155 132.635 44.6252 132.841 44.5927C133.047 44.5602 133.258 44.5867 133.449 44.6693C133.709 44.7316 133.957 44.835 134.185 44.9755C134.44 45.1432 134.676 45.3383 134.889 45.5573C135.808 46.5065 136.022 47.7313 135.441 48.2212V48.2212Z" fill="white"/>
</g>
<g opacity="0.82">
<path d="M141.23 55.7533C141.457 55.5819 141.631 55.3507 141.734 55.0857C141.837 54.8207 141.864 54.5324 141.812 54.2529C141.767 53.8982 141.685 53.5492 141.567 53.2118C141.404 52.8322 141.199 52.4726 140.954 52.1401C140.954 51.9564 140.678 51.8033 140.556 51.6502C140.418 51.5004 140.264 51.3669 140.096 51.2521C139.819 51.0155 139.51 50.8196 139.178 50.6704C138.935 50.5306 138.661 50.457 138.381 50.457C138.101 50.457 137.827 50.5306 137.585 50.6704C137.389 50.8691 137.246 51.1123 137.166 51.3791C137.086 51.6458 137.072 51.9281 137.125 52.2014C137.162 52.5411 137.255 52.8723 137.401 53.1812C137.462 53.3693 137.555 53.5454 137.677 53.7018L137.983 54.2223C138.216 54.5361 138.483 54.8236 138.779 55.0797C139.053 55.3052 139.351 55.5003 139.668 55.6615C139.9 55.8045 140.165 55.8877 140.437 55.9037C140.71 55.9198 140.982 55.8681 141.23 55.7533V55.7533ZM140.801 55.1103C140.188 55.539 139.116 55.1103 138.35 54.0386C138.014 53.5886 137.793 53.0629 137.707 52.5076C137.67 52.3031 137.684 52.0925 137.748 51.8947C137.812 51.697 137.924 51.5183 138.075 51.3746C138.255 51.2667 138.462 51.2097 138.672 51.2097C138.882 51.2097 139.089 51.2667 139.269 51.3746C139.792 51.6288 140.244 52.0073 140.587 52.4769C141.352 53.4568 141.444 54.6816 140.801 55.1103V55.1103Z" fill="white"/>
</g>
<g opacity="0.77">
<path d="M145.579 63.318C145.81 63.1638 145.999 62.954 146.127 62.7078C146.256 62.4616 146.32 62.1871 146.314 61.9095C146.358 61.5536 146.358 61.1937 146.314 60.8378C146.191 60.4344 146.026 60.0446 145.824 59.6742C145.73 59.4897 145.617 59.3153 145.487 59.1537C145.379 58.9808 145.245 58.8258 145.089 58.6944C144.841 58.4259 144.551 58.1985 144.231 58.0207C143.995 57.8806 143.725 57.8066 143.45 57.8066C143.175 57.8066 142.906 57.8806 142.669 58.0207C142.444 58.182 142.266 58.4003 142.153 58.6532C142.04 58.9061 141.996 59.1845 142.026 59.4599C141.967 59.8044 141.967 60.1565 142.026 60.501C142.06 60.683 142.122 60.8586 142.21 61.0215C142.277 61.2166 142.37 61.402 142.486 61.5727C142.66 61.9221 142.887 62.2423 143.159 62.5219C143.386 62.7883 143.655 63.0158 143.956 63.1955C144.205 63.3591 144.487 63.4638 144.783 63.5017C145.061 63.5265 145.34 63.4621 145.579 63.318ZM145.212 62.6137C145.035 62.7159 144.834 62.7696 144.63 62.7696C144.425 62.7696 144.225 62.7159 144.048 62.6137C143.574 62.306 143.184 61.885 142.914 61.3889C142.63 60.9052 142.472 60.3576 142.455 59.7967C142.434 59.5863 142.469 59.3742 142.555 59.181C142.641 58.9879 142.775 58.8202 142.945 58.6944C143.122 58.5922 143.323 58.5385 143.527 58.5385C143.731 58.5385 143.932 58.5922 144.109 58.6944C144.62 58.9891 145.035 59.4251 145.304 59.9498C145.611 60.4459 145.771 61.0196 145.763 61.6033C145.769 61.7912 145.731 61.9779 145.651 62.1482C145.571 62.3185 145.452 62.4675 145.304 62.5831L145.212 62.6137Z" fill="white"/>
</g>
<g opacity="0.56">
<path d="M149.133 71.2793C149.383 71.1567 149.597 70.9706 149.753 70.7396C149.909 70.5085 150.001 70.2406 150.021 69.9626C150.068 69.6069 150.068 69.2466 150.021 68.8909C149.952 68.482 149.839 68.0816 149.684 67.6967C149.395 66.9733 148.919 66.3394 148.306 65.8595C148.095 65.6754 147.838 65.5523 147.563 65.5038C147.288 65.4552 147.004 65.4829 146.744 65.5839C146.504 65.7216 146.303 65.917 146.159 66.1524C146.014 66.3877 145.931 66.6555 145.916 66.9312C145.868 67.6746 145.994 68.4191 146.284 69.1052C146.431 69.4707 146.616 69.8196 146.835 70.1463C147.041 70.4282 147.289 70.6761 147.571 70.8812C147.772 71.0805 148.023 71.2224 148.298 71.2924C148.572 71.3624 148.86 71.3578 149.133 71.2793V71.2793ZM148.857 70.5444C148.661 70.609 148.451 70.6174 148.251 70.5687C148.051 70.5199 147.868 70.4161 147.724 70.2688C147.511 70.1169 147.324 69.9307 147.172 69.7176C146.994 69.4731 146.849 69.2053 146.744 68.9215C146.62 68.6492 146.538 68.3604 146.498 68.0641C146.454 67.8109 146.454 67.5519 146.498 67.2986C146.504 67.0916 146.564 66.8895 146.671 66.7124C146.778 66.5352 146.93 66.389 147.111 66.2882C147.311 66.214 147.528 66.1947 147.738 66.2324C147.948 66.2701 148.144 66.3634 148.306 66.5025C148.512 66.674 148.697 66.8693 148.857 67.0843C149.052 67.3231 149.207 67.5919 149.317 67.8804C149.443 68.1624 149.525 68.4618 149.562 68.7684C149.592 69.0329 149.592 69.3001 149.562 69.5645C149.545 69.7766 149.471 69.9801 149.346 70.1529C149.222 70.3256 149.053 70.4611 148.857 70.5444V70.5444Z" fill="white"/>
</g>
<g opacity="0.66">
<path d="M151.706 79.6378C151.97 79.5497 152.206 79.3925 152.389 79.1825C152.572 78.9726 152.696 78.7174 152.747 78.4436C152.961 77.693 152.961 76.8977 152.747 76.1471C152.55 75.3893 152.147 74.7006 151.583 74.1568C151.372 73.9546 151.122 73.7982 150.848 73.6975C150.601 73.606 150.329 73.606 150.082 73.6975C149.833 73.7623 149.616 73.9144 149.47 74.1262C149.3 74.3782 149.175 74.658 149.102 74.9529C148.922 75.6664 148.922 76.4135 149.102 77.127C149.281 77.8541 149.651 78.5202 150.174 79.056C150.353 79.2826 150.59 79.4564 150.859 79.5589C151.129 79.6613 151.422 79.6886 151.706 79.6378V79.6378ZM151.522 78.8723C151.319 78.9063 151.111 78.8875 150.918 78.8178C150.725 78.7481 150.553 78.6298 150.419 78.4743C150.042 78.0533 149.77 77.5499 149.623 77.0045C149.593 76.7194 149.593 76.4321 149.623 76.1471C149.606 75.882 149.606 75.6161 149.623 75.351C149.664 75.1463 149.755 74.9551 149.889 74.7947C150.023 74.6343 150.195 74.5098 150.389 74.4324C150.588 74.3849 150.797 74.3941 150.992 74.4591C151.187 74.524 151.36 74.642 151.491 74.7998C151.695 74.9758 151.871 75.1824 152.012 75.4122C152.167 75.6794 152.28 75.9685 152.349 76.2696C152.388 76.5745 152.388 76.8833 152.349 77.1882C152.381 77.4526 152.381 77.7199 152.349 77.9843C152.073 78.6274 151.706 78.8111 151.43 78.8723H151.522Z" fill="white"/>
</g>
<path opacity="0.45" d="M153.023 87.8138C152.779 87.8274 152.537 87.7748 152.321 87.6615C152.105 87.5483 151.924 87.3787 151.797 87.1708C151.602 86.9321 151.447 86.6632 151.338 86.3747C151.206 86.0607 151.113 85.7316 151.062 85.3948C151.033 85.0484 151.033 84.7002 151.062 84.3538C151.079 84.0471 151.151 83.7462 151.277 83.4658C151.339 83.2305 151.462 83.0158 151.635 82.8437C151.807 82.6716 152.021 82.5481 152.257 82.4859C152.5 82.4568 152.746 82.4959 152.967 82.5986C153.189 82.7014 153.378 82.8638 153.513 83.0677C153.707 83.3126 153.872 83.5799 154.003 83.8638C154.131 84.2003 154.223 84.5493 154.278 84.9049C154.341 85.2594 154.341 85.6222 154.278 85.9766C154.247 86.2908 154.175 86.5995 154.064 86.8952C153.985 87.1252 153.847 87.3307 153.664 87.4917C153.482 87.6527 153.261 87.7637 153.023 87.8138V87.8138Z" fill="white"/>
<path opacity="0.9" d="M153.452 96.5711C153.211 96.5444 152.981 96.4574 152.783 96.3183C152.585 96.1791 152.425 95.9923 152.318 95.775C152.169 95.5157 152.056 95.2377 151.981 94.9483C151.844 94.6254 151.751 94.2855 151.706 93.9378C151.678 93.2817 151.815 92.6292 152.104 92.0393C152.183 91.8015 152.335 91.5947 152.539 91.4481C152.742 91.3015 152.986 91.2227 153.237 91.2227C153.488 91.2227 153.732 91.3015 153.936 91.4481C154.139 91.5947 154.291 91.8015 154.37 92.0393C154.73 92.6188 154.921 93.2867 154.922 93.9684C154.955 94.3249 154.955 94.6836 154.922 95.0401C154.842 95.3522 154.719 95.6512 154.554 95.9281C154.438 96.118 154.276 96.2762 154.084 96.3884C153.891 96.5006 153.674 96.5634 153.452 96.5711Z" fill="white"/>
<g opacity="0.65">
<path d="M105.913 33.5858C105.982 33.3222 105.988 33.0458 105.929 32.7795C105.871 32.5133 105.75 32.2648 105.576 32.0548C105.361 31.79 105.114 31.5533 104.841 31.3505L104.35 31.0749L103.799 30.8299C103.43 30.7172 103.05 30.6454 102.666 30.6156C102.332 30.5526 101.989 30.5526 101.655 30.6156C101.379 30.6432 101.118 30.7515 100.903 30.9269C100.689 31.1023 100.531 31.337 100.449 31.6017C100.367 31.8665 100.365 32.1494 100.444 32.4152C100.522 32.6809 100.677 32.9177 100.889 33.0958C101.09 33.3557 101.34 33.574 101.624 33.7389C101.928 33.9443 102.258 34.109 102.605 34.2288H103.156H103.677C104.002 34.2753 104.332 34.2753 104.657 34.2288C104.9 34.2168 105.137 34.1532 105.354 34.0423C105.57 33.9315 105.761 33.7758 105.913 33.5858ZM105.239 33.3102C105.143 33.4906 105.008 33.6475 104.843 33.7693C104.679 33.8911 104.49 33.9748 104.289 34.0145C103.787 34.1441 103.26 34.1441 102.758 34.0145C101.655 33.6164 100.92 32.759 101.165 32.0241C101.41 31.2893 102.482 30.983 103.646 31.3811C104.159 31.5648 104.614 31.8819 104.963 32.2997C105.085 32.4349 105.173 32.5967 105.221 32.7722C105.269 32.9477 105.275 33.1319 105.239 33.3102Z" fill="white"/>
</g>
<g opacity="0.6">
<path d="M113.264 36.9832C113.404 36.7469 113.478 36.4772 113.478 36.2024C113.478 35.9276 113.404 35.6579 113.264 35.4216C113.093 35.1329 112.876 34.8743 112.621 34.6561C112.331 34.3898 112 34.1726 111.64 34.0131C110.993 33.6672 110.256 33.5282 109.527 33.615C109.254 33.6226 108.988 33.7079 108.762 33.8608C108.535 34.0137 108.357 34.228 108.247 34.4785C108.138 34.7291 108.103 35.0055 108.145 35.2755C108.187 35.5456 108.305 35.798 108.485 36.0034C108.866 36.5857 109.409 37.0435 110.048 37.32C110.375 37.4873 110.726 37.601 111.089 37.6569C111.413 37.7167 111.745 37.7167 112.069 37.6569C112.305 37.6365 112.534 37.5659 112.74 37.4496C112.946 37.3334 113.125 37.1744 113.264 36.9832V36.9832ZM112.621 36.6464C112.514 36.818 112.365 36.959 112.188 37.0557C112.011 37.1523 111.812 37.2012 111.61 37.1976C111.367 37.2425 111.118 37.2425 110.875 37.1976C110.606 37.1469 110.348 37.0539 110.109 36.922C109.856 36.8115 109.619 36.6673 109.404 36.4933C109.216 36.3335 109.051 36.1479 108.914 35.9421C108.796 35.7753 108.72 35.5821 108.693 35.3793C108.667 35.1765 108.69 34.9703 108.761 34.7786C108.857 34.6 108.998 34.4495 109.17 34.3421C109.342 34.2347 109.539 34.1741 109.741 34.1661C109.984 34.1212 110.233 34.1212 110.476 34.1661C110.763 34.2049 111.042 34.2875 111.304 34.4111C111.56 34.5406 111.797 34.7055 112.008 34.901C112.212 35.0573 112.379 35.2558 112.498 35.4828C112.62 35.6487 112.695 35.8437 112.716 36.0481C112.738 36.2525 112.705 36.4589 112.621 36.6464V36.6464Z" fill="white"/>
</g>
<g opacity="0.82">
<path d="M120.156 41.241C120.285 41.0009 120.352 40.7327 120.352 40.4602C120.352 40.1878 120.285 39.9196 120.156 39.6794C120.017 39.3673 119.831 39.0782 119.605 38.822C119.358 38.5231 119.056 38.2737 118.716 38.0872L118.226 37.781L117.675 37.5972C117.356 37.5039 117.027 37.4525 116.695 37.4441C116.421 37.4229 116.147 37.474 115.9 37.5923C115.653 37.7105 115.441 37.8918 115.286 38.1178C115.16 38.3587 115.094 38.6266 115.094 38.8986C115.094 39.1705 115.16 39.4385 115.286 39.6794C115.419 39.9762 115.606 40.2461 115.837 40.4755L116.235 40.843L116.664 41.1798C116.976 41.3828 117.317 41.5376 117.675 41.6391C117.977 41.7591 118.299 41.8214 118.625 41.8228C118.908 41.8672 119.199 41.8368 119.467 41.7348C119.736 41.6328 119.973 41.4626 120.156 41.241V41.241ZM119.543 40.843C119.115 41.4554 117.981 41.4248 117.032 40.843C116.583 40.5642 116.213 40.1738 115.96 39.71C115.868 39.5297 115.82 39.3304 115.82 39.1282C115.82 38.9261 115.868 38.7268 115.96 38.5465C116.085 38.3833 116.248 38.2534 116.435 38.1679C116.622 38.0825 116.827 38.0443 117.032 38.0565C117.569 38.0683 118.092 38.2387 118.533 38.5465C119.543 39.1282 120.003 40.2 119.543 40.843Z" fill="white"/>
</g>
<g opacity="0.71">
<path d="M126.466 46.3232C126.631 46.1085 126.738 45.8545 126.776 45.586C126.813 45.3176 126.78 45.044 126.68 44.7921C126.602 44.4597 126.456 44.147 126.251 43.8735C126.03 43.559 125.773 43.2713 125.485 43.0162C125.183 42.7754 124.854 42.57 124.505 42.4038C124.196 42.2579 123.865 42.1647 123.525 42.1282C123.257 42.0563 122.974 42.0651 122.711 42.1535C122.448 42.2419 122.217 42.4059 122.047 42.625C121.877 42.8441 121.775 43.1085 121.755 43.3851C121.734 43.6616 121.796 43.9381 121.932 44.1797C122.038 44.4827 122.182 44.7709 122.361 45.0371C122.584 45.3319 122.841 45.5992 123.127 45.8332C123.401 46.0821 123.711 46.2885 124.046 46.4456C124.333 46.5929 124.644 46.6864 124.965 46.7212C125.228 46.7827 125.503 46.7786 125.765 46.7092C126.027 46.6398 126.267 46.5072 126.466 46.3232ZM125.914 45.8332C125.424 46.415 124.291 46.2313 123.403 45.4964L123.096 45.1902C122.998 45.1023 122.915 44.9989 122.851 44.884C122.704 44.69 122.59 44.4727 122.514 44.241C122.423 44.0607 122.375 43.8614 122.375 43.6592C122.375 43.457 122.423 43.2577 122.514 43.0774C122.65 42.9249 122.823 42.8107 123.016 42.7462C123.21 42.6817 123.417 42.6692 123.617 42.71C123.873 42.7386 124.121 42.8111 124.352 42.9243C124.486 42.9605 124.611 43.023 124.72 43.108C124.849 43.1899 124.972 43.2821 125.087 43.3836C126.098 44.1491 126.435 45.2821 125.914 45.8332V45.8332Z" fill="white"/>
</g>
<g opacity="0.45">
<path d="M132.102 52.1108C132.299 51.9268 132.443 51.6933 132.518 51.4347C132.594 51.176 132.598 50.9019 132.531 50.641C132.481 50.3003 132.378 49.9696 132.225 49.6611C132.038 49.3288 131.812 49.0204 131.551 48.7425C131.282 48.4541 130.972 48.2065 130.632 48.0076C130.349 47.8255 130.039 47.691 129.713 47.6096C129.45 47.5319 129.171 47.522 128.904 47.5809C128.636 47.6398 128.387 47.7655 128.181 47.9464C128.008 48.1506 127.889 48.3951 127.836 48.6574C127.782 48.9196 127.796 49.1911 127.875 49.4468C127.932 49.7705 128.046 50.0815 128.212 50.3654C128.377 50.694 128.595 50.9938 128.855 51.2534C129.105 51.5292 129.394 51.7665 129.713 51.9577C129.988 52.1334 130.287 52.2675 130.601 52.3557C130.852 52.4432 131.121 52.4667 131.383 52.4239C131.645 52.3811 131.892 52.2734 132.102 52.1108V52.1108ZM131.643 51.5902C131.061 52.0801 129.989 51.7739 129.192 50.9472C128.999 50.746 128.834 50.5194 128.702 50.2735C128.584 50.05 128.491 49.8137 128.426 49.5693C128.382 49.3719 128.384 49.1671 128.432 48.9706C128.48 48.7742 128.572 48.5913 128.702 48.4363C128.853 48.2995 129.038 48.207 129.238 48.1692C129.438 48.1314 129.645 48.1496 129.835 48.222C130.083 48.2786 130.32 48.3715 130.54 48.4976C130.775 48.6554 130.991 48.8404 131.183 49.0487C132.041 49.9367 132.225 51.0697 131.643 51.5902V51.5902Z" fill="white"/>
</g>
<path opacity="0.46" d="M136.819 58.2653C136.615 58.3867 136.382 58.4507 136.145 58.4507C135.908 58.4507 135.675 58.3867 135.471 58.2653C135.2 58.1577 134.951 58.0021 134.736 57.806C134.499 57.6043 134.283 57.3786 134.093 57.1324C133.986 56.9995 133.894 56.8558 133.817 56.7037C133.733 56.5672 133.662 56.4238 133.603 56.275C133.484 56.0155 133.421 55.7337 133.419 55.4483C133.376 55.2152 133.393 54.9751 133.468 54.7503C133.543 54.5255 133.674 54.3232 133.848 54.1622C134.054 54.0469 134.286 53.9863 134.522 53.9863C134.758 53.9863 134.99 54.0469 135.195 54.1622C135.486 54.268 135.755 54.4235 135.992 54.6215L136.359 54.9277L136.666 55.3258C136.857 55.6052 137.022 55.9026 137.156 56.2138C137.273 56.4955 137.335 56.7968 137.34 57.1018C137.358 57.3239 137.321 57.5472 137.229 57.7507C137.138 57.9543 136.997 58.1313 136.819 58.2653V58.2653Z" fill="white"/>
<path opacity="0.78" d="M140.954 65.2461C140.749 65.3644 140.517 65.4266 140.28 65.4266C140.044 65.4266 139.811 65.3644 139.607 65.2461C139.361 65.1021 139.134 64.9271 138.933 64.7256C138.708 64.5024 138.522 64.2438 138.381 63.9601C138.076 63.4278 137.907 62.8281 137.891 62.2147C137.889 61.9766 137.943 61.7413 138.05 61.5284C138.156 61.3154 138.312 61.1308 138.504 60.9899C138.711 60.8773 138.942 60.8184 139.178 60.8184C139.413 60.8184 139.645 60.8773 139.852 60.9899C140.417 61.2815 140.877 61.7416 141.169 62.3066C141.34 62.6054 141.474 62.9242 141.567 63.2558C141.61 63.5502 141.61 63.8494 141.567 64.1438C141.565 64.3641 141.508 64.5804 141.401 64.773C141.294 64.9656 141.14 65.1283 140.954 65.2461V65.2461Z" fill="white"/>
<path opacity="0.68" d="M144.232 72.6866C144.007 72.7542 143.768 72.7643 143.538 72.7162C143.308 72.668 143.094 72.5632 142.915 72.4111C142.688 72.2305 142.483 72.0251 142.302 71.7986C142.107 71.5375 141.952 71.2485 141.843 70.9413C141.595 70.3843 141.499 69.7713 141.567 69.1653C141.607 68.9135 141.701 68.6733 141.843 68.461C141.956 68.2806 142.114 68.1329 142.302 68.0324C142.523 67.971 142.756 67.971 142.976 68.0324C143.216 68.0957 143.444 68.1993 143.65 68.3386C144.169 68.7085 144.573 69.2182 144.814 69.8083C144.935 70.1238 145.017 70.4528 145.059 70.7882C145.105 71.0823 145.105 71.382 145.059 71.6762C145.018 71.9009 144.921 72.1115 144.776 72.2882C144.631 72.465 144.444 72.6021 144.232 72.6866V72.6866Z" fill="white"/>
<path opacity="0.67" d="M146.59 80.4332C146.357 80.4729 146.118 80.4545 145.893 80.3798C145.669 80.305 145.466 80.1761 145.304 80.0045C145.106 79.7995 144.932 79.5736 144.783 79.3309C144.629 79.0487 144.506 78.7511 144.415 78.4429C144.248 77.8523 144.248 77.2268 144.415 76.6363C144.451 76.4016 144.55 76.1809 144.701 75.9976C144.852 75.8144 145.049 75.6753 145.273 75.5952C145.506 75.5396 145.749 75.5442 145.979 75.6085C146.21 75.6728 146.42 75.7947 146.59 75.9626C147.054 76.4025 147.384 76.9654 147.54 77.5855C147.583 77.9107 147.583 78.2402 147.54 78.5654C147.589 78.8593 147.589 79.1594 147.54 79.4533C147.486 79.6878 147.369 79.9031 147.202 80.0758C147.034 80.2485 146.823 80.3721 146.59 80.4332V80.4332Z" fill="white"/>
<path opacity="0.55" d="M147.969 88.4259C147.733 88.4344 147.498 88.386 147.285 88.2847C147.072 88.1834 146.886 88.0323 146.743 87.8441C146.576 87.6142 146.432 87.368 146.315 87.1092C146.182 86.808 146.1 86.4875 146.07 86.16C146.024 85.8452 146.024 85.5256 146.07 85.2108C146.09 84.9245 146.163 84.6443 146.284 84.384C146.353 84.1586 146.479 83.9551 146.651 83.7939C146.823 83.6327 147.035 83.5195 147.264 83.4654C147.501 83.4363 147.741 83.4689 147.961 83.5602C148.181 83.6514 148.374 83.7981 148.52 83.986C148.707 84.2079 148.862 84.4554 148.979 84.7209C149.136 85.0279 149.24 85.3592 149.286 85.7007C149.316 86.0368 149.316 86.375 149.286 86.7112C149.256 86.9995 149.173 87.2797 149.041 87.5379C148.957 87.7677 148.814 87.9711 148.625 88.1272C148.437 88.2832 148.21 88.3863 147.969 88.4259Z" fill="white"/>
<path opacity="0.43" d="M148.397 96.51C148.157 96.4944 147.925 96.419 147.722 96.2907C147.519 96.1623 147.351 95.985 147.233 95.7751C147.097 95.5311 146.984 95.2748 146.896 95.0096C146.799 94.7025 146.747 94.3826 146.743 94.0604C146.72 93.4439 146.857 92.8318 147.142 92.2844C147.25 92.0743 147.406 91.8926 147.598 91.7543C147.789 91.616 148.011 91.5248 148.244 91.4883C148.484 91.4924 148.718 91.5561 148.927 91.6737C149.136 91.7914 149.312 91.9592 149.439 92.1619C149.787 92.6996 149.968 93.3281 149.96 93.9685C150.006 94.2934 150.006 94.6234 149.96 94.9484C149.882 95.237 149.769 95.5148 149.623 95.7751C149.503 95.9957 149.326 96.1801 149.11 96.3093C148.895 96.4385 148.649 96.5078 148.397 96.51Z" fill="white"/>
<path opacity="0.55" d="M16.4088 60.2549L15.8268 61.5104C15.4592 62.2759 14.9692 63.4088 14.3872 64.8173C13.0152 68.2022 11.8891 71.6815 11.0178 75.2282C10.5583 77.1573 10.1601 79.117 9.85381 80.9542C9.5475 82.7914 9.33309 84.5368 9.21056 86.0372V87.0783C9.21056 87.4151 9.21056 87.7519 9.21056 88.0581C9.21056 88.3643 9.21056 88.6399 9.21056 88.9155C9.21056 89.1911 9.21056 89.4054 9.21056 89.6197C9.21056 89.8341 9.21056 90.3852 9.21056 90.6302V90.9977H6.14747C6.13964 90.8753 6.13964 90.7526 6.14747 90.6302C6.14747 90.3852 6.14747 90.0178 6.14747 89.5585C6.14747 89.0992 6.14747 89.0992 6.14747 88.8236C6.16375 88.5278 6.16375 88.2314 6.14747 87.9356C6.14747 87.6294 6.14747 87.262 6.14747 86.9252C6.14747 86.5883 6.14747 86.1903 6.14747 85.8228C6.14747 84.2612 6.51502 82.4546 6.82133 80.5255C7.12764 78.5964 7.55648 76.5755 8.04657 74.4015C8.94573 70.6983 10.1128 67.0654 11.5385 63.5313C12.1511 62.0921 12.6719 60.9286 13.0394 60.1018L13.652 58.7852L16.4088 60.2549Z" fill="white"/>
<path opacity="0.86" d="M8.90477 91.1212C8.90477 91.1212 8.90477 91.7642 8.90477 92.744C8.90477 93.7239 8.90477 95.0099 8.90477 96.296C8.90477 97.582 9.05793 98.8987 9.14982 99.8479C9.14982 100.093 9.14982 100.338 9.14982 100.522C9.16136 100.695 9.16136 100.869 9.14982 101.042C9.14982 101.318 9.14982 101.471 9.14982 101.471L6.08673 101.808C6.08673 101.808 6.08673 101.808 6.08673 101.348C6.08673 100.889 6.08673 101.011 6.08673 100.828C6.06894 100.593 6.06894 100.358 6.08673 100.124C6.08673 99.113 5.90294 97.7658 5.84168 96.4185C5.78042 95.0712 5.84168 93.7239 5.84168 92.7134C5.84168 91.7029 5.84168 91.0293 5.84168 91.0293L8.90477 91.1212Z" fill="white"/>
<path opacity="0.75" d="M44.5983 31.4922L43.1587 32.472L41.5352 33.6049L39.5136 35.1666C38.0433 36.3608 36.4505 37.7693 34.6433 39.3922C32.8291 41.0592 31.111 42.8278 29.4973 44.6895C27.9169 46.5399 26.4344 48.4716 25.0558 50.4767C23.6774 52.3752 22.4828 54.243 21.5333 55.8659C21.2882 56.2639 21.0432 56.662 20.8594 57.0294L20.2468 58.0705L19.3278 59.8465C19.0521 60.3364 18.8684 60.7039 18.7459 60.9794L18.5927 61.2856L15.7134 59.8771V59.5709L16.326 58.3767C16.5711 57.8562 16.908 57.2438 17.2756 56.5395C17.6431 55.8352 17.7044 55.8352 17.9188 55.4372L18.6233 54.2124C19.6341 52.5283 20.8594 50.5992 22.299 48.6089C23.7867 46.4877 25.3816 44.4437 27.0775 42.4848C28.7928 40.5251 30.6306 38.6267 32.4072 36.9426C34.1838 35.2584 35.9604 33.8805 37.4919 32.5639L39.6055 30.941L41.2902 29.7468L42.7911 28.7363L44.5983 31.4922Z" fill="white"/>
<path opacity="0.47" d="M59.4453 22.1024H59.2616L58.6796 22.2861L57.8219 22.6229L56.6886 23.0516C55.0345 23.6947 52.8597 24.6133 50.7462 25.685C48.6326 26.7567 46.5804 27.8896 45.0795 28.747L44.038 29.39L43.2722 29.8799L42.5984 30.3393L40.8218 27.6753L41.5263 27.216L42.3533 26.6954L43.4254 26.0218C44.9876 25.0726 47.1317 23.8478 49.3372 22.7454C51.5426 21.6431 53.8093 20.6633 55.4633 19.9896L56.6273 19.5609L57.5462 19.2241L58.1282 19.0098H58.3426L59.4453 22.1024Z" fill="white"/>
<path opacity="0.61" d="M28.2328 50.7011V50.8542L27.9571 51.191L27.559 51.7422L27.0382 52.4771C26.2725 53.5182 25.2923 54.988 24.3733 56.4577C23.4544 57.9275 22.5968 59.5197 22.0148 60.6221L21.2796 62.0306C21.18 62.2058 21.0979 62.3904 21.0346 62.5818L18.1553 61.1732L18.4309 60.6221C18.6147 60.2546 18.8598 59.7341 19.1661 59.1523C19.8093 57.9275 20.6976 56.3352 21.6472 54.7736C22.5968 53.212 23.6382 51.7116 24.4346 50.6093L24.9553 49.8438C25.1121 49.6712 25.2554 49.4869 25.3842 49.2926L25.6598 48.8945L28.2328 50.7011Z" fill="white"/>
<path opacity="0.8" d="M20.9426 62.5829C20.8579 62.708 20.786 62.8414 20.7282 62.981L20.2075 64.1139C19.7786 65.0938 19.1354 66.5023 18.4922 68.217C17.8489 69.9318 17.1138 72.014 16.5011 74.3411C15.8309 76.6653 15.2991 79.0272 14.9083 81.4144C14.4921 83.7956 14.2058 86.1978 14.0507 88.6101C14.0507 90.9066 13.8669 93.0501 14.0507 94.9179C14.0507 95.8365 14.0507 96.6939 14.0507 97.4288C14.0507 98.1636 14.0507 98.1637 14.0507 98.5005C14.0507 98.8373 14.0507 99.1129 14.0507 99.3578C14.0507 99.6028 14.0507 100.338 14.0507 100.613C14.0507 100.889 14.0507 101.073 14.0507 101.073L10.9876 101.409C10.9876 101.409 10.9876 101.226 10.9876 100.95C10.9876 100.675 10.9876 100.215 10.9876 99.6334C10.9703 99.3275 10.9703 99.0208 10.9876 98.7148C10.9876 98.378 10.9876 98.0105 10.9876 97.6125C10.9876 97.2144 10.9876 95.9284 10.9876 94.9791C10.9876 93.0501 10.9876 90.7842 11.1407 88.3652C11.2939 85.9462 11.6308 83.4047 12.0597 80.8632C12.4857 78.377 13.0377 75.914 13.7137 73.4837C14.3876 71.1566 15.1227 69.0132 15.7966 67.2066C16.4705 65.4 17.1444 63.9302 17.6039 62.8891C17.8183 62.3686 18.0327 62.0011 18.1552 61.7256L18.3696 61.2969L20.9426 62.5829Z" fill="white"/>
<path opacity="0.6" d="M36.9624 41.2088L36.5335 41.5762L36.0741 42.0049L35.4921 42.5867C34.6038 43.4134 33.5011 44.577 32.429 45.6487L30.8668 47.4247L29.5497 49.0169L29.274 49.3537L29.029 49.6599L28.6308 50.1805L28.2938 50.6092L25.7515 48.6801L26.0884 48.2208C26.2336 48.0572 26.3667 47.8832 26.4866 47.7002L26.7623 47.394C26.8442 47.2644 26.9364 47.1415 27.038 47.0266C27.4362 46.5367 27.8956 45.9549 28.4164 45.3731L29.2128 44.4545L30.0398 43.5053C31.1731 42.2498 32.3677 41.0557 33.2867 40.1677L33.8993 39.5859L34.3894 39.1266L34.8182 38.7285L36.9624 41.2088Z" fill="white"/>
<path opacity="0.47" d="M65.7556 25.4098H65.4186L64.4078 25.6854L63.6727 25.8997L62.815 26.1753L60.824 26.849C59.3537 27.3695 57.7609 28.0125 55.8924 28.8087C54.0305 29.6139 52.2107 30.5133 50.4401 31.5032C48.6023 32.5137 46.8257 33.5854 45.2329 34.5653C43.6401 35.5451 42.1698 36.7393 40.9139 37.6273L40.0563 38.3009L39.2599 38.944L38.586 39.5257L38.0346 40.0157L37.2382 40.7199L36.9625 40.9649L34.8184 38.6071L35.094 38.3316L35.9211 37.5967L36.5031 37.0761L37.2076 36.4943L38.0346 35.8207L38.9535 35.1164C40.24 34.106 41.741 32.973 43.4563 31.8401C45.1716 30.7071 46.9788 29.6048 48.8779 28.5637C50.7771 27.5226 52.7374 26.5428 54.6059 25.716C56.4744 24.8893 58.2204 24.2156 59.7519 23.6645L61.8654 22.9602L62.7537 22.6846L63.4889 22.4703L64.561 22.1641H64.9285L65.7556 25.4098Z" fill="white"/>
<path opacity="0.4" d="M19.2272 86.5277C19.2272 86.5277 19.2272 87.1094 19.2272 87.9668C19.2272 88.8242 19.2272 88.916 19.2272 89.4672C19.2272 90.0184 19.2272 90.6308 19.2272 91.2126C19.2272 91.7943 19.2272 92.3761 19.2272 92.9273V94.4277C19.2272 94.887 19.2272 95.2544 19.2272 95.4994V95.9281H16.1641V95.4994C16.1641 95.2238 16.1641 94.8257 16.1641 94.3664V92.8048C16.1641 92.223 16.1641 91.6106 16.1641 90.9982V89.161C16.1641 88.5792 16.1641 88.0587 16.1641 87.5994C16.1641 87.1401 16.1641 86.0684 16.1641 86.0684L19.2272 86.5277Z" fill="white"/>
<path opacity="0.7" d="M18.9205 95.9277C18.9329 95.9883 18.9329 96.0508 18.9205 96.1114V96.632C18.9205 97.0301 18.9205 97.6118 18.9205 98.163C18.9205 98.7142 18.9205 99.296 18.9205 99.694C18.9205 100.092 18.9205 100.398 18.9205 100.398L15.8574 100.735C15.8574 100.735 15.8574 100.46 15.8574 100C15.8574 99.5409 15.8574 98.9898 15.8574 98.3774C15.8574 97.7649 15.8574 97.2138 15.8574 96.7545C15.8574 96.2952 15.8574 96.3564 15.8574 96.2339V96.0502L18.9205 95.9277Z" fill="white"/>
<path opacity="0.7" d="M50.1428 39.8222L49.7446 40.0977L49.1013 40.5571L48.2437 41.1388C46.9878 42.0881 45.1806 43.4354 43.159 45.2113L42.7608 45.5482L42.3932 45.9156L41.5968 46.6505L39.9734 48.2121L38.3193 49.9268C37.7986 50.5392 37.2166 51.1517 36.6959 51.7947C35.5931 53.0807 34.4904 54.4586 33.449 55.8978C32.4075 57.3369 31.4273 58.8067 30.3859 60.3683C28.5587 63.3781 26.9811 66.5323 25.6687 69.7994C25.0255 71.361 24.4741 72.8614 24.0147 74.3618C23.8003 75.1273 23.5552 75.8316 23.3714 76.5358L23.0957 77.5463L22.82 78.5568C22.3021 80.6676 21.8932 82.8036 21.5948 84.9564C21.5831 85.1399 21.5831 85.324 21.5948 85.5076C21.5817 85.6706 21.5817 85.8345 21.5948 85.9975C21.5717 86.2521 21.5717 86.5084 21.5948 86.763V87.4366L18.5317 87.0998V86.4262C18.5317 86.2016 18.5317 85.926 18.5317 85.5994C18.5317 85.5994 18.5317 85.2932 18.5317 85.1095V84.5277C18.8382 82.2606 19.2676 80.0118 19.8182 77.7913L20.0939 76.7502L20.3696 75.6785C20.584 74.913 20.8291 74.1781 21.0435 73.4126C21.5642 71.8509 22.1155 70.3506 22.7894 68.6052C24.1589 65.1733 25.819 61.8644 27.7516 58.7148C28.7318 57.092 29.7733 55.4997 30.8147 53.9993C31.8562 52.4989 33.0508 50.9373 34.1841 49.7125L35.8994 47.7528C36.5121 47.1404 37.0634 46.528 37.6454 45.9768C38.2274 45.4257 38.7788 44.8439 39.3301 44.3233L40.1571 43.5578L40.5553 43.1904L40.9535 42.8229C43.0977 40.9551 44.9662 39.516 46.3139 38.5667L47.2022 37.9237L47.8761 37.4644L48.3049 37.1582L50.1428 39.8222Z" fill="white"/>
<path opacity="0.67" d="M60.9769 32.2065L60.3949 32.4515L59.813 32.6964L58.9553 33.0639C57.6994 33.5844 55.8922 34.3499 54.4219 35.1767C53.6255 35.5747 52.8291 36.034 52.094 36.4321L51.0525 37.0445C50.6849 37.2282 50.4093 37.4426 50.103 37.6263L48.7246 38.4836L48.2038 38.8205L46.4272 36.1565L46.9786 35.8197L48.4183 34.9011L49.3984 34.2887L50.5012 33.6456L52.9823 32.329C54.5159 31.5139 56.0903 30.778 57.6994 30.1243L58.5877 29.7263L59.2922 29.4507L59.9048 29.2363L60.9769 32.2065Z" fill="white"/>
<path opacity="0.65" d="M86.3086 27.9808H81.2545H80.2437L78.0689 28.1339C76.568 28.287 75.0058 28.4707 73.3517 28.7463C70.4286 29.2305 67.5424 29.916 64.7138 30.7979L61.957 31.7471L60.9156 32.1145L59.7822 29.0525L60.8543 28.6238L63.9174 27.644C66.9272 26.718 69.9977 26.0018 73.1067 25.5006C74.7914 25.225 76.4761 25.0107 78.0382 24.8576L80.3355 24.6738H81.377H86.6455L86.3086 27.9808Z" fill="white"/>
</svg>
