<svg width="177" height="177" viewBox="0 0 177 177" fill="none" xmlns="http://www.w3.org/2000/svg">
<path opacity="0.86" d="M164.303 81.7963C164.057 81.7963 163.812 81.2758 163.721 80.6021C163.629 79.9285 163.72 79.3161 164.027 79.2855C164.333 79.2548 164.548 79.7754 164.639 80.4797C164.731 81.1839 164.548 81.7657 164.303 81.7963Z" fill="white"/>
<path opacity="0.9" d="M164.639 86.2677C164.394 86.2677 164.149 85.7165 164.118 85.0429C164.088 84.3692 164.118 83.7568 164.486 83.7568C164.854 83.7568 164.976 84.2774 165.037 84.9817C165.099 85.6859 164.884 86.2677 164.639 86.2677Z" fill="white"/>
<path opacity="0.72" d="M164.7 90.7384C164.455 90.7384 164.241 90.1872 164.271 89.483C164.256 89.32 164.256 89.156 164.271 88.993C164.24 88.8622 164.24 88.7258 164.271 88.595C164.271 88.3806 164.455 88.2275 164.578 88.2275C164.7 88.2275 164.823 88.2275 164.915 88.595V88.993C164.915 88.993 164.915 89.2993 164.915 89.483C165.16 90.1872 164.976 90.7384 164.7 90.7384Z" fill="white"/>
<path opacity="0.8" d="M164.517 95.2091C164.517 95.2091 164.272 95.056 164.21 94.811C164.159 94.5173 164.159 94.2168 164.21 93.923C164.21 93.2494 164.486 92.6982 164.731 92.6982C164.976 92.6982 165.16 93.28 165.099 93.9843C165.095 94.2893 165.032 94.5907 164.915 94.8723C164.762 95.0866 164.639 95.2091 164.517 95.2091Z" fill="white"/>
<path opacity="0.83" d="M164.057 99.6485C163.812 99.6485 163.69 99.036 163.751 98.3624C163.812 97.6888 164.088 97.1376 164.333 97.1682C164.578 97.1988 164.731 97.7806 164.67 98.4543C164.609 99.1279 164.302 99.6791 164.057 99.6485Z" fill="white"/>
<path opacity="0.47" d="M163.353 104.057C163.108 104.057 162.985 103.414 163.108 102.741C163.108 102.741 163.108 102.435 163.108 102.281C163.098 102.159 163.098 102.036 163.108 101.914C163.108 101.7 163.383 101.577 163.506 101.577C163.628 101.577 163.72 101.761 163.751 102.006C163.768 102.148 163.768 102.292 163.751 102.435C163.779 102.586 163.779 102.742 163.751 102.894C163.873 103.598 163.598 104.119 163.353 104.057Z" fill="white"/>
<path opacity="0.71" d="M162.372 108.376C162.127 108.376 162.066 107.733 162.219 107.06C162.372 106.386 162.709 105.896 162.954 105.957C163.199 106.019 163.261 106.6 162.954 107.274C162.648 107.948 162.617 108.376 162.372 108.376Z" fill="white"/>
<path opacity="0.7" d="M161.117 112.724C160.872 112.724 160.872 112.051 161.117 111.377C161.362 110.703 161.668 110.244 161.913 110.305C162.158 110.367 162.189 110.979 161.913 111.653C161.638 112.326 161.362 112.786 161.117 112.724Z" fill="white"/>
<path opacity="0.5" d="M159.646 116.95C159.578 116.897 159.524 116.826 159.492 116.745C159.46 116.664 159.45 116.577 159.462 116.491C159.473 116.186 159.535 115.886 159.646 115.603C159.749 115.317 159.893 115.049 160.075 114.806C160.075 114.623 160.381 114.531 160.504 114.592C160.626 114.653 160.688 114.806 160.688 115.021C160.677 115.325 160.615 115.625 160.504 115.909C160.406 116.196 160.261 116.465 160.075 116.705C159.83 116.889 159.83 116.981 159.646 116.95Z" fill="white"/>
<path opacity="0.89" d="M157.931 121.052C157.686 121.052 157.747 120.378 157.931 119.735C158.115 119.092 158.574 118.664 158.819 118.756C159.064 118.847 159.034 119.46 158.819 120.103C158.605 120.746 158.146 121.175 157.931 121.052Z" fill="white"/>
<path opacity="0.51" d="M155.94 125.095C155.726 125.095 155.94 124.39 156.124 123.747C156.257 123.485 156.433 123.247 156.645 123.043C156.645 122.859 156.951 122.798 157.074 122.829C157.196 122.859 157.227 123.074 157.074 123.319C157.043 123.621 156.949 123.913 156.798 124.176C156.767 124.788 156.185 125.217 155.94 125.095Z" fill="white"/>
<path opacity="0.58" d="M153.704 128.982C153.704 128.982 153.704 128.737 153.704 128.523C153.69 128.391 153.69 128.257 153.704 128.125L153.918 127.666C154.286 127.084 154.745 126.686 154.96 126.808C155.174 126.931 154.96 127.513 154.715 128.125L154.439 128.554L154.163 128.829C154.041 128.982 153.857 129.044 153.704 128.982Z" fill="white"/>
<path opacity="0.83" d="M151.315 132.872C151.131 132.872 151.315 132.168 151.652 131.586C151.815 131.337 152.01 131.11 152.234 130.913C152.418 130.913 152.601 130.729 152.693 130.913C152.785 131.096 152.846 131.158 152.693 131.403C152.612 131.695 152.489 131.974 152.326 132.229C152.019 132.536 151.529 132.872 151.315 132.872Z" fill="white"/>
<path opacity="0.54" d="M148.681 136.393C148.497 136.393 148.681 135.658 149.079 135.107C149.477 134.556 149.998 134.219 150.182 134.372C150.366 134.525 150.182 135.107 149.814 135.658C149.447 136.209 148.895 136.546 148.681 136.393Z" fill="white"/>
<path opacity="0.47" d="M145.832 139.852C145.648 139.699 145.832 139.117 146.322 138.597C146.812 138.076 147.271 137.77 147.455 137.923C147.639 138.076 147.455 138.658 146.996 139.209C146.536 139.76 146.015 140.036 145.832 139.852Z" fill="white"/>
<path opacity="0.64" d="M142.799 143.159C142.799 143.159 142.799 142.884 142.799 142.67C142.926 142.402 143.091 142.155 143.289 141.935C143.495 141.703 143.745 141.516 144.025 141.383C144.239 141.383 144.392 141.23 144.484 141.383C144.576 141.537 144.484 141.659 144.484 141.873C144.356 142.148 144.18 142.397 143.963 142.608C143.762 142.831 143.524 143.018 143.259 143.159C143.188 143.197 143.109 143.217 143.029 143.217C142.949 143.217 142.87 143.197 142.799 143.159V143.159Z" fill="white"/>
<path opacity="0.46" d="M139.553 146.254C139.553 146.07 139.553 145.549 140.165 145.059C140.778 144.569 141.207 144.355 141.391 144.539C141.574 144.723 141.391 145.243 140.809 145.733C140.227 146.223 139.737 146.437 139.553 146.254Z" fill="white"/>
<path opacity="0.77" d="M136.183 149.193C136 148.979 136.183 148.458 136.857 148.029C137.531 147.601 137.929 147.356 138.082 147.57C138.236 147.785 138.082 148.274 137.439 148.734C136.796 149.193 136.336 149.377 136.183 149.193Z" fill="white"/>
<path opacity="0.8" d="M132.6 151.886C132.6 151.886 132.6 151.611 132.6 151.396L132.845 151.09L133.243 150.784C133.764 150.355 134.346 150.202 134.499 150.386C134.652 150.57 134.315 151.09 133.764 151.519L133.365 151.764L132.967 151.948C132.875 152.009 132.661 151.978 132.6 151.886Z" fill="white"/>
<path opacity="0.72" d="M128.893 154.306C128.893 154.092 129.108 153.632 129.689 153.265C129.939 153.09 130.22 152.965 130.516 152.897C130.731 152.897 130.915 152.897 130.976 152.897C131.037 152.897 130.976 153.142 130.976 153.357C130.8 153.598 130.582 153.805 130.333 153.969C129.628 154.459 129.199 154.582 128.893 154.306Z" fill="white"/>
<path opacity="0.9" d="M125.034 156.664C125.034 156.664 125.034 156.358 125.217 156.205C125.413 155.976 125.653 155.788 125.922 155.653C126.504 155.317 127.086 155.194 127.239 155.408C127.392 155.623 126.963 156.082 126.351 156.419C126.101 156.586 125.819 156.7 125.524 156.756C125.279 156.786 125.095 156.756 125.034 156.664Z" fill="white"/>
<path opacity="0.67" d="M121.052 158.685C121.052 158.471 121.389 158.042 122.001 157.736C122.614 157.429 123.196 157.338 123.318 157.583C123.441 157.828 123.012 158.226 122.4 158.562C121.787 158.899 121.174 158.899 121.052 158.685Z" fill="white"/>
<path opacity="0.68" d="M116.947 160.431C116.947 160.216 117.284 159.788 117.927 159.543C118.571 159.298 119.153 159.206 119.275 159.543C119.398 159.88 118.938 160.186 118.295 160.461C117.652 160.737 116.947 160.737 116.947 160.431Z" fill="white"/>
<path opacity="0.75" d="M112.781 162.052C112.781 161.807 113.179 161.44 113.823 161.195C114.466 160.95 115.079 160.981 115.17 161.195C115.262 161.409 114.772 161.807 114.129 162.022C113.486 162.236 112.873 162.297 112.781 162.052Z" fill="white"/>
<path opacity="0.8" d="M108.523 163.492C108.523 163.247 108.922 162.91 109.596 162.727C110.269 162.543 110.851 162.543 110.913 162.727C110.974 162.91 110.514 163.308 109.841 163.523C109.167 163.737 108.585 163.492 108.523 163.492Z" fill="white"/>
<path opacity="0.87" d="M104.174 164.442C104.174 164.197 104.603 163.86 105.277 163.707C105.95 163.554 106.563 163.707 106.624 163.86C106.686 164.013 106.165 164.442 105.491 164.595C104.817 164.748 104.204 164.687 104.174 164.442Z" fill="white"/>
<path opacity="0.85" d="M99.7324 165.238C99.7324 165.238 99.7324 164.993 100.069 164.87C100.328 164.733 100.607 164.639 100.896 164.595C101.601 164.595 102.183 164.595 102.244 164.809C102.305 165.023 101.754 165.36 101.05 165.483C100.755 165.526 100.456 165.526 100.161 165.483C99.9162 165.452 99.7631 165.36 99.7324 165.238Z" fill="white"/>
<path opacity="0.75" d="M95.291 165.79C95.291 165.545 95.7811 165.3 96.4856 165.208C97.1901 165.116 97.7415 165.208 97.8027 165.514C97.864 165.82 97.282 166.035 96.5775 166.126C95.873 166.218 95.291 166.035 95.291 165.79Z" fill="white"/>
<path opacity="0.82" d="M90.7881 166.095C90.7881 165.85 91.3394 165.605 92.0133 165.574C92.3185 165.538 92.627 165.538 92.9323 165.574C93.1467 165.574 93.2998 165.727 93.2998 165.85C93.2998 165.972 93.2998 166.125 92.9629 166.217C92.6822 166.338 92.38 166.4 92.0746 166.401C91.3701 166.554 90.8187 166.34 90.7881 166.095Z" fill="white"/>
<path opacity="0.49" d="M86.3159 166.126C86.3159 166.126 86.3159 165.911 86.6835 165.819C86.9774 165.769 87.2779 165.769 87.5718 165.819C87.8666 165.781 88.1652 165.781 88.4601 165.819C88.7051 165.819 88.8276 166.034 88.8276 166.156C88.8276 166.279 88.8276 166.371 88.4601 166.493C88.1663 166.545 87.8656 166.545 87.5718 166.493C87.2781 166.546 86.9772 166.546 86.6835 166.493C86.3159 166.371 86.3159 166.248 86.3159 166.126Z" fill="white"/>
<path opacity="0.54" d="M81.8442 165.911C81.8816 165.832 81.9372 165.764 82.0064 165.71C82.0757 165.657 82.1565 165.621 82.2424 165.605C82.5365 165.556 82.8367 165.556 83.1307 165.605C83.8352 165.605 84.356 165.881 84.356 166.126C84.356 166.371 83.774 166.554 83.0695 166.524C82.772 166.511 82.4803 166.438 82.2118 166.309C81.9668 166.156 81.8442 166.034 81.8442 165.911Z" fill="white"/>
<path opacity="0.6" d="M77.4027 165.421C77.4027 165.176 78.0153 165.054 78.6892 165.146C78.9943 165.172 79.2938 165.245 79.5775 165.36C79.7919 165.36 79.9144 165.605 79.9144 165.728C79.9144 165.85 79.7306 165.942 79.4856 166.003C79.1929 166.067 78.8899 166.067 78.5973 166.003C77.8928 165.942 77.372 165.666 77.4027 165.421Z" fill="white"/>
<path opacity="0.82" d="M72.9917 164.687C72.9917 164.687 73.1755 164.472 73.4205 164.442C73.7151 164.398 74.0143 164.398 74.3088 164.442C74.6076 164.487 74.8972 164.58 75.1665 164.717C75.3809 164.717 75.5034 164.962 75.4728 165.115C75.4422 165.268 75.289 165.299 75.044 165.36C74.7494 165.403 74.4502 165.403 74.1557 165.36C73.8549 165.306 73.5652 165.202 73.298 165.054C73.0836 164.931 72.9917 164.809 72.9917 164.687Z" fill="white"/>
<path opacity="0.72" d="M68.6422 163.675C68.6422 163.43 69.3161 163.369 69.9593 163.675C70.6026 163.981 71.1539 164.165 71.0926 164.41C71.0314 164.655 70.4494 164.747 69.7449 164.41C69.0404 164.073 68.5809 163.92 68.6422 163.675Z" fill="white"/>
<path opacity="0.5" d="M64.3536 162.421C64.3536 162.176 65.0275 162.145 65.7014 162.421C66.3752 162.697 66.8347 162.972 66.7735 163.217C66.7122 163.462 66.0996 163.493 65.4257 163.217C64.7518 162.942 64.2924 162.666 64.3536 162.421Z" fill="white"/>
<path opacity="0.68" d="M60.1576 160.888C60.1576 160.888 60.372 160.735 60.617 160.735H61.0152H61.4747C62.118 160.98 62.5774 161.348 62.5162 161.593C62.4549 161.838 61.8116 161.838 61.1684 161.593L60.7089 161.378L60.372 161.164C60.1882 161.164 60.0963 161.011 60.1576 160.888Z" fill="white"/>
<path opacity="0.65" d="M56.022 159.145C56.022 158.93 56.7265 158.961 57.3697 159.145C58.013 159.328 58.4418 159.849 58.3193 160.063C58.1968 160.278 57.6148 160.278 57.0022 160.063C56.3896 159.849 55.9301 159.39 56.022 159.145Z" fill="white"/>
<path opacity="0.85" d="M52.0096 157.154C52.0829 157.108 52.1679 157.083 52.2546 157.083C52.3413 157.083 52.4263 157.108 52.4997 157.154C52.7899 157.194 53.0703 157.288 53.3267 157.429C53.9393 157.736 54.3681 158.164 54.2456 158.409C54.1231 158.654 53.5411 158.409 52.9285 158.225C52.6526 158.1 52.4032 157.924 52.1934 157.705C52.1144 157.639 52.0554 157.553 52.0229 157.456C51.9904 157.358 51.9858 157.254 52.0096 157.154Z" fill="white"/>
<path opacity="0.51" d="M48.1192 154.948C48.1192 154.703 48.8543 154.948 49.4363 155.193C50.0183 155.438 50.4165 155.989 50.294 156.204C50.1714 156.418 49.5895 156.204 48.9768 155.989C48.3642 155.775 47.9967 155.162 48.1192 154.948Z" fill="white"/>
<path opacity="0.65" d="M44.3827 152.5C44.3827 152.285 45.0872 152.5 45.6692 152.806C45.9135 152.987 46.1392 153.192 46.343 153.418C46.343 153.602 46.5268 153.786 46.343 153.878C46.1592 153.969 46.098 153.878 45.8529 153.878C45.5602 153.784 45.2819 153.65 45.0259 153.48C44.5664 153.173 44.2295 152.714 44.3827 152.5Z" fill="white"/>
<path opacity="0.78" d="M40.7683 149.836C40.9215 149.621 41.4728 149.836 42.0242 150.234C42.5755 150.632 42.9125 151.152 42.7593 151.336C42.6062 151.52 42.0548 151.336 41.4728 150.969C40.8908 150.601 40.6152 150.019 40.7683 149.836Z" fill="white"/>
<path opacity="0.66" d="M37.3066 146.958C37.3066 146.774 38.0418 146.958 38.5625 147.448C38.7906 147.64 38.987 147.867 39.1445 148.121C39.1848 148.191 39.206 148.27 39.206 148.351C39.206 148.431 39.1848 148.511 39.1445 148.58C39.1445 148.58 38.8688 148.58 38.6544 148.58C38.3671 148.474 38.1059 148.307 37.8886 148.091C37.3066 147.662 37.3066 147.141 37.3066 146.958Z" fill="white"/>
<path opacity="0.76" d="M34.0291 143.896C34.0291 143.896 34.3048 143.896 34.5192 143.896L34.8868 144.11L35.2544 144.416C35.7444 144.906 36.0201 145.427 35.8363 145.61C35.6525 145.794 35.1318 145.61 34.6111 145.059L34.2742 144.722L34.0598 144.355C33.9679 144.171 33.9372 143.987 34.0291 143.896Z" fill="white"/>
<path opacity="0.77" d="M30.9354 140.649C31.1192 140.649 31.6705 140.649 32.13 141.262C32.3196 141.495 32.4936 141.741 32.6507 141.997C32.6507 142.242 32.6507 142.395 32.6507 142.487C32.6507 142.578 32.3751 142.487 32.1606 142.487C31.8957 142.332 31.6577 142.136 31.4561 141.905C30.9967 141.384 30.7516 140.803 30.9354 140.649Z" fill="white"/>
<path opacity="0.81" d="M28.1176 137.221C28.1874 137.18 28.2666 137.159 28.3473 137.159C28.4279 137.159 28.5072 137.18 28.577 137.221C28.838 137.381 29.0665 137.589 29.2509 137.833C29.7104 138.354 29.8941 138.935 29.7103 139.089C29.5266 139.242 29.0058 138.935 28.5464 138.415C28.3619 138.18 28.2075 137.923 28.0869 137.649C28.1175 137.496 28.1176 137.313 28.1176 137.221Z" fill="white"/>
<path opacity="0.43" d="M25.3605 133.669C25.5749 133.669 26.065 133.853 26.4632 134.404C26.8614 134.955 27.0452 135.537 26.8614 135.69C26.6776 135.843 26.1569 135.506 25.7281 134.955C25.2992 134.404 25.0542 133.791 25.3605 133.669Z" fill="white"/>
<path opacity="0.57" d="M22.8794 129.81C23.0938 129.81 23.5839 130.055 23.9515 130.606C24.1082 130.865 24.2317 131.143 24.3191 131.432C24.3191 131.677 24.3191 131.831 24.3191 131.922C24.3191 132.014 24.0434 131.922 23.829 131.922C23.6055 131.725 23.4097 131.498 23.247 131.249C22.8182 130.636 22.665 130.055 22.8794 129.81Z" fill="white"/>
<path opacity="0.84" d="M20.6434 126.073C20.6434 126.073 20.9191 126.073 21.1029 126.073C21.3159 126.284 21.5011 126.52 21.6542 126.778C21.9912 127.39 22.0831 127.972 21.8687 128.094C21.6542 128.217 21.1948 127.849 20.8578 127.237C20.698 126.975 20.5937 126.683 20.5515 126.379C20.5209 126.318 20.5515 126.134 20.6434 126.073Z" fill="white"/>
<path opacity="0.48" d="M18.6217 122.093C18.8667 122.093 19.2956 122.399 19.5712 123.011C19.7095 123.28 19.8027 123.57 19.8469 123.869C19.8469 124.114 19.8469 124.267 19.8469 124.328C19.8469 124.328 19.5406 124.328 19.3875 124.144C19.1526 123.949 18.973 123.696 18.8667 123.409C18.4685 122.797 18.4073 122.185 18.6217 122.093Z" fill="white"/>
<path opacity="0.89" d="M16.8453 117.991C16.8453 117.991 17.121 117.991 17.2741 118.206C17.4747 118.435 17.6398 118.693 17.7642 118.971C18.0399 119.614 18.0399 120.196 17.7642 120.288C17.4885 120.38 17.121 119.982 16.8453 119.308C16.7237 119.037 16.6511 118.747 16.6309 118.451C16.6921 118.206 16.7534 118.022 16.8453 117.991Z" fill="white"/>
<path opacity="0.72" d="M15.3138 113.796C15.5589 113.796 15.9264 114.163 16.1409 114.837C16.3553 115.511 16.3859 116.062 16.1409 116.154C15.8958 116.246 15.5282 115.786 15.2832 115.143C15.0381 114.5 15.0994 113.857 15.3138 113.796Z" fill="white"/>
<path opacity="0.6" d="M14.0271 109.509C14.2722 109.509 14.6091 109.937 14.8235 110.581V111.07C14.839 111.203 14.839 111.336 14.8235 111.468C14.8235 111.713 14.7623 111.867 14.6397 111.928C14.6397 111.928 14.3641 111.928 14.2109 111.652L14.0884 111.438V110.979C13.7514 110.182 13.7821 109.57 14.0271 109.509Z" fill="white"/>
<path opacity="0.72" d="M12.9855 105.313C12.9855 105.313 13.2612 105.313 13.3838 105.589C13.5304 105.849 13.6436 106.127 13.7207 106.416C13.7207 107.089 13.7207 107.702 13.5369 107.763C13.3531 107.824 12.9856 107.304 12.8324 106.63C12.7928 106.335 12.7928 106.037 12.8324 105.742C12.8018 105.313 12.8018 105.313 12.9855 105.313Z" fill="white"/>
<path opacity="0.61" d="M12.2198 100.72C12.2198 100.72 12.4955 100.72 12.5874 101.026C12.7247 101.295 12.8177 101.585 12.863 101.883C12.863 102.588 12.8631 103.169 12.618 103.2C12.373 103.231 12.0973 102.741 11.9441 102.036C11.9132 101.741 11.9132 101.444 11.9441 101.148C12.0054 100.903 12.0973 100.75 12.2198 100.72Z" fill="white"/>
<path opacity="0.73" d="M11.6991 96.1279C11.9441 96.1279 12.1892 96.6485 12.2504 97.3527C12.2812 97.6479 12.2812 97.9455 12.2504 98.2407C12.2504 98.4551 12.2504 98.6082 11.9441 98.6388C11.6378 98.6694 11.6991 98.6388 11.5766 98.302C11.464 98.028 11.3918 97.7393 11.3621 97.4446C11.3009 96.8628 11.454 96.281 11.6991 96.1279Z" fill="white"/>
<path opacity="0.73" d="M11.4238 91.7803C11.6688 91.7803 11.9139 92.3314 11.9445 93.0051C12 93.2985 12 93.5997 11.9445 93.8931C11.9445 94.138 11.7913 94.2911 11.6688 94.2911C11.5463 94.2911 11.3931 94.2911 11.3319 93.9237C11.1999 93.6577 11.1367 93.363 11.1481 93.0663C10.9949 92.3621 11.1481 91.7803 11.4238 91.7803Z" fill="white"/>
<path opacity="0.85" d="M11.4234 87.3096C11.4234 87.3096 11.6378 87.3096 11.7297 87.677V88.0751C11.7297 88.2282 11.7297 88.3813 11.7297 88.565C11.7297 89.2386 11.5153 89.8204 11.2702 89.8204C11.0252 89.8204 10.8108 89.2386 10.8108 88.565C10.8108 88.3813 10.8108 88.1976 10.8108 88.0445C10.7975 87.9121 10.7975 87.7787 10.8108 87.6464C11.1783 87.4321 11.3009 87.3096 11.4234 87.3096Z" fill="white"/>
<path opacity="0.57" d="M11.6687 82.8381C11.9138 82.8381 12.067 83.4199 12.0363 84.1242C12.0057 84.8285 11.7606 85.349 11.485 85.349C11.2093 85.349 11.0868 84.7672 11.1174 84.0629C11.148 83.3587 11.4237 82.8075 11.6687 82.8381Z" fill="white"/>
<path opacity="0.66" d="M12.1894 78.3987C12.4345 78.3987 12.557 79.0112 12.4651 79.6848C12.4333 79.9826 12.3504 80.2726 12.22 80.5422C12.22 80.7565 11.975 80.9096 11.8525 80.879C11.7299 80.8484 11.638 80.7259 11.5768 80.4809C11.5148 80.1882 11.5148 79.8857 11.5768 79.5929C11.638 78.8887 11.9137 78.3681 12.1894 78.3987Z" fill="white"/>
<path opacity="0.51" d="M12.955 73.9893C12.955 73.9893 13.1694 74.2036 13.2 74.4179C13.2431 74.7124 13.2431 75.0115 13.2 75.3059C13.2 75.9796 12.7712 76.5001 12.5261 76.4695C12.2811 76.4389 12.1585 75.8265 12.3117 75.1528C12.3427 74.8509 12.4366 74.5589 12.5874 74.2955C12.8018 74.0811 12.8018 73.9893 12.955 73.9893Z" fill="white"/>
<path opacity="0.87" d="M13.9967 69.6409C14.2418 69.6409 14.3031 70.3146 13.9967 70.9882C13.9197 71.2769 13.8065 71.5546 13.6598 71.815C13.6598 71.9987 13.3841 72.1212 13.2616 72.0905C13.1391 72.0599 13.0472 71.9068 13.0472 71.6618C12.9732 71.3601 12.9732 71.045 13.0472 70.7432C13.4148 70.0696 13.7517 69.5797 13.9967 69.6409Z" fill="white"/>
<path opacity="0.87" d="M15.283 65.5073C15.283 65.5073 15.4668 65.691 15.4668 65.9359C15.5057 66.2307 15.5057 66.5292 15.4668 66.8239C15.2524 67.4976 14.8848 67.9569 14.6398 67.8956C14.3947 67.8344 14.3641 67.222 14.6398 66.5483C14.7285 66.2631 14.863 65.9943 15.038 65.7522C15.0074 65.5073 15.1605 65.3235 15.283 65.5073Z" fill="white"/>
<path opacity="0.66" d="M16.8149 61.1898C17.0599 61.1898 17.0293 61.8634 16.8149 62.5065C16.6005 63.1495 16.2023 63.6088 15.9572 63.5169C15.7122 63.4251 15.7122 62.8433 15.9572 62.1696C16.2023 61.496 16.6005 61.0673 16.8149 61.1898Z" fill="white"/>
<path opacity="0.6" d="M18.591 57.0563C18.8054 57.0563 18.7748 57.7606 18.591 58.4036C18.464 58.671 18.2989 58.9185 18.1009 59.1385C18.1009 59.3222 17.764 59.4141 17.6721 59.3528C17.5802 59.2916 17.4883 59.1385 17.4883 58.8935C17.5351 58.5989 17.6174 58.3111 17.7333 58.0362C17.9478 57.3931 18.3459 56.9645 18.591 57.0563Z" fill="white"/>
<path opacity="0.82" d="M20.6128 53.0747C20.6128 53.0747 20.6128 53.3197 20.6128 53.534C20.554 53.8335 20.4507 54.1225 20.3064 54.3914C20.0001 55.0038 19.5713 55.4019 19.3262 55.31C19.0812 55.2181 19.3263 54.6057 19.51 53.9627C19.6829 53.6931 19.9004 53.4549 20.1533 53.2584C20.3371 53.0747 20.5209 53.0135 20.6128 53.0747Z" fill="white"/>
<path opacity="0.86" d="M22.8798 49.1862C23.0636 49.1862 22.8798 49.9211 22.6041 50.5029L22.3284 50.901L22.0527 51.2072C21.8689 51.3603 21.6852 51.4215 21.5933 51.3603C21.5014 51.299 21.4401 51.1153 21.5933 50.8703C21.584 50.7378 21.584 50.6048 21.5933 50.4723C21.7185 50.3701 21.8517 50.2779 21.9915 50.1967C22.1753 49.4312 22.6654 49.0638 22.8798 49.1862Z" fill="white"/>
<path opacity="0.61" d="M25.3302 45.4505C25.3302 45.4505 25.3302 45.6954 25.3302 45.9404C25.2369 46.2237 25.1028 46.492 24.932 46.7365C24.5644 47.3183 24.0743 47.6551 23.8599 47.5326C23.6455 47.4102 23.8599 46.8284 24.1968 46.2466C24.3434 45.9757 24.5536 45.7445 24.8095 45.5729C25.0545 45.4198 25.2383 45.3892 25.3302 45.4505Z" fill="white"/>
<path opacity="0.57" d="M28.1172 41.8684C28.301 41.8684 28.1172 42.5727 27.719 43.1239C27.3208 43.675 26.8001 44.0118 26.5857 43.8587C26.3713 43.7056 26.5857 43.1239 26.9839 42.5727C27.3821 42.0215 27.8416 41.7153 28.1172 41.8684Z" fill="white"/>
<path opacity="0.66" d="M30.9048 38.4392C30.9048 38.4392 30.9048 38.6841 30.9048 38.9291C30.7901 39.196 30.6351 39.4439 30.4454 39.664C29.9859 40.1845 29.4651 40.4907 29.2814 40.3376C29.0976 40.1845 29.2814 39.6027 29.7408 39.0822C29.9236 38.8445 30.1529 38.6465 30.4147 38.5004C30.6291 38.3779 30.8129 38.3473 30.9048 38.4392Z" fill="white"/>
<path opacity="0.64" d="M33.9985 35.163C34.1823 35.3468 33.9985 35.8979 33.4471 36.3878C32.8958 36.8778 32.4363 37.1533 32.2525 36.9696C32.0687 36.7859 32.2525 36.2654 32.7732 35.7448C33.294 35.2243 33.8147 34.8875 33.9985 35.163Z" fill="white"/>
<path opacity="0.5" d="M37.3068 32.1026C37.4599 32.2863 37.3068 32.8374 36.6635 33.2967C36.4435 33.4947 36.1959 33.6597 35.9284 33.7867C35.714 33.7867 35.5302 33.7867 35.4383 33.7867C35.3464 33.7867 35.4383 33.5111 35.4383 33.2967C35.5801 33.0319 35.7666 32.7937 35.9897 32.5925C36.541 32.1332 37.0924 31.827 37.3068 32.1026Z" fill="white"/>
<path opacity="0.58" d="M40.7067 29.254C40.7067 29.4377 40.7067 29.9277 40.0022 30.387C39.2977 30.8463 38.8995 30.9994 38.7464 30.8156C38.5932 30.6319 38.7464 30.1114 39.4202 29.6827C40.0941 29.254 40.5536 29.0397 40.7067 29.254Z" fill="white"/>
<path opacity="0.48" d="M44.2906 26.5589C44.2906 26.7732 44.1068 27.2631 43.5554 27.6612L43.1266 27.9368L42.759 28.0899C42.514 28.0899 42.3302 28.0899 42.2689 28.0899C42.2077 28.0899 42.2689 27.7837 42.2689 27.6C42.342 27.4735 42.435 27.3597 42.5446 27.2631C42.6539 27.1462 42.7774 27.0434 42.9122 26.9569C43.5861 26.5282 44.1374 26.3752 44.2906 26.5589Z" fill="white"/>
<path opacity="0.62" d="M48.0274 24.1406C48.0274 24.355 47.7823 24.8143 47.231 25.1817C46.6796 25.5492 46.067 25.6716 45.9138 25.4573C45.7607 25.243 46.1589 24.7837 46.7409 24.4162C47.3229 24.0488 47.9048 23.9263 48.0274 24.1406Z" fill="white"/>
<path opacity="0.57" d="M51.9178 21.9044C51.9178 22.1187 51.6421 22.578 51.0295 22.9148C50.4169 23.2517 49.8655 23.3435 49.7124 23.1292C49.5592 22.9148 49.988 22.4555 50.6006 22.1187C51.2132 21.7819 51.7952 21.69 51.9178 21.9044Z" fill="white"/>
<path opacity="0.76" d="M55.9303 19.9142C55.9303 19.9142 55.9303 20.1898 55.7159 20.3735C55.4958 20.5715 55.2482 20.7365 54.9807 20.8634C54.7119 21.0017 54.4221 21.0948 54.1231 21.139C53.9086 21.139 53.7249 21.139 53.6636 21.139C53.6023 21.139 53.6636 20.8328 53.8474 20.6797C54.0572 20.4612 54.3067 20.2845 54.5825 20.1592C54.8484 20.0192 55.1404 19.9357 55.4402 19.9142C55.6852 19.7611 55.869 19.7917 55.9303 19.9142Z" fill="white"/>
<path opacity="0.58" d="M60.0346 18.1694C60.0346 18.1694 60.0346 18.445 59.8202 18.5981C59.5752 18.7842 59.3076 18.9385 59.0238 19.0574C58.4112 19.333 57.7986 19.333 57.7067 19.0574C57.6148 18.7818 58.0437 18.4144 58.6869 18.1388C58.9705 18.0278 59.2708 17.9657 59.5752 17.9551C59.8202 17.9857 59.9734 18.0469 60.0346 18.1694Z" fill="white"/>
<path opacity="0.86" d="M64.2314 16.6698C64.2314 16.9147 63.8639 17.2822 63.19 17.4965C62.9112 17.5816 62.6233 17.633 62.3323 17.6496C62.0873 17.6496 61.9035 17.6496 61.8729 17.4659C61.8422 17.2822 61.8729 17.2209 62.0873 17.0372C62.3372 16.8566 62.6172 16.7218 62.9143 16.6391C63.5576 16.5167 64.1702 16.5167 64.2314 16.6698Z" fill="white"/>
<path opacity="0.52" d="M68.5501 15.4134C68.5501 15.4134 68.5501 15.6584 68.2438 15.8115C67.9994 15.9752 67.7306 16.0992 67.4474 16.1789C67.1539 16.2351 66.8525 16.2351 66.5591 16.1789C66.314 16.1789 66.1609 16.1177 66.0996 15.9952C66.0996 15.9952 66.0996 15.7196 66.3753 15.5665C66.6312 15.4037 66.91 15.2799 67.2023 15.199C67.4971 15.1602 67.7958 15.1602 68.0906 15.199C68.1788 15.1954 68.2665 15.213 68.3464 15.2503C68.4264 15.2876 68.4962 15.3435 68.5501 15.4134V15.4134Z" fill="white"/>
<path opacity="0.42" d="M72.9 14.4028C72.9 14.4028 72.9 14.6478 72.5937 14.8009C72.3342 14.9423 72.0556 15.0454 71.7666 15.1071C71.0927 15.2602 70.5108 15.1071 70.4495 14.9234C70.3882 14.7397 70.8783 14.3722 71.5829 14.2191C71.8761 14.1613 72.1779 14.1613 72.4711 14.2191C72.7162 14.1885 72.8693 14.2803 72.9 14.4028Z" fill="white"/>
<path opacity="0.51" d="M77.3411 13.6378C77.3411 13.8827 76.851 14.1889 76.1465 14.2808C75.442 14.3727 74.8906 14.2808 74.8294 14.0358C74.7681 13.7909 75.3195 13.4847 76.024 13.3622C76.7285 13.2397 77.3105 13.4541 77.3411 13.6378Z" fill="white"/>
<path opacity="0.53" d="M81.8135 13.1469C81.8135 13.3919 81.2928 13.6368 80.5882 13.6981C80.2941 13.7455 79.9941 13.7455 79.7 13.6981C79.4549 13.6981 79.3018 13.545 79.3018 13.4225C79.3018 13.3 79.3018 13.1775 79.6387 13.0551C79.9072 12.9265 80.1989 12.8536 80.4964 12.8407C81.2009 12.7488 81.7829 12.8713 81.8135 13.1469Z" fill="white"/>
<path opacity="0.57" d="M86.3161 12.9023C86.3161 13.1473 85.7648 13.3616 85.0909 13.3922C84.417 13.4229 83.835 13.2391 83.8044 12.9942C83.7737 12.7492 84.3557 12.5042 85.0296 12.4736C85.7035 12.443 86.3161 12.6573 86.3161 12.9023Z" fill="white"/>
<path opacity="0.63" d="M90.7578 12.9327C90.7578 13.1776 90.2065 13.3613 89.502 13.3307C88.7975 13.3001 88.2461 13.1164 88.2461 12.8714C88.2461 12.6264 88.8281 12.4121 89.5326 12.4121C90.2371 12.4121 90.7885 12.6571 90.7578 12.9327Z" fill="white"/>
<path opacity="0.55" d="M95.2295 13.2095C95.2295 13.4545 94.6169 13.6076 93.943 13.5464C93.2691 13.4851 92.7178 13.2708 92.7178 13.0258C92.7178 12.7809 93.3304 12.5665 94.0043 12.6278C94.6782 12.689 95.2602 12.934 95.2295 13.2095Z" fill="white"/>
<path opacity="0.85" d="M99.6709 13.7288C99.6709 14.0044 99.0583 14.0963 98.3538 14.0044C97.6493 13.9126 97.1592 13.637 97.1898 13.392C97.2205 13.1471 97.8024 13.0246 98.4763 13.1164C99.1502 13.2083 99.7016 13.4533 99.6709 13.7288Z" fill="white"/>
<path opacity="0.43" d="M104.052 14.5571C104.052 14.8021 103.408 14.8939 102.734 14.7408C102.061 14.5877 101.54 14.3122 101.601 14.0672C101.662 13.8222 102.244 13.7304 102.918 13.8528C103.592 13.9753 104.113 14.3122 104.052 14.5571Z" fill="white"/>
<path opacity="0.86" d="M108.401 15.597C108.401 15.842 107.727 15.9032 107.084 15.597C106.793 15.5258 106.515 15.4123 106.257 15.2602C106.043 15.2602 105.951 14.9846 105.981 14.8621C106.012 14.7397 106.165 14.6478 106.41 14.6172H107.298C107.972 15.0153 108.462 15.3521 108.401 15.597Z" fill="white"/>
<path opacity="0.6" d="M112.659 16.9146C112.659 16.9146 112.475 17.0983 112.23 17.0983C111.936 17.1524 111.635 17.1524 111.342 17.0983C110.668 16.884 110.208 16.5165 110.27 16.2715C110.331 16.0266 110.943 15.996 111.617 16.2715C111.903 16.3602 112.172 16.4947 112.414 16.6696C112.628 16.5165 112.72 16.7921 112.659 16.9146Z" fill="white"/>
<path opacity="0.56" d="M116.947 18.4747C116.947 18.7196 116.273 18.689 115.63 18.4747C115.478 18.4219 115.334 18.3499 115.201 18.2603L114.833 18.046C114.649 18.046 114.588 17.7398 114.619 17.6173C114.649 17.4948 114.833 17.4336 115.078 17.4336H115.477L115.967 17.5867C116.518 17.8623 116.947 18.2603 116.947 18.4747Z" fill="white"/>
<path opacity="0.78" d="M120.959 20.2813C120.959 20.5263 120.255 20.4344 119.642 20.2813C119.03 20.1282 118.57 19.6077 118.662 19.3627C118.754 19.1178 119.367 19.179 120.01 19.3627C120.653 19.5465 121.051 20.067 120.959 20.2813Z" fill="white"/>
<path opacity="0.89" d="M124.941 22.3334C124.941 22.5478 124.237 22.3334 123.624 22.1497C123.012 21.966 122.613 21.3842 122.736 21.1699C122.859 20.9555 123.441 21.0168 124.053 21.323C124.666 21.6292 125.064 22.1191 124.941 22.3334Z" fill="white"/>
<path opacity="0.65" d="M128.801 24.6004C128.801 24.6004 128.556 24.6004 128.342 24.6004C128.048 24.5243 127.768 24.4001 127.515 24.2329C127.246 24.0978 127.006 23.9105 126.81 23.6818C126.657 23.498 126.596 23.3143 126.657 23.2225C126.719 23.1306 126.902 23.2225 127.147 23.2225C127.443 23.278 127.724 23.3926 127.974 23.5593C128.239 23.7141 128.477 23.9105 128.679 24.1411C128.832 24.3248 128.863 24.5085 128.801 24.6004Z" fill="white"/>
<path opacity="0.74" d="M132.538 27.111C132.385 27.2948 131.803 27.111 131.252 26.7436C130.7 26.3762 130.333 25.8862 130.455 25.6719C130.578 25.4575 131.19 25.6719 131.772 26.0087C132.354 26.3455 132.691 26.8967 132.538 27.111Z" fill="white"/>
<path opacity="0.68" d="M136.122 29.8056C136.122 29.9894 135.387 29.8056 134.836 29.4076C134.284 29.0095 133.978 28.4583 134.131 28.2746C134.284 28.0909 134.866 28.2746 135.418 28.6727C135.969 29.0707 136.275 29.6219 136.122 29.8056Z" fill="white"/>
<path opacity="0.72" d="M139.522 32.7136C139.522 32.7136 139.246 32.7136 139.032 32.7136C138.765 32.5867 138.517 32.4216 138.297 32.2237C137.746 31.7644 137.47 31.2438 137.623 31.0601C137.776 30.8764 138.358 31.0601 138.879 31.55C139.115 31.7345 139.313 31.9633 139.461 32.2237C139.583 32.438 139.614 32.6218 139.522 32.7136Z" fill="white"/>
<path opacity="0.7" d="M142.769 35.8363C142.585 35.9894 142.034 35.8363 141.544 35.2546L141.238 34.8871C141.151 34.7849 141.079 34.6716 141.023 34.5503C141.023 34.3359 140.87 34.1522 141.023 34.0604C141.176 33.9685 141.299 34.0604 141.513 34.0604C141.647 34.0966 141.772 34.159 141.881 34.2441L142.248 34.5809C142.677 35.1014 142.953 35.6526 142.769 35.8363Z" fill="white"/>
<path opacity="0.81" d="M145.801 39.1128C145.801 39.1128 145.526 39.1128 145.311 39.1128C145.07 38.9394 144.844 38.7447 144.637 38.531C144.178 38.0411 143.933 37.4593 144.117 37.3062C144.3 37.1531 144.852 37.3062 145.311 37.9186C145.521 38.141 145.687 38.4006 145.801 38.6841C145.893 38.8372 145.893 39.0209 145.801 39.1128Z" fill="white"/>
<path opacity="0.89" d="M148.65 42.5737C148.466 42.5737 147.946 42.39 147.517 41.8694C147.088 41.3489 146.874 40.7671 147.088 40.614C147.302 40.4609 147.793 40.614 148.221 41.2877C148.65 41.9613 148.865 42.4206 148.65 42.5737Z" fill="white"/>
<path opacity="0.41" d="M151.284 46.1858C151.284 46.1858 151.009 46.1858 150.825 46.1858C150.59 46.0023 150.384 45.7857 150.212 45.5428C150.037 45.301 149.902 45.032 149.814 44.7466C149.814 44.5017 149.814 44.318 149.814 44.2567C149.814 44.1955 150.09 44.2567 150.304 44.2567C150.53 44.4488 150.736 44.6643 150.917 44.8997C151.099 45.1485 151.234 45.4288 151.315 45.7265C151.407 45.9102 151.407 46.0939 151.284 46.1858Z" fill="white"/>
<path opacity="0.79" d="M153.704 49.922C153.49 50.0751 153.03 49.677 152.693 49.0953C152.356 48.5135 152.173 47.9317 152.387 47.8092C152.601 47.6867 153.061 48.0236 153.459 48.6053C153.857 49.1871 153.919 49.7995 153.704 49.922Z" fill="white"/>
<path opacity="0.44" d="M155.909 53.811C155.695 53.811 155.236 53.5355 154.929 52.9231C154.623 52.3107 154.5 51.7595 154.715 51.6064C154.929 51.4533 155.389 51.882 155.726 52.4944C156.063 53.1068 156.154 53.6886 155.909 53.811Z" fill="white"/>
<path opacity="0.87" d="M157.87 57.821C157.87 57.821 157.594 57.821 157.441 57.6373C157.342 57.5384 157.26 57.4247 157.196 57.3004L156.951 56.9024C156.645 56.2593 156.583 55.6776 156.798 55.5551C157.012 55.4326 157.472 55.8613 157.778 56.5043C157.791 56.6571 157.791 56.8108 157.778 56.9636C157.806 57.0948 157.806 57.2305 157.778 57.3617C158.054 57.6066 157.992 57.7904 157.87 57.821Z" fill="white"/>
<path opacity="0.58" d="M159.585 61.9557C159.371 61.9557 158.972 61.5883 158.727 60.9452C158.482 60.3022 158.421 59.7204 158.727 59.6286C159.034 59.5367 159.371 59.9654 159.616 60.6084C159.861 61.2515 159.83 61.8639 159.585 61.9557Z" fill="white"/>
<path opacity="0.8" d="M161.086 66.1498C160.841 66.1498 160.473 65.7823 160.259 65.1087C160.208 64.8252 160.208 64.5348 160.259 64.2513C160.259 64.0064 160.259 63.8226 160.443 63.792C160.627 63.7614 160.718 63.792 160.872 64.037C161.047 64.279 161.181 64.5479 161.27 64.8331C161.331 65.5068 161.331 66.0885 161.086 66.1498Z" fill="white"/>
<path opacity="0.82" d="M162.311 70.4681C162.311 70.4681 162.036 70.4681 161.913 70.1925C161.84 70.0765 161.778 69.9534 161.729 69.8251C161.657 69.6764 161.596 69.523 161.546 69.3658C161.362 68.7227 161.546 68.1104 161.546 68.0491C161.546 67.9879 162.128 68.4778 162.311 69.1514C162.326 69.3042 162.326 69.458 162.311 69.6107C162.327 69.7532 162.327 69.8969 162.311 70.0394C162.526 70.2844 162.434 70.4375 162.311 70.4681Z" fill="white"/>
<path opacity="0.84" d="M163.292 74.8466C163.047 74.8466 162.74 74.3873 162.587 73.7136C162.434 73.04 162.587 72.4276 162.771 72.397C162.955 72.3663 163.353 72.8256 163.475 73.4993C163.598 74.1729 163.537 74.6935 163.292 74.8466Z" fill="white"/>
<path opacity="0.56" d="M164.027 79.286C163.782 79.286 163.475 78.7961 163.384 78.0918C163.292 77.3876 163.384 76.8364 163.659 76.7752C163.935 76.7139 164.18 77.2651 164.303 77.9693C164.425 78.6736 164.272 79.2554 164.027 79.286Z" fill="white"/>
<path opacity="0.78" d="M24.2233 148.998L23.917 148.691L30.0432 143.088L30.3189 143.363L24.2233 148.998Z" fill="white"/>
<path opacity="0.68" d="M26.5513 151.386L32.3711 145.537L32.6468 145.813L26.8576 151.722L26.5513 151.386Z" fill="white"/>
<path opacity="0.63" d="M21.7117 146.211L21.436 145.874L27.5622 140.516L27.8073 140.822L21.7117 146.211Z" fill="white"/>
<path opacity="0.53" d="M29.2471 154.079L34.8219 147.955L35.1282 148.2L29.584 154.324L29.2471 154.018V154.079Z" fill="white"/>
<path opacity="0.62" d="M19.3224 143.303L19.1387 142.966L25.663 137.883L25.9081 138.189L19.3224 143.303Z" fill="white"/>
<path opacity="0.4" d="M32.0957 156.438L37.5174 150.1L37.8237 150.345L32.5551 156.714L32.0957 156.438Z" fill="white"/>
<path opacity="0.65" d="M17.0556 140.302L16.8105 139.934L23.5187 135.127C23.608 135.234 23.6898 135.346 23.7638 135.464V135.464L17.0556 140.302Z" fill="white"/>
<path opacity="0.59" d="M35.0054 158.795L40.0595 152.242L40.3351 152.457L35.3423 159.04L35.0973 158.856L35.0054 158.795Z" fill="white"/>
<path opacity="0.77" d="M14.9116 137.208L14.6665 136.84L21.6197 132.309L21.8341 132.645L14.9116 137.208Z" fill="white"/>
<path opacity="0.62" d="M38.0684 160.999L42.8162 154.232L43.1225 154.447L38.4053 161.244L38.099 160.999H38.0684Z" fill="white"/>
<path opacity="0.61" d="M13.0128 134.024C12.9301 133.908 12.8583 133.785 12.7983 133.656L19.8128 129.584L20.0272 129.921L13.0128 134.024Z" fill="white"/>
<path opacity="0.42" d="M41.1929 163.267L45.6344 156.285L45.9713 156.499L41.5605 163.267H41.1929Z" fill="white"/>
<path opacity="0.59" d="M11.0518 130.778L10.8374 130.41L18.1275 126.521C18.1377 126.613 18.1377 126.705 18.1275 126.797L11.0518 130.778Z" fill="white"/>
<path opacity="0.71" d="M44.4092 165.072L48.5443 157.938L48.8813 158.121L44.7768 165.286L44.4092 165.072V165.072Z" fill="white"/>
<path opacity="0.79" d="M9.33697 127.409L9.12256 127.011L16.6271 123.459L16.8109 123.796L9.33697 127.409Z" fill="white"/>
<path opacity="0.7" d="M47.6864 166.879L51.5153 159.561L51.8522 159.744L48.054 167.093L47.6558 166.879H47.6864Z" fill="white"/>
<path opacity="0.78" d="M7.74384 123.981C7.68946 123.845 7.62812 123.712 7.56006 123.583V123.583L15.1871 120.398C15.225 120.526 15.2763 120.649 15.3403 120.766V120.766L7.74384 123.981Z" fill="white"/>
<path opacity="0.48" d="M51.0562 168.563L54.5787 161.092L54.9463 161.276L51.4544 168.777L51.0562 168.594V168.563Z" fill="white"/>
<path opacity="0.57" d="M6.3042 120.398C6.3042 120.398 6.3042 120.122 6.3042 120L14.0538 116.938C14.0538 116.938 14.0538 117.182 14.0538 117.305L6.3042 120.398Z" fill="white"/>
<path opacity="0.6" d="M54.4866 170.064L57.5497 162.439H57.8866L54.8235 170.064H54.4253H54.4866Z" fill="white"/>
<path opacity="0.48" d="M5.04818 116.968C5.04818 116.968 5.04817 116.692 4.89502 116.57L12.7672 113.967C12.8369 114.078 12.9191 114.181 13.0122 114.273L5.04818 116.968Z" fill="white"/>
<path opacity="0.74" d="M57.9785 171.442L60.8578 163.695H61.2254L58.4073 171.442H57.9785Z" fill="white"/>
<path opacity="0.72" d="M3.82324 113.355C3.82324 113.355 3.82324 113.079 3.82324 112.926L11.7873 110.66V111.058L3.82324 113.355Z" fill="white"/>
<path opacity="0.9" d="M61.5317 172.666L64.0741 164.797H64.4417L62.0218 172.819H61.7768L61.5317 172.666Z" fill="white"/>
<path opacity="0.43" d="M2.93506 109.711V109.283L10.991 107.354V107.721L2.93506 109.711Z" fill="white"/>
<path opacity="0.82" d="M65.0848 173.768L67.2903 165.807H67.6578L65.483 173.799H65.0542L65.0848 173.768Z" fill="white"/>
<path opacity="0.51" d="M2.13867 106.036C2.13867 106.036 2.13867 105.76 2.13867 105.638L10.2559 104.076V104.444L2.13867 106.036Z" fill="white"/>
<path opacity="0.45" d="M68.7607 174.657L70.6292 166.604H70.9662L69.1283 174.657H68.8527H68.7607Z" fill="white"/>
<path opacity="0.49" d="M1.46436 102.331C1.46436 102.147 1.46436 102.025 1.46436 101.903L9.6428 100.678C9.65755 100.8 9.65755 100.923 9.6428 101.045V101.045L1.46436 102.331Z" fill="white"/>
<path opacity="0.45" d="M72.4365 175.515L73.9374 167.4H74.305L72.8654 175.515H72.4365Z" fill="white"/>
<path opacity="0.47" d="M0.974782 98.596C0.959578 98.4535 0.959578 98.3098 0.974782 98.1673V98.1673L9.18386 97.2793C9.18386 97.2793 9.18386 97.463 9.18386 97.5549L0.974782 98.596Z" fill="white"/>
<path opacity="0.8" d="M76.1426 176.035L77.3372 167.859H77.7354L76.6327 176.035H76.2038H76.1426Z" fill="white"/>
<path opacity="0.56" d="M0.760254 94.8607C0.760254 94.8607 0.760254 94.5545 0.760254 94.432L9.03058 93.8809C9.01552 94.0029 9.01552 94.1263 9.03058 94.2483V94.2483L0.760254 94.8607Z" fill="white"/>
<path opacity="0.52" d="M79.8799 176.495L80.7069 168.258H81.1051L80.4006 176.525H79.9718L79.8799 176.495Z" fill="white"/>
<path opacity="0.5" d="M0.453613 91.1241V90.6954L8.72394 90.5117V90.9098L0.453613 91.1241Z" fill="white"/>
<path opacity="0.87" d="M83.6167 176.77L84.1068 168.533H84.505L84.0761 176.77H83.6167V176.77Z" fill="white"/>
<path opacity="0.61" d="M0.453613 87.3577C0.468764 87.205 0.468764 87.0512 0.453613 86.8984L8.72394 87.0822V87.4802L0.453613 87.3577Z" fill="white"/>
<path opacity="0.5" d="M87.384 176.922V168.686H87.7822V176.953H87.3228L87.384 176.922Z" fill="white"/>
<path opacity="0.56" d="M0.576172 83.6533C0.576172 83.6533 0.576172 83.3471 0.576172 83.2246L8.8465 83.7758C8.83016 83.908 8.83016 84.0416 8.8465 84.1738V84.1738L0.576172 83.6533Z" fill="white"/>
<path opacity="0.59" d="M91.1518 176.892L90.9067 168.625H91.3356L91.6113 176.892H91.1518Z" fill="white"/>
<path opacity="0.8" d="M0.760254 79.8564C0.760254 79.8564 0.760254 79.5808 0.760254 79.4277L8.96933 80.3157C8.96933 80.3157 8.96933 80.5607 8.96933 80.6832L0.760254 79.8564Z" fill="white"/>
<path opacity="0.46" d="M94.8886 176.708L94.3066 168.471H94.7355L95.3481 176.708H94.8886Z" fill="white"/>
<path opacity="0.76" d="M1.34229 76.1201C1.34229 76.1201 1.34229 75.8139 1.34229 75.6914L9.52073 76.8856C9.53068 77.0079 9.53068 77.1308 9.52073 77.253V77.253L1.34229 76.1201Z" fill="white"/>
<path opacity="0.82" d="M98.7791 176.372L97.8296 168.166H98.2278L99.208 176.372H98.7791Z" fill="white"/>
<path opacity="0.59" d="M1.95459 72.415V71.9863L10.0718 73.548V73.946L1.95459 72.415Z" fill="white"/>
<path opacity="0.53" d="M102.394 175.851L101.138 167.676H101.505L102.822 175.851H102.394V175.851Z" fill="white"/>
<path opacity="0.52" d="M2.7207 68.7412V68.3125L10.746 70.211V70.609L2.7207 68.7412Z" fill="white"/>
<path opacity="0.83" d="M106.1 175.177L104.446 167.094H104.721L106.406 175.208H105.977L106.1 175.177Z" fill="white"/>
<path opacity="0.41" d="M3.63916 65.0967V64.668L11.5725 66.9339V67.3013L3.63916 65.0967Z" fill="white"/>
<path opacity="0.71" d="M109.776 174.381L107.785 166.328H108.183L110.204 174.351H109.776V174.381Z" fill="white"/>
<path opacity="0.59" d="M4.74219 61.5146C4.74219 61.3615 4.74219 61.239 4.74219 61.0859L12.6143 63.658C12.6012 63.7802 12.6012 63.9034 12.6143 64.0255V64.0255L4.74219 61.5146Z" fill="white"/>
<path opacity="0.5" d="M113.42 173.401L111.031 165.439H111.399L113.727 173.37H113.329L113.42 173.401Z" fill="white"/>
<path opacity="0.4" d="M5.96729 57.9625V57.5645L13.7169 60.6265V60.9939L5.96729 57.9625Z" fill="white"/>
<path opacity="0.82" d="M117.158 172.269L114.493 164.461H114.891L117.586 172.269H117.188H117.158Z" fill="white"/>
<path opacity="0.72" d="M7.3457 54.4723L7.52948 54.0742L15.126 57.32V57.6874L7.3457 54.4723Z" fill="white"/>
<path opacity="0.71" d="M120.527 170.983L117.464 163.297H117.831L120.895 170.983L120.496 171.166L120.527 170.983Z" fill="white"/>
<path opacity="0.86" d="M8.87744 51.0426L9.06122 50.6445L16.5045 54.2271L16.3207 54.5639L8.87744 51.0426Z" fill="white"/>
<path opacity="0.4" d="M124.019 169.543L120.71 161.949H121.078L124.447 169.512L124.049 169.696L124.019 169.543Z" fill="white"/>
<path opacity="0.59" d="M10.562 47.6741C10.622 47.5452 10.6937 47.4222 10.7764 47.3066V47.3066L18.0666 51.1648L17.8828 51.5016L10.562 47.6741Z" fill="white"/>
<path opacity="0.48" d="M127.449 167.951L123.804 160.51L124.141 160.326L127.817 167.736L127.419 167.951H127.449Z" fill="white"/>
<path opacity="0.84" d="M12.3691 44.3987C12.4291 44.2698 12.5009 44.1468 12.5836 44.0312V44.0312L19.7206 48.2262L19.5368 48.563L12.3691 44.3987Z" fill="white"/>
<path opacity="0.82" d="M130.788 166.327L126.837 159.07L127.174 158.887L131.156 166.113L130.819 166.297L130.788 166.327Z" fill="white"/>
<path opacity="0.52" d="M14.3604 41.1838L14.5748 40.8164L21.4973 45.3176L21.2829 45.6544L14.3604 41.1838Z" fill="white"/>
<path opacity="0.65" d="M134.066 164.338L129.808 157.142L130.145 156.928L134.433 164.001L134.066 164.215V164.338Z" fill="white"/>
<path opacity="0.89" d="M16.4429 38.0608L16.7185 37.6934L23.4573 42.5007C23.4038 42.6143 23.3313 42.7178 23.2429 42.8069V42.8069L16.4429 38.0608Z" fill="white"/>
<path opacity="0.56" d="M137.251 162.347L132.688 155.488L132.994 155.273L137.588 162.163L137.221 162.377L137.251 162.347Z" fill="white"/>
<path opacity="0.45" d="M18.6792 35.0282L18.9549 34.6914L25.4793 39.7744L25.2342 40.0806L18.6792 35.0282Z" fill="white"/>
<path opacity="0.61" d="M140.345 160.205L135.536 153.499L135.873 153.254L140.743 159.929L140.406 160.205H140.345Z" fill="white"/>
<path opacity="0.61" d="M21.0376 32.1187L21.2826 31.8125L27.5926 37.1404C27.5284 37.2553 27.4456 37.3588 27.3476 37.4466V37.4466L21.0376 32.1187Z" fill="white"/>
<path opacity="0.81" d="M143.347 157.907L138.231 151.446L138.538 151.201L143.714 157.631C143.621 157.675 143.537 157.737 143.469 157.815L143.347 157.907Z" fill="white"/>
<path opacity="0.85" d="M23.519 29.271L23.7947 28.9648L29.9209 34.5683L29.6452 34.8746L23.519 29.271Z" fill="white"/>
<path opacity="0.45" d="M146.226 155.519L140.805 149.395L141.111 149.119L146.533 155.243L146.196 155.519H146.226Z" fill="white"/>
<path opacity="0.64" d="M26.1226 26.5764L26.4289 26.3008L32.2487 32.1492L31.9731 32.4248L26.1226 26.5764Z" fill="white"/>
<path opacity="0.51" d="M34.4541 30.0383L28.8486 23.9143L29.1856 23.6387L34.7604 29.7627L34.4847 30.0077L34.4541 30.0383Z" fill="white"/>
<path opacity="0.61" d="M144.205 146.18L144.48 145.904L150.269 151.814L149.933 152.09L144.205 146.18Z" fill="white"/>
<path opacity="0.6" d="M36.9966 27.7709L31.6362 21.4631L31.9732 21.1875L37.3029 27.5259L36.9966 27.7709Z" fill="white"/>
<path opacity="0.87" d="M146.625 143.731L146.9 143.455L153.026 149.12L152.751 149.426L146.625 143.731Z" fill="white"/>
<path opacity="0.63" d="M39.6001 25.6278L34.4541 19.1057L34.8217 18.8301L39.9677 25.4747L39.6613 25.7196L39.6001 25.6278Z" fill="white"/>
<path opacity="0.44" d="M148.922 141.22L149.167 140.914L155.293 146.334L154.987 146.671L148.922 141.22Z" fill="white"/>
<path opacity="0.76" d="M42.3568 23.6064L37.5171 16.87L37.854 16.625L42.6018 23.3921L42.2955 23.6064H42.3568Z" fill="white"/>
<path opacity="0.49" d="M151.097 138.769L151.311 138.555L157.774 143.699L157.499 144.036L151.097 138.769Z" fill="white"/>
<path opacity="0.88" d="M45.1747 21.6788L40.5801 14.728L40.917 14.5137L45.3585 21.4645L45.0215 21.6788H45.1747Z" fill="white"/>
<path opacity="0.55" d="M153.179 135.921L153.394 135.615L160.041 140.423L159.795 140.79L153.179 135.921Z" fill="white"/>
<path opacity="0.73" d="M48.0846 19.8723L43.8882 12.7684L44.2557 12.5234L48.4215 19.6886L48.0846 19.8723Z" fill="white"/>
<path opacity="0.76" d="M155.14 133.104L155.354 132.768L162.246 137.33L162.001 137.697L155.14 133.104Z" fill="white"/>
<path opacity="0.76" d="M51.0561 18.2174L47.166 10.9298L47.5642 10.7461L51.4237 18.0643L51.0868 18.248L51.0561 18.2174Z" fill="white"/>
<path opacity="0.81" d="M156.978 130.257L157.161 129.92L164.237 134.176L164.053 134.482L156.978 130.257Z" fill="white"/>
<path opacity="0.64" d="M54.0882 16.6869L50.5044 9.24623L50.872 9.0625L54.3945 16.5338L54.027 16.7176L54.0882 16.6869Z" fill="white"/>
<path opacity="0.65" d="M158.663 127.288L158.846 126.951L166.167 130.901C166.084 131.017 166.013 131.14 165.953 131.269V131.269L158.663 127.288Z" fill="white"/>
<path opacity="0.44" d="M57.2127 15.2775L53.9658 7.6531L54.364 7.5L57.4271 15.0938L57.0595 15.2775H57.2127Z" fill="white"/>
<path opacity="0.59" d="M160.255 124.287L160.408 123.92L167.821 127.564L167.637 127.962L160.255 124.287Z" fill="white"/>
<path opacity="0.86" d="M60.3679 13.993L57.458 6.24609H57.8562L60.7355 13.993L60.3679 14.1461V13.993Z" fill="white"/>
<path opacity="0.81" d="M161.695 121.194C161.74 121.079 161.791 120.967 161.848 120.857L169.414 124.195L169.23 124.593L161.695 121.194Z" fill="white"/>
<path opacity="0.57" d="M63.5842 12.8596L61.0112 4.99023H61.4094L63.9518 12.8596H63.5842V12.8596Z" fill="white"/>
<path opacity="0.79" d="M163.104 118.071C163.104 118.071 163.104 117.826 163.104 117.703L170.792 120.765C170.792 120.765 170.792 120.979 170.792 121.102L163.104 118.071Z" fill="white"/>
<path opacity="0.56" d="M66.8616 11.848L64.6255 3.88672H65.0543L67.2597 11.848H66.8616Z" fill="white"/>
<path opacity="0.6" d="M164.176 114.887C164.189 114.765 164.189 114.642 164.176 114.52V114.52L171.987 117.183C171.987 117.337 171.987 117.459 171.987 117.612L164.176 114.887Z" fill="white"/>
<path opacity="0.56" d="M70.1696 10.9919L68.1479 2.96942C68.2701 2.95551 68.3934 2.95551 68.5155 2.96942V2.96942L70.384 11.0225H69.9858L70.1696 10.9919Z" fill="white"/>
<path opacity="0.84" d="M165.217 111.641C165.217 111.641 165.217 111.396 165.217 111.273L173.151 113.57V113.937L165.217 111.641Z" fill="white"/>
<path opacity="0.82" d="M73.5085 10.1651L71.9463 2.05078H72.3751L73.9067 10.1958H73.5085V10.1651Z" fill="white"/>
<path opacity="0.61" d="M166.167 108.365V107.967L174.192 109.957C174.175 110.069 174.175 110.182 174.192 110.294V110.294L166.167 108.365Z" fill="white"/>
<path opacity="0.61" d="M76.8781 9.7049L75.6528 1.5293H76.051L77.215 9.73552H76.8168L76.8781 9.7049Z" fill="white"/>
<path opacity="0.57" d="M166.902 105.088C166.887 104.966 166.887 104.843 166.902 104.721V104.721L175.019 106.344V106.742L166.902 105.088Z" fill="white"/>
<path opacity="0.88" d="M80.4005 9.2766L79.3896 0.978516H79.8491L80.6455 9.21536H80.4005V9.2766Z" fill="white"/>
<path opacity="0.47" d="M167.514 101.69C167.5 101.568 167.5 101.444 167.514 101.322V101.322L175.693 102.608C175.705 102.741 175.705 102.874 175.693 103.006V103.006L167.514 101.69Z" fill="white"/>
<path opacity="0.65" d="M83.6472 9.00052L83.1265 0.763672H83.4634L83.9535 9.00052H83.5247H83.6472Z" fill="white"/>
<path opacity="0.67" d="M167.974 98.3199V97.9219L176.183 98.8711C176.183 99.0242 176.183 99.1467 176.183 99.2998L167.974 98.3199Z" fill="white"/>
<path opacity="0.65" d="M87.0474 8.87942V0.642578H87.5068V8.87942H87.078H87.0474Z" fill="white"/>
<path opacity="0.81" d="M168.311 94.9527C168.325 94.8204 168.325 94.687 168.311 94.5547L176.551 95.1671C176.537 95.3096 176.537 95.4532 176.551 95.5958V95.5958L168.311 94.9527Z" fill="white"/>
<path opacity="0.81" d="M90.478 8.87879L90.6618 0.611328H91.1213L90.8762 8.87879H90.478V8.87879Z" fill="white"/>
<path opacity="0.46" d="M168.525 91.5543V91.1562L176.796 91.4012V91.8299L168.525 91.5543Z" fill="white"/>
<path opacity="0.88" d="M93.8779 9.03113L94.4293 0.763672H94.8581L94.2761 9.03113H93.8779V9.03113Z" fill="white"/>
<path opacity="0.77" d="M168.556 88.1246V87.7266H176.826V88.1552L168.556 88.1246Z" fill="white"/>
<path opacity="0.9" d="M97.2778 9.33784L98.1661 0.978516H98.595L97.676 9.21536H97.2778V9.33784Z" fill="white"/>
<path opacity="0.6" d="M168.464 84.7246C168.48 84.5923 168.48 84.4587 168.464 84.3265V84.3265L176.704 83.8672C176.689 84.0097 176.689 84.1534 176.704 84.2959L168.464 84.7246Z" fill="white"/>
<path opacity="0.56" d="M100.647 9.7674L101.842 1.5918H102.271L100.984 9.7674H100.586H100.647Z" fill="white"/>
<path opacity="0.82" d="M168.219 81.3264C168.219 81.1733 168.219 81.0508 168.219 80.9283L176.459 80.1016C176.444 80.2543 176.444 80.4081 176.459 80.5609L168.219 81.3264Z" fill="white"/>
<path opacity="0.63" d="M104.017 10.3487L105.579 2.23438H106.008L104.385 10.3181H104.017V10.3487Z" fill="white"/>
<path opacity="0.71" d="M167.821 77.9269C167.821 77.9269 167.821 77.6819 167.821 77.5288L175.999 76.3652C176.012 76.5078 176.012 76.6513 175.999 76.7939V76.7939L167.821 77.9269Z" fill="white"/>
<path opacity="0.86" d="M107.325 11.0522L109.254 2.99903C109.397 2.9847 109.541 2.9847 109.683 2.99903V2.99903L107.723 11.0215H107.325V11.0522Z" fill="white"/>
<path opacity="0.67" d="M167.3 74.4668C167.288 74.3344 167.288 74.2011 167.3 74.0687V74.0687L175.418 72.5684V72.997L167.3 74.4668Z" fill="white"/>
<path opacity="0.66" d="M110.633 11.9111L112.9 3.98047H113.329L111.032 12.0336H110.664L110.633 11.9111Z" fill="white"/>
<path opacity="0.65" d="M166.626 71.2216V70.8235L174.682 68.9863V69.3232L166.626 71.2216Z" fill="white"/>
<path opacity="0.9" d="M113.88 12.9521L116.484 5.11328H116.912L114.247 12.9214H113.88V12.9521Z" fill="white"/>
<path opacity="0.6" d="M165.799 67.9152V67.6089L173.794 65.4043C173.794 65.4043 173.794 65.6493 173.794 65.7717L165.799 67.9152Z" fill="white"/>
<path opacity="0.56" d="M117.158 14.0542L120.221 6.33789L120.619 6.49099L117.556 14.2073L117.219 14.0542H117.158Z" fill="white"/>
<path opacity="0.59" d="M164.819 64.6381C164.806 64.5262 164.806 64.4132 164.819 64.3013L172.691 61.7598C172.691 61.7598 172.691 62.0354 172.844 62.1578L164.819 64.6381Z" fill="white"/>
<path opacity="0.53" d="M120.221 15.3712L123.498 7.77734L123.896 7.93045L120.588 15.4936H120.251L120.221 15.3712Z" fill="white"/>
<path opacity="0.88" d="M163.747 61.3915C163.735 61.2898 163.735 61.187 163.747 61.0853V61.0853L171.497 58.207C171.497 58.207 171.497 58.4826 171.65 58.6051L163.747 61.3915Z" fill="white"/>
<path opacity="0.57" d="M123.284 16.7487L126.867 9.27734L127.266 9.49169L123.651 16.9324L123.284 16.7487V16.7487Z" fill="white"/>
<path opacity="0.61" d="M162.522 58.2074L162.369 57.8706L169.996 54.8086L170.18 55.2066L162.522 58.2074Z" fill="white"/>
<path opacity="0.9" d="M126.347 18.2798L130.237 10.9922L130.635 11.2065L126.684 18.4635L126.408 18.3104L126.347 18.2798Z" fill="white"/>
<path opacity="0.7" d="M161.143 55.0841C161.079 54.9674 161.028 54.8442 160.99 54.7166L168.464 51.1953L168.648 51.5934L161.143 55.0841Z" fill="white"/>
<path opacity="0.83" d="M129.41 19.9626L133.637 12.8281L133.974 13.0425L129.747 20.1157L129.41 19.9626Z" fill="white"/>
<path opacity="0.63" d="M159.642 52.0218L159.458 51.685L166.779 47.8574L166.994 48.2555L159.642 52.0218Z" fill="white"/>
<path opacity="0.46" d="M132.198 21.7998L136.731 14.8184L137.098 15.0633L132.473 21.9835L132.136 21.7692L132.198 21.7998Z" fill="white"/>
<path opacity="0.52" d="M158.019 49.0227L157.805 48.6858L164.972 44.5215L165.187 44.8889L158.019 49.0227Z" fill="white"/>
<path opacity="0.82" d="M135.046 23.6681L139.855 16.9316L140.192 17.2072L135.536 23.9131L135.23 23.6681H135.046Z" fill="white"/>
<path opacity="0.74" d="M156.242 46.1121L156.028 45.7752L163.104 41.3047L163.349 41.6721L156.242 46.1121Z" fill="white"/>
<path opacity="0.71" d="M137.772 25.7206L142.857 19.3516C142.983 19.4246 143.097 19.5176 143.194 19.6271V19.6271L138.078 26.1186L137.772 25.8737V25.7206Z" fill="white"/>
<path opacity="0.66" d="M154.374 43.2965C154.293 43.2018 154.221 43.0993 154.16 42.9903V42.9903L160.929 38.2441C161.003 38.3618 161.085 38.4744 161.174 38.581V38.581L154.374 43.2965Z" fill="white"/>
<path opacity="0.71" d="M140.406 27.8625L145.767 21.5547L146.073 21.8303L140.682 28.1074L140.375 27.8625H140.406Z" fill="white"/>
<path opacity="0.42" d="M152.383 40.5402L152.138 40.234L158.693 35.1816L158.938 35.4878L152.383 40.5402Z" fill="white"/>
<path opacity="0.62" d="M142.949 30.1299L148.585 24.0059C148.694 24.1001 148.797 24.2025 148.891 24.3121V24.3121L143.255 30.4361L142.949 30.1605V30.1299Z" fill="white"/>
<path opacity="0.82" d="M150.239 37.7226L149.994 37.4164L156.334 32.1191C156.444 32.2157 156.537 32.3295 156.61 32.456V32.456L150.269 37.7226H150.239Z" fill="white"/>
<path opacity="0.56" d="M145.399 32.4878L151.28 26.6699C151.39 26.7642 151.492 26.8665 151.586 26.9761V26.9761L145.675 32.7633L145.399 32.4878V32.4878Z" fill="white"/>
<path opacity="0.51" d="M148.033 35.2736L147.758 34.9674L153.884 29.3945C153.948 29.5094 154.031 29.6129 154.129 29.7007V29.7007L148.033 35.2736Z" fill="white"/>
</svg>
