<svg width="194" height="197" viewBox="0 0 194 197" fill="none" xmlns="http://www.w3.org/2000/svg">
<path opacity="0.68" d="M100 20.7102L100.14 15.8429L100.786 15.5509L101.432 15.2832L102.189 14.9911L103.593 14.4314L104.267 14.188C104.267 14.188 104.547 10.635 104.856 7.08186C105.165 3.52876 105.502 0 105.502 0L105.895 0.243359L106.737 0.754419L108 1.55752L105.951 22L105.025 21.781L104.07 21.5133L103.004 21.2699L101.909 21.0509H101.404H100.926L100 20.7102Z" fill="#FDFDFD"/>
<path opacity="0.82" d="M99.6729 20.5469V21.7717L100.684 21.986H101.082H101.633L102.797 22.2616L103.961 22.5678L104.972 22.8128L105.952 23.0884V21.9554L104.972 21.6492L104.145 21.588L102.981 21.2818L101.786 21.0062H101.235H100.745L99.6729 20.5469Z" fill="#FDFDFD"/>
<path opacity="0.6" d="M99.6421 22.1406V23.3654L100.622 23.5798H101.112H101.633L102.797 23.8554L103.93 24.1309L104.911 24.4065L105.86 24.6821V23.5185L104.911 23.243L104.145 23.1817L102.981 22.8755L101.817 22.5693H101.296H100.806L99.6421 22.1406Z" fill="#FDFDFD"/>
<path opacity="0.77" d="M166.417 59.5263L171.778 56.4643L172.421 56.8317L173.83 57.7197L175.239 58.6383L175.852 59.067L183.785 54.8414L191.719 50.7383C191.719 50.7383 191.719 51.565 191.719 52.3918C191.719 53.2185 191.719 54.0146 191.719 54.0146L168.47 65.7116C168.47 65.7116 168.47 65.3135 168.194 64.7317C167.918 64.1499 168.01 64.0887 167.888 63.7519L167.704 63.1701C167.667 62.9694 167.605 62.7741 167.52 62.5883L167.153 61.4554L166.969 60.9348V60.4755L166.417 59.5263Z" fill="#FDFDFD"/>
<path opacity="0.83" d="M165.989 59.7422L164.947 60.3852C164.947 60.3852 164.947 60.7833 165.284 61.3344C165.621 61.8856 165.744 62.6511 165.989 63.4166V63.6922V63.9678C166.002 64.1512 166.002 64.3355 165.989 64.5189L166.295 65.4682C166.295 66.0499 166.571 66.448 166.571 66.448L167.582 65.8968L167.673 64.8558C167.673 64.5496 167.49 64.2127 167.367 63.8759C167.381 63.6822 167.381 63.4878 167.367 63.2941V63.0186V62.743C167.122 61.9775 166.877 61.1813 166.663 60.6302C166.448 60.079 165.989 59.7422 165.989 59.7422Z" fill="#FDFDFD"/>
<path opacity="0.77" d="M23.8308 81.4486L17.7047 79.7951L17.5209 79.0602L17.1839 77.468L16.847 75.8451C16.847 75.3858 16.847 75.0796 16.847 75.0796L8.36223 72.2625L0 69.4455L0.398202 69.1086L1.2865 68.3738L2.54236 67.3633L27.0471 75.7838L26.5263 76.6412L26.2813 77.0699C26.2117 77.2291 26.1298 77.3827 26.0363 77.5292L25.4543 78.5703L24.9029 79.6114C24.7498 79.9482 24.566 80.2544 24.4434 80.53L23.8308 81.4486Z" fill="#FDFDFD"/>
<path opacity="0.55" d="M24.29 81.6035L25.4846 81.9097C25.4846 81.9097 25.6684 81.5729 25.9135 81.0217C26.1585 80.4706 26.2198 80.4399 26.3729 80.1337C26.5261 79.8275 26.7099 79.4295 26.8937 79.0927C27.0775 78.7558 27.2919 78.419 27.4756 78.0822C27.5452 77.9229 27.6272 77.7694 27.7207 77.6229L27.9351 77.2248L28.4252 76.3675L27.3531 76L26.8324 76.8574L26.5874 77.2554L26.3423 77.7454L25.7603 78.7558L25.209 79.7969C25.0252 80.1235 24.872 80.4297 24.7495 80.7155L24.29 81.6035Z" fill="#FDFDFD"/>
<path opacity="0.56" d="M156.401 150.162L157.075 149.366L157.29 149.121L157.749 148.57L158.607 147.498C159.434 146.426 160.2 145.446 160.873 144.436C160.882 144.375 160.882 144.313 160.873 144.252L161.088 143.977L162.099 142.507L163.14 140.915L163.477 140.333C164.396 138.863 165.315 137.271 166.326 135.281C167.337 133.29 168.286 131.331 169.052 129.432C172.599 120.722 174.5 111.43 174.657 102.027C174.657 99.7305 174.657 97.5564 174.474 95.5355C174.29 93.5146 174.137 91.7386 173.861 89.7483C173.441 86.88 172.858 84.0379 172.115 81.2358C172.129 81.0626 172.129 80.8886 172.115 80.7153C172.115 80.7153 172.115 80.7153 172.115 80.5316L171.901 79.7967C171.795 79.5039 171.672 79.2176 171.533 78.9393L171.227 77.9595L188.411 72.5703L188.778 73.7645L189.115 74.8975L189.421 75.9692L189.605 76.6428C190.521 80.1119 191.247 83.6282 191.78 87.1762C192.117 89.5952 192.362 92.0142 192.546 94.3107C192.73 96.6072 192.791 99.5467 192.76 102.333C192.575 113.989 190.206 125.507 185.776 136.291C184.782 138.768 183.657 141.19 182.407 143.548C181.212 145.875 180.048 147.988 178.884 149.672L178.456 150.376L177.169 152.367L175.944 154.173L175.668 154.541V154.724C174.811 155.949 173.892 157.174 172.881 158.46L171.778 159.838L171.227 160.512L170.982 160.787L170.185 161.736L156.401 150.162ZM171.717 78.1738L171.931 78.8475C171.931 79.0924 171.931 79.3986 172.207 79.7355L172.452 80.6541C172.452 80.8378 172.452 81.0215 172.452 81.2052C173.201 84.0162 173.784 86.8688 174.198 89.7483C174.504 91.708 174.688 93.6677 174.841 95.5355C174.994 97.4033 175.025 99.7611 174.841 102.058C174.697 111.515 172.786 120.861 169.205 129.616C168.439 131.514 167.551 133.443 166.479 135.495C165.407 137.546 164.549 139.108 163.63 140.547L163.263 141.129L162.221 142.752L161.241 144.222L161.027 144.497C160.322 145.508 159.556 146.518 158.729 147.559L157.872 148.662C157.701 148.83 157.547 149.014 157.412 149.213L157.198 149.458L156.738 150.009L169.91 161.338L170.492 160.634L170.737 160.328L171.533 159.777L172.605 158.429C173.616 157.143 174.535 155.919 175.393 154.694V154.51C175.485 154.395 175.567 154.272 175.638 154.143L176.955 152.214L178.149 150.346L178.578 149.641C179.742 147.835 180.906 145.753 182.101 143.517C183.295 141.282 184.49 138.649 185.47 136.26C189.87 125.512 192.228 114.037 192.423 102.425C192.423 99.6386 192.423 96.944 192.178 94.4332C191.933 91.9223 191.78 89.7176 191.443 87.3293C190.911 83.7913 190.185 80.2851 189.268 76.8265L189.085 76.1529L188.778 75.0812L188.441 73.9482L188.196 73.0602L171.717 78.1738Z" fill="#FDFDFD"/>
<path opacity="0.64" d="M155.666 150.224L156.891 148.754L157.32 148.264L158.208 147.131C159.066 145.998 159.801 145.049 160.444 144.069V143.885C160.515 143.811 160.577 143.729 160.628 143.64L163.017 140.027C163.906 138.588 164.855 136.965 165.835 135.006C166.835 133.115 167.735 131.173 168.531 129.188C170.29 124.88 171.654 120.422 172.605 115.868C173.535 111.301 174.037 106.657 174.106 101.997C174.106 99.6697 174.106 97.5263 174.106 95.536C174.106 93.5457 173.769 91.7391 173.493 89.81C173.069 86.9626 172.486 84.1411 171.747 81.3588C171.747 81.1751 171.747 80.9914 171.747 80.8383L171.41 79.6441C171.41 79.4298 171.41 79.2154 171.257 79.0623L170.767 77.5313L189.146 71.8359L189.666 73.5201L190.003 74.7142L190.31 75.7553L190.493 76.4596C191.426 79.9454 192.152 83.483 192.668 87.0542C193.036 89.4732 193.281 91.8922 193.465 94.2193C193.648 96.5465 193.71 99.486 193.648 102.272C193.368 114.04 190.885 125.652 186.328 136.506C185.347 138.894 184.245 141.283 182.928 143.824C181.61 146.366 180.508 148.295 179.374 149.948L178.945 150.652L175.882 155.001C174.933 156.348 174.014 157.573 173.034 158.797L171.931 160.175L171.533 160.665V160.849L171.257 161.155L170.124 162.502L155.666 150.224ZM161.578 144.957C160.873 145.937 160.138 146.947 159.28 148.019L158.423 149.121L157.933 149.673C157.878 149.768 157.805 149.851 157.718 149.918V149.918L169.971 160.543L170.185 160.267L170.461 159.93L171.012 159.287L172.084 157.94C173.064 156.685 173.983 155.46 174.872 154.235V154.021C174.943 153.901 175.025 153.789 175.117 153.684L178.18 149.213C179.313 147.407 180.508 145.325 181.702 143.089C182.925 140.737 184.029 138.325 185.01 135.863C187.163 130.571 188.804 125.085 189.911 119.481C191.079 113.837 191.715 108.096 191.81 102.334C191.81 99.5166 191.81 96.8527 191.596 94.4031C191.382 91.9534 191.167 89.7182 190.83 87.2992C190.315 83.7807 189.599 80.2945 188.686 76.8577L188.196 75.1429L187.982 74.0406V73.7038L172.421 78.5418V78.7255C172.421 78.9705 172.421 79.246 172.697 79.6135L172.942 80.5321C172.955 80.7258 172.955 80.9202 172.942 81.1139C173.692 83.9368 174.285 86.7991 174.718 89.6875C174.994 91.6779 175.209 93.6375 175.331 95.536C175.454 97.4345 175.545 99.7616 175.515 102.089C175.437 106.841 174.925 111.576 173.983 116.235C173.012 120.881 171.628 125.431 169.848 129.831C169.052 131.729 168.163 133.658 167.091 135.74C166.019 137.823 165.131 139.384 164.212 140.854L163.875 141.405L161.792 144.467V144.681H161.241H161.425L161.578 144.957Z" fill="#FCFCFC"/>
<path opacity="0.63" d="M111.221 26.1809L114.069 8.48242H114.958L117.102 8.88049C119.001 9.24793 121.574 9.79909 124.637 10.6565L125.801 10.9933L126.597 11.2382H127.026H127.455L128.282 11.4832L130.212 12.1262L132.233 12.8611L133.091 13.1979L133.581 13.4123L133.979 13.5654L134.96 13.9634L136.369 14.5452L137.073 14.8514L137.778 15.1576L139.922 16.1681L140.596 16.5049L141.484 16.9642L142.005 17.2092H142.25L143.414 17.8216L144.823 18.5871L145.68 19.1076L146.201 19.3832L146.906 19.8119L148.927 21.0367L150.949 22.3534L152.879 23.6701L154.778 25.0174L156.585 26.3953C157.872 27.4057 159.127 28.4468 160.383 29.4573C161.639 30.4677 163.446 32.1519 164.825 33.5604L165.682 34.3871L167.183 35.9488C167.367 35.9488 167.49 36.2856 167.643 36.4387L167.888 36.6837L168.347 37.2042L169.113 38.031L170.124 39.1945L170.308 39.3782C170.399 39.483 170.481 39.5957 170.553 39.7151L172.115 41.5523L158.147 52.8512L156.891 51.3201L156.677 51.0752L155.85 50.1259L155.268 49.5135L154.717 49.5442L154.533 49.3298L154.165 48.9318L152.94 47.6763L152.266 47.0027C150.145 44.9248 147.906 42.972 145.558 41.1542L144.118 40.0519L142.587 38.9496L140.902 37.6941L139.432 36.7449L137.839 35.7344L137.288 35.4282L136.828 35.1526L136.185 34.7852L135.052 34.1728L134.133 33.6829H133.918L133.459 33.4685L132.754 33.1011L132.111 32.7949L130.488 32.0294L129.906 31.7844L129.354 31.5395L128.221 31.0495L127.455 30.7433H127.118L126.689 30.5596L126.015 30.3147L124.361 29.7022L122.83 29.1817L122.217 28.998H121.819H121.421L120.839 28.8143L119.767 28.11C117.347 27.4363 115.233 26.977 113.641 26.6708L111.895 26.3646L111.221 26.1809ZM114.284 8.758L111.527 25.9666H112.017L113.732 26.2728C115.295 26.6096 117.408 27.0383 119.859 27.7426L120.839 28.0181L121.421 28.2019H121.819H122.187L122.83 28.4162L124.392 28.9367L126.015 29.5491L126.689 29.7941L127.118 29.9778H127.455L128.251 30.284L129.385 30.774L129.906 31.0189L130.488 31.2639L132.142 32.0294L132.785 32.3662L133.489 32.703L133.949 32.948H134.163L135.082 33.4379L136.216 34.0503L136.859 34.4484L137.318 34.6934L137.9 35.0302L139.554 36.0406L141.361 37.2042L142.771 38.1841L144.302 39.2864L145.772 40.3887C148.108 42.2323 150.347 44.1946 152.48 46.2678L153.154 46.9414L154.38 48.1969L154.747 48.5949L154.962 48.8093L155.36 49.2686L155.942 49.9116L156.769 50.8302V51.0139L156.983 51.2589L158.055 52.5756L171.594 41.6135L170.369 40.3581L170.093 40.0519V39.8682L169.052 38.7046C168.837 38.429 168.562 38.1534 168.317 37.8778L167.827 37.3573L167.428 37.2961L167 36.8368L165.407 35.1526L164.641 34.234C163.232 32.8561 161.578 31.4476 160.199 30.1309C158.821 28.8143 157.688 28.0181 156.432 27.0689L154.625 25.691L152.726 24.3437L150.612 22.9046L148.805 21.741L146.753 20.4855L146.079 20.0875L145.558 19.7813L144.67 19.2914L143.291 18.5259L142.127 17.9134H141.882L141.361 17.6685C141.075 17.4972 140.778 17.3438 140.473 17.2092L139.83 16.8724L137.655 15.8619L136.951 15.5557L136.246 15.2495L134.776 14.6065L133.796 14.2084L133.397 14.0553L132.907 13.841L132.05 13.5041L130.12 12.7999L128.19 12.1262L127.394 11.8813H126.934H126.506L125.74 11.6363L124.545 11.2995C121.482 10.4421 118.94 9.89095 117.041 9.52351L114.927 9.15607L114.284 8.758Z" fill="#FDFDFD"/>
<path opacity="0.52" d="M110.608 26.6407L113.671 7.83984L117.255 8.45225C119.185 8.85031 121.758 9.40147 124.851 10.2588L126.015 10.5957L126.812 10.8406L130.457 12.0348L132.478 12.7697L133.367 13.1065L133.826 13.2902L134.408 13.5046L135.235 13.872L136.644 14.4538L137.257 14.6988L138.053 15.0662L140.228 16.1073L140.871 16.4135L141.821 16.8728L142.556 17.2403L143.72 17.8833L145.129 18.6488L146.017 19.1387L149.295 21.0984L153.246 23.7317L156.983 26.4876C159.872 28.7641 162.642 31.1862 165.284 33.7446L167.643 36.1636L168.102 36.6535L168.807 37.419L169.572 38.2457L172.942 42.1957L158.147 54.1683L155.36 50.9225L154.808 50.3101L154.104 49.5446L153.797 49.2078L151.868 47.2787C149.777 45.2123 147.568 43.2697 145.251 41.4609L142.188 39.2562L139.125 37.1434L136.46 35.5818L135.817 35.1837L134.684 34.5713L133.765 34.2345L133.091 33.8977L132.417 33.5302L131.774 33.224C131.222 32.9791 130.702 32.7035 130.15 32.4891L129.568 32.2136L129.017 31.9686L127.884 31.5093C127.671 31.391 127.445 31.2985 127.21 31.2337L126.812 31.05H126.352L125.586 30.5601L120.44 28.8453L119.491 28.5697C117.102 27.8961 115.019 27.4674 113.365 27.1306L110.608 26.6407ZM114.743 9.40147L112.139 25.5077L113.824 25.8139C115.417 26.1201 117.53 26.5794 119.95 27.2837L122.523 28.1104H122.983L126.046 29.2434L126.567 29.4271L127.516 29.8252L128.313 30.1314L129.415 30.5907L129.967 30.8356L130.579 31.1112L132.203 31.8767L132.877 32.1829L133.612 32.581L134.255 32.8872L135.205 33.4077L136.307 34.0201L137.012 34.4182L139.677 36.0105L142.923 38.1539L145.987 40.3892C148.382 42.284 150.662 44.3187 152.817 46.4826L155.697 49.5446L156.309 50.2183L158.27 52.4841L170.951 42.1957L169.94 40.9709L169.695 40.6954L168.47 39.1337L167.735 38.3376L166.999 37.5415L166.571 37.0822L164.243 34.7244C161.699 32.1927 159.02 29.8008 156.217 27.5593L152.542 24.8341L148.621 22.2314L145.558 20.3329L144.7 19.8124L143.291 19.0775L142.311 18.5263L141.392 18.067L140.504 17.6383L139.922 17.3321L137.716 16.3217L136.736 15.8623L136.032 15.5561L134.776 15.0968L133.826 14.6988L132.693 14.2701L132.08 14.0251L128.006 12.8003L127.24 12.5554L124.422 11.7286C121.359 10.8712 118.817 10.3201 116.949 9.95264L114.743 9.40147Z" fill="#FDFDFD"/>
<path opacity="0.85" d="M43.0668 160.02L38.6866 164.429H38.5028L37.9515 164.246L36.328 163.725H35.8992H35.4704L34.7046 163.48L33.9694 162.837L27.3838 168.961L20.7675 175.085V174.565L20.5225 173.432C20.3693 172.605 20.1855 171.809 20.1855 171.809L39.4217 154.539L39.9731 155.427L40.5551 156.346L41.229 157.387C41.6884 158.091 42.1785 158.765 42.5155 159.316L42.883 159.775L43.0668 160.02Z" fill="#FDFDFD"/>
<path opacity="0.62" d="M43.4347 159.776L44.2617 158.888L44.1085 158.643L43.6797 158.031L43.0671 157.143C42.9939 157.005 42.9325 156.862 42.8833 156.714L42.5464 156.224L41.8725 155.213L41.3211 154.295L40.7698 153.438L39.9121 154.203L40.4635 155.091L41.0148 156.01L41.6887 157.051L42.0256 157.571C42.1201 157.746 42.2331 157.91 42.3626 158.061L42.9752 158.98L43.404 159.592C43.4101 159.654 43.4203 159.715 43.4347 159.776V159.776Z" fill="#FDFDFD"/>
<path opacity="0.74" d="M44.5063 158.523L45.364 157.635L45.1802 157.39L44.782 156.716L44.1694 155.859L43.8324 155.369L43.5261 154.848L42.8829 153.96L42.3315 153.072L41.8108 152.215L40.9531 153.011L41.4739 153.868C41.6422 154.174 41.8263 154.47 42.0252 154.756C42.209 155.093 42.454 155.43 42.6685 155.797L43.0054 156.318C43.0054 156.318 43.2198 156.624 43.3117 156.808L43.9243 157.696L44.3531 158.308L44.5063 158.523Z" fill="#FDFDFD"/>
<path opacity="0.53" d="M24.5047 158.522L24.1677 158.093L23.402 157.082L23.1876 156.776L22.6668 156.072C21.1659 154.02 19.6037 151.816 18.3479 149.55L18.1335 149.182L17.7046 148.478L17.092 147.529L16.1425 145.753L15.8055 145.171C15.6217 144.834 15.4686 144.498 15.2848 144.191L14.4884 142.63L13.5388 140.639L12.6199 138.527L11.701 136.383L10.8433 134.179C10.8433 133.903 10.6595 133.627 10.537 133.321C10.4145 133.015 10.0163 131.882 9.77123 131.147L9.52619 130.382L9.18925 129.463L8.69915 127.932L8.42347 126.922L8.27032 126.37L8.0559 125.605C8.0559 125.605 8.0559 125.268 7.90275 125.115C7.74959 124.962 7.90275 124.901 7.90275 124.809L7.50455 123.278L7.13698 121.716C7.15132 121.625 7.15132 121.532 7.13698 121.441C7.13698 121.257 7.13698 121.104 7.13698 120.92L6.98382 120.154C6.99811 119.971 6.99811 119.787 6.98382 119.603L6.80004 118.623C6.80004 118.348 6.80004 118.103 6.64688 117.827C6.49373 117.552 6.3712 116.327 6.27931 115.592C5.94237 113.54 5.69732 111.52 5.54417 109.805V108.182C5.54417 107.845 5.54417 107.478 5.54417 107.11C5.54417 106.743 5.54417 106.59 5.54417 106.314V104.599V104.079C5.54417 103.466 5.54417 102.854 5.54417 102.272V101.599C5.54417 101.078 5.54417 100.619 5.54417 100.159V99.4552C5.54417 99.0571 5.54417 98.6897 5.54417 98.3222V96.7606C5.54417 96.3625 5.54417 95.9951 5.54417 95.6583V93.668L23.4632 94.9846V95.4746V96.7912C23.4632 97.0362 23.4632 97.3424 23.4632 97.6486V98.9346V100.404C23.4632 100.772 23.4632 101.139 23.4632 101.537V102.119C23.4632 102.548 23.4632 103.007 23.4632 103.497C23.4632 103.987 23.4632 103.834 23.4632 103.987C23.4632 104.14 23.4632 104.844 23.4632 105.334C23.4632 105.824 23.4632 105.794 23.4632 106.039C23.4632 106.283 23.4632 106.59 23.4632 106.896V108.213C23.6164 109.56 23.7695 111.275 24.0759 112.897C24.0759 113.479 24.2596 114.061 24.3515 114.612C24.4434 115.163 24.3515 115.102 24.5047 115.378C24.6578 115.653 24.5047 115.868 24.5047 116.143C24.5186 116.296 24.5186 116.45 24.5047 116.603V117.246V117.644C24.5047 117.644 24.5047 117.644 24.5047 117.858L24.7804 119.144L25.1173 120.399C25.1173 120.399 25.1173 120.553 25.1173 120.614V121.012L25.3011 121.655C25.3011 121.655 25.3011 121.961 25.3011 122.145C25.3011 122.328 25.4542 122.635 25.5461 122.91L25.9137 124.166C25.9137 124.38 26.0669 124.594 26.1281 124.778L26.3425 125.391C26.5263 125.972 26.7101 126.523 26.9245 127.044L27.2002 127.84L27.9047 129.647L28.6399 131.392L29.375 133.046L30.1408 134.668L30.8146 135.955C30.9292 136.219 31.0623 136.475 31.2129 136.72C31.2129 136.934 31.4273 137.118 31.5192 137.302L32.2543 138.649L32.775 139.537L33.0813 140.088C33.1629 140.183 33.2347 140.285 33.2958 140.394C34.6741 142.722 35.9606 144.528 36.757 145.661L37.1859 146.243L37.3697 146.488L38.2886 147.682L24.5047 158.522ZM5.32975 93.9742V95.6583C5.31182 96.0153 5.31182 96.373 5.32975 96.73V98.2916V99.4246C5.32975 99.6389 5.32975 99.8839 5.32975 100.129C5.32975 100.374 5.32975 101.047 5.32975 101.568V102.211C5.32975 102.793 5.32975 103.375 5.32975 104.018V104.661C5.30089 105.232 5.30089 105.804 5.32975 106.375C5.32975 106.62 5.32975 106.896 5.32975 107.171V108.243V109.835C5.51354 111.55 5.72795 113.571 6.06489 115.592C6.06489 116.358 6.30994 117.092 6.4631 117.858C6.4631 118.103 6.4631 118.378 6.4631 118.623C6.4631 118.868 6.61625 119.297 6.67751 119.603C6.66323 119.787 6.66323 119.971 6.67751 120.154L6.83067 120.951C6.81674 121.114 6.81674 121.278 6.83067 121.441C6.81632 121.532 6.81632 121.625 6.83067 121.716L7.16761 123.278L7.56581 124.809V125.084C7.55103 125.258 7.55103 125.432 7.56581 125.605L7.78023 126.37C7.84541 126.55 7.89661 126.734 7.93338 126.922C8.01713 127.254 8.1194 127.581 8.23969 127.901L8.69915 129.463C8.69915 129.739 8.88294 129.984 8.9442 130.229L9.21988 130.994C9.43429 131.698 9.70997 132.433 9.95502 133.137C10.2001 133.842 10.1694 133.719 10.2613 133.995L11.119 136.199L12.0379 138.343L12.9568 140.425L13.9064 142.415L14.7028 143.946L15.2235 144.957L15.5298 145.539L16.51 147.315L17.1533 148.417L17.5515 149.121C17.5515 149.121 17.7046 149.336 17.7965 149.489C19.1443 151.755 20.5839 153.929 22.0848 155.98L22.6056 156.684L22.82 156.991L23.7695 158.246L38.3805 147.529L38.2273 147.345L37.6147 146.518L37.4309 146.274L37.0021 145.692C36.2057 144.559 34.9192 142.63 33.5102 140.425L33.3264 140.088C33.225 139.908 33.1124 139.734 32.9894 139.568L32.4687 138.649L31.7336 137.302C31.6433 137.112 31.541 136.928 31.4273 136.751C31.4273 136.475 31.1516 136.23 31.0291 135.955L30.3858 134.668L29.5894 133.046L28.8543 131.361L28.1191 129.616L27.5678 127.81C27.4791 127.539 27.3769 127.273 27.2615 127.013C27.0777 126.493 26.8633 125.911 26.7101 125.36L26.4957 124.747C26.4957 124.533 26.3425 124.349 26.2813 124.104L25.9137 122.849C25.8182 122.599 25.7364 122.343 25.6687 122.084C25.6687 122.084 25.6687 121.747 25.6687 121.594L25.4849 120.981C25.4849 120.981 25.4849 120.706 25.4849 120.553C25.4982 120.482 25.4982 120.409 25.4849 120.338L25.1786 119.083L24.8723 117.797C24.8855 117.726 24.8855 117.653 24.8723 117.582C24.8723 117.582 24.8723 117.307 24.8723 117.184L24.7191 116.541V116.051C24.6504 115.8 24.5992 115.544 24.566 115.286C24.566 115.041 24.566 114.796 24.566 114.52C24.566 114.245 24.3515 113.387 24.2596 112.806C23.984 111.152 23.8002 109.468 23.647 108.121V106.773C23.6307 106.488 23.6307 106.202 23.647 105.916C23.647 105.702 23.647 105.457 23.647 105.212C23.647 104.967 23.647 104.324 23.647 103.895C23.6618 103.722 23.6618 103.548 23.647 103.375C23.647 102.885 23.647 102.425 23.647 101.997V99.6695C23.6306 99.384 23.6306 99.0977 23.647 98.8121V97.5261C23.6297 97.2304 23.6297 96.9339 23.647 96.6381V95.2602L5.32975 93.9742Z" fill="#FDFDFD"/>
<path opacity="0.53" d="M24.5046 159.318L22.6667 156.869L22.2992 156.379C20.7982 154.296 19.2361 152.092 17.9802 149.826L17.7352 149.458L17.3369 148.754L16.6324 147.529L15.8054 146.06L15.3153 145.141C15.1622 144.835 15.009 144.529 14.8252 144.222L13.0486 140.579L11.2108 136.322L10.3531 134.118C10.3531 133.811 10.1387 133.536 10.0468 133.26C9.95491 132.985 9.49544 131.791 9.28103 131.056L8.97472 130.168C8.97472 129.953 8.82156 129.739 8.7603 129.494L8.27021 127.963C8.27021 127.657 8.11705 127.351 8.02516 127.075L7.62696 125.636C7.61379 125.514 7.61379 125.391 7.62696 125.268L6.12604 119.726C6.12604 119.359 5.97289 119.022 5.91163 118.716V117.92C5.75847 117.185 5.63595 116.419 5.51342 115.654C5.17648 113.663 4.96207 111.704 4.77828 109.866L4.62513 108.09C4.62513 107.784 4.62513 107.447 4.62513 107.141V106.345V104.6V104.11C4.62513 103.467 4.62513 102.885 4.62513 102.273V100.16V96.761C4.60933 96.455 4.60933 96.1484 4.62513 95.8424V93.1172L23.6469 94.4951L23.4938 96.8528C23.4778 97.0873 23.4778 97.3226 23.4938 97.5571V100.313V101.997C23.4938 102.334 23.4938 102.701 23.4938 103.069V103.865C23.4938 104.294 23.4938 104.722 23.4938 105.151C23.5089 105.396 23.5089 105.641 23.4938 105.886C23.4938 106.161 23.4938 106.437 23.4938 106.713V108.06C23.4938 109.377 23.8001 111.122 24.0757 112.684L24.3514 114.398C24.3688 114.653 24.3688 114.909 24.3514 115.164L24.7803 117.277H24.5658H24.8415C24.8415 117.277 24.8415 117.277 24.8415 117.491L25.5154 120.216C25.5154 120.369 25.5154 120.461 25.5154 120.584L25.8523 121.716C25.8523 121.961 25.8523 122.206 26.0668 122.482L26.4343 123.737L26.6487 124.319L26.8632 124.962C26.8632 125.513 27.2307 126.065 27.4145 126.585L28.3947 129.157L29.865 132.556L31.3659 135.618C31.4802 135.816 31.5825 136.02 31.6722 136.23L32.1317 137.057L32.7137 138.129L33.2344 139.017L33.4488 139.354L33.7551 139.874C35.1335 142.14 36.3894 143.977 37.2164 145.11L37.6146 145.662L39.0542 147.56L24.5046 159.318ZM5.85037 94.5563V95.7505C5.85037 96.1486 5.85037 96.4548 5.85037 96.8222V100.099V102.273C5.85037 102.793 5.85037 103.344 5.85037 103.926V104.661C5.85037 105.212 5.85037 105.763 5.85037 106.376V107.172C5.85037 107.478 5.85037 107.815 5.85037 108.152L6.00352 109.836C6.1873 111.612 6.40172 113.541 6.73866 115.562C6.73866 116.297 6.98371 117.032 7.10623 117.766L7.90263 121.594L8.72967 124.993C8.72967 125.177 8.72967 125.299 8.72967 125.483L9.18913 127.075C9.24641 127.314 9.31801 127.549 9.40355 127.779L9.86301 129.341L10.1081 130.076L10.3531 130.841C10.5982 131.576 10.8738 132.28 11.1189 132.985L12.2829 136.047L14.0901 140.211L15.836 143.732C15.9892 144.1 16.173 144.406 16.3261 144.712L16.7856 145.57L17.6126 147.07L18.8991 149.244C20.2775 151.51 21.7172 153.684 23.1568 155.674L23.6775 156.409L23.9226 156.715L24.5046 157.481L37.6146 147.529L37.1858 146.978L37.0326 146.764L36.665 146.243C35.4016 144.538 34.2259 142.77 33.1425 140.946L32.101 139.17L31.4884 138.037L31.0596 137.272C30.9064 136.996 30.7839 136.751 30.6614 136.475L29.1911 133.413L27.5677 129.831L26.8632 128.024L26.5875 127.259V126.891C26.5875 126.432 26.2505 125.973 26.128 125.513L25.9136 124.901C25.9136 124.717 25.7604 124.503 25.6992 124.258L25.3316 123.033C25.3316 122.758 25.1478 122.482 25.0866 122.237L23.6163 116.113C23.5441 115.852 23.4929 115.586 23.4631 115.317L23.31 114.551C23.31 114 23.0956 113.418 23.0037 112.837C22.7586 111.244 22.5748 109.775 22.4217 108.121V106.774C22.4054 106.478 22.4054 106.182 22.4217 105.886V105.182C22.4217 104.722 22.4217 104.263 22.4217 103.834V103.344C22.4217 102.824 22.4217 102.364 22.4217 101.936V99.6087C22.4217 99.3025 22.4217 98.9963 22.4217 98.7207V97.4346C22.4217 97.1284 22.4217 96.8222 22.4217 96.5466V95.6893L5.85037 94.5563Z" fill="#FCFCFC"/>
<path opacity="0.5" d="M12.7422 65.0997L13.4773 63.3237L14.1512 61.8846V61.6396C14.2407 61.4195 14.343 61.2048 14.4575 60.9966C16.0944 57.5424 17.9355 54.1886 19.9711 50.9531C22.8531 46.394 26.1222 42.0913 29.7423 38.0926C31.7699 35.826 33.9171 33.6693 36.1748 31.6318C38.4863 29.4654 40.9094 27.4213 43.4343 25.5077C45.9547 23.6358 48.5722 21.8983 51.2758 20.3023C53.8817 18.7289 56.571 17.2979 59.3318 16.0154C64.2629 13.7108 69.3879 11.846 74.6472 10.4426C78.3067 9.48861 82.0195 8.75242 85.7662 8.2379L87.6041 7.99294H88.5843H88.8293L90.1158 7.83984L91.8924 25.5996H90.7897H90.4834H89.7176L88.2473 25.8139C85.1476 26.2404 82.0783 26.8643 79.0581 27.6818C70.0133 30.1621 61.5143 34.3166 54.002 39.9299C50.0741 42.9798 46.4527 46.405 43.1893 50.157L42.6686 50.7388L41.9947 51.5043L40.8613 52.821L39.8199 54.1683C39.6781 54.324 39.5451 54.4875 39.4217 54.6582L38.7784 55.4849C37.5226 57.169 36.3586 58.8838 35.2865 60.5679C33.644 63.1703 32.1608 65.8698 30.845 68.6516L30.6 69.1722V69.3559L30.018 70.6726L29.4667 71.9893L12.7422 65.0997ZM89.9626 8.05418H88.9825H88.5843H87.6347L85.8275 8.29914C82.0598 8.86362 78.3271 9.64058 74.6472 10.6263C69.4589 12.0348 64.4055 13.8997 59.5462 16.1992C56.793 17.4656 54.1136 18.8866 51.5209 20.4554C48.8317 22.0587 46.2248 23.7961 43.71 25.6608C41.2289 27.498 38.7784 29.519 36.4811 31.6011C34.1838 33.6833 32.1009 35.7961 30.0486 38.062C26.4504 42.0603 23.1922 46.3518 20.308 50.8919C18.3023 54.113 16.482 57.4458 14.8557 60.8741L14.5494 61.5477C14.5595 61.6188 14.5595 61.691 14.5494 61.7621L13.9062 63.2319L13.2935 64.671L29.3135 71.3462L29.8036 70.1826L30.3549 68.9885V68.8047C30.4238 68.6156 30.5056 68.4314 30.6 68.2536C31.9224 65.4751 33.4054 62.776 35.0415 60.1698C36.1136 58.4551 37.3082 56.7404 38.564 55.0563L39.2073 54.2295L39.5748 53.709L40.6776 52.3923L41.7803 51.045L42.4541 50.2795L42.9749 49.6977C46.3424 45.9748 50.0665 42.5904 54.0939 39.593C58.1184 36.6137 62.4277 34.0392 66.9589 31.9074C70.9026 30.0417 75.0025 28.5253 79.2112 27.3755C82.2361 26.5703 85.3041 25.9365 88.4005 25.4771L89.8708 25.2934H90.6672H90.9735H91.7392L89.9626 8.05418Z" fill="#FDFDFD"/>
<path opacity="0.75" d="M12.0073 65.407L13.7227 61.4876L14.0596 60.7527C15.695 57.2879 17.5362 53.9238 19.5732 50.6786C22.4956 46.103 25.7839 41.7714 29.4057 37.7263C31.4886 35.4604 33.6634 33.2557 35.8994 31.2348C38.2204 29.0672 40.6538 27.023 43.1896 25.1107C45.7319 23.2429 48.3662 21.4669 51.0923 19.8441C53.7122 18.2769 56.4113 16.846 59.1789 15.5572C64.1078 13.2393 69.2331 11.3641 74.4943 9.95372C78.2033 8.97516 81.9674 8.21853 85.7665 7.68782L87.5737 7.44286H88.5845L90.79 7.22852L92.6584 26.2131L90.8512 26.4274H89.9936L88.4926 26.6111C85.4702 27.0751 82.4744 27.6986 79.5178 28.479C75.3174 29.629 71.2193 31.1243 67.2654 32.9495C62.7891 35.0576 58.5313 37.6011 54.5536 40.5433C50.5741 43.5191 46.8915 46.8723 43.5571 50.5562L43.067 51.1379L42.3932 51.8728L40.1877 54.5368C40.0954 54.6767 39.993 54.8097 39.8814 54.9348L39.1769 55.8535C37.9517 57.5069 36.7877 59.2217 35.7156 60.9058C34.0771 63.484 32.6039 66.1636 31.3048 68.9283L31.121 69.2957H30.6309H30.9066L29.5588 72.3578L12.0073 65.407ZM89.4728 8.66767H88.6764H87.7269L85.889 8.91263C76.847 10.2077 68.0501 12.85 59.7915 16.7514C57.0548 18.0197 54.3862 19.4301 51.7968 20.977C49.1212 22.5594 46.5341 24.2869 44.0472 26.1518C41.5086 28.0604 39.075 30.1048 36.7571 32.2759C34.6129 34.2356 32.4688 36.4708 30.6309 38.6755C27.0481 42.6464 23.8004 46.9069 20.9209 51.4135C18.8605 54.6189 16.9888 57.9418 15.3155 61.3651L15.0398 61.9163C15.0006 62.0336 14.9493 62.1465 14.8866 62.2531L13.8452 64.6415L28.8849 70.7655L29.8039 68.6833L30.0489 68.1628C31.3822 65.3643 32.8753 62.6448 34.521 60.0178C35.5931 58.3031 36.7877 56.5577 38.0742 54.8736L38.6868 54.0469L39.085 53.5263L41.3211 50.8317L42.5157 49.4844C45.9145 45.7317 49.669 42.3169 53.7266 39.2879C61.3368 33.6687 69.9271 29.5153 79.0583 27.0398C82.0791 26.2174 85.1481 25.5833 88.2476 25.1414L89.7179 24.927H90.5143H91.0656L89.4728 8.66767Z" fill="#FCFCFC"/>
<path opacity="0.57" d="M157.565 154.695L162.344 158.676V159.411C162.344 159.84 162.129 160.452 161.976 161.034C161.823 161.616 161.7 162.228 161.578 162.687C161.455 163.147 161.578 163.085 161.578 163.238V163.422L168.164 169.546L174.719 175.67L173.126 176.099L172.023 176.405H171.533L152.726 158.707L153.553 158.094C154.043 157.727 154.717 157.267 155.36 156.747L156.309 155.981C156.597 155.772 156.873 155.547 157.136 155.308L157.565 154.695Z" fill="#FDFDFD"/>
<path opacity="0.61" d="M157.198 154.357L156.218 153.652L155.421 154.295L154.625 154.938L153.706 155.673C153.063 156.194 152.419 156.653 151.929 157.021L151.347 157.449H151.133L151.96 158.245H152.205L152.818 157.786L154.594 156.469L155.544 155.735L156.371 155.061L157.198 154.357Z" fill="#FDFDFD"/>
<path opacity="0.78" d="M41.2598 175.579L52.2869 161.31L53.359 162.106L53.6959 162.381L55.0437 163.33L55.5338 163.667L55.8707 163.882L56.7896 164.525L58.5662 165.688L58.9338 165.903L59.4239 166.178L60.159 166.637C62.0464 167.755 63.9888 168.777 65.9789 169.699C68.3101 170.851 70.7029 171.873 73.1465 172.761H73.6366L75.1375 173.282L75.842 173.496H76.179L77.1898 173.803L78.2619 174.109H78.6294L79.3033 174.323H80.0385C80.4979 174.323 80.988 174.599 81.5088 174.691L82.6115 174.966L83.7448 175.18L85.2457 175.487H86.0115H86.716H87.1755H87.7575H88.3394H89.0439L90.698 175.701C92.2602 175.885 93.7611 175.977 95.4764 176.068H97.2836H101.082H102.889H104.696H105.278H106.504H107.208H107.698L109.291 175.885H110.057C118.609 174.672 126.894 172.022 134.561 168.046C136.461 167.066 138.36 165.964 140.259 164.77L140.933 164.341L141.453 164.004L143.138 162.841L143.536 162.565L143.904 162.289L144.455 161.922L145.956 160.789L147.028 159.932L147.641 159.442L148.07 159.074L159.587 172.976L159.097 173.374L158.331 173.986L156.983 175.058L155.881 175.885L155.115 176.467L154.41 176.956L154.012 177.263L153.093 177.906L152.756 178.12L151.408 179.039L150.735 179.467L149.908 179.988C147.61 181.488 145.221 182.836 142.862 184.06C140.002 185.545 137.068 186.884 134.071 188.072C130.729 189.391 127.313 190.516 123.841 191.44C120.132 192.435 116.368 193.212 112.568 193.767H111.741L109.628 194.043H109.107H108.158H106.687H105.983H103.747H101.511H97.008H94.7719C92.9034 194.043 90.8818 193.828 88.8908 193.583L86.7466 193.338H85.9809H85.2457H84.5412H84.0205H83.1016H82.2745L80.2835 192.94L78.9051 192.665L77.5267 192.358L75.6276 191.869L74.8312 191.685L73.9429 191.44H73.5141L72.2276 191.072L70.9411 190.674H70.5429L69.6546 190.399L67.6023 189.694L67.2041 189.541C64.1795 188.465 61.2143 187.228 58.3212 185.836C55.8401 184.612 53.4202 183.325 51.1229 181.978L50.1427 181.366L49.5914 181.06L48.8869 180.631L46.8652 179.314L45.8238 178.61L45.4256 178.334L44.7823 177.906L43.1589 176.711L42.7301 176.375H42.5156L41.2598 175.579ZM52.3481 161.799L41.7499 175.487L42.7301 176.252L42.9445 176.405L43.3733 176.711L44.9967 177.906L45.64 178.334L46.0076 178.61L47.1409 179.375L49.1013 180.631L49.8058 181.06L50.3265 181.396L51.3067 181.978C53.5734 183.325 55.9932 184.612 58.4743 185.806C61.377 187.199 64.3525 188.436 67.3879 189.511L68.0005 189.725L69.8384 190.338L70.7267 190.644H71.0942L72.3807 191.072L73.6672 191.44H74.0961L74.9844 191.654L75.7501 191.869L77.6799 192.328L79.0276 192.665L80.406 192.94L82.397 193.308H83.2241L84.143 193.461H84.6637H85.3682H86.0727H86.8385L88.9827 193.706C90.9737 193.951 92.9953 194.073 94.8638 194.196H97.0999H101.541H103.777H106.013H106.749H108.219H109.168H109.689L111.772 193.951H112.63C119.976 192.917 127.173 191.015 134.071 188.286C137.134 187.092 140.014 185.775 142.832 184.305C145.16 183.081 147.549 181.733 149.846 180.263L150.673 179.712L151.317 179.284L152.695 178.396L153.001 178.181L153.92 177.508L154.318 177.232L155.023 176.711L155.789 176.16L156.891 175.334L158.239 174.262C158.545 174.017 158.79 173.833 158.974 173.649L159.189 173.466L148.162 160.146H148.008L147.396 160.636L146.293 161.493L144.792 162.626L144.241 163.024L143.873 163.3L143.138 163.82L141.76 164.739L141.27 165.045L140.565 165.504C138.666 166.699 136.736 167.801 134.837 168.811C129.962 171.386 124.828 173.439 119.522 174.936C116.495 175.725 113.427 176.349 110.332 176.803H109.536L107.943 177.018H107.208H106.473H105.248H104.666H102.828H101.021H97.4368H95.599C93.9755 177.018 92.3827 176.803 90.7899 176.62L89.1358 176.436C88.9013 176.419 88.6659 176.419 88.4313 176.436H87.8493H87.2674H86.8385H86.1034H85.3376L83.8061 176.13L82.6727 175.915L81.57 175.67L80.0691 175.303L79.3952 175.119L78.6601 174.936H78.3231L77.2511 174.629L76.2096 174.323H75.9033L75.1682 174.078L73.6672 173.588L73.1771 173.404C70.7267 172.517 68.3068 171.475 65.9789 170.342C63.6509 169.21 61.9969 168.322 60.1284 167.28L59.3932 166.821L58.9032 166.546L58.1986 165.903L56.6365 164.892L55.6869 164.249L55.3806 164.035L55.1356 163.759L53.6346 162.841L53.2977 162.596L52.3481 161.799Z" fill="#FDFDFD"/>
<path opacity="0.61" d="M40.4941 176.184L52.0726 161.058L53.5735 162.191V162.558L53.788 162.252L54.0943 162.497L55.442 163.446L55.9321 163.813L60.5267 166.875C62.3646 167.947 64.2943 168.988 66.2853 169.937C68.2764 170.887 71.0025 172.05 73.4223 172.999L75.4133 173.673L75.9341 173.857L78.844 174.714L79.5485 174.898L80.253 175.082L81.6927 175.449L83.9287 175.939L85.4296 176.215H86.1954H86.6855L89.1972 176.582L90.8207 176.796C92.4135 176.98 93.8838 177.072 95.5991 177.164H99.1829H102.797L106.381 176.919H106.994H107.576C108.089 176.888 108.601 176.827 109.107 176.735H109.842C112.942 176.306 116.011 175.682 119.032 174.867C124.334 173.452 129.469 171.47 134.347 168.958C136.246 167.978 138.145 166.875 140.014 165.681L140.718 165.253L141.208 164.916L143.659 163.232L144.18 162.864L146.753 160.874L147.365 160.384L148.223 159.68L160.475 174.408L159.556 175.174L158.791 175.786L155.728 178.266L155.207 178.634H154.992L154.594 178.909L153.675 179.583L153.338 179.797L151.991 180.716L151.317 181.144L150.49 181.665C148.162 183.165 145.773 184.543 143.383 185.768C140.516 187.26 137.571 188.599 134.562 189.779C131.202 191.118 127.766 192.253 124.27 193.178C120.544 194.188 116.759 194.965 112.936 195.505H112.079L110.088 195.75H109.567L107.116 195.995H106.871H106.381L101.878 196.21H97.0081H94.7721C92.9648 196.21 90.8819 195.995 88.8297 195.75L86.7468 195.505H85.9197H85.154L82.0909 195.015C81.417 195.015 80.7431 194.77 80.0692 194.648L77.3125 194.036L75.444 193.576L74.6169 193.362L73.698 193.117L70.4511 192.015L69.5322 191.708L67.0818 190.882C64.0187 189.779 60.9556 188.524 58.1375 187.146C55.3195 185.768 53.1753 184.605 50.9086 183.257L50.051 182.767L44.5374 179.154L42.8834 177.96L42.4545 177.654L40.4941 176.184ZM52.4402 163.079L42.5158 175.908L45.3338 177.96L45.9464 178.389L47.4474 179.43L50.5104 181.451L51.4906 182.032C53.7573 183.38 56.1465 184.635 58.597 185.829C61.0475 187.024 64.4475 188.432 67.4187 189.504L69.8692 190.361L70.6656 190.606L74.0962 191.617L74.9539 191.862L75.7503 192.076L77.6188 192.535L80.3756 193.148L82.1215 193.454L83.163 193.668H83.99L85.3071 193.882H85.981H86.7468C87.4513 193.882 88.1558 194.097 88.8603 194.158C90.9126 194.403 92.9648 194.526 94.7414 194.617H99.1829H103.624L109.475 194.127L111.527 193.882H112.385C116.15 193.317 119.882 192.551 123.565 191.586C126.996 190.657 130.371 189.532 133.673 188.218C136.647 187.071 139.552 185.752 142.372 184.268C144.731 183.043 147.09 181.696 149.387 180.256L150.306 179.644L150.827 179.307L153.89 177.225L154.564 176.735L157.627 174.286L158.147 173.857L147.794 161.364L147.427 161.639L144.823 163.63L144.486 163.905L141.79 165.742L141.27 166.11L140.596 166.539C138.697 167.733 136.767 168.866 134.807 169.876C129.855 172.471 124.638 174.525 119.246 176C116.221 176.806 113.153 177.44 110.057 177.899H109.077H107.637H107.178L105.248 178.082L105.064 177.746V178.664H102.828H99.1523H95.5072C93.9757 178.664 92.291 178.45 90.6369 178.266L88.9828 178.052H88.309H87.6657L86.6549 177.899H85.8891H85.1233L83.5918 177.593L81.3557 177.103L79.9161 176.735L79.1503 176.551L78.4152 176.337L75.9647 175.633H75.6584L74.9233 175.388L72.9016 174.684C70.428 173.795 68.0046 172.773 65.6421 171.622C63.5898 170.642 61.6294 169.57 59.761 168.56L54.5843 165.222L52.869 163.997L52.4402 163.079Z" fill="#FDFDFD"/>
</svg>
