<svg width="131" height="131" viewBox="0 0 131 131" fill="none" xmlns="http://www.w3.org/2000/svg">
<path opacity="0.78" d="M112.197 106.125L112.841 105.36C113.055 105.115 113.3 104.839 113.576 104.472L114.004 103.921L114.495 103.308C116.117 101.195 117.61 98.9866 118.967 96.6941L119.518 95.7449L120.039 94.8263L120.988 92.9585L121.448 92.0399C121.448 91.7337 121.723 91.4581 121.846 91.1825C122.108 90.6538 122.343 90.1122 122.551 89.5596C123.01 88.5798 123.316 87.7224 123.561 87.1406L123.898 86.1914L126.961 87.2631L126.624 88.243C126.379 88.886 126.042 89.774 125.583 90.815C125.369 91.3356 125.093 91.9174 124.817 92.4992C124.542 93.081 124.542 93.1116 124.388 93.4178L123.929 94.367C123.592 95.01 123.286 95.6531 122.918 96.3267L122.367 97.3065L121.785 98.317C120.375 100.723 118.809 103.035 117.098 105.237L116.608 105.88L116.118 106.462L115.352 107.411L114.678 108.207L112.197 106.125Z" fill="#FCFCFC"/>
<path opacity="0.78" d="M108.43 102.879L108.95 102.297L109.502 101.624L110.206 100.736C111.469 99.136 112.645 97.4699 113.729 95.7444C114.84 94.0113 115.862 92.2228 116.792 90.3859L117.282 89.3754C117.387 89.1022 117.51 88.8363 117.65 88.5793L117.864 88.0587V87.875L120.927 89.1304V89.3142C120.927 89.4673 120.927 89.6204 120.682 89.8653C120.437 90.1103 120.437 90.3859 120.314 90.7227L119.794 91.7944C118.997 93.3866 117.895 95.4382 116.731 97.4285C115.567 99.4188 114.096 101.317 113.024 102.695L112.259 103.614C112.044 103.92 111.83 104.134 111.677 104.349L111.156 104.961L108.43 102.879Z" fill="#FCFCFC"/>
<path opacity="0.71" d="M19.5699 95.3776L18.9266 94.4283L18.1302 93.1729C17.5482 92.2237 16.905 91.1214 16.2617 89.8966C15.6185 88.6718 14.9752 87.3551 14.3933 86.0078C13.8113 84.6605 13.2905 83.2826 12.8617 81.9965L12.2491 80.0981C12.2491 79.7919 12.2491 79.4857 12.004 79.2101C11.759 78.9345 12.004 78.9345 12.004 78.7814V78.3833C12.004 78.1078 11.8509 77.8628 11.7896 77.6178C11.7284 77.3729 11.7896 77.1279 11.6365 76.9136C11.4833 76.6992 11.6365 76.4849 11.4833 76.3012V75.7806C11.4833 75.4744 11.4833 75.2295 11.3302 75.0457V74.8008L1.40576 76.6686C1.40576 76.6686 1.40576 76.6686 1.40576 77.0054C1.48619 77.2868 1.54759 77.5732 1.58955 77.8628C1.58955 78.0465 1.58955 78.2609 1.58955 78.4752C1.58955 78.6895 1.58954 78.9345 1.77333 79.2101C1.95711 79.4857 1.77333 79.7306 1.95712 80.0368C2.1409 80.343 2.11027 80.6186 2.20217 80.9248C2.98876 84.0601 4.01274 87.1309 5.26525 90.1109C5.96976 91.7032 6.7049 93.1729 7.47068 94.7346C8.23645 96.2962 9.00222 97.4904 9.70673 98.6233L10.6563 100.124L11.4221 101.257L12.1266 102.237L20.305 96.3268C20.0791 95.996 19.8336 95.6791 19.5699 95.3776ZM12.4329 89.9578C12.5997 90.1217 12.7439 90.307 12.8617 90.509C12.9552 90.7234 13.0171 90.9504 13.0455 91.1826C13.092 91.3944 13.092 91.6138 13.0455 91.8256C12.9639 91.9832 12.8355 92.1116 12.6779 92.1931C12.5097 92.2539 12.3254 92.2539 12.1572 92.1931C11.9337 92.1611 11.7281 92.0529 11.5752 91.8869C11.3909 91.7394 11.244 91.5506 11.1464 91.3357C11.0297 91.1281 10.9567 90.8989 10.932 90.6621C10.8824 90.4506 10.8824 90.2305 10.932 90.019C11.0117 89.8524 11.1398 89.7137 11.2995 89.621C11.4779 89.5579 11.6725 89.5579 11.8509 89.621C12.0738 89.6736 12.2763 89.7907 12.4329 89.9578V89.9578ZM11.2995 87.1714C11.3223 87.2246 11.334 87.2819 11.334 87.3398C11.334 87.3977 11.3223 87.455 11.2995 87.5082C11.2863 87.5687 11.2863 87.6314 11.2995 87.6919L11.1464 88.1512C11.1464 88.488 10.932 88.8249 10.932 88.8249L11.6977 88.488C11.6977 88.488 11.9428 88.488 12.004 88.488C12.0653 88.488 12.004 88.8861 12.004 88.9473L10.595 89.621C10.595 89.621 10.3193 89.621 10.2275 89.3454C10.2047 89.2922 10.193 89.2349 10.193 89.177C10.193 89.1191 10.2047 89.0618 10.2275 89.0086L10.4419 88.3349L10.595 87.8756C10.5893 87.8145 10.5893 87.753 10.595 87.6919L9.82925 87.9981C9.82925 87.9981 9.58421 87.9981 9.52294 87.8144C9.46168 87.6307 9.52294 87.4163 9.52294 87.3551L10.9626 86.7733C11.0851 86.8651 11.2076 86.957 11.2995 87.1714ZM9.2779 84.8442C9.43105 84.8442 9.55358 84.8442 9.64547 85.0586V85.2729V85.5791C9.64547 85.8241 9.64547 85.9465 9.64547 86.0078C9.64547 86.069 9.36979 86.0078 9.2779 85.7934C9.23759 85.6766 9.18631 85.5638 9.12475 85.4566C9.13284 85.3854 9.13284 85.3135 9.12475 85.2423V85.2423C9.09412 85.0279 9.12474 84.8748 9.2779 84.8442ZM8.51213 84.8442C8.66528 84.8442 8.78781 84.8442 8.8797 85.0892L9.12475 85.7322L9.36979 86.3752L10.2887 86.0078C10.2125 85.8718 10.1307 85.739 10.0437 85.6097L9.79862 84.9667C9.79862 84.7524 9.79862 84.6299 9.79862 84.5686C9.79862 84.5074 10.0743 84.5686 10.1356 84.783V85.0586C10.1356 85.0586 10.1356 85.3954 10.35 85.6097L10.6563 86.3752C10.6563 86.5896 10.6563 86.7427 10.6563 86.8039L9.24727 87.3857C9.09411 87.3857 8.97159 87.3857 8.8797 87.1407C8.78781 86.8958 8.72654 86.7121 8.54276 86.314C8.54608 86.0788 8.53585 85.8437 8.51213 85.6097V85.3648C8.32834 85.1198 8.51213 84.9667 8.51213 84.9361V84.8442ZM12.0653 101.93L11.3608 100.981L10.595 99.8175L9.64547 98.3171C8.97159 97.2148 8.17518 95.8981 7.40941 94.459C6.64364 93.0198 5.9085 91.3969 5.23462 89.8659C3.99781 86.8801 2.97422 83.8104 2.17153 80.6799C2.17153 80.3737 2.01838 80.0675 1.95712 79.7919C1.87323 79.5218 1.81176 79.2453 1.77333 78.9651C1.77333 78.6896 1.77333 78.4446 1.58955 78.2302C1.40576 78.0159 1.58955 77.8016 1.58955 77.6178C1.58955 77.4341 1.43639 76.9442 1.40576 76.7605C1.41363 76.6586 1.41363 76.5562 1.40576 76.4543L3.21298 76.1175C3.21926 76.2092 3.21926 76.3013 3.21298 76.393C3.21298 76.6074 3.21298 76.8829 3.39677 77.2504C3.38538 77.4441 3.38538 77.6384 3.39677 77.8322C3.39677 78.0465 3.39677 78.2915 3.54992 78.5365L3.73371 79.3326C3.73371 79.6081 3.73371 79.9144 3.97876 80.2206C4.76577 83.2262 5.79001 86.1648 7.04184 89.0086C7.71572 90.5396 8.45086 92.0706 9.186 93.4791C9.92114 94.8877 10.6563 96.1737 11.3302 97.2454L12.2491 98.6846L13.0149 99.8175L13.6887 100.736L12.0653 101.93Z" fill="#FBFBFB"/>
<path opacity="0.79" d="M2.38592 46.998V47.3042C2.38592 47.488 2.38592 47.7942 2.17151 48.1616L1.83457 49.4783C1.7775 49.7574 1.70593 50.0334 1.62015 50.305L1.43637 51.2236C1.43637 51.5605 1.43637 51.8973 1.22195 52.2341L1.03816 53.3058C1.05244 53.4893 1.05244 53.6735 1.03816 53.857V54.4388C1.03816 54.8368 1.03817 55.2349 0.885011 55.633C0.639964 57.2558 0.486809 58.9706 0.364285 60.7159C0.241762 62.4613 0.211131 64.2066 0.364285 65.8295C0.364285 66.2276 0.364285 66.6562 0.364285 67.0237C0.364285 67.3911 0.364285 67.8198 0.364285 68.1872V69.259C0.364285 69.6264 0.364285 69.9632 0.364285 70.3001C0.364285 71.5861 0.609329 72.6578 0.731853 73.3621C0.854376 74.0663 0.731853 74.0357 0.731853 74.2501V74.5563L10.7175 72.9946C10.7112 72.9029 10.7112 72.8108 10.7175 72.7191C10.7175 72.7191 10.7175 72.2904 10.7175 71.9842C10.7175 71.678 10.5337 70.4225 10.4418 69.3508C10.2364 66.6602 10.2364 63.9578 10.4418 61.2671C10.4418 59.7973 10.6869 58.2051 10.8707 56.9803C10.9021 56.6408 10.9533 56.3034 11.0238 55.9698C11.0387 55.8068 11.0387 55.6428 11.0238 55.4799V55.0206C11.0238 54.6837 11.0238 54.4081 11.2076 54.1019C11.3914 53.7957 11.2076 53.5202 11.3608 53.2752C11.5139 53.0302 11.3608 52.724 11.5446 52.5097C11.7283 52.2954 11.5446 52.0198 11.6977 51.8054C11.8509 51.5911 11.9121 50.9787 12.004 50.6725C12.046 50.4331 12.1075 50.1976 12.1878 49.9682V49.6926L2.38592 46.998ZM4.19315 47.8248C4.19315 48.0085 4.19315 48.3147 3.97873 48.6515L3.64179 49.9376C3.64179 50.2132 3.64179 50.4581 3.45801 50.7643C3.27422 51.0705 3.30485 51.3155 3.24359 51.6523L3.0598 52.6016L2.87602 53.6426C2.87602 53.8264 2.87602 54.0101 2.87602 54.1938C2.86095 54.3772 2.86095 54.5616 2.87602 54.745L2.38592 55.9085C2.17151 57.4702 1.98772 59.1543 1.89583 60.8384C1.80394 62.5225 1.74268 64.2066 1.89583 65.7989C1.89583 66.1969 1.89583 66.595 1.89583 66.9625C1.89583 67.3299 1.89583 67.7279 1.89583 68.0648C1.89583 68.4016 1.89583 68.7997 1.89583 69.1365V70.1163C1.89583 71.3718 2.14088 72.4129 2.23277 73.1784C2.32466 73.9439 2.23277 73.852 2.23277 74.0357V74.3419L0.394917 74.6175C0.401149 74.5155 0.401149 74.4133 0.394917 74.3113C0.394917 74.1276 0.394917 73.8214 0.394917 73.4539C0.394917 73.0865 0.149867 71.6167 0.0273438 70.3919C0.0273438 70.0857 0.0273438 69.7489 0.0273438 69.3814C0.0273438 69.0446 0.0273438 68.6772 0.0273438 68.3097C0.0273438 67.9423 0.0273438 67.5442 0.0273438 67.1462C0.0273438 66.7481 0.0273438 66.35 0.0273438 65.952C0.0273438 64.3291 0.0273438 62.5838 0.0273438 60.8384C0.0273438 59.0931 0.303021 57.3783 0.517437 55.7554L0.701227 54.5919V54.0101V53.4589C0.701227 53.0915 0.85438 52.724 0.915642 52.3872C0.976904 52.0504 1.0688 51.6829 1.13006 51.3767L1.31384 50.4581L1.49762 49.6314C1.49762 49.1108 1.74267 48.6822 1.83457 48.3147C1.92646 47.9473 2.01835 47.6411 2.07961 47.4574V47.1512L3.8562 47.6717L4.19315 47.8248ZM6.49046 65.309H5.2346V65.8295C5.2346 66.0745 5.2346 66.1969 4.98955 66.1969C4.7445 66.1969 4.71387 66.1969 4.71387 65.8601V64.176C4.71387 63.9617 4.71387 63.8698 4.95892 63.8698C5.20397 63.8698 5.2346 63.8698 5.20397 64.2066V64.7272H6.49046C6.64362 64.7272 6.73551 64.7272 6.73551 65.064C6.73551 65.4008 6.61299 65.309 6.45983 65.309H6.49046ZM6.76614 61.3589C6.53397 61.5792 6.32837 61.8258 6.15352 62.0938L6.70488 62.89C6.72227 62.9707 6.72227 63.0542 6.70488 63.1349C6.70488 63.3799 6.70488 63.4717 6.45983 63.4717H4.95892C4.77513 63.4717 4.68324 63.4717 4.71387 63.1349C4.71387 62.89 4.71387 62.7675 4.95892 62.7675H5.84721C5.75953 62.6148 5.65693 62.4712 5.54091 62.3388C5.51996 62.2481 5.51996 62.1539 5.54091 62.0632C5.54091 62.0632 5.54091 61.8795 5.54091 61.8183L5.87784 61.3895H4.98955C4.8364 61.3895 4.7445 61.3896 4.77513 61.0221C4.80577 60.6547 4.77514 60.6547 5.05081 60.6853H6.55173C6.70488 60.6853 6.79677 60.6853 6.76614 61.0527C6.78361 61.1557 6.77303 61.2615 6.73551 61.3589H6.76614ZM6.76614 59.7667C6.67646 59.9523 6.53903 60.1109 6.36794 60.226C6.21374 60.3283 6.03225 60.3816 5.84721 60.3791C5.66401 60.3663 5.49087 60.2906 5.35712 60.1648C5.19973 60.0127 5.08376 59.823 5.02018 59.6136C4.97624 59.3809 4.97624 59.142 5.02018 58.9093C5.04474 58.6763 5.1068 58.4489 5.20397 58.2357C5.25203 58.0576 5.33535 57.891 5.44901 57.7458C5.60321 57.6435 5.7847 57.5901 5.96974 57.5926C6.15864 57.629 6.33063 57.7258 6.45983 57.8682C6.61421 58.0052 6.72141 58.1874 6.76614 58.3888C6.93026 58.8334 6.93026 59.322 6.76614 59.7667V59.7667Z" fill="#FBFBFB"/>
<path opacity="0.89" d="M18.3447 22.4102L18.1303 22.6245L17.579 23.2675L16.6907 24.278L15.588 25.6253L14.9753 26.3908L14.3321 27.2175L13.6888 28.1361L12.9843 29.0854C12.096 30.3714 11.1771 31.8106 10.3194 33.2497C10.1357 33.6172 9.89061 33.9846 9.70683 34.3521L9.09422 35.4544C8.72664 36.1893 8.32844 36.9242 7.9915 37.6284L7.04195 39.7106C6.76627 40.3842 6.49059 41.0273 6.27617 41.609C6.06176 42.1908 6.03112 42.1908 5.93923 42.4664C5.82397 42.7161 5.72173 42.9716 5.63292 43.2319C5.63292 43.4769 5.63292 43.6912 5.38787 43.9056L5.20409 44.4873L4.92841 45.2835C4.9223 45.3548 4.9223 45.4265 4.92841 45.4978L12.678 47.9781C12.678 47.9781 12.678 47.9781 12.678 47.7943C12.678 47.6106 12.678 47.3963 12.9231 47.0595C12.9944 46.9001 13.0558 46.7365 13.1069 46.5695C13.1069 46.3858 13.1069 46.2021 13.3213 45.9877C13.5357 45.7734 13.4744 45.559 13.5663 45.3141L13.842 44.5792L14.5465 42.9563C14.7916 42.3746 15.0672 41.7622 15.3735 41.1498C15.6799 40.5373 15.9862 39.8943 16.3231 39.2513C16.4783 38.9251 16.6522 38.6082 16.8438 38.3021L17.3952 37.3222C18.1303 36.0668 18.9267 34.8114 19.7231 33.709C19.8921 33.4167 20.0869 33.14 20.3051 32.8823L20.8565 32.0861L21.4385 31.3513L21.9592 30.6776L22.9394 29.5141L23.6745 28.6567L24.1952 28.0749L24.379 27.8912L18.3447 22.4102ZM16.7519 30.4939C16.7519 30.4939 16.7519 30.7389 16.7519 30.9226L16.5375 31.1982V31.4125C16.5375 31.5962 16.2618 31.6269 16.1393 31.4125C16.0168 31.1982 15.9862 31.1676 16.1393 30.9838V30.8001C16.2007 30.7008 16.2726 30.6084 16.3537 30.5245C16.4763 30.4939 16.5988 30.3102 16.7519 30.4939ZM11.5753 41.1498C11.5753 41.3641 11.3609 41.4253 11.2077 41.3641L10.0438 40.8435C10.0365 40.925 10.0365 41.007 10.0438 41.0885V41.3335C10.0438 41.5478 9.82935 41.6397 9.6762 41.5784C9.52304 41.5172 9.49241 41.3641 9.6762 41.1498V40.8742L9.92124 40.323L10.2888 39.4963C10.2888 39.3125 10.4113 39.2513 10.6564 39.3125C10.8095 39.3125 10.8095 39.5269 10.6564 39.7412L10.4113 40.2311L11.5753 40.7517C11.5753 40.7517 11.7897 40.9354 11.5753 41.1498ZM12.3411 39.5269C12.2186 39.7106 12.096 39.7718 11.9735 39.7106L10.5951 39.0676C10.5951 39.0676 10.4113 38.8532 10.5951 38.6389C10.7789 38.4246 10.8095 38.3633 10.9627 38.4245L12.3105 39.0982C12.3105 39.0982 12.5555 39.3125 12.4636 39.68L12.3411 39.5269ZM13.1069 37.9958C13.1069 38.2102 12.8618 38.2714 12.7087 38.1796L12.2798 37.9346L12.0348 38.3939C12.0348 38.6083 11.8204 38.6695 11.6366 38.6083C11.4528 38.547 11.6366 38.3939 11.6366 38.1796L11.8816 37.7203L11.5753 37.4753C11.5753 37.4753 11.5753 37.261 11.5753 37.0466C11.5753 36.8323 11.8204 36.7711 11.9735 36.8629L13.3213 37.5672C13.4744 37.5672 13.4744 37.7815 13.3213 37.9958H13.1069ZM14.424 35.6381C14.3544 35.7418 14.2595 35.8262 14.1483 35.8831L13.26 36.1586C13.212 36.1807 13.1597 36.1921 13.1069 36.1921C13.054 36.1921 13.0018 36.1807 12.9537 36.1586C12.8006 36.1586 12.8006 35.9137 12.9537 35.73V35.5156C12.9537 35.3625 12.9537 35.24 12.9537 35.2094C12.9537 35.1788 12.8006 35.2094 12.678 35.3931C12.6274 35.5109 12.5659 35.6237 12.4942 35.73L12.3105 36.0668L13.4132 36.6792C13.4132 36.6792 13.597 36.8935 13.4132 37.1079C13.2294 37.3222 13.1681 37.3528 13.015 37.2916L11.9735 36.6179C11.8204 36.6179 11.8204 36.4036 11.9735 36.1893L12.2798 35.6381L12.5861 35.1176C12.6897 34.9218 12.8498 34.7617 13.0456 34.6583C13.2138 34.5974 13.3981 34.5974 13.5663 34.6583C13.699 34.7383 13.8055 34.8554 13.8726 34.9951C13.9102 35.0658 13.9298 35.1446 13.9298 35.2247C13.9298 35.3048 13.9102 35.3837 13.8726 35.4544L14.3627 35.24C14.3967 35.2257 14.4331 35.2183 14.4699 35.2183C14.5068 35.2183 14.5432 35.2257 14.5771 35.24C14.6384 35.3013 14.6384 35.4544 14.6384 35.6381H14.424ZM15.8024 33.3416L15.3429 34.0765L14.9141 34.7807C14.9141 34.9951 14.669 35.0563 14.5159 34.9645L13.2294 34.1683C13.2294 34.1683 13.2294 33.954 13.2294 33.7396L13.6888 32.9741L14.1789 32.2393C14.1789 32.0555 14.424 31.9943 14.5465 32.2393C14.669 32.4842 14.6997 32.4842 14.5465 32.6986L14.1789 33.2804L14.0258 33.5559V33.7396L14.8835 34.2602V34.0765C14.9786 33.9526 15.0608 33.8192 15.1285 33.6784C15.2713 33.4916 15.4043 33.2974 15.5267 33.0966C15.5267 32.9129 15.7717 32.8823 15.9249 33.0966C16.0781 33.311 16.0474 33.1579 15.9249 33.3416H15.8024ZM14.669 32.821C14.669 32.6067 14.9447 32.5761 15.0672 32.6679C15.1898 32.7598 15.2204 32.9129 15.0672 33.0966L14.669 33.6784C14.669 33.8621 14.424 33.9234 14.3015 33.6784C14.1789 33.4334 14.1483 33.4334 14.3015 33.2497L14.669 32.821ZM17.3339 31.1369L17.1808 31.3513L16.8438 31.8412L16.3537 32.5454C16.3537 32.7292 16.1087 32.7598 15.9555 32.5454L14.6997 31.7187C14.6997 31.7187 14.6997 31.4738 14.6997 31.29L15.1898 30.5551C15.1898 30.3408 15.4654 30.1877 15.5573 30.0346L15.7105 29.8202C15.7105 29.6365 15.9862 29.6059 16.1087 29.8202C16.2312 30.0346 16.1087 30.0652 16.1087 30.2489L15.7105 30.8001L15.3123 31.3819L16.1393 31.9637L16.5375 31.3819L16.9357 30.8307C16.9357 30.647 17.2114 30.6164 17.3339 30.8307C17.4564 31.0451 17.7015 30.9532 17.4564 31.1369H17.3339Z" fill="#FBFBFB"/>
<path opacity="0.66" d="M4.92809 45.2823L5.20377 44.4862L5.38755 43.9044C5.38755 43.69 5.5407 43.4757 5.6326 43.2307C5.72141 42.9705 5.82365 42.7149 5.93891 42.4652C5.93891 42.1897 6.15333 41.9141 6.27585 41.6079C6.39837 41.3016 6.76594 40.3831 7.04162 39.7094L7.99118 37.6272C8.32812 36.923 8.72632 36.1881 9.09389 35.4532L9.7065 34.3509C9.89029 33.9834 10.1353 33.616 10.3191 33.2485C11.1768 31.8094 12.0957 30.3702 12.984 29.0842L13.6885 28.135L14.3318 27.2163L14.975 26.3896L15.5876 25.6241L16.6903 24.2768L17.5786 23.2663L18.13 22.6233L18.3444 22.409L17.7012 21.9497L16.9967 21.3066H16.7822L16.2003 21.9803L15.2813 22.9908C14.9444 23.3888 14.5462 23.8481 14.148 24.3687L13.5354 25.1648L12.8615 26.0222L12.1876 26.9408C11.9426 27.2776 11.6975 27.5838 11.4831 27.9206C10.5642 29.2679 9.61461 30.7377 8.72632 32.2381L8.08307 33.371L7.47045 34.504C7.07225 35.2695 6.67405 36.0044 6.33711 36.7392C6.00017 37.4741 5.66323 38.209 5.35692 38.8827C5.05061 39.5563 4.77493 40.2299 4.56052 40.8423C4.3461 41.4547 4.31547 41.4241 4.22358 41.6997C4.13169 41.9753 4.00916 42.2509 3.91727 42.4958C3.82538 42.7408 3.73348 42.9858 3.67222 43.2001C3.61096 43.4145 3.51907 43.5982 3.45781 43.7819L3.18213 44.6393V44.8536L4.92809 45.4354C4.92497 45.3844 4.92497 45.3333 4.92809 45.2823V45.2823Z" fill="#FBFBFB"/>
<path opacity="0.52" d="M41.7465 5.04726L42.2366 6.30269H41.9609L41.1339 6.6089L39.9086 7.12944L38.3158 7.8337C35.4994 9.11356 32.7857 10.6082 30.1987 12.3043C28.759 13.2229 27.3806 14.2027 26.1247 15.1826C24.8689 16.1624 23.7662 17.081 22.8166 17.9384L21.5301 19.1019L20.5806 20.0206C20.361 20.2088 20.1562 20.4135 19.9679 20.633C19.8869 20.6942 19.8148 20.7663 19.7535 20.8473L18.4364 19.5613L18.6508 19.3163L19.2941 18.7039L20.2742 17.7547L21.5914 16.5605C22.5716 15.7031 23.7355 14.7233 25.022 13.7128C26.3085 12.7023 27.7176 11.6919 29.1878 10.6508C31.8604 8.91956 34.6552 7.38452 37.5501 6.05773L39.2041 5.35347L40.46 4.83292L41.287 4.49609H41.5933H41.3177L40.4906 4.8023L39.2041 5.32284L37.5807 6.05773C34.6723 7.37721 31.8669 8.91252 29.1878 10.6508C27.7176 11.6 26.3085 12.6105 24.9914 13.7128C23.6743 14.8151 22.5409 15.7031 21.5607 16.5605L20.2436 17.7547L19.2634 18.7039L18.6508 19.3469L18.4058 19.5613L25.604 26.6345L25.8184 26.4508C25.8184 26.4508 26.0941 26.1446 26.3392 25.9303L27.1662 25.1035C27.5031 24.8279 27.8707 24.4605 28.2689 24.0931C28.6671 23.7256 30.0761 22.5314 31.332 21.7047C32.4598 20.8045 33.6357 19.9663 34.8545 19.1938C37.1102 17.7276 39.4759 16.4377 41.9303 15.3357L43.278 14.7233L44.3501 14.264L45.0546 14.019H45.2997L41.7465 5.04726ZM29.1572 18.2446H28.9734L28.6059 18.5508L28.0545 18.9489L28.3608 19.3469C28.3608 19.5 28.3608 19.6225 28.3608 19.7756C28.3608 19.9287 28.0239 19.9287 27.932 19.7756L26.8905 18.5814V18.2446L27.595 17.6934L28.0851 17.326L28.2995 17.1729C28.4833 17.1729 28.6365 17.1729 28.7284 17.1729C28.8203 17.1729 28.7284 17.4485 28.7284 17.5709H28.5446L28.177 17.8465L27.6257 18.2752L27.7788 18.4896L28.3302 18.0609L28.6977 17.7547H28.8815C29.0653 17.7547 29.1878 17.7547 29.3104 17.7547C29.4329 17.7547 29.3104 17.9384 29.1572 18.2446ZM31.6996 17.1729C31.5796 17.3644 31.4235 17.5308 31.2401 17.6628C31.051 17.8051 30.8303 17.8996 30.5969 17.9384C30.3869 18.0005 30.1635 18.0005 29.9536 17.9384C29.786 17.8921 29.6365 17.796 29.5248 17.6628C29.4664 17.4942 29.4664 17.3109 29.5248 17.1423C29.5221 16.9193 29.598 16.7025 29.7392 16.5298C29.861 16.3214 30.0286 16.1435 30.2293 16.0093C30.4263 15.8813 30.6439 15.7881 30.8725 15.7337C31.0824 15.6716 31.3059 15.6716 31.5158 15.7337C31.6856 15.7918 31.8346 15.8982 31.9446 16.0399C32.0077 16.2182 32.0077 16.4128 31.9446 16.5911C31.9036 16.7537 31.8189 16.9019 31.6996 17.0198V17.1729ZM33.6293 16.0706C32.9554 16.4992 32.4347 16.438 32.0671 15.8868L31.6383 15.1826C31.6383 15.1826 31.6383 14.907 31.7915 14.7845C31.9446 14.662 32.1284 14.7845 32.2203 14.7845L32.6491 15.4275C32.7222 15.5453 32.8392 15.6292 32.9742 15.6608C33.1091 15.6923 33.2512 15.669 33.369 15.5959C33.4868 15.5228 33.5707 15.406 33.6023 15.271C33.6339 15.1361 33.6105 14.9941 33.5374 14.8764L33.0167 14.1415C33.0167 14.1415 33.0167 13.8659 33.1698 13.7434C33.323 13.6209 33.5374 13.7434 33.5987 13.7434L33.9969 14.3864C34.4563 14.9988 34.3032 15.4888 33.6293 15.9175V16.0706ZM36.6924 14.2946C36.6392 14.3173 36.5818 14.329 36.5239 14.329C36.466 14.329 36.4087 14.3173 36.3555 14.2946H36.0492H35.5897C35.5007 14.3274 35.403 14.3274 35.314 14.2946C35.314 14.1415 35.314 14.019 35.4978 13.8965H35.7122C35.7122 13.8965 35.9266 13.8965 35.896 13.6822C35.8654 13.4678 35.7428 13.6822 35.5897 13.6822L34.9158 14.0802L35.5591 15.1519C35.5591 15.305 35.5591 15.4275 35.3753 15.55C35.1915 15.6725 35.0383 15.55 34.9464 15.55L34.1807 14.2333C34.1807 14.0802 34.1807 13.9578 34.3644 13.8353L35.4365 13.2229C35.6343 13.1503 35.8514 13.1503 36.0492 13.2229C36.139 13.2275 36.2268 13.2518 36.3062 13.2941C36.3856 13.3365 36.4547 13.3958 36.5086 13.4678C36.5349 13.6198 36.5349 13.7752 36.5086 13.9271C36.4918 14.0046 36.4585 14.0775 36.4109 14.1409C36.3633 14.2043 36.3026 14.2567 36.2329 14.2946H36.7843H36.9681C36.9681 14.2946 36.8762 14.019 36.6924 14.1415V14.2946Z" fill="#FBFBFB"/>
<path opacity="0.7" d="M40.4601 5.01777L39.2043 5.53831L37.5502 6.24258C34.6553 7.56937 31.8606 9.10441 29.188 10.8356C27.7177 11.7848 26.3087 12.7953 25.0222 13.8976C23.7357 15 22.5717 15.8879 21.5915 16.7453L20.2744 17.9395L19.2942 18.8887L18.6509 19.5012L18.4365 19.7461L19.7536 21.0322C19.8149 20.9512 19.8871 20.879 19.9681 20.8178C20.1563 20.5983 20.3611 20.3936 20.5807 20.2054L21.5302 19.2868L22.8167 18.1232C23.7663 17.2659 24.8996 16.3166 26.1249 15.3674C27.3501 14.4182 28.7591 13.4077 30.1988 12.4891C32.7858 10.793 35.4995 9.29841 38.316 8.01855L39.9088 7.31429L41.134 6.79374L41.961 6.48754H42.2367L41.7466 5.23211L41.5935 4.74219H41.2872L40.4601 5.01777Z" fill="#FBFBFB"/>
<path opacity="0.69" d="M70.7233 0.669614H69.7738L66.7107 0.455273C63.5204 0.348409 60.3265 0.471216 57.1538 0.822725C55.4079 1.00645 53.6925 1.25141 52.0691 1.58823C50.4457 1.92505 49.006 2.23125 47.7195 2.56808L46.0042 3.02737L44.6871 3.45606L43.86 3.73164H43.5537H43.86L44.6871 3.45606L46.0042 3.058L47.7195 2.56808C48.9754 2.23125 50.4763 1.92505 52.0691 1.58823C53.6619 1.25141 55.4079 1.03707 57.1232 0.822725C60.3074 0.488685 63.5116 0.386341 66.7107 0.516515L69.7738 0.700241H70.2638H70.9377L70.7539 2.53745H70.0801H69.59L66.5269 2.35374C63.4597 2.23824 60.3881 2.35081 57.3376 2.69055C55.6529 2.87427 53.9682 3.11924 52.406 3.42544C50.8439 3.73164 49.3429 4.06846 48.2096 4.40529L46.5249 4.8646L45.269 5.26265L44.442 5.50762H44.1663L46.77 13.2239H47.015L47.7195 13.0096L48.8222 12.6728L50.2925 12.2441C51.334 11.9685 52.5898 11.6929 53.9376 11.4173C55.2853 11.1417 56.7556 10.958 58.2259 10.7743C60.9004 10.4796 63.5934 10.3875 66.2818 10.4987C67.3845 10.4987 68.3035 10.4987 68.9467 10.6518H69.9575L71.0296 0.638999L70.7233 0.669614ZM55.4079 7.03863H54.7034H54.0295V7.55917C54.0295 7.71227 54.0295 7.80414 53.7232 7.86538C53.4169 7.92662 53.3862 7.86537 53.3556 7.68165L53.0799 6.18127C53.0799 6.02817 53.0799 5.90568 53.3862 5.87506H53.6619L54.4583 5.99754H55.3466C55.561 5.99754 55.6835 5.99754 55.7142 6.21188C55.7448 6.42622 55.7142 6.48746 55.4079 6.51808H54.7034H54.0295V6.76305H54.734H55.4079C55.6529 6.76305 55.7754 6.76305 55.8061 6.94677C55.8367 7.13049 55.6836 7.00801 55.4691 7.03863H55.4079ZM56.4799 7.65104C56.2655 7.65104 56.143 7.65104 56.1124 7.4367L55.9592 5.99754C55.9592 5.99754 55.9592 5.75258 56.2655 5.72196C56.5718 5.69134 56.6331 5.72196 56.6637 5.90568L56.8475 7.4367C56.8475 7.4367 56.7863 7.62042 56.5412 7.65104H56.4799ZM59.2061 6.39561L58.716 7.25297H58.5322L57.5214 6.57932C57.2882 6.34878 57.0826 6.09188 56.9088 5.81382V5.81382H57.5214C57.5214 5.81382 57.5214 5.81382 57.6746 5.81382L58.5016 6.82429L59.1448 5.66072H59.5124C59.4503 5.91176 59.3683 6.15749 59.2674 6.39561H59.2061ZM62.2692 7.16111H61.4115H60.5845C60.3701 7.16111 60.2476 7.16111 60.2169 6.94677V5.44638C60.2169 5.26265 60.2169 5.17079 60.5539 5.17079H61.4421H62.3304C62.5449 5.17079 62.6674 5.17079 62.6674 5.38513C62.6674 5.59948 62.6674 5.66072 62.3304 5.66072H60.9521V6.67119H62.3304C62.5755 6.67119 62.6674 6.67118 62.698 6.91615C62.7286 7.16111 62.3917 7.16111 62.1773 7.16111H62.2692ZM62.2692 6.18127C62.2692 6.18127 62.2692 6.42622 61.9322 6.42622H61.2277C61.0133 6.42622 60.8908 6.42622 60.8908 6.21188C60.8908 5.99754 60.8908 5.9363 61.2277 5.9363H61.9016C62.1773 5.99754 62.2998 5.99755 62.2998 6.18127H62.2692Z" fill="#FBFBFB"/>
<path opacity="0.85" d="M45.2692 5.26244L46.525 4.86439L48.2097 4.40508C49.435 4.06826 50.8746 3.73144 52.4062 3.42523C53.9377 3.11903 55.653 2.87406 57.3377 2.69034C60.3882 2.3506 63.4598 2.23803 66.527 2.35353L69.5901 2.53724H70.0802H70.7541L70.9379 0.700035H70.264H69.7739L66.7108 0.516309C63.5212 0.397786 60.3273 0.510356 57.154 0.853134C55.4386 1.06748 53.6927 1.31244 52.0999 1.61864C50.507 1.92484 49.0368 2.26166 47.7503 2.59849L46.0349 3.08841L44.7178 3.48648L43.8908 3.76206H43.5845L44.1971 5.50741H44.4728L45.2692 5.26244Z" fill="#FBFBFB"/>
<path opacity="0.69" d="M102.641 116.23C102.81 116.44 103.033 116.603 103.286 116.699C103.539 116.796 103.813 116.824 104.08 116.781C104.416 116.739 104.745 116.657 105.06 116.536L105.55 116.291L106.01 115.954C106.303 115.728 106.561 115.46 106.776 115.158C106.97 114.885 107.125 114.586 107.235 114.27C107.335 114.018 107.368 113.744 107.331 113.476C107.293 113.208 107.186 112.954 107.021 112.739C106.83 112.552 106.596 112.415 106.339 112.34C106.083 112.266 105.812 112.255 105.55 112.31C105.234 112.348 104.925 112.431 104.632 112.555C104.312 112.716 104.005 112.9 103.713 113.106C103.572 113.231 103.439 113.364 103.314 113.504L102.977 113.902C102.793 114.155 102.649 114.433 102.549 114.729C102.439 114.967 102.39 115.229 102.406 115.491C102.422 115.753 102.503 116.006 102.641 116.23V116.23ZM103.222 115.832C103.131 115.657 103.084 115.462 103.084 115.265C103.084 115.068 103.131 114.873 103.222 114.699C103.397 114.215 103.705 113.79 104.111 113.474C104.999 112.769 106.071 112.647 106.561 113.198C107.051 113.749 106.745 114.882 105.826 115.617C105.407 115.942 104.911 116.153 104.386 116.23C104.186 116.293 103.971 116.301 103.766 116.253C103.561 116.204 103.373 116.101 103.222 115.954V115.832Z" fill="#FCFCFC"/>
<path opacity="0.55" d="M96.0246 120.64C96.1697 120.872 96.3734 121.063 96.6154 121.192C96.8573 121.321 97.129 121.384 97.403 121.375C97.7362 121.381 98.068 121.329 98.3832 121.221C98.7453 121.131 99.0879 120.976 99.394 120.762C100.007 120.405 100.498 119.872 100.803 119.231C100.947 119.002 101.024 118.737 101.024 118.466C101.024 118.195 100.947 117.93 100.803 117.7C100.644 117.49 100.434 117.324 100.193 117.217C99.9517 117.11 99.6875 117.065 99.4247 117.088C98.74 117.1 98.0721 117.301 97.4949 117.67C97.1989 117.879 96.9222 118.115 96.6679 118.374C96.4573 118.609 96.2724 118.865 96.1165 119.139C95.9813 119.363 95.9023 119.617 95.8863 119.878C95.8703 120.139 95.9178 120.401 96.0246 120.64V120.64ZM96.6373 120.303C96.546 120.128 96.4983 119.934 96.4983 119.736C96.4983 119.539 96.546 119.345 96.6373 119.17C96.7525 118.957 96.8968 118.761 97.0661 118.588C97.2492 118.391 97.4548 118.217 97.6787 118.068C97.9115 117.93 98.1578 117.817 98.4139 117.731C98.6467 117.688 98.8855 117.688 99.1184 117.731C99.3165 117.715 99.5155 117.748 99.6973 117.828C99.8792 117.909 100.038 118.033 100.16 118.19C100.259 118.362 100.312 118.558 100.312 118.757C100.312 118.955 100.259 119.151 100.16 119.323C100.056 119.552 99.9108 119.76 99.731 119.935C99.5601 120.165 99.3403 120.353 99.0877 120.487C98.8537 120.642 98.5946 120.756 98.322 120.823C98.079 120.868 97.8298 120.868 97.5868 120.823C97.3977 120.823 97.2117 120.775 97.0458 120.684C96.88 120.593 96.7395 120.462 96.6373 120.303V120.303Z" fill="#FCFCFC"/>
<path opacity="0.72" d="M88.9179 124.098C89.0402 124.343 89.2223 124.552 89.4472 124.707C89.6721 124.863 89.9325 124.958 90.2044 124.986C90.5304 125.017 90.8586 125.017 91.1846 124.986C91.5528 124.912 91.9121 124.799 92.2567 124.649L92.7774 124.374L93.2062 124.037C93.4612 123.819 93.6785 123.56 93.8495 123.272C93.981 123.038 94.05 122.774 94.05 122.506C94.05 122.238 93.981 121.974 93.8495 121.741C93.7093 121.515 93.516 121.327 93.2863 121.194C93.0567 121.06 92.7978 120.985 92.5324 120.975C92.2174 120.93 91.8977 120.93 91.5828 120.975H91.0927L90.572 121.189C90.2509 121.329 89.9517 121.515 89.6837 121.741C89.43 121.936 89.2123 122.174 89.0404 122.445C88.8732 122.684 88.7736 122.964 88.752 123.255C88.7304 123.546 88.7877 123.837 88.9179 124.098V124.098ZM89.5918 123.823C89.2855 123.149 89.8981 122.23 90.9395 121.741C91.3963 121.519 91.9039 121.424 92.4098 121.465C92.6097 121.483 92.8024 121.549 92.9726 121.655C93.1428 121.761 93.2857 121.906 93.39 122.077C93.4788 122.253 93.5251 122.447 93.5251 122.644C93.5251 122.841 93.4788 123.035 93.39 123.21C93.0952 123.653 92.6811 124.003 92.1954 124.221C91.0008 124.711 89.8675 124.527 89.5918 123.823V123.823Z" fill="#FCFCFC"/>
<path opacity="0.64" d="M81.4748 126.671C81.5595 126.923 81.7086 127.149 81.9074 127.326C82.1061 127.504 82.3477 127.626 82.6082 127.681C82.9332 127.728 83.2633 127.728 83.5883 127.681C83.965 127.669 84.3373 127.597 84.6911 127.467C85.0605 127.37 85.412 127.215 85.7325 127.008C85.9985 126.807 86.2447 126.582 86.4676 126.334C86.6359 126.127 86.7517 125.883 86.805 125.622C86.8584 125.36 86.8477 125.09 86.774 124.834C86.6726 124.587 86.5096 124.37 86.3005 124.203C86.0913 124.037 85.8431 123.927 85.5794 123.884C85.2645 123.838 84.9446 123.838 84.6298 123.884C83.9109 123.917 83.2134 124.138 82.6082 124.528C82.347 124.699 82.11 124.905 81.9036 125.14C81.7016 125.333 81.5552 125.577 81.4797 125.847C81.4043 126.116 81.4026 126.401 81.4748 126.671V126.671ZM82.1487 126.487C81.9343 125.752 82.6388 124.926 83.7109 124.558C84.202 124.423 84.7207 124.423 85.2118 124.558C85.4161 124.57 85.6123 124.642 85.776 124.765C85.9397 124.887 86.0636 125.056 86.1323 125.248C86.2009 125.441 86.2112 125.65 86.1619 125.848C86.1126 126.047 86.0058 126.226 85.855 126.365C85.5204 126.771 85.0727 127.07 84.5685 127.222C83.4352 127.528 82.3325 127.191 82.0262 126.487H82.1487Z" fill="#FCFCFC"/>
<path opacity="0.63" d="M74.0928 128.263C74.0746 128.032 74.1124 127.8 74.2031 127.587C74.2937 127.374 74.4346 127.186 74.6136 127.038C74.8186 126.844 75.0573 126.688 75.3181 126.579C75.5926 126.423 75.8938 126.319 76.2064 126.273C77.4929 126.028 78.6875 126.487 78.9019 127.314C78.9351 127.549 78.9107 127.79 78.8307 128.014C78.7506 128.238 78.6174 128.439 78.4424 128.6C78.2318 128.796 77.9946 128.96 77.7379 129.09L77.3091 129.274H76.7884C76.4632 129.319 76.1333 129.319 75.8082 129.274C75.5217 129.253 75.2415 129.18 74.9811 129.059C74.7819 129.004 74.5981 128.903 74.4441 128.765C74.29 128.627 74.1699 128.455 74.0928 128.263V128.263Z" fill="#FCFCFC"/>
<path opacity="0.54" d="M66.2207 128.999C66.2348 128.766 66.303 128.54 66.42 128.338C66.5369 128.136 66.6995 127.964 66.8946 127.836C67.1199 127.677 67.3677 127.553 67.6297 127.468C67.9311 127.345 68.2538 127.283 68.5793 127.285C68.7309 127.254 68.8871 127.254 69.0387 127.285H69.4982C69.7738 127.344 70.0412 127.437 70.2946 127.56C70.5046 127.657 70.6889 127.801 70.8326 127.982C70.9763 128.163 71.0753 128.375 71.1216 128.601C71.1328 128.836 71.0822 129.071 70.9747 129.28C70.8672 129.49 70.7066 129.667 70.509 129.795C70.2871 129.991 70.0261 130.137 69.7433 130.224H69.2838H68.7937C68.4686 130.271 68.1386 130.271 67.8135 130.224C67.5268 130.17 67.2486 130.077 66.9865 129.949C66.7971 129.856 66.6304 129.723 66.498 129.559C66.3657 129.395 66.271 129.204 66.2207 128.999V128.999Z" fill="#FCFCFC"/>
<path opacity="0.84" d="M58.3483 128.784C58.3764 128.551 58.4647 128.33 58.6044 128.142C58.744 127.954 58.9302 127.806 59.1447 127.712C59.3884 127.56 59.6586 127.456 59.9411 127.406C60.2457 127.36 60.5554 127.36 60.86 127.406C61.4605 127.41 62.0463 127.591 62.5447 127.926C62.7433 128.051 62.9085 128.222 63.0259 128.425C63.1434 128.627 63.2095 128.856 63.2186 129.09C63.2014 129.321 63.1247 129.544 62.9959 129.738C62.8671 129.931 62.6906 130.087 62.4834 130.192C61.9453 130.502 61.3257 130.641 60.7069 130.59C60.3826 130.58 60.0621 130.518 59.7573 130.407C59.4814 130.318 59.2225 130.183 58.9915 130.008C58.788 129.877 58.6218 129.695 58.5091 129.48C58.3965 129.266 58.341 129.026 58.3483 128.784Z" fill="#FCFCFC"/>
<path opacity="0.78" d="M50.5373 127.621C50.6016 127.397 50.7185 127.191 50.8783 127.02C51.0381 126.85 51.2362 126.72 51.4563 126.641C51.7228 126.545 52.0008 126.483 52.2833 126.458C52.5982 126.413 52.9179 126.413 53.2329 126.458C53.8177 126.563 54.3659 126.816 54.8257 127.193C55.0103 127.337 55.157 127.523 55.253 127.737C55.3491 127.95 55.3917 128.184 55.377 128.417C55.3277 128.648 55.2201 128.862 55.0646 129.038C54.9091 129.215 54.7108 129.349 54.4887 129.428C53.9188 129.67 53.2886 129.734 52.6815 129.612C52.3517 129.556 52.0318 129.453 51.7319 129.305C51.4698 129.185 51.2312 129.019 51.0274 128.816C50.8477 128.677 50.7077 128.494 50.6217 128.284C50.5356 128.075 50.5065 127.846 50.5373 127.621V127.621Z" fill="#FCFCFC"/>
<path opacity="0.9" d="M42.9413 125.415C43.0359 125.201 43.1794 125.012 43.3602 124.863C43.5411 124.714 43.7543 124.609 43.9827 124.558C44.2563 124.509 44.5362 124.509 44.8098 124.558C45.1146 124.515 45.4239 124.515 45.7287 124.558C46.3019 124.741 46.8186 125.067 47.2296 125.507C47.3979 125.664 47.5229 125.863 47.5926 126.083C47.6623 126.302 47.6745 126.536 47.6278 126.762C47.5492 126.982 47.4193 127.18 47.2488 127.34C47.0784 127.5 46.8723 127.617 46.6476 127.681C46.0494 127.869 45.4079 127.869 44.8098 127.681C44.4915 127.604 44.1903 127.469 43.9215 127.283C43.6751 127.14 43.4571 126.953 43.2782 126.732C43.113 126.56 42.9951 126.348 42.9361 126.118C42.877 125.887 42.8788 125.645 42.9413 125.415Z" fill="#FCFCFC"/>
<path opacity="0.65" d="M35.6511 122.506C35.7626 122.301 35.9258 122.128 36.1245 122.004C36.3232 121.881 36.5506 121.811 36.7844 121.802C37.0567 121.74 37.3393 121.74 37.6115 121.802C37.9181 121.856 38.2166 121.949 38.4998 122.078C39.0462 122.306 39.522 122.676 39.8782 123.149C40.0227 123.333 40.1205 123.548 40.1632 123.778C40.2059 124.007 40.1922 124.243 40.1232 124.466C40.0536 124.694 39.9272 124.901 39.7558 125.067C39.5843 125.233 39.3735 125.353 39.143 125.415C38.5267 125.497 37.8999 125.401 37.3358 125.14C37.0399 125.013 36.7618 124.849 36.5088 124.65C36.283 124.455 36.0869 124.228 35.9268 123.976C35.7333 123.791 35.6027 123.549 35.5533 123.286C35.5039 123.022 35.5381 122.75 35.6511 122.506Z" fill="#FCFCFC"/>
<path opacity="0.64" d="M28.7591 118.648C28.893 118.459 29.0728 118.306 29.2816 118.204C29.4905 118.102 29.7217 118.055 29.9537 118.067C30.2276 118.022 30.5069 118.022 30.7807 118.067C31.0963 118.136 31.3971 118.26 31.669 118.434C32.1803 118.738 32.6028 119.171 32.8943 119.69C33.007 119.891 33.0661 120.117 33.0661 120.348C33.0661 120.578 33.007 120.805 32.8943 121.006C32.7724 121.205 32.6012 121.369 32.3972 121.481C32.1931 121.594 31.9634 121.652 31.7303 121.649C31.1068 121.665 30.4914 121.506 29.9537 121.19C29.674 121.018 29.4168 120.813 29.1879 120.577C28.9933 120.355 28.8285 120.108 28.6978 119.843C28.6154 119.652 28.5781 119.445 28.5887 119.238C28.5993 119.031 28.6576 118.829 28.7591 118.648V118.648Z" fill="#FCFCFC"/>
<path opacity="0.72" d="M99.6696 112.31C99.8324 112.514 100.044 112.675 100.285 112.776C100.525 112.878 100.788 112.918 101.048 112.892C101.365 112.879 101.677 112.806 101.967 112.677C102.131 112.631 102.286 112.559 102.426 112.463L102.855 112.157C103.129 111.94 103.366 111.682 103.56 111.391C103.729 111.135 103.863 110.857 103.958 110.564C104.042 110.316 104.06 110.051 104.012 109.794C103.964 109.536 103.85 109.296 103.682 109.095C103.507 108.902 103.286 108.756 103.04 108.671C102.794 108.585 102.53 108.562 102.273 108.605C101.976 108.618 101.684 108.69 101.416 108.819C101.104 108.947 100.815 109.122 100.558 109.34L100.19 109.676L99.8841 110.044C99.7095 110.286 99.5751 110.555 99.4859 110.84C99.3976 111.082 99.3683 111.341 99.4002 111.597C99.4322 111.853 99.5245 112.097 99.6696 112.31V112.31ZM100.19 111.942C100.106 111.765 100.062 111.572 100.062 111.376C100.062 111.18 100.106 110.986 100.19 110.809C100.356 110.362 100.642 109.97 101.017 109.676C101.314 109.364 101.716 109.172 102.146 109.138C102.576 109.104 103.003 109.231 103.345 109.493C103.561 109.885 103.618 110.345 103.504 110.779C103.39 111.212 103.114 111.585 102.733 111.82C102.352 112.136 101.879 112.318 101.385 112.34C101.169 112.392 100.942 112.382 100.731 112.311C100.52 112.241 100.333 112.113 100.19 111.942V111.942Z" fill="#FCFCFC"/>
<path opacity="0.86" d="M93.5738 116.229C93.7048 116.456 93.8919 116.646 94.1171 116.78C94.3424 116.914 94.5983 116.988 94.8603 116.995C95.1659 117.025 95.4737 117.025 95.7793 116.995C96.1141 116.896 96.4337 116.752 96.7288 116.566C97.3066 116.229 97.7585 115.713 98.0153 115.096C98.1441 114.867 98.2118 114.609 98.2118 114.346C98.2118 114.083 98.1441 113.825 98.0153 113.596C97.86 113.395 97.6603 113.232 97.4319 113.12C97.2035 113.009 96.9524 112.951 96.6982 112.953C96.0561 112.932 95.4239 113.115 94.891 113.473C94.6186 113.654 94.3714 113.87 94.1558 114.116C93.9482 114.329 93.782 114.578 93.6657 114.851C93.552 115.061 93.4849 115.292 93.469 115.53C93.4531 115.768 93.4889 116.006 93.5738 116.229V116.229ZM94.1252 115.923C94.0339 115.748 93.9863 115.554 93.9863 115.356C93.9863 115.159 94.0339 114.965 94.1252 114.79C94.215 114.586 94.3394 114.4 94.4928 114.239C94.6472 114.054 94.834 113.898 95.0441 113.779C95.4497 113.529 95.9151 113.391 96.3919 113.381C96.5865 113.381 96.7785 113.425 96.9536 113.51C97.1287 113.595 97.2822 113.719 97.4027 113.871C97.494 114.046 97.5416 114.241 97.5416 114.438C97.5416 114.635 97.494 114.829 97.4027 115.004C97.3024 115.211 97.1791 115.407 97.0351 115.586C96.866 115.789 96.6577 115.956 96.4225 116.076C96.203 116.218 95.9663 116.331 95.718 116.413C95.4944 116.443 95.2677 116.443 95.0441 116.413C94.8925 116.39 94.7468 116.338 94.6154 116.259C94.484 116.181 94.3695 116.077 94.2784 115.953L94.1252 115.923Z" fill="#FCFCFC"/>
<path opacity="0.62" d="M87.0188 119.476C87.1225 119.713 87.2881 119.918 87.4983 120.069C87.7086 120.22 87.9556 120.311 88.2134 120.334C88.5149 120.41 88.8308 120.41 89.1323 120.334C89.4826 120.301 89.8246 120.207 90.1432 120.058L90.6026 119.783L91.0314 119.476C91.2579 119.266 91.4446 119.017 91.5828 118.741C91.7176 118.514 91.7888 118.255 91.7888 117.991C91.7888 117.727 91.7176 117.468 91.5828 117.241C91.455 117.022 91.2776 116.836 91.0649 116.697C90.8521 116.559 90.6098 116.473 90.3576 116.445C90.052 116.414 89.7442 116.414 89.4386 116.445H88.9792H88.5197C88.2174 116.585 87.9384 116.771 87.6927 116.996C87.4669 117.191 87.2708 117.418 87.1107 117.67C86.9097 117.924 86.7929 118.235 86.7764 118.558C86.76 118.882 86.8447 119.203 87.0188 119.476V119.476ZM87.6008 119.201C87.3251 118.496 87.8458 117.639 88.7954 117.18C89.2254 116.98 89.7033 116.905 90.1738 116.965C90.3696 116.984 90.5581 117.049 90.7234 117.156C90.8887 117.262 91.0259 117.407 91.1233 117.578C91.2122 117.753 91.2585 117.948 91.2585 118.144C91.2585 118.341 91.2122 118.535 91.1233 118.711C90.873 119.131 90.4984 119.462 90.0513 119.66C88.9485 120.119 87.9071 119.905 87.6008 119.293V119.201Z" fill="#FCFCFC"/>
<path opacity="0.71" d="M80.127 121.833C80.2037 122.08 80.3426 122.302 80.5304 122.479C80.7182 122.656 80.9485 122.782 81.199 122.844C81.5034 122.893 81.8136 122.893 82.118 122.844C82.4731 122.843 82.8255 122.781 83.1594 122.66C83.4857 122.551 83.795 122.396 84.0783 122.201C84.3451 122.035 84.5745 121.816 84.7522 121.558C84.9175 121.355 85.0293 121.115 85.0775 120.858C85.1256 120.601 85.1086 120.336 85.0279 120.088C84.9276 119.851 84.7726 119.642 84.5756 119.477C84.3786 119.312 84.1451 119.196 83.8946 119.139C83.6003 119.092 83.3005 119.092 83.0063 119.139L82.0261 119.292C81.7107 119.391 81.4114 119.535 81.1378 119.721C80.8968 119.883 80.6802 120.079 80.4945 120.302C80.3131 120.508 80.1848 120.755 80.1207 121.022C80.0567 121.289 80.0588 121.568 80.127 121.833V121.833ZM80.7396 121.65C80.5252 120.915 81.199 120.088 82.1792 119.782C82.6262 119.63 83.1107 119.63 83.5576 119.782C83.7497 119.816 83.9293 119.9 84.0783 120.025C84.2272 120.151 84.3401 120.314 84.4055 120.498C84.4709 120.681 84.4864 120.879 84.4505 121.071C84.4145 121.262 84.3284 121.441 84.2009 121.588C83.9011 121.984 83.4825 122.274 83.0063 122.415C82.0261 122.721 80.954 122.354 80.7396 121.65V121.65Z" fill="#FCFCFC"/>
<path opacity="0.68" d="M72.9902 123.334C73.0476 123.588 73.1633 123.825 73.328 124.027C73.4928 124.229 73.7022 124.39 73.9397 124.497C74.2314 124.626 74.5415 124.709 74.8587 124.742C75.2044 124.786 75.5544 124.786 75.9001 124.742C76.241 124.676 76.571 124.563 76.8803 124.405C77.1498 124.257 77.3973 124.071 77.6155 123.854C77.8076 123.673 77.9505 123.446 78.0308 123.194C78.1112 122.942 78.1264 122.674 78.0749 122.415C77.9954 122.165 77.8605 121.936 77.6802 121.745C77.4999 121.554 77.2788 121.406 77.0335 121.313C76.7577 121.206 76.4696 121.134 76.1758 121.098C75.8497 121.069 75.5217 121.069 75.1956 121.098C74.8732 121.161 74.563 121.274 74.2767 121.435C73.9975 121.555 73.7469 121.732 73.5415 121.956C73.3505 122.128 73.2014 122.342 73.1059 122.581C73.0103 122.82 72.9707 123.077 72.9902 123.334V123.334ZM73.6334 123.334C73.6334 122.568 74.2767 121.833 75.2875 121.65C75.7358 121.506 76.2176 121.506 76.6659 121.65C76.8479 121.72 77.0115 121.831 77.1442 121.975C77.2769 122.118 77.3752 122.289 77.4317 122.476C77.4651 122.669 77.452 122.867 77.3934 123.053C77.3347 123.239 77.2323 123.409 77.0947 123.548C76.7347 123.885 76.2901 124.118 75.8082 124.222C74.7362 124.436 73.756 123.977 73.6334 123.242V123.334Z" fill="#FCFCFC"/>
<path opacity="0.79" d="M65.7612 123.977C65.7764 124.237 65.8574 124.488 65.9968 124.708C66.1361 124.927 66.3291 125.108 66.5576 125.232C66.819 125.399 67.1103 125.514 67.4153 125.569C67.7599 125.629 68.1121 125.629 68.4568 125.569C68.6289 125.601 68.8054 125.601 68.9775 125.569H69.4676C69.7562 125.46 70.0251 125.305 70.264 125.11C70.4741 124.951 70.6406 124.741 70.7477 124.5C70.8548 124.259 70.8991 123.995 70.8766 123.732C70.8453 123.477 70.7504 123.234 70.6005 123.025C70.4506 122.817 70.2506 122.649 70.0189 122.538C69.7643 122.386 69.484 122.282 69.1919 122.232C69.0289 122.217 68.8648 122.217 68.7018 122.232H68.1811C67.8557 122.256 67.5357 122.328 67.2315 122.446C66.9423 122.539 66.6724 122.685 66.4351 122.875C66.2506 123 66.095 123.163 65.9788 123.353C65.8626 123.543 65.7884 123.756 65.7612 123.977V123.977ZM66.4045 123.977C66.4045 123.211 67.2009 122.599 68.2117 122.507C68.6911 122.474 69.17 122.58 69.5901 122.813C69.762 122.897 69.9107 123.022 70.0229 123.177C70.1351 123.332 70.2074 123.512 70.2333 123.701C70.2563 123.896 70.2257 124.093 70.1447 124.271C70.0637 124.449 69.9354 124.601 69.7739 124.712C69.3881 125.019 68.9179 125.2 68.4261 125.232C67.3234 125.416 66.4045 124.712 66.4045 123.946V123.977Z" fill="#FCFCFC"/>
<path opacity="0.86" d="M58.4712 123.732C58.4601 123.992 58.5129 124.25 58.6251 124.485C58.7372 124.72 58.9052 124.924 59.1144 125.079C59.3605 125.28 59.6406 125.436 59.9415 125.538C60.2635 125.664 60.6067 125.726 60.9523 125.722C61.1245 125.753 61.3008 125.753 61.473 125.722C61.6461 125.739 61.8206 125.739 61.9937 125.722C62.2943 125.637 62.5826 125.514 62.8514 125.355C63.0765 125.221 63.2646 125.034 63.3984 124.809C63.5322 124.584 63.6074 124.33 63.6172 124.068C63.6055 123.811 63.5328 123.56 63.4049 123.337C63.2771 123.113 63.0978 122.923 62.882 122.782C62.6487 122.604 62.3908 122.459 62.1162 122.354C61.9541 122.326 61.7883 122.326 61.6262 122.354C61.4632 122.337 61.299 122.337 61.1361 122.354C60.8101 122.322 60.4818 122.322 60.1559 122.354C59.8621 122.415 59.5819 122.529 59.3288 122.691C59.1196 122.792 58.9347 122.938 58.7867 123.118C58.6387 123.297 58.5311 123.507 58.4712 123.732V123.732ZM59.1144 123.732C59.1407 123.538 59.2128 123.354 59.3247 123.194C59.4366 123.035 59.585 122.904 59.7577 122.813C60.1675 122.579 60.6338 122.463 61.1054 122.476C61.58 122.497 62.0381 122.657 62.4225 122.936C62.5811 123.048 62.7128 123.194 62.8081 123.364C62.9034 123.533 62.9601 123.722 62.9739 123.915C62.964 124.11 62.9055 124.298 62.8039 124.464C62.7022 124.63 62.5606 124.768 62.3919 124.865C61.9728 125.133 61.4796 125.261 60.9829 125.232C60.4778 125.219 59.9919 125.036 59.6045 124.711C59.4534 124.611 59.3296 124.474 59.2441 124.314C59.1586 124.153 59.1141 123.975 59.1144 123.793V123.732Z" fill="#FCFCFC"/>
<path opacity="0.84" d="M51.3952 122.63C51.3438 122.887 51.3621 123.153 51.4483 123.401C51.5345 123.649 51.6854 123.869 51.8853 124.038C52.0974 124.262 52.346 124.449 52.6205 124.59C52.9401 124.742 53.2809 124.845 53.6313 124.896C54.2808 125.035 54.9581 124.96 55.561 124.681C55.8033 124.58 56.0148 124.417 56.1742 124.208C56.3336 124 56.4355 123.753 56.4696 123.492C56.5037 123.232 56.4689 122.967 56.3685 122.725C56.2682 122.482 56.106 122.27 55.898 122.109C55.441 121.681 54.8637 121.403 54.2439 121.313C53.9187 121.268 53.5889 121.268 53.2637 121.313C52.9656 121.344 52.6753 121.427 52.4061 121.558C52.1662 121.647 51.9501 121.789 51.7747 121.975C51.5993 122.161 51.4694 122.385 51.3952 122.63V122.63ZM52.0385 122.63C52.0773 122.44 52.1657 122.263 52.2948 122.118C52.4239 121.972 52.5891 121.864 52.7736 121.803C53.2213 121.656 53.7044 121.656 54.152 121.803C54.6235 121.874 55.0619 122.088 55.4079 122.416C55.5621 122.535 55.6818 122.693 55.7548 122.874C55.8278 123.055 55.8516 123.252 55.8235 123.445C55.7955 123.638 55.7167 123.82 55.5953 123.973C55.4738 124.126 55.314 124.243 55.1322 124.314C54.6819 124.519 54.18 124.583 53.6926 124.498C53.4404 124.439 53.1942 124.357 52.9574 124.253C52.7487 124.145 52.5618 124 52.4061 123.824C52.2313 123.71 52.0925 123.549 52.0057 123.359C51.919 123.169 51.8878 122.959 51.916 122.752L52.0385 122.63Z" fill="#FCFCFC"/>
<path opacity="0.9" d="M44.2585 120.639C44.1874 120.891 44.1781 121.156 44.2314 121.412C44.2847 121.667 44.3991 121.907 44.5648 122.109C44.9751 122.633 45.545 123.009 46.1882 123.181C46.8264 123.381 47.5104 123.381 48.1486 123.181C48.4008 123.114 48.6308 122.981 48.8148 122.796C48.9989 122.612 49.1304 122.381 49.1959 122.129C49.2614 121.876 49.2584 121.611 49.1874 121.36C49.1164 121.109 48.9799 120.881 48.7919 120.7C48.3885 120.21 47.8426 119.857 47.2297 119.69C46.6315 119.502 45.99 119.502 45.3918 119.69C45.1431 119.752 44.9118 119.869 44.7154 120.034C44.519 120.198 44.3627 120.405 44.2585 120.639V120.639ZM44.8711 120.853C44.9394 120.673 45.0504 120.512 45.1944 120.385C45.3384 120.257 45.5112 120.165 45.6981 120.119C45.9216 120.087 46.1485 120.087 46.372 120.119C46.6162 120.089 46.863 120.089 47.1071 120.119C47.3486 120.194 47.5762 120.307 47.781 120.455C47.9703 120.566 48.1366 120.711 48.2711 120.884C48.4141 121.02 48.5181 121.192 48.572 121.381C48.626 121.571 48.6281 121.772 48.578 121.963C48.528 122.153 48.4276 122.327 48.2874 122.466C48.1472 122.605 47.9724 122.704 47.781 122.752C47.5473 122.784 47.3103 122.784 47.0765 122.752C46.822 122.779 46.5653 122.779 46.3108 122.752C46.0625 122.67 45.8257 122.557 45.6062 122.415C45.4218 122.286 45.2568 122.131 45.1161 121.956C44.985 121.808 44.8938 121.629 44.8509 121.436C44.808 121.243 44.815 121.043 44.8711 120.853V120.853Z" fill="#FCFCFC"/>
<path opacity="0.9" d="M37.8257 117.975C37.9342 117.777 38.0878 117.607 38.274 117.479C38.4603 117.352 38.6739 117.27 38.8977 117.24C39.1623 117.209 39.4296 117.209 39.6942 117.24C39.9793 117.268 40.2583 117.34 40.5212 117.454C41.0263 117.681 41.4603 118.041 41.7771 118.495C41.9087 118.679 41.9941 118.892 42.0261 119.116C42.0581 119.34 42.0357 119.568 41.9608 119.781C41.8746 119.995 41.7324 120.182 41.5492 120.322C41.366 120.462 41.1484 120.55 40.9194 120.577C40.3525 120.694 39.763 120.63 39.2347 120.394C38.9579 120.267 38.7002 120.102 38.4689 119.904C38.2624 119.73 38.0864 119.523 37.9482 119.291C37.8263 119.097 37.7517 118.876 37.7304 118.648C37.7092 118.419 37.7418 118.188 37.8257 117.975V117.975Z" fill="#FCFCFC"/>
<path opacity="0.73" d="M31.4853 114.423C31.6184 114.238 31.7929 114.086 31.9949 113.979C32.197 113.873 32.421 113.815 32.6492 113.811C32.901 113.751 33.1633 113.751 33.415 113.811C33.7017 113.864 33.9734 113.979 34.2114 114.147C34.6975 114.413 35.0925 114.818 35.3448 115.311C35.4495 115.515 35.5042 115.74 35.5042 115.969C35.5042 116.198 35.4495 116.424 35.3448 116.628C35.2196 116.819 35.0525 116.979 34.856 117.095C34.6596 117.212 34.4392 117.283 34.2114 117.301C33.6305 117.318 33.0569 117.169 32.5573 116.873C32.2986 116.722 32.0616 116.536 31.8528 116.321C31.6788 116.107 31.5345 115.87 31.424 115.617C31.3367 115.428 31.2967 115.22 31.3074 115.012C31.318 114.804 31.3791 114.602 31.4853 114.423V114.423Z" fill="#FCFCFC"/>
<path opacity="0.56" d="M96.6678 108.268C96.8294 108.468 97.0353 108.628 97.2693 108.734C97.5032 108.84 97.7587 108.89 98.0155 108.881C98.3 108.921 98.5887 108.921 98.8732 108.881L99.302 108.667C99.4483 108.596 99.5826 108.503 99.7002 108.391C99.954 108.195 100.172 107.957 100.343 107.687C100.499 107.442 100.613 107.173 100.68 106.891C100.749 106.644 100.757 106.384 100.704 106.134C100.65 105.883 100.537 105.649 100.374 105.451C100.199 105.266 99.9837 105.123 99.7449 105.033C99.5061 104.942 99.2499 104.908 98.9957 104.931C98.7204 104.936 98.4492 104.999 98.1993 105.115C97.9129 105.215 97.6441 105.359 97.4029 105.543L97.066 105.88L96.7903 106.217C96.6349 106.451 96.5209 106.71 96.4534 106.982C96.3591 107.423 96.4358 107.882 96.6678 108.268V108.268ZM97.1579 107.901C97.0508 107.747 96.9788 107.571 96.9471 107.386C96.9153 107.2 96.9246 107.011 96.9741 106.829C97.0965 106.402 97.3545 106.026 97.7092 105.758C97.8407 105.591 98.008 105.457 98.1987 105.364C98.3894 105.272 98.5985 105.224 98.8104 105.223C99.0224 105.222 99.2318 105.27 99.4229 105.361C99.6141 105.453 99.7822 105.586 99.9146 105.752C100.047 105.917 100.14 106.11 100.188 106.317C100.235 106.523 100.235 106.738 100.188 106.944C100.141 107.151 100.048 107.344 99.9157 107.51C99.7835 107.676 99.6156 107.809 99.4246 107.901C99.0667 108.186 98.626 108.347 98.1687 108.36C97.9759 108.369 97.7839 108.332 97.6082 108.252C97.4326 108.172 97.2783 108.052 97.1579 107.901Z" fill="#FCFCFC"/>
<path opacity="0.67" d="M91.2153 111.882C91.342 112.108 91.5231 112.3 91.7424 112.439C91.9617 112.578 92.2121 112.66 92.4712 112.678C92.7563 112.706 93.0436 112.706 93.3288 112.678C93.6252 112.581 93.9123 112.458 94.1865 112.31C94.7121 111.988 95.1201 111.505 95.3505 110.932C95.4661 110.705 95.5265 110.453 95.5265 110.198C95.5265 109.942 95.4661 109.69 95.3505 109.463C95.1952 109.257 94.997 109.087 94.7695 108.965C94.5421 108.844 94.2909 108.773 94.0333 108.758C93.4628 108.747 92.9005 108.896 92.4099 109.187C92.1419 109.35 91.9037 109.557 91.7054 109.799C91.5232 110.008 91.3781 110.246 91.2766 110.504C91.1696 110.716 91.1089 110.949 91.0983 111.186C91.0878 111.424 91.1276 111.661 91.2153 111.882V111.882ZM91.7054 111.606C91.6215 111.434 91.5779 111.246 91.5779 111.055C91.5779 110.864 91.6215 110.675 91.7054 110.504C91.7767 110.307 91.8919 110.129 92.0423 109.983C92.1784 109.792 92.3566 109.635 92.563 109.524C92.752 109.401 92.9586 109.308 93.1757 109.248C93.3788 109.219 93.5852 109.219 93.7883 109.248C93.9773 109.25 94.1632 109.298 94.3297 109.387C94.4962 109.477 94.6383 109.605 94.7439 109.762C94.8495 109.919 94.9152 110.099 94.9355 110.287C94.9558 110.475 94.93 110.665 94.8604 110.841C94.7908 111.056 94.6759 111.255 94.5234 111.422C94.3717 111.599 94.1965 111.753 94.0027 111.882C93.7898 112 93.5636 112.092 93.3288 112.157C93.1168 112.203 92.8976 112.203 92.6856 112.157C92.4703 112.165 92.2565 112.119 92.0639 112.022C91.8712 111.926 91.7058 111.783 91.5829 111.606H91.7054Z" fill="#FCFCFC"/>
<path opacity="0.76" d="M85.0892 114.821C85.193 115.049 85.3502 115.248 85.5474 115.403C85.7447 115.557 85.9762 115.662 86.2226 115.709C86.5154 115.771 86.818 115.771 87.1109 115.709C87.4263 115.666 87.7352 115.584 88.0298 115.464L88.4586 115.219L88.8262 114.912C89.0348 114.717 89.2106 114.49 89.3469 114.239C89.4603 114.01 89.5193 113.759 89.5193 113.504C89.5193 113.249 89.4603 112.997 89.3469 112.769C89.2222 112.548 89.0506 112.357 88.8443 112.208C88.638 112.06 88.4018 111.959 88.1523 111.912C87.8775 111.881 87.6001 111.881 87.3253 111.912H86.8964L86.437 112.095C86.1636 112.212 85.9143 112.378 85.7018 112.585C85.4943 112.77 85.3184 112.987 85.1811 113.228C85.0427 113.468 84.9623 113.737 84.9463 114.014C84.9304 114.29 84.9793 114.566 85.0892 114.821V114.821ZM85.6406 114.576C85.5328 114.178 85.5805 113.754 85.7739 113.39C85.9673 113.026 86.292 112.749 86.682 112.616C87.0904 112.485 87.5295 112.485 87.9379 112.616C88.1304 112.645 88.3137 112.718 88.4732 112.829C88.6326 112.941 88.764 113.088 88.8568 113.259C88.9381 113.426 88.9803 113.609 88.9803 113.795C88.9803 113.98 88.9381 114.164 88.8568 114.331C88.6424 114.738 88.2972 115.062 87.8766 115.249C87.6887 115.365 87.4784 115.439 87.2596 115.468C87.0409 115.496 86.8185 115.478 86.6073 115.414C86.396 115.351 86.2007 115.243 86.034 115.099C85.8674 114.954 85.7333 114.776 85.6406 114.576Z" fill="#FCFCFC"/>
<path opacity="0.61" d="M78.7793 116.965C78.8514 117.212 78.9846 117.437 79.1666 117.619C79.3486 117.801 79.5736 117.934 79.8207 118.006C80.0926 118.121 80.3835 118.183 80.6784 118.19C80.9833 118.232 81.2924 118.232 81.5973 118.19C81.8978 118.078 82.1853 117.935 82.455 117.761C82.6967 117.586 82.9043 117.368 83.0676 117.118C83.215 116.914 83.3106 116.676 83.3462 116.426C83.3818 116.177 83.3564 115.922 83.2721 115.684C83.1878 115.447 83.0471 115.233 82.8622 115.061C82.6772 114.89 82.4534 114.766 82.2099 114.699C81.9361 114.655 81.6568 114.655 81.3829 114.699C81.0887 114.652 80.7888 114.652 80.4946 114.699C80.2012 114.805 79.9231 114.949 79.6676 115.128C79.4443 115.29 79.2479 115.487 79.0856 115.71C78.8236 116.072 78.7137 116.523 78.7793 116.965ZM79.3613 116.965C79.2979 116.56 79.393 116.147 79.6269 115.81C79.8608 115.474 80.2155 115.24 80.6171 115.159C81.0349 115.021 81.4859 115.021 81.9036 115.159C82.0885 115.21 82.2591 115.303 82.4025 115.43C82.5458 115.557 82.6581 115.716 82.7307 115.893C82.785 116.079 82.7966 116.275 82.7648 116.466C82.733 116.656 82.6585 116.838 82.5469 116.996C82.2866 117.372 81.9099 117.651 81.4748 117.792C81.2724 117.874 81.0551 117.914 80.8367 117.909C80.6182 117.903 80.4032 117.853 80.2049 117.761C80.0067 117.669 79.8295 117.538 79.6844 117.374C79.5392 117.211 79.4292 117.02 79.3613 116.812V116.965Z" fill="#FCFCFC"/>
<path opacity="0.79" d="M72.2546 118.373C72.3009 118.619 72.4058 118.85 72.5604 119.047C72.715 119.245 72.9148 119.402 73.1429 119.505C73.3935 119.66 73.6766 119.755 73.97 119.781C74.2848 119.827 74.6046 119.827 74.9195 119.781C75.273 119.678 75.6051 119.512 75.8997 119.291C76.1558 119.15 76.3841 118.963 76.5736 118.74C76.7514 118.55 76.8778 118.318 76.9409 118.065C77.004 117.813 77.0017 117.549 76.9343 117.297C76.8668 117.046 76.7364 116.816 76.5554 116.629C76.3744 116.442 76.1487 116.305 75.8997 116.229C75.6503 116.108 75.38 116.035 75.1033 116.015C74.8088 115.972 74.5095 115.972 74.215 116.015C73.9133 116.066 73.623 116.169 73.3573 116.321C73.1181 116.449 72.901 116.614 72.7141 116.811C72.5185 117.016 72.3748 117.264 72.2948 117.536C72.2149 117.808 72.2011 118.094 72.2546 118.373ZM72.8366 118.373C72.828 117.96 72.9796 117.561 73.2595 117.258C73.5394 116.956 73.9259 116.773 74.3375 116.75C74.7468 116.624 75.1842 116.624 75.5934 116.75C75.7707 116.831 75.9282 116.95 76.0552 117.098C76.1821 117.246 76.2753 117.419 76.3285 117.607C76.3609 117.792 76.3501 117.983 76.297 118.163C76.2439 118.344 76.1499 118.51 76.0222 118.648C75.7149 118.984 75.3061 119.21 74.8582 119.291C74.6572 119.358 74.4449 119.383 74.2338 119.367C74.0227 119.35 73.817 119.292 73.6288 119.195C73.4406 119.098 73.2736 118.964 73.1375 118.802C73.0015 118.64 72.8992 118.452 72.8366 118.25V118.373Z" fill="#FCFCFC"/>
<path opacity="0.61" d="M65.9142 118.924C65.9117 118.701 65.9601 118.481 66.0556 118.279C66.1511 118.077 66.2913 117.9 66.4655 117.761C66.6562 117.626 66.8617 117.513 67.0781 117.424C67.3149 117.302 67.5776 117.239 67.8439 117.24H68.2727H68.6403C68.8785 117.295 69.1061 117.388 69.3142 117.516C69.5081 117.626 69.673 117.781 69.7955 117.967C69.918 118.153 69.9945 118.366 70.0187 118.588C70.044 118.807 70.0121 119.03 69.9263 119.234C69.8404 119.437 69.7035 119.616 69.5286 119.751C69.3392 119.928 69.1219 120.073 68.8853 120.18H68.5178H68.0889C67.805 120.227 67.5152 120.227 67.2313 120.18C66.9887 120.123 66.7598 120.019 66.5574 119.874C66.384 119.776 66.2357 119.639 66.1241 119.475C66.0125 119.31 65.9406 119.122 65.9142 118.924Z" fill="#FCFCFC"/>
<path opacity="0.61" d="M59.2366 118.741C59.262 118.523 59.3357 118.314 59.4522 118.129C59.5688 117.943 59.7254 117.786 59.9105 117.669C60.1211 117.546 60.348 117.454 60.5844 117.394C60.8463 117.332 61.1189 117.332 61.3808 117.394C61.8942 117.411 62.3883 117.594 62.7898 117.914C62.9656 118.047 63.1092 118.218 63.2099 118.414C63.3107 118.611 63.366 118.827 63.3718 119.047C63.3669 119.27 63.3052 119.489 63.1927 119.681C63.0802 119.874 62.9205 120.035 62.7286 120.149C62.2894 120.454 61.7616 120.605 61.2276 120.578C60.943 120.568 60.6627 120.506 60.4006 120.394C60.167 120.309 59.9495 120.185 59.7574 120.027C59.5692 119.874 59.4228 119.676 59.3317 119.451C59.2407 119.226 59.208 118.982 59.2366 118.741V118.741Z" fill="#FCFCFC"/>
<path opacity="0.74" d="M52.6204 117.761C52.6752 117.546 52.7781 117.346 52.9214 117.176C53.0646 117.007 53.2444 116.872 53.4474 116.781C53.6639 116.66 53.9043 116.587 54.1519 116.567C54.4061 116.535 54.6634 116.535 54.9177 116.567C55.427 116.662 55.8963 116.908 56.2654 117.271C56.4254 117.423 56.5475 117.61 56.622 117.817C56.6964 118.025 56.7212 118.247 56.6943 118.465C56.6566 118.687 56.5678 118.896 56.4348 119.077C56.3019 119.257 56.1285 119.405 55.9285 119.507C55.4589 119.755 54.9168 119.831 54.3969 119.721C54.1164 119.68 53.8461 119.587 53.6005 119.445C53.3721 119.328 53.165 119.172 52.9879 118.986C52.8343 118.825 52.721 118.631 52.6571 118.418C52.5932 118.205 52.5806 117.98 52.6204 117.761V117.761Z" fill="#FCFCFC"/>
<path opacity="0.67" d="M46.1883 115.984C46.2752 115.778 46.4047 115.592 46.5683 115.439C46.7319 115.286 46.926 115.169 47.1378 115.096C47.3716 115.064 47.6086 115.064 47.8424 115.096C48.1061 115.054 48.375 115.054 48.6387 115.096C49.1252 115.233 49.5548 115.523 49.864 115.923C50 116.099 50.0975 116.302 50.1503 116.518C50.203 116.734 50.2098 116.959 50.1703 117.178C50.1029 117.393 49.9881 117.59 49.8343 117.754C49.6805 117.918 49.4918 118.046 49.282 118.128C48.7727 118.282 48.2291 118.282 47.7198 118.128C47.4458 118.049 47.1869 117.925 46.9541 117.76C46.7409 117.608 46.5546 117.422 46.4027 117.209C46.2832 117.031 46.2024 116.83 46.1655 116.619C46.1286 116.408 46.1363 116.192 46.1883 115.984V115.984Z" fill="#FCFCFC"/>
<path opacity="0.67" d="M40.0309 113.444C40.1349 113.252 40.279 113.084 40.4533 112.952C40.6277 112.82 40.8283 112.726 41.0417 112.678C41.2859 112.649 41.5327 112.649 41.7769 112.678C42.0423 112.707 42.3012 112.779 42.5427 112.893C43.0103 113.098 43.4053 113.44 43.676 113.873C43.7735 114.073 43.8242 114.293 43.8242 114.516C43.8242 114.738 43.7735 114.958 43.676 115.159C43.5879 115.36 43.453 115.537 43.2825 115.676C43.112 115.814 42.9108 115.91 42.6958 115.955C42.1729 116.084 41.6216 116.029 41.1336 115.802C40.8782 115.696 40.6406 115.551 40.4291 115.373C40.2509 115.189 40.0966 114.983 39.9697 114.761C39.8766 114.551 39.8337 114.324 39.8444 114.095C39.855 113.866 39.9189 113.643 40.0309 113.444Z" fill="#FCFCFC"/>
<path opacity="0.58" d="M34.2112 110.106C34.3412 109.922 34.5101 109.769 34.706 109.658C34.9019 109.546 35.1199 109.48 35.3445 109.463C35.5773 109.419 35.8163 109.419 36.049 109.463C36.3076 109.513 36.556 109.606 36.7842 109.738C37.2287 110.004 37.5814 110.399 37.795 110.871C37.8892 111.07 37.9343 111.289 37.9265 111.509C37.9188 111.729 37.8584 111.944 37.7504 112.136C37.6424 112.328 37.4899 112.491 37.3058 112.612C37.1218 112.733 36.9114 112.808 36.6923 112.831C36.1584 112.894 35.6188 112.775 35.1607 112.494C34.9219 112.353 34.7051 112.178 34.5175 111.973C34.3523 111.781 34.2179 111.564 34.1193 111.33C34.0433 111.132 34.0121 110.92 34.028 110.708C34.0438 110.496 34.1064 110.29 34.2112 110.106V110.106Z" fill="#FCFCFC"/>
<path opacity="0.7" d="M121.846 37.7814L121.234 36.6178C120.897 35.9442 120.437 35.0256 119.825 33.9233C118.328 31.2297 116.65 28.6414 114.801 26.1763C113.79 24.8597 112.718 23.543 111.738 22.3794C110.758 21.2158 109.655 20.1441 108.675 19.3174L108.032 18.705C107.843 18.5046 107.638 18.3203 107.419 18.1538L106.898 17.6639L106.531 17.3271L105.888 16.7453L105.643 16.5616L107.725 14.1426L107.971 14.3569L108.644 14.9387C108.782 15.097 108.936 15.2406 109.104 15.3674L109.655 15.8879L110.268 16.4697L110.972 17.1434C111.922 18.062 112.963 19.1643 114.035 20.3891C115.108 21.6139 116.271 22.9918 117.313 24.4004C119.273 26.9734 121.044 29.6853 122.612 32.5147C123.255 33.6783 123.715 34.6581 124.082 35.3318C124.45 36.0054 124.603 36.4341 124.603 36.4341L121.846 37.7814Z" fill="#FAFAFA"/>
<path opacity="0.8" d="M105.612 16.5602L104.57 15.6722C103.958 15.1516 103.1 14.478 102.212 13.8044C101.323 13.1307 100.466 12.5183 99.7613 12.059L99.3018 11.7528L98.9649 11.5385L98.6279 11.3241L100.374 8.66016L100.68 8.8745L101.078 9.11946L101.569 9.45629C102.273 9.94621 103.223 10.5892 104.111 11.2935C104.999 11.9978 105.949 12.702 106.592 13.2226L107.695 14.1412L105.612 16.5602Z" fill="#FDFDFD"/>
<path opacity="0.9" d="M127.36 70.7282C127.36 70.7282 127.36 70.2076 127.36 69.289C127.36 68.3704 127.36 68.248 127.36 67.6049C127.36 66.9619 127.36 66.227 127.36 65.4309C127.36 63.8693 127.36 62.0014 127.207 60.0417C127.053 58.082 126.808 55.9692 126.441 53.9177C126.073 51.8661 125.614 49.784 125.093 47.7936C124.572 45.8033 123.99 44.1192 123.439 42.6188C123.439 42.2514 123.163 41.8839 123.041 41.5471L122.673 40.5979C122.398 40.0161 122.214 39.4956 121.999 39.0669L121.846 38.1176V37.8727L124.726 36.5254V36.801C124.726 37.0459 125.001 37.3828 125.185 37.8421C125.369 38.3014 125.614 38.8219 125.889 39.4343C126.165 40.0467 126.135 40.0773 126.257 40.4448C126.418 40.8048 126.562 41.1727 126.686 41.5471C127.268 43.1087 127.88 44.9766 128.432 46.9669C128.983 48.9572 129.473 51.1619 129.841 53.3359C130.208 55.5099 130.484 57.7146 130.637 59.7968C130.79 61.8789 130.821 63.808 130.79 65.4921C130.79 66.3189 130.79 67.0844 130.79 67.758C130.79 68.4317 130.79 69.0135 130.79 69.5034C130.79 70.4526 130.79 71.0344 130.79 71.0344L127.36 70.7282Z" fill="#FEFEFE"/>
<path opacity="0.74" d="M123.898 86.1917C123.904 86.1306 123.904 86.0691 123.898 86.008L124.082 85.5487C124.082 85.3344 124.082 85.0894 124.327 84.8138C124.572 84.5382 124.542 84.2014 124.634 83.834C125.093 82.4254 125.614 80.4964 126.073 78.5673C126.533 76.6382 126.839 74.6785 127.023 73.1781C127.023 72.8107 127.023 72.4739 127.023 72.1677C127.023 71.8615 127.023 71.6165 127.023 71.4022C127.037 71.1778 127.037 70.9528 127.023 70.7285L130.086 71.0347V71.739C130.086 71.9635 130.086 72.2391 130.086 72.5657C130.086 72.8719 130.086 73.2394 130.086 73.6068C129.871 75.1685 129.535 77.22 129.075 79.2716C128.616 81.3231 128.064 83.3134 127.574 84.7832L127.237 85.8243C127.237 86.0999 127.053 86.3755 126.962 86.5898V87.0797V87.2634L123.898 86.1917Z" fill="#FDFDFD"/>
<path opacity="0.57" d="M117.221 39.8638V39.5576L116.762 38.6084C116.364 37.8123 115.782 36.6487 115.016 35.3321C114.25 34.0154 113.27 32.4844 112.167 30.9227C111.016 29.2766 109.779 27.6923 108.461 26.1766C107.082 24.6456 105.673 23.1146 104.264 21.8591C102.855 20.6037 101.477 19.4095 100.282 18.4603L98.5977 17.2049L97.8932 16.6843L97.2499 16.2863L96.3922 15.7045L96.0859 15.4901L97.8013 12.8262L98.1382 13.0405L99.0571 13.6529L99.7004 14.0816L100.436 14.6328C100.987 15.0002 101.569 15.4595 102.212 15.9494C103.499 16.9599 104.938 18.1541 106.409 19.532C107.879 20.9099 109.472 22.594 110.85 24.0944C112.228 25.5948 113.607 27.432 114.771 29.0855C115.935 30.739 116.946 32.3313 117.834 33.7398C118.722 35.1483 119.274 36.3425 119.702 37.1999L120.162 38.1797L120.346 38.5166L117.221 39.8638Z" fill="#FDFDFD"/>
<path opacity="0.85" d="M122.612 61.3894C122.598 61.2366 122.598 61.0829 122.612 60.9301C122.594 60.7571 122.594 60.5826 122.612 60.4096C122.612 60.1952 122.612 59.9809 122.612 59.7359C122.612 58.7255 122.367 57.4088 122.183 56.0615C122.183 55.4185 121.969 54.7448 121.846 54.1324L121.509 52.4483C121.509 51.9584 121.295 51.5603 121.233 51.2541C121.243 51.1114 121.243 50.9681 121.233 50.8254L124.296 50.0293C124.287 50.1925 124.287 50.356 124.296 50.5192C124.286 50.6926 124.286 50.8664 124.296 51.0398C124.296 51.2541 124.296 51.4991 124.296 51.7746C124.296 52.0502 124.542 52.877 124.664 53.52C124.787 54.163 124.878 54.8673 125.001 55.5716C125.215 56.9801 125.369 58.3886 125.46 59.4297C125.46 59.7053 125.46 59.9503 125.46 60.1646C125.474 60.3481 125.474 60.5323 125.46 60.7158C125.46 61.022 125.46 61.2057 125.46 61.2057L122.612 61.3894Z" fill="#FEFEFE"/>
<path opacity="0.84" d="M117.711 88.2733C117.717 88.1713 117.717 88.069 117.711 87.967L118.078 87.1709C118.078 86.9872 118.078 86.8035 118.293 86.5891L118.783 85.9155C118.997 85.4256 119.181 84.8744 119.396 84.262C119.824 83.0372 120.315 81.598 120.713 80.067C121.111 78.536 121.54 76.8213 121.846 75.1372C122.152 73.4531 122.397 71.7077 122.52 70.1155C122.643 68.5232 122.765 67.0534 122.765 65.7061C122.765 65.3693 122.765 65.0631 122.765 64.7875V63.9302C122.75 63.6854 122.75 63.44 122.765 63.1953V62.5829C122.765 62.2154 122.765 61.9092 122.765 61.7255V61.3887H125.828C125.842 61.4902 125.842 61.5933 125.828 61.6949C125.828 61.9092 125.828 62.2154 125.828 62.6135C125.828 63.0115 125.828 63.0422 125.828 63.2871V65.9205C125.828 67.2678 125.828 68.9825 125.583 70.5441C125.338 72.1058 125.154 74.0655 124.848 75.8414C124.542 77.6174 124.113 79.3934 123.653 81.0469C123.194 82.7004 122.734 84.1089 122.275 85.4868L121.632 87.2322C121.632 87.4771 121.417 87.7221 121.325 87.9364C121.233 88.1508 121.325 88.3651 121.08 88.5488L120.713 89.4062V89.6818L117.711 88.2733Z" fill="#FDFDFD"/>
<path opacity="0.82" d="M102.089 26.8184L101.232 25.9611L100.313 25.1343L99.2714 24.1851L98.1687 23.2665L97.3417 22.501C97.1205 22.3097 96.8849 22.1357 96.6371 21.9804L96.3921 21.7661L98.2912 19.2246L98.5669 19.439L99.302 19.9901L100.313 20.8169L101.477 21.7967L102.58 22.7766L103.529 23.6645L104.448 24.5525L102.089 26.8184Z" fill="#FAFAFA"/>
<path opacity="0.8" d="M96.2698 21.7664L95.8103 21.3071L94.7688 20.5722L93.7274 19.8373L93.2373 19.5311L94.9526 16.8672L95.4734 17.204L96.5761 17.9695L97.6788 18.735L98.0464 19.0106L96.2698 21.7664Z" fill="#FDFDFD"/>
<path opacity="0.66" d="M117.497 69.7788C117.497 69.7788 117.497 69.5951 117.497 69.2583C117.484 69.0441 117.484 68.8294 117.497 68.6153C117.497 68.3703 117.497 68.0641 117.497 67.7579C117.497 66.4718 117.497 64.6959 117.497 62.3994C117.497 62.1238 117.497 61.8482 117.497 61.5726C117.497 61.297 117.497 60.9908 117.497 60.6846C117.497 60.3784 117.497 59.4904 117.313 58.8474C117.129 58.2044 117.313 57.5614 117.068 56.9183C116.823 56.2753 116.884 55.571 116.762 54.8974C116.486 53.5501 116.18 52.1416 115.812 50.7637C115.445 49.3858 115.016 47.9466 114.495 46.5381C113.515 43.8272 112.328 41.1962 110.942 38.6687C110.268 37.4745 109.594 36.3415 108.89 35.2698C108.522 34.7493 108.216 34.2287 107.848 33.7388C107.48 33.2489 107.511 33.2795 107.327 33.0346C107.144 32.7896 106.99 32.5752 106.837 32.3609C105.489 30.5849 104.264 29.2989 103.407 28.2578C103.289 28.1608 103.186 28.0473 103.1 27.921L102.794 27.6454L102.365 27.1861L101.998 26.8186L104.234 24.5527L104.632 24.9814L105.091 25.4407C105.177 25.5577 105.281 25.6609 105.398 25.7469L105.735 26.1144C106.653 27.1248 107.94 28.564 109.38 30.4624L109.9 31.1667L110.421 31.9322C110.819 32.4221 111.156 32.9733 111.554 33.5245C112.259 34.6574 113.025 35.8516 113.729 37.1377C115.21 39.817 116.47 42.6128 117.497 45.497C118.018 46.9668 118.477 48.559 118.875 49.9369C119.273 51.3148 119.61 52.9989 119.855 54.3462C120.009 55.0505 120.1 55.7548 120.223 56.459C120.345 57.1633 120.407 57.8369 120.468 58.5106C120.529 59.1842 120.468 59.8273 120.652 60.4703C120.836 61.1133 120.652 61.0827 120.652 61.3889C120.652 61.6951 120.652 62.0013 120.652 62.2769C120.751 64.1638 120.751 66.0547 120.652 67.9416C120.652 68.2785 120.652 68.5846 120.652 68.8296C120.652 69.0746 120.652 69.3195 120.652 69.5339C120.652 69.7482 120.652 70.085 120.652 70.085L117.497 69.7788Z" fill="#FEFEFE"/>
<path opacity="0.75" d="M115.046 81.3537C115.12 81.1954 115.182 81.0316 115.23 80.8638C115.23 80.8638 115.23 80.527 115.23 80.3126C115.23 80.0983 115.23 79.8533 115.445 79.5778C115.843 78.28 116.17 76.9613 116.425 75.6278C116.609 74.8929 116.731 74.1886 116.854 73.4843C116.837 73.158 116.837 72.8309 116.854 72.5045C116.837 72.2087 116.837 71.9123 116.854 71.6165C116.854 71.0653 116.854 70.606 116.854 70.2692C116.854 69.9324 116.854 69.7793 116.854 69.7793L119.917 70.0855C119.917 70.0855 119.917 70.2692 119.917 70.606C119.917 70.9429 119.917 71.4328 119.733 72.0146C119.549 72.5963 119.733 72.627 119.733 72.9638C119.733 73.3006 119.733 73.6374 119.733 74.0049C119.733 74.3723 119.457 75.5053 119.304 76.2708C118.967 77.8324 118.6 79.3328 118.263 80.4658C118.263 80.7413 118.263 81.0169 118.018 81.2313C117.773 81.4456 118.018 81.6599 117.834 81.8437V82.3336L115.046 81.3537Z" fill="#FDFDFD"/>
<path opacity="0.82" d="M104.693 99.6338L105.275 98.9295L105.581 98.5621L105.949 98.1334L106.776 97.0617L107.235 96.4493C107.388 96.235 107.542 95.99 107.725 95.7756C107.909 95.5613 108.399 94.8264 108.736 94.3059C109.441 93.2648 110.145 92.1625 110.788 90.9989C111.955 88.8855 112.978 86.6963 113.851 84.4462C114.219 83.5276 114.495 82.762 114.679 82.2109L114.954 81.3535L118.017 82.3334L117.711 83.252C117.497 83.8338 117.221 84.6605 116.823 85.6404C115.864 88.0185 114.749 90.3303 113.484 92.5605C112.81 93.7853 112.044 94.9795 111.309 96.0818C110.942 96.6024 110.605 97.1229 110.237 97.6129C109.869 98.1028 109.9 98.1028 109.716 98.3171C109.533 98.5315 109.379 98.7764 109.226 98.9908C109.073 99.2051 108.614 99.7869 108.338 100.124L107.97 100.583L107.633 100.981L107.021 101.716L104.693 99.6338Z" fill="#FCFCFC"/>
</svg>
