<svg width="99" height="96" viewBox="0 0 99 96" fill="none" xmlns="http://www.w3.org/2000/svg">
<path opacity="0.86" d="M21.4473 34.5185L21.7229 34.0285C21.9067 33.6917 22.1824 33.2018 22.55 32.62C23.6032 30.9743 24.8027 29.4269 26.1338 27.9964C26.2192 27.87 26.3224 27.7566 26.4401 27.6596L26.7464 27.3227L27.4509 26.6491L27.6041 26.4654H27.7879C27.9062 26.3371 28.0399 26.224 28.1861 26.1285L28.5536 25.7917C28.6719 25.6634 28.8057 25.5503 28.9518 25.4549C29.2151 25.2155 29.4912 24.9906 29.7789 24.7812H29.9627L30.269 24.2913L30.7284 23.9851C31.3104 23.5564 31.923 23.1584 32.5663 22.7297C33.8922 21.9183 35.274 21.202 36.7014 20.5863C38.1751 19.9711 39.6899 19.4595 41.2348 19.0553C42.7913 18.6464 44.3795 18.3698 45.9826 18.2285C46.779 18.2285 47.5448 18.2285 48.3412 18.2285H51.1899H51.7412H52.8439H53.916H54.1917H54.4367H54.9575C55.6313 18.2285 56.2746 18.5041 56.9178 18.6572H57.3773H57.8368H58.2962H58.7251C60.5751 19.2655 62.3604 20.0552 64.0548 21.0149L65.4639 21.8417L65.9233 22.1479L63.7485 25.3936L63.3503 25.1181L62.0945 24.3832C60.607 23.5616 59.0488 22.875 57.4386 22.3316L56.6728 22.1173H56.2746H56.0602H55.8764L55.0187 21.9029H54.7737H54.5593H54.1304C53.5484 21.9029 52.9052 21.7192 52.2926 21.6274H51.343H48.2799C47.606 21.6274 46.9015 21.6274 46.2277 21.6274C44.8324 21.7654 43.4499 22.0111 42.0925 22.3622C40.7301 22.7004 39.3982 23.1511 38.1105 23.7095C36.8658 24.2519 35.6584 24.8758 34.496 25.5774L33.669 26.1285H33.4852H33.2708L32.9032 26.4041C32.3825 26.7716 31.8924 27.1696 31.4329 27.5371L30.7591 28.1495C30.5305 28.3271 30.3155 28.5216 30.1158 28.7313C29.7176 29.1293 29.2888 29.4968 28.9518 29.8948C27.8162 31.1623 26.7914 32.5248 25.8887 33.9673L25.4905 34.6716C25.3638 34.8353 25.2511 35.0094 25.1536 35.1921L24.9392 35.6514L21.4473 34.5185Z" fill="#FDFDFD"/>
<path opacity="0.5" d="M21.417 34.5484L21.6927 33.9973L22.2134 33.1705L22.5503 32.5887C23.5885 30.9405 24.778 29.3926 26.1035 27.9651L26.4098 27.6282L26.6242 27.4139L27.4819 26.5871L28.4621 25.7298L28.799 25.393L29.8405 24.5662L30.2693 24.26C30.7421 23.8987 31.2328 23.5615 31.7396 23.2495L32.1378 23.0046C33.5615 22.089 35.0571 21.2903 36.6099 20.6162C38.0852 20.0054 39.5997 19.4939 41.1433 19.0852C42.7031 18.6984 44.2904 18.4322 45.8911 18.2891C46.5956 18.2891 47.2695 18.2891 47.9433 18.2891H49.965H51.0983H51.6497H52.0479H52.7524L54.1001 18.4728H54.8659C55.3938 18.5627 55.9155 18.6854 56.4281 18.8402H56.8263H57.2858L58.2353 19.1158H58.6335C60.4787 19.7366 62.2628 20.5259 63.9633 21.4736L65.0354 22.1166L65.3723 22.3309L65.8624 22.6372L63.657 26.4341L63.2281 26.1585L62.8912 25.9441L62.0029 25.4236C60.5175 24.5977 58.9589 23.9109 57.347 23.372L56.8569 23.2189H56.5812L55.9686 23.0352L54.7128 22.729H54.0695L52.6605 22.484H52.2317H51.619H50.792H49.5361H47.8821H46.228C44.8328 22.6062 43.4498 22.8417 42.0928 23.1883C40.736 23.5451 39.4055 23.9953 38.1108 24.5356C36.8661 25.0894 35.6588 25.7236 34.4964 26.4341L33.4856 27.1077L32.9036 27.5058C32.5054 27.7813 32.1378 28.0875 31.8009 28.3631L31.4333 28.6693L31.0045 29.0368L30.7594 29.2511L30.5756 29.4348L30.2693 29.4961L29.963 29.8329C29.662 30.1032 29.3757 30.3894 29.1053 30.6903C27.9622 31.9406 26.9369 33.2936 26.0423 34.7321L25.6134 35.4364L25.399 35.8038L25.154 36.2632L21.417 34.5484ZM65.8318 23.1883L65.3417 22.8515L65.0047 22.6678L63.9633 22.0247C62.26 21.0826 60.4764 20.2936 58.6335 19.667H58.2047L57.2858 19.3914H56.8263H56.4281C55.9146 19.24 55.3931 19.1173 54.8659 19.024L54.0695 18.8709L52.7524 18.6871H52.0479H51.7109H51.1596H48.0965C47.4226 18.6871 46.7487 18.6871 46.0442 18.6871C44.4533 18.8277 42.876 19.0939 41.3271 19.4833C39.767 19.883 38.241 20.4052 36.7631 21.0449C35.3303 21.6492 33.9475 22.3659 32.6279 23.1883L32.2297 23.4333L30.79 24.4131L30.3612 24.7499L29.3198 25.5767L28.9522 25.8829L28.0026 26.7403L27.145 27.5976L26.9305 27.812L26.6242 28.1488C25.2909 29.5774 24.0913 31.1251 23.0404 32.7724L22.7341 33.3236C22.4891 33.6911 22.3359 33.9666 22.2134 34.181L21.9377 34.6709L25.3684 36.5387L25.5828 36.11C25.6427 35.9812 25.7145 35.8582 25.7972 35.7426V35.7426L26.226 35.0077C27.1117 33.5631 28.1377 32.2092 29.2891 30.9658C29.5408 30.6579 29.8175 30.3711 30.1162 30.1085C30.2104 29.9989 30.3128 29.8965 30.4225 29.8023L30.8819 29.3736L31.0657 29.1899L31.3108 28.9755L31.7396 28.6081L32.1072 28.3019C32.4747 28.0263 32.8423 27.7201 33.2099 27.4751L33.3324 26.7403L34.3739 26.0666C35.5327 25.35 36.7405 24.7156 37.9883 24.1682C39.283 23.6279 40.6135 23.1777 41.9703 22.8209C43.3289 22.4754 44.711 22.2298 46.1055 22.086C46.6568 22.086 47.2388 22.086 47.7595 22.086H49.4136H50.6695H51.7109H52.3236H52.7524L54.1614 22.3309H54.8046L56.0912 22.6372L56.6731 22.8209H56.9795H57.4695C59.0815 23.3598 60.6401 24.0466 62.1254 24.8724L62.9831 25.393L63.3507 25.6073L63.7489 25.8523L65.8318 23.1883Z" fill="#FDFDFD"/>
<path opacity="0.82" d="M19.058 57.9424C19.0717 57.8613 19.0717 57.7785 19.058 57.6974C19.0668 57.6057 19.0668 57.5135 19.058 57.4218V57.0237C19.058 56.7175 18.9661 56.3501 18.7823 55.9214C18.7823 55.7377 18.7823 55.4927 18.7823 55.2478C18.7823 55.0028 18.7823 54.7885 18.6292 54.5129C18.0992 51.9771 17.8934 49.3842 18.0165 46.7966C18.0165 46.0923 18.0165 45.3881 18.231 44.7144V44.1939C18.2164 44.0309 18.2164 43.8669 18.231 43.7039L18.4147 42.6935C18.4147 42.3873 18.4147 42.0505 18.6292 41.7443C18.8436 41.4381 18.7823 41.1318 18.8436 40.8563L19.1192 39.9989C19.1825 39.7382 19.2644 39.4824 19.3643 39.2334C19.3643 38.9884 19.3643 38.7435 19.6093 38.4985L19.8544 37.8555C20.0075 37.4574 20.1301 37.1206 20.2526 36.845V36.6307V36.4469V36.1714V35.957L23.7751 37.6411V37.8555C23.6787 38.0429 23.5968 38.2374 23.5301 38.4373C23.5301 38.6822 23.3157 38.9884 23.1625 39.3253L22.7337 40.5194C22.0215 42.6608 21.579 44.8826 21.4166 47.1334C21.4166 47.4396 21.4166 47.7458 21.4166 48.052C21.4166 48.3582 21.4166 48.3582 21.4166 48.5113C21.4471 48.6629 21.4471 48.8191 21.4166 48.9706C21.4166 49.2768 21.4166 49.583 21.4166 49.8586C21.4166 50.1342 21.4166 50.4404 21.4166 50.7466C21.4014 51.0322 21.4014 51.3184 21.4166 51.604V52.4001V53.1656C21.3993 53.4 21.3993 53.6354 21.4166 53.8699C21.4166 54.1148 21.4166 54.3292 21.4166 54.5435C21.3991 54.7371 21.3991 54.9317 21.4166 55.1253C21.4166 55.4927 21.4166 55.7989 21.6616 56.0745V56.6563C21.6535 56.7275 21.6535 56.7994 21.6616 56.8706L19.058 57.9424Z" fill="#FEFEFE"/>
<path opacity="0.89" d="M19.0581 57.9743L18.905 57.3619C18.905 57.3619 18.905 57.1169 18.905 56.9638L18.6599 55.8921V55.4328C18.6638 55.3614 18.6638 55.2899 18.6599 55.2185V54.453C18.137 51.9366 17.921 49.3662 18.0167 46.7979C18.0167 46.6142 18.0167 46.3999 18.0167 46.2161C18.0477 45.7128 18.1091 45.2117 18.2005 44.7158V44.1952C18.1857 44.0732 18.1857 43.9498 18.2005 43.8278L18.3842 42.8173C18.3985 42.5828 18.3985 42.3475 18.3842 42.113C18.4016 42.0323 18.4016 41.9488 18.3842 41.8681V41.5618C18.3667 41.3683 18.3667 41.1736 18.3842 40.9801L18.6293 40.1227V39.939L18.8131 39.3572L19.0581 38.6223V38.4386V37.9793L19.5788 36.7545L19.8852 36.0502L23.4077 37.7343V37.9487C23.3358 38.0973 23.2744 38.2508 23.2239 38.408L22.8257 39.296C22.8257 39.5103 22.8257 39.7553 22.5807 40.0002C22.5279 40.1666 22.4665 40.3301 22.3969 40.4901C21.7001 42.6356 21.258 44.8555 21.0798 47.1041V48.1758C21.068 48.2262 21.068 48.2786 21.0798 48.3289V49.9824V50.8704C21.0645 51.0845 21.0645 51.2994 21.0798 51.5134C21.0672 51.5843 21.0672 51.6569 21.0798 51.7278C21.0663 51.8294 21.0663 51.9324 21.0798 52.034C21.0798 52.034 21.0798 52.3708 21.0798 52.5239V53.4119V53.9937V54.7592C21.0658 54.9222 21.0658 55.0861 21.0798 55.2491L21.2942 56.1677C21.2868 56.3207 21.2868 56.474 21.2942 56.627C21.2942 56.627 21.2942 56.627 21.2942 56.627V56.872L19.0581 57.9743ZM20.7428 35.9277L20.4365 36.6014L19.9158 37.8262C19.9158 37.8262 19.9158 38.1018 19.9158 38.2549V38.4692L19.6707 39.1735L19.487 39.7859V39.9696L19.2419 40.7963C19.2419 41.0107 19.2419 41.1944 19.2419 41.4088V41.715C19.2525 41.7963 19.2525 41.8786 19.2419 41.9599C19.2055 42.1875 19.1543 42.4126 19.0888 42.6336L18.905 43.644C18.888 43.7762 18.888 43.91 18.905 44.0421C18.905 44.0421 18.905 44.0421 18.905 44.0421V44.5626C18.905 45.0526 18.905 45.5731 18.7212 46.063C18.5374 46.5529 18.7212 46.4611 18.7212 46.6448C18.5398 49.2235 18.6735 51.8147 19.1194 54.3611V55.096V55.3104C19.1194 55.4941 19.1194 55.6472 19.1194 55.7697L19.3644 56.8414C19.3744 56.9841 19.3744 57.1273 19.3644 57.27L19.5176 57.76L23.2546 56.7189V56.5352C23.2689 56.4748 23.2689 56.4118 23.2546 56.3514C23.2546 56.3514 23.2546 56.0758 23.2546 55.9227L23.0401 54.9735C23.0262 54.8105 23.0262 54.6466 23.0401 54.4836V53.7487C23.0257 53.5448 23.0257 53.3402 23.0401 53.1363V53.1363V52.3708C23.055 52.2078 23.055 52.0438 23.0401 51.8809V51.5747C23.0275 51.5038 23.0275 51.4312 23.0401 51.3603C23.0401 51.146 23.0401 50.9317 23.0401 50.7173V48.1758C23.0431 48.1248 23.0431 48.0737 23.0401 48.0227V47.1041C23.2163 44.8426 23.6689 42.6111 24.3879 40.4595C24.4251 40.3022 24.4763 40.1484 24.5411 40.0002C24.5411 39.7553 24.7248 39.5103 24.7861 39.296L25.1537 38.3774L25.3681 37.9487V37.7649L20.7428 35.9277Z" fill="#FDFDFD"/>
<path opacity="0.5" d="M68.2819 24.9648L68.6188 25.2098C68.8332 25.3935 69.1395 25.6385 69.4765 25.9753C69.8134 26.3121 70.3035 26.7102 70.7936 27.2001L71.1612 27.5982C71.3015 27.7231 71.4344 27.856 71.5594 27.9963L72.3558 28.9149C73.6174 30.394 74.745 31.9823 75.7252 33.661C77.9455 37.5284 79.294 41.8339 79.6766 46.2765C79.8466 48.2121 79.8466 50.1588 79.6766 52.0944C79.6615 52.2982 79.6615 52.5029 79.6766 52.7068V53.2886C79.6766 53.6866 79.6766 54.0235 79.6766 54.3909C79.6766 54.7583 79.5234 55.0339 79.4622 55.3401C79.4009 55.6463 79.4622 55.6157 79.4622 55.7382V56.1363L79.1865 57.2386V57.6366L75.4495 56.5037V56.1669C75.4495 55.9525 75.4495 55.6157 75.6946 55.187C75.7118 55.0754 75.7118 54.9618 75.6946 54.8502V54.4828C75.6946 54.2378 75.6946 53.9622 75.6946 53.656C75.6946 53.3498 75.6946 53.0436 75.8477 52.7068C75.8645 52.5337 75.8645 52.3593 75.8477 52.1862C75.8477 52.1862 75.8477 51.8494 75.8477 51.6657C76.0025 49.9749 76.0025 48.2735 75.8477 46.5827C75.6565 44.6519 75.277 42.7444 74.7144 40.8874C74.1224 39.0317 73.3317 37.2453 72.3558 35.5594C71.5145 34.0953 70.5405 32.7116 69.4459 31.4257L68.7414 30.6296L68.0062 29.8028C67.8966 29.7086 67.7942 29.6063 67.6999 29.4966L67.3936 29.2211L66.8422 28.7311C66.7633 28.6676 66.6914 28.5958 66.6278 28.5168L66.4134 28.3637C66.3168 28.2542 66.203 28.1611 66.0765 28.0881L65.8008 27.8432L68.2819 24.9648Z" fill="#FEFEFE"/>
<path opacity="0.68" d="M74.8064 56.5036V56.1667L75.1433 54.8501L75.3883 53.6559V53.0741C75.3883 53.0741 75.3883 52.8291 75.3883 52.7067C75.4027 52.6462 75.4027 52.5833 75.3883 52.5229C75.3883 52.5229 75.3883 52.3086 75.3883 52.1861V51.6656C75.5568 49.9754 75.5568 48.2727 75.3883 46.5826C75.2089 44.65 74.8291 42.7413 74.255 40.8872C73.171 37.4036 71.3772 34.1821 68.9865 31.4256L68.282 30.6294L67.8531 30.2008L67.6081 29.9558L67.3018 29.6496C67.257 29.5738 67.1938 29.5106 67.118 29.4659L66.3829 28.7922L65.7702 28.2717L68.2514 25.2097L68.5883 25.4852H68.7721L69.1396 25.7915L69.4766 26.0977L69.7523 26.3426C70.0586 26.6182 70.4261 26.955 70.7631 27.3225L71.1307 27.6899L71.4063 27.9961L72.2334 28.9147C73.4966 30.3856 74.6147 31.975 75.5721 33.6609C77.7924 37.5283 79.141 41.8338 79.5235 46.2764C79.7073 48.2113 79.7073 50.1593 79.5235 52.0942V52.7067C79.5235 52.7067 79.5235 52.9516 79.5235 53.0741C79.5274 53.1455 79.5274 53.217 79.5235 53.2884C79.5235 53.2884 79.5235 53.564 79.5235 53.6865C79.5235 53.809 79.2785 54.2989 79.2785 54.2989L79.0947 55.2481C79.0947 55.2481 79.0947 55.4318 79.0947 55.4931V55.8911C79.1085 56.0439 79.1085 56.1977 79.0947 56.3504V56.9935V57.4221L74.8064 56.5036ZM66.5973 28.6085L67.3631 29.3128L67.5468 29.4965L67.8531 29.8027L68.0982 30.0477L68.527 30.507L69.2315 31.3031C70.3793 32.5825 71.4048 33.9664 72.2946 35.4368C74.2303 38.8186 75.4111 42.5791 75.7559 46.4601C75.9244 48.1503 75.9244 49.8529 75.7559 51.5431V52.0942C75.7559 52.0942 75.7559 52.3086 75.7559 52.4311C75.7559 52.4311 75.7559 52.7066 75.7559 52.8291V53.3803L75.5109 54.5745L75.1739 55.8911V56.228L78.8803 57.3303V56.9629L79.0334 56.3198C79.0473 56.1671 79.0473 56.0133 79.0334 55.8605V55.4625C79.0334 55.4625 79.0334 55.2787 79.0334 55.1869L79.2785 54.2989C79.2639 54.0644 79.2639 53.8291 79.2785 53.5946C79.2785 53.5946 79.2785 53.319 79.2785 53.1966C79.2954 53.1261 79.2954 53.0527 79.2785 52.9822C79.2932 52.8602 79.2932 52.7368 79.2785 52.6148V51.9717C79.4623 50.0471 79.4623 48.1092 79.2785 46.1845C79.0778 43.9717 78.6466 41.7858 77.992 39.6624C77.3385 37.5268 76.4445 35.4723 75.3271 33.5384C74.3547 31.862 73.2376 30.2739 71.9883 28.7922L71.1919 27.8736L70.8856 27.598L70.4874 27.2306C70.1742 26.8804 69.8364 26.5529 69.4766 26.2507L69.2009 26.0058L68.864 25.6996L68.4964 25.3934L68.1901 25.1484L65.709 28.2105L66.3216 28.7004L66.5973 28.6085Z" fill="#FDFDFD"/>
<path opacity="0.86" d="M77.655 60.4226L77.4713 60.8207C77.3381 61.1962 77.1848 61.5642 77.0118 61.923L76.2154 63.4847L75.7559 64.3114C75.7559 64.587 75.4496 64.8626 75.2658 65.1382L75.0208 65.5668L74.7451 65.9649L74.2244 66.761L73.9487 67.1285L73.7037 67.4653C73.5505 67.7103 73.3667 67.894 73.2442 68.1083L72.4784 69.0269L72.2027 69.3637L69.1396 66.761L69.3847 66.4855L70.0586 65.6587L70.4568 65.1075L70.7018 64.8013C70.9775 64.342 71.3451 63.8827 71.6208 63.3928C71.8964 62.9029 71.8964 62.9029 72.0496 62.6579L72.4172 61.9537C72.6928 61.4637 72.8766 61.0044 73.0604 60.637C73.0547 60.5452 73.0547 60.4532 73.0604 60.3614V60.0858C73.1098 59.948 73.1713 59.8148 73.2442 59.6878V59.3203L77.655 60.4226Z" fill="#FDFDFD"/>
<path opacity="0.7" d="M72.2643 69.2422L69.2012 66.6088L69.4769 66.3026L69.6606 66.0883C69.8285 65.9065 69.9821 65.712 70.1201 65.5065L70.7634 64.6491L71.0697 64.2204C71.2916 63.9052 71.4961 63.5781 71.6823 63.2406L72.1111 62.5057L72.5093 61.7708C72.773 61.3469 72.9887 60.8951 73.1526 60.4235L73.3363 60.0561V59.7805C73.3446 59.6377 73.3446 59.4946 73.3363 59.3518L73.4895 58.9844L77.1039 60.4542V60.8828V61.1278C76.9918 61.4227 76.8588 61.7092 76.7057 61.9852V62.2914C76.522 62.6588 76.3382 63.0875 76.0931 63.4856L75.6337 64.3123L74.8985 65.5677C74.8361 65.6528 74.7846 65.7454 74.7454 65.8433C74.7454 65.8433 74.7454 65.8433 74.7454 65.8433L74.2246 66.6088C74.1611 66.7425 74.0786 66.8663 73.9796 66.9763L73.2444 67.9561L72.6931 68.6298L72.5093 68.8747L72.2643 69.2422ZM69.2012 66.6088L72.2643 69.1809L72.5399 68.8441L72.7237 68.5991C72.7237 68.4154 73.0913 68.2011 73.2751 67.9561L74.0102 66.9763L74.2859 66.6088L74.8066 65.8127V65.6596C74.8125 65.578 74.8125 65.4962 74.8066 65.4146L75.5724 64.1592L76.2156 63.4856C76.4346 63.1001 76.629 62.7013 76.7976 62.2914C76.8031 62.1894 76.8031 62.0872 76.7976 61.9852C76.9515 61.6991 77.0846 61.4023 77.1958 61.0972V60.8828L77.349 60.4848L73.7652 59.015V59.3825C73.7652 59.3825 73.7652 59.6274 73.612 59.8111C73.4589 59.9949 73.612 59.8111 73.612 59.8111V59.9948V60.2704L73.4282 60.6379C73.4282 60.9135 73.1526 61.2503 72.9688 61.5871L72.5706 62.322L72.1417 63.0262C71.9453 63.3742 71.7306 63.7115 71.4985 64.0367L71.2228 64.4348V64.6185L70.5796 65.4759C70.5796 65.6902 70.2426 65.8739 70.1201 66.027L69.9363 66.272L69.2012 66.6088Z" fill="#FDFDFD"/>
<path opacity="0.73" d="M25.4295 69.6104C25.3402 69.5368 25.2581 69.4548 25.1845 69.3655L24.3881 68.355L23.8674 67.6814L23.316 66.8852L22.7646 66.0585L22.489 65.5992L22.2133 65.1399C21.5558 64.0212 20.9626 62.866 20.4367 61.6798C20.2529 61.1899 20.0691 60.7918 19.9772 60.5162L19.7935 60.0569L23.4692 58.7402V59.0158L23.898 60.0569C24.3327 61.1137 24.8446 62.1372 25.4295 63.1189C25.5226 63.255 25.6046 63.3984 25.6746 63.5476L25.9196 63.9151L26.4097 64.6499L26.8998 65.3542L27.3287 65.936L28.0332 66.7934L28.3395 67.1302L25.4295 69.6104Z" fill="#FAFAFA"/>
<path opacity="0.68" d="M25.4293 69.6099V69.4262L24.1428 68.1708L23.8365 67.7421L23.6528 67.4971L23.469 67.2522L23.1014 66.7316L22.5194 65.8743L22.3356 65.5681L22.0906 65.1394C21.4148 64.0308 20.8211 62.8744 20.314 61.6793C20.314 61.3425 20.0383 61.0056 19.9464 60.7913C19.9515 60.6893 19.9515 60.5871 19.9464 60.4851L19.7626 60.0258L23.469 58.7397V59.046C23.4616 59.1479 23.4616 59.2502 23.469 59.3522C23.469 59.5563 23.5609 59.8012 23.7446 60.087C24.2114 61.1343 24.7329 62.1564 25.3068 63.1491L25.5519 63.5471C25.5369 63.6281 25.5369 63.7111 25.5519 63.7921C25.5519 63.7921 25.5519 63.7921 25.5519 63.7921L26.042 64.527L26.5321 65.2006V65.4149L26.8384 65.813L27.5429 66.6704C27.6442 66.7746 27.7365 66.8873 27.8186 67.0072V67.0072L25.4293 69.6099ZM19.732 59.9339C19.715 60.0763 19.715 60.2202 19.732 60.3626V60.6688C19.732 60.9138 19.9464 61.22 20.0996 61.5568C20.6126 62.7491 21.2062 63.9051 21.8762 65.0169L22.1212 65.4762L22.305 65.7518L22.887 66.6091L23.2545 67.1297L23.4383 67.3746L23.6221 67.6502L23.9284 68.0789L24.7555 69.0588V69.2731L27.8186 66.7622L27.5429 66.456L26.8384 65.5681C26.7392 65.4512 26.6471 65.3285 26.5627 65.2006V64.9863L26.0726 64.3126L25.5825 63.5471V63.3022L25.3374 62.9041C24.7529 61.9221 24.241 60.8987 23.8059 59.8421C23.8059 59.5665 23.5609 59.3215 23.4996 59.1378C23.4915 59.0257 23.4915 58.9131 23.4996 58.801V58.5254L19.732 59.9339Z" fill="#FDFDFD"/>
<path opacity="0.62" d="M54.7739 79.7447H54.4369H53.518H52.8441H52.0477H51.1288H50.118C48.5221 79.7878 46.9251 79.7162 45.3395 79.5304C43.4834 79.4511 41.6381 79.2051 39.826 78.7955C38.0737 78.2506 36.3724 77.5539 34.7412 76.7133C33.3153 75.992 31.9525 75.1521 30.6673 74.2025L29.8403 73.5901L29.1358 73.0389L28.5232 72.5183L28.0331 72.0897C27.8171 71.8556 27.5814 71.6405 27.3286 71.4466L27.2061 71.3242L29.9935 68.5684L30.6061 69.1195L31.0349 69.5176L31.5863 69.9463L31.862 70.2218L32.1989 70.4668L32.9034 70.9873C34.0244 71.8108 35.213 72.5381 36.4566 73.1614C37.884 73.8865 39.3697 74.4908 40.8981 74.968C42.4373 75.4376 44.0162 75.7656 45.6152 75.9478C47.0064 76.1261 48.4102 76.1875 49.8117 76.1315H50.6693H51.4657H52.1702H52.7522H53.5792H53.8549L54.7739 79.7447Z" fill="#FDFDFD"/>
<path opacity="0.58" d="M72.5092 69.6087L71.9578 70.2211L71.6821 70.5273C71.5674 70.6573 71.4446 70.7801 71.3146 70.8948L70.4875 71.7215L69.9668 72.1808L69.4461 72.6707L69.1398 72.9157C69.0519 73.0137 68.9484 73.0965 68.8335 73.1607L68.2208 73.6812L67.8839 73.9568L67.547 74.1711L66.8731 74.6917H66.6893H66.5055L66.1379 74.906L65.4028 75.3959L64.6677 75.8246L64.2695 76.0696L63.9019 76.2839L63.1361 76.682L62.7685 76.8657L62.401 77.0494C61.4208 77.5087 60.4712 77.8762 59.6442 78.1824L58.5109 78.5805L57.6226 78.8254L57.0712 79.0091H56.8568L55.9072 75.2428H56.091L56.5811 75.0897L57.3775 74.8754L58.3577 74.5386C60.1104 73.8931 61.7934 73.0724 63.3812 72.089L64.0244 71.6603L64.6677 71.2622L65.2496 70.8029L65.556 70.5886L65.8316 70.3742C66.5974 69.7924 67.2407 69.18 67.8226 68.6595L68.5578 67.9246L69.1091 67.3428L69.5686 66.8223L72.5092 69.6087Z" fill="#FEFEFE"/>
<path opacity="0.85" d="M56.857 79.2863L55.8768 75.4588H56.0912L56.5813 75.3057H56.8263H57.3471L58.3273 74.9688C60.0937 74.333 61.7879 73.5118 63.3814 72.5192L64.0246 72.1211H64.2084L64.6372 71.8149L65.2498 71.3863L65.5561 71.1719L65.8318 70.927C66.4751 70.437 67.0877 69.8859 67.7922 69.2428L68.558 68.508L68.9255 68.0793L69.1093 67.8956L69.5688 67.375L72.4787 70.0083L71.6517 70.927L71.3148 71.2638L70.4571 72.1211L70.1201 72.4273C70.0697 72.4166 70.0175 72.4166 69.967 72.4273L69.1093 73.1622L68.1904 73.8971L68.0066 74.0808L66.7814 74.9382L65.4949 75.765L64.3922 76.4386L63.994 76.653L62.8606 77.2347H62.6156C61.7579 77.6634 60.8084 78.0309 59.8588 78.3983L58.7255 78.7657L57.2858 79.1944L56.857 79.2863ZM55.938 75.4894L56.8876 79.2557H57.0714L58.511 78.827L59.6444 78.4289C60.5939 78.0921 61.5129 77.694 62.4012 77.296H62.6462L63.7795 76.7142L64.1471 76.4998L65.2805 75.8568L66.567 74.9995L66.8426 74.8157L67.7616 74.1421L67.976 73.9584L68.9255 73.2235L69.7526 72.4886L70.0895 72.1824L70.9472 71.325C71.0649 71.228 71.1681 71.1145 71.2535 70.9882L71.5904 70.682L72.1111 70.1002L69.0481 67.4975L68.5886 68.018V68.2018L68.1904 68.5998L67.4553 69.3347C66.8246 69.9435 66.1599 70.516 65.4643 71.0494L65.1886 71.2944L64.8823 71.5088L64.3003 71.9374L63.8714 72.2436H63.657L63.0138 72.6723C61.4267 73.6487 59.7434 74.4593 57.9903 75.0913L57.0101 75.4588H56.4894H56.2137H55.7236L55.938 75.4894Z" fill="#FDFDFD"/>
<path opacity="0.57" d="M9.37893 51.6973V51.881C9.39841 52.0539 9.39841 52.2285 9.37893 52.4015V52.769C9.39639 52.9216 9.39639 53.0757 9.37893 53.2283C9.39511 53.3912 9.39511 53.5553 9.37893 53.7182C9.37893 53.9019 9.37893 54.1163 9.37893 54.3306C9.37893 55.1574 9.56272 56.1372 9.7465 57.3926C9.93029 58.6481 10.2366 59.8116 10.6042 61.1895C11.0023 62.6684 11.4934 64.1206 12.0745 65.5376C12.1688 65.7154 12.2507 65.8996 12.3195 66.0888V66.2419L12.4726 66.5175C12.4726 66.9155 12.8096 67.283 12.9934 67.681C13.1772 68.0791 13.7898 69.212 14.2186 69.9776L14.4024 70.2838C14.4024 70.2838 14.4024 70.4675 14.5555 70.5593L14.9231 71.1411L15.6583 72.2741C15.9033 72.6721 16.179 73.0396 16.4547 73.407L16.8835 73.9888C16.9518 74.0758 17.0132 74.1679 17.0673 74.2644C17.1552 74.3422 17.2279 74.4356 17.2817 74.54L17.5268 74.7849C17.5806 74.8893 17.6533 74.9827 17.7412 75.0605L18.2006 75.6117L18.6601 76.1628L18.8745 76.4078L19.1196 76.6834C19.7628 77.3876 20.4367 78.0613 21.1106 78.7043L21.6313 79.1942L22.1826 79.6842L22.4583 79.8985L22.734 80.1435L23.2547 80.6028L25.5214 82.3175L27.8494 83.8179L28.462 84.1547L28.7377 84.3384H29.044L29.626 84.6753L30.2386 84.9508L30.8206 85.257L31.4332 85.5326L32.5971 86.0838H32.9035L33.4854 86.2981H33.7611H34.0674L34.6494 86.5125C37.3325 87.4251 40.1048 88.0512 42.9198 88.3803H43.318H43.7468H44.5126H48.5252L48.709 94.5043H45.5846H44.7576H43.8387H43.3792H42.8891C41.5414 94.5043 40.0405 94.1063 38.417 93.7695C36.7119 93.6303 35.0148 93.4054 33.3323 93.0958L32.6584 92.8509H32.3215H31.9845L31.3106 92.6059H31.1269H30.9431L30.6061 92.4528L29.2277 91.871L28.3701 91.0443L27.6962 90.7074L26.9917 90.34L26.2872 89.9726L25.9502 89.7582L25.6133 89.5745L24.9088 89.1764C24.0205 88.6253 23.1016 88.0435 22.2133 87.4005C21.325 86.7574 20.4367 86.1144 19.579 85.4408L18.9664 84.8896L18.6295 84.6447L18.3231 84.3691L17.7105 83.8179L17.0979 83.2667C16.3015 82.5114 15.5357 81.7153 14.8006 80.8784L14.4943 80.5722L14.2492 80.266L13.6979 79.6535C13.5141 79.4392 13.3609 79.2249 13.1772 79.0411C13.0856 78.9364 13.0036 78.8237 12.9321 78.7043L12.6564 78.3981C12.585 78.2787 12.503 78.166 12.4114 78.0613L12.1663 77.7551C12.0132 77.5408 11.8294 77.3264 11.6763 77.0814L10.7573 75.7648C10.451 75.3361 10.1753 74.9074 9.89965 74.4481L9.47082 73.7745L9.28705 73.4376L9.07263 73.1008C8.55191 72.2128 8.09243 71.2942 7.6636 70.4062L7.02035 69.0589C7.03125 68.9572 7.03125 68.8545 7.02035 68.7527V68.569V68.4159L6.74468 67.7423C6.06355 66.094 5.48055 64.407 4.99872 62.6899C4.56988 61.0977 4.26358 59.6279 4.01853 58.2806C3.77348 56.9333 3.68159 55.7697 3.5897 54.8205C3.5897 54.5756 3.5897 54.3612 3.5897 54.1469C3.5752 53.943 3.5752 53.7384 3.5897 53.5345C3.57492 53.3613 3.57492 53.1871 3.5897 53.0139C3.57557 52.8714 3.57557 52.7278 3.5897 52.5853C3.60978 52.3918 3.60978 52.1969 3.5897 52.0035V51.8504L9.37893 51.6973Z" fill="#FCFCFC"/>
<path opacity="0.78" d="M18.5679 84.6753L17.9553 84.1241L17.3426 83.5729C16.4543 82.7156 15.6886 81.9501 15.0147 81.2152L14.739 80.909L14.4633 80.6028L14.2796 80.3578C14.1512 80.2395 14.0381 80.1058 13.9426 79.9597C13.7588 79.7454 13.575 79.5617 13.4219 79.3473L12.9012 78.7962L12.4111 78.1532L12.2273 77.9694L11.7372 77.3264C11.6633 77.2087 11.5814 77.0962 11.4921 76.9896L10.757 75.7342C10.512 75.3667 10.2669 74.9993 10.0525 74.6318L9.86871 74.3869L9.62366 73.9582V73.7132C9.56123 73.6281 9.50977 73.5356 9.47051 73.4376C9.38152 73.3375 9.30913 73.2238 9.25609 73.1008C8.70474 72.1516 8.18401 71.1717 7.81644 70.4368V70.1919C7.63265 69.8245 7.44887 69.457 7.29572 69.0896L7.0813 68.569L6.71373 67.7423C6.05058 66.0905 5.47795 64.4039 4.9984 62.6899C4.59246 61.2389 4.26526 59.767 4.01821 58.2806C3.83443 57.1783 3.68127 56.0453 3.55875 54.8205V54.4837C3.54497 54.3718 3.54497 54.2587 3.55875 54.1469C3.54479 54.0145 3.54479 53.8811 3.55875 53.7488C3.55875 53.7488 3.55875 53.7488 3.55875 53.5345V52.5853C3.55875 52.3097 3.55875 52.1259 3.55875 52.0035V51.8504H9.68492V52.4934C9.68492 52.4934 9.68492 52.4934 9.68492 52.7383V53.3508C9.66813 53.4624 9.66813 53.5759 9.68492 53.6876V54.3C9.68492 55.3717 9.92997 56.3209 10.0831 57.362C10.2363 58.4031 10.5732 59.9035 10.9102 61.1589C11.3227 62.6371 11.8239 64.0891 12.4111 65.507L12.7174 66.2113C12.7059 66.3028 12.7059 66.3953 12.7174 66.4868C12.7174 66.7931 12.9931 67.0992 13.1156 67.3748C13.1271 67.4663 13.1271 67.5589 13.1156 67.6504C13.4832 68.3241 13.8814 69.1508 14.3408 69.9469V70.1919V70.4062V70.6206L14.5552 70.988L14.7084 71.233L15.2904 72.121L15.8417 72.9171C15.9333 73.0218 16.0153 73.1345 16.0868 73.2539L16.3318 73.5601L16.5156 73.8051C16.5156 73.8051 16.5156 73.8051 16.5156 73.9888L16.9445 74.5093L17.1589 74.7849L17.6183 75.3361L17.894 75.6729L18.0778 75.8566L18.3228 76.1322L18.5372 76.4078C19.1192 77.0202 19.7625 77.6632 20.5589 78.4287L21.0796 78.9187L21.6003 79.378H21.7841L22.0598 79.6229L22.2436 79.776L22.6112 80.0516C23.2544 80.6028 23.9895 81.1539 24.8472 81.7663C25.7049 82.3787 26.44 82.838 27.1752 83.2667L27.5427 83.5117H27.7878H28.0022H28.186L28.768 83.8179L29.3806 84.1241L29.9319 84.3997H30.1464L30.5446 84.5834H30.8202L31.7085 84.9815L32.168 85.1652L32.75 85.4102H33.0257H33.1788H33.3932H33.7608C35.2086 85.8955 36.6809 86.3044 38.1717 86.6349C39.4582 86.9207 40.7446 87.1351 42.0311 87.278H42.8582H43.6239H44.5122H47.5753L47.7897 93.402H44.6654H43.9609H43.287H42.7969C41.2925 93.2492 39.799 93.0038 38.3248 92.6671C36.6691 92.8968 35.0026 93.0399 33.332 93.0958H32.9031H32.6581H32.3211H31.9842L31.1265 92.759H30.9428H30.6058L29.4725 92.2691H29.2274L28.768 92.0547H28.5229L27.8797 91.7485L27.2058 91.3811L26.5013 91.0136H26.2869L25.9499 90.7993H25.7049L25.2454 90.5237C24.3878 90.0032 23.4995 89.4214 22.5499 88.7784C21.6003 88.1354 20.6814 87.4311 19.9156 86.7881L19.5174 86.4512L18.9661 84.9202L18.6291 84.6447L18.5679 84.6753ZM3.25244 51.8504V52.6465V53.6876C3.26878 53.8198 3.26878 53.9535 3.25244 54.0856C3.26923 54.1973 3.26923 54.3108 3.25244 54.4225V54.7593C3.25244 55.9841 3.52812 57.117 3.71191 58.2194C3.96221 59.7051 4.28938 61.1768 4.6921 62.6287C5.17165 64.3427 5.74426 66.0293 6.40742 67.681L6.74436 68.5078L6.98941 68.9977C6.98941 69.3958 7.32635 69.7632 7.51013 70.1306V70.345C7.8777 71.1105 8.3678 72.0597 8.94979 73.0396L9.13357 73.3764L9.31736 73.652V73.8969L9.59303 74.3256C9.60801 74.4066 9.60801 74.4896 9.59303 74.5706C9.83808 74.9074 10.0525 75.3055 10.2975 75.6423C10.5148 75.9812 10.75 76.3082 11.0021 76.6221L11.2165 76.959L11.7066 77.602L11.8597 77.8163L12.3804 78.4593L12.6255 78.7655L13.1462 79.4086L13.5138 79.8066L13.6976 80.021L13.9733 80.3272L14.2489 80.6334C14.9851 81.4577 15.762 82.2446 16.5769 82.9912L17.1589 83.5729L17.7715 84.1241H17.9859L18.2922 84.3997L18.5066 84.5834L18.9355 84.9202C19.7012 85.5632 20.5589 86.2063 21.5391 86.9105C22.5193 87.6148 23.3769 88.166 24.2652 88.6865L24.6941 88.9315L24.9391 89.0846L25.276 89.2683H25.5211L26.195 89.6664L26.8995 90.0032L27.5427 90.3094H27.7878L28.2472 90.5237H28.4923L29.6256 91.0136L29.9626 91.1668H30.1464L31.004 91.5036H31.341H31.6779H31.923H32.3518C34.0359 92.0885 35.7545 92.5691 37.4978 92.9427C38.9719 93.2794 40.4655 93.5248 41.9699 93.6776H42.46H43.1339H43.8384H46.9015C46.9015 93.6776 46.9015 93.6776 47.0852 93.6776H48.5555L48.3411 87.5536H45.278H44.3897H43.6239H43.1951H42.7969C41.4996 87.4242 40.211 87.2198 38.9374 86.9412C37.4416 86.6182 35.9682 86.1989 34.5266 85.6857H34.159H33.9446H33.7914H33.5158L32.9031 85.4714L32.4437 85.2877L31.5554 84.8896H31.2491L30.8815 84.7059H30.6671L30.1464 84.4303L29.5337 84.1241L28.9518 83.7873H28.768H28.5229H28.3085L27.9409 83.5729C27.2058 83.1442 26.44 82.6543 25.613 82.0725C24.786 81.4908 24.0202 80.909 23.3463 80.3578L23.0094 80.0822L22.7949 79.8985L22.5193 79.6842C22.4688 79.6734 22.4166 79.6734 22.3661 79.6842L21.8148 79.1942L21.3859 78.7962C20.5895 78.0307 19.9463 77.3876 19.3949 76.7446L19.1499 76.4997L18.9048 76.2241V76.0097L18.5985 75.6729C18.4465 75.5071 18.3034 75.3333 18.1697 75.1524L17.9246 74.8768L17.4958 74.3256V74.1419L17.312 73.8663L17.0976 73.5907L16.8525 73.2233C16.6688 72.9783 16.4543 72.7027 16.3012 72.4578L15.7192 71.5698L15.5354 71.2942L14.9534 70.8655C14.9644 70.7843 14.9644 70.7019 14.9534 70.6206C14.9476 70.5492 14.9476 70.4776 14.9534 70.4062C14.9534 70.4062 14.9534 70.4062 14.9534 70.1613C14.494 69.3651 14.0651 68.569 13.7282 67.8647C13.7227 67.7832 13.7227 67.7013 13.7282 67.6198C13.7282 67.3136 13.4219 67.0074 13.2994 66.7012V66.4256L12.9931 65.7213C12.4115 64.3045 11.9204 62.8522 11.5228 61.3732C10.9059 60.0681 10.3638 58.7288 9.89934 57.362C9.74618 56.4128 9.62366 55.4636 9.53177 54.3V53.6876C9.53177 53.6876 9.53177 53.4732 9.53177 53.3508V51.6973L3.25244 51.8504Z" fill="#FCFCFC"/>
<path opacity="0.69" d="M26.8079 84.2146H26.9611H27.2062L27.88 84.6739C28.1863 84.6739 28.4926 85.0414 28.8296 85.2557C29.1665 85.47 30.4224 86.1437 31.4638 86.6642C32.5053 87.1848 33.6693 87.7053 34.9864 88.2259C36.4004 88.7621 37.8421 89.222 39.3054 89.6038H39.918H40.5H41.1126H41.7252H42.3684H43.0117H43.6549H43.9612H44.2982C47.9688 90.0784 51.6853 90.0784 55.3559 89.6038C57.2189 89.3753 59.0619 89.0068 60.8695 88.5014L62.1866 88.1034C62.2985 88.1172 62.4117 88.1172 62.5236 88.1034H62.6767L63.32 87.889C64.1776 87.5828 65.0353 87.2766 65.8317 86.9092L67.0569 86.3887L67.6389 86.1131L68.2209 85.8375L68.7723 85.5619H69.0479H69.3236L69.875 85.2863L70.3957 84.9801C71.7187 84.2278 72.9972 83.3997 74.2246 82.4999C75.3579 81.6731 76.3687 80.8464 77.2876 80.0809L77.9003 79.4991C78.1083 79.342 78.303 79.1678 78.4823 78.9785L79.003 78.4886L79.4318 78.0293L79.8606 77.6006L80.1976 77.2332L80.5039 76.8964L80.7489 76.6208L81.2084 76.1309L85.558 79.8665L85.0373 80.4483L84.7616 80.7545L84.4246 81.122L84.0264 81.5507L83.5363 82.0406L83.0156 82.5611L82.4336 83.1429C82.2332 83.3518 82.0183 83.5462 81.7904 83.7247C81.5697 83.9541 81.3344 84.1688 81.0859 84.3677C80.0054 85.3497 78.8703 86.2698 77.6858 87.1235C76.2847 88.1357 74.833 89.0759 73.3363 89.9406L72.7236 90.2774L72.111 90.6142L71.7741 90.798L71.4678 90.9511L70.8245 91.2879L70.1507 91.5941L69.5074 91.9309L68.129 92.5127C67.2101 92.9108 66.2299 93.2782 65.2803 93.615L64.5452 93.86H64.3308H64.147H63.7794L62.2785 94.2887C60.2154 94.8451 58.1177 95.2645 55.9992 95.5441C51.8311 96.0957 47.6086 96.0957 43.4405 95.5441C39.8021 95.0597 36.2341 94.1449 32.8116 92.8189C31.3107 92.2371 29.9629 91.6553 28.799 91.0736L25.7359 89.4507L24.6638 88.777L24.1431 89.3894L23.8674 89.2057H23.6836L26.8079 84.2146Z" fill="#FCFCFC"/>
<path opacity="0.5" d="M25.2764 79.7148L25.5214 79.8986L26.5016 80.6641C27.6525 81.5574 28.8599 82.3756 30.1161 83.1137C30.9125 83.573 31.7701 84.0629 32.6891 84.5222C33.608 84.9815 34.6188 85.4408 35.7521 85.8389C37.9352 86.7672 40.202 87.485 42.5216 87.9823C44.8426 88.438 47.2014 88.6738 49.5667 88.6866C50.7 88.6866 51.8027 88.6866 52.8442 88.6866C53.8197 88.6285 54.7912 88.5161 55.7541 88.3498C57.1981 88.1421 58.6297 87.8559 60.0424 87.4924L60.7163 87.278H61.237H61.6352L62.8299 91.0137H62.3704H61.819L61.0533 91.228C59.5009 91.6445 57.9259 91.9716 56.3361 92.2079L53.1199 92.5447C51.9865 92.5447 50.7919 92.5447 49.536 92.5447C44.285 92.4839 39.0912 91.4455 34.2206 89.4827C33.0566 89.0234 31.9539 88.5335 30.9431 88.0129C29.9323 87.4924 28.9521 86.9718 28.0944 86.4819C26.7187 85.6463 25.3894 84.7366 24.1124 83.7567L23.0403 82.93L22.7646 82.7156L25.2764 79.7148Z" fill="#FDFDFD"/>
<path opacity="0.61" d="M22.7646 82.7456L25.2764 79.6836L25.5214 79.8979L25.7665 80.0816L26.5016 80.6634C27.635 81.5208 28.8602 82.3476 30.1161 83.1131L32.6891 84.5216C33.6692 84.9809 34.6801 85.4402 35.7521 85.8383C37.9375 86.7605 40.2036 87.478 42.5216 87.9817C44.8428 88.4398 47.2009 88.6858 49.5667 88.7166C50.6694 88.7166 51.7415 88.7166 52.8442 88.7166C53.9469 88.7166 54.7433 88.5328 55.7541 88.3797C57.1993 88.1656 58.6311 87.8692 60.0424 87.4917H60.5019H60.7163H61.0839H61.4821L62.6461 91.258H62.1866H61.7884H61.5433H61.0226C59.4705 91.6757 57.8955 92.0029 56.3055 92.2379L53.2424 92.6053C52.0171 92.6053 50.8225 92.6053 49.6279 92.6053C47.0161 92.5708 44.4124 92.3044 41.8477 91.8092C39.2943 91.3037 36.7926 90.5658 34.3738 89.6045C33.271 89.1759 32.1683 88.686 31.0656 88.1348C30.1773 87.7061 29.2584 87.1856 28.2476 86.6038C26.8711 85.7804 25.5417 84.8808 24.2656 83.9092L23.4385 83.2662L23.1935 83.0518L22.9484 82.8375L22.7646 82.7456ZM25.2764 79.6836L22.7953 82.7456C22.8668 82.8193 22.9495 82.8813 23.0403 82.9293L23.2854 83.1131L24.1124 83.7561C25.3911 84.7241 26.7203 85.6235 28.0944 86.4507C29.1052 87.0631 30.0242 87.553 30.9431 88.0123C31.862 88.4716 33.1179 89.0228 34.2206 89.4821C36.645 90.4195 39.1455 91.1468 41.6945 91.6561C44.257 92.1664 46.862 92.433 49.4748 92.4522C50.6686 92.5134 51.8648 92.5134 53.0586 92.4522L56.2748 92.0848C58.3271 91.7786 59.9812 91.3805 60.992 91.1356L61.5127 90.9825H61.7578H62.156H62.5848L61.4208 87.2468H61.0226H60.655H60.41H59.9505C58.5392 87.6242 57.1074 87.9207 55.6622 88.1348C54.6514 88.1348 53.7018 88.3797 52.7523 88.441C51.8027 88.5022 50.5469 88.441 49.4748 88.441C44.7329 88.3764 40.042 87.4531 35.6296 85.7158C34.6188 85.3177 33.6386 84.8584 32.5665 84.3685C31.4945 83.8786 30.8818 83.5111 29.9935 82.9906C28.7464 82.2383 27.5399 81.4206 26.3791 80.541L25.6133 79.9286H25.3989C25.3069 79.8825 25.2239 79.8203 25.1539 79.7448L25.2764 79.6836Z" fill="#FCFCFC"/>
<path opacity="0.59" d="M7.63291 34.3961L7.44912 34.8554C7.40661 35.0448 7.34504 35.2295 7.26534 35.4065C7.27348 35.5187 7.27348 35.6312 7.26534 35.7434C7.28349 35.8137 7.28349 35.8874 7.26534 35.9577C7.27539 36.0288 7.27539 36.101 7.26534 36.172C6.76699 37.7399 6.35791 39.3347 6.0401 40.9488C5.82568 41.9593 5.6419 43.0616 5.48874 44.2252C5.33559 45.3887 5.2437 46.6136 5.18244 47.8996C4.94985 53.262 5.67593 58.6228 7.32659 63.7303C7.72479 64.9551 8.15363 66.1186 8.61309 67.1903C8.70651 67.4633 8.8191 67.7294 8.95004 67.9865C8.95004 68.2621 9.16445 68.507 9.28698 68.7826C9.41186 69.0216 9.52431 69.2669 9.62391 69.5175L9.8077 69.8543L9.99149 70.2217C10.9104 72.0283 11.7987 73.4981 12.442 74.5086L12.9014 75.1822L13.2077 75.6415L13.514 76.0396L10.4509 78.2749L10.1446 77.8462C10.0356 77.6636 9.91271 77.4895 9.77707 77.3256C9.77707 77.1113 9.47076 76.8663 9.3176 76.5908C8.32254 75.0973 7.42225 73.5428 6.62208 71.9365L6.4383 71.569L6.25451 71.171C6.25451 70.8954 5.97883 70.6504 5.85631 70.3748L5.18244 69.6093L4.81486 68.7214C4.32476 67.5578 3.86531 66.3024 3.43648 64.9551C1.64886 59.4227 0.860579 53.6163 1.10852 47.8077C1.10852 46.3992 1.29231 45.0825 1.44547 43.7965C1.59862 42.5104 1.81304 41.3469 2.02745 40.2751C2.36983 38.5141 2.81993 36.7757 3.37521 35.0697C3.38892 34.9886 3.38892 34.9058 3.37521 34.8247V34.6104C3.37521 34.6104 3.37521 34.3654 3.37521 34.243C3.43216 34.034 3.50381 33.8294 3.58963 33.6306C3.63065 33.4604 3.69236 33.2958 3.77341 33.1406L7.63291 34.3961Z" fill="#FAFAFA"/>
<path opacity="0.83" d="M10.1444 78.3062L9.8381 77.8775C9.75947 77.7806 9.6878 77.6783 9.62368 77.5713V77.3569L9.47052 77.1426L9.13358 76.6221C8.15113 75.1264 7.26117 73.5721 6.4687 71.9678L6.25428 71.6003C6.26522 71.5191 6.26522 71.4367 6.25428 71.3554V71.1104L5.97861 70.5592L5.18221 69.61C5.08762 69.4218 5.00575 69.2274 4.93715 69.0282C4.92562 68.9367 4.92562 68.8442 4.93715 68.7527C4.41643 67.4972 3.95696 66.2112 3.55876 64.9558C2.65613 62.2042 2.01013 59.3751 1.62902 56.5046C1.23842 53.6234 1.10516 50.7132 1.23082 47.8084C1.23082 46.4917 1.4146 45.1445 1.56776 43.7972C1.72091 42.4499 1.87407 41.5925 2.14974 40.2758C2.48309 38.5127 2.93334 36.7738 3.4975 35.0704V34.8254L3.68129 34.2436V33.9987C3.68129 33.9987 3.68129 33.7231 3.68129 33.6312L3.86508 33.1107L7.47952 34.4274L7.29573 34.9173C7.28636 35.0294 7.28636 35.142 7.29573 35.2541C7.29182 35.3255 7.29182 35.3971 7.29573 35.4685L7.11194 36.0196V36.234C6.80564 37.275 6.31555 38.9286 5.88672 41.0107C5.64167 42.2662 5.48851 43.3072 5.36599 44.2871C5.24346 45.2669 5.09031 46.7367 5.05968 47.9615C4.93885 50.6413 5.06187 53.3265 5.42725 55.984C5.77954 58.6328 6.36376 61.2455 7.17321 63.7922C7.54294 64.9666 7.97233 66.1215 8.45971 67.2523C8.44818 67.3438 8.44818 67.4363 8.45971 67.5278C8.51259 67.7084 8.58446 67.8829 8.67413 68.0484L9.01107 68.8139C9.01107 68.9976 9.01106 69.1507 9.25611 69.3038C9.24458 69.3953 9.24458 69.4879 9.25611 69.5794L9.40926 69.9162L9.59305 70.253C10.3323 71.7409 11.1608 73.1827 12.0742 74.5705L12.3498 75.0298V75.2135C12.344 75.2849 12.344 75.3565 12.3498 75.4279L12.5642 75.7034L12.8399 76.1015L10.1444 78.3062ZM4.01823 33.0801L3.83444 33.57C3.83444 33.57 3.83444 33.815 3.83444 33.9374V34.1824L3.65066 34.7642V35.0091C3.09044 36.7137 2.64026 38.4524 2.3029 40.2146C2.02722 41.5313 1.84344 42.6642 1.72091 43.7359C1.59839 44.8076 1.44523 46.4305 1.38397 47.7472C1.25736 50.6418 1.39063 53.5419 1.78218 56.4127C2.16433 59.2903 2.79983 62.1286 3.68129 64.8945C4.07949 66.1499 4.56959 67.4054 5.05968 68.6608V68.967L5.33536 69.5182L5.70293 70.3755C5.77175 70.5647 5.85363 70.7489 5.94798 70.9267V71.1717C5.95352 71.2532 5.95352 71.335 5.94798 71.4166V71.4166L6.13176 71.8147C6.95117 73.4106 7.85083 74.964 8.82728 76.469L9.16422 76.9589V77.1732V77.3876L9.37864 77.7244L9.68494 78.1531L12.748 75.9178L12.9624 75.7341L12.7787 75.4279V75.2441C12.7845 75.1728 12.7845 75.1011 12.7787 75.0298C12.6629 74.8862 12.5604 74.7325 12.4723 74.5705C11.5578 73.194 10.7292 71.7623 9.99126 70.2837L9.80747 69.9468V69.5794C9.81301 69.4978 9.81301 69.416 9.80747 69.3345C9.74436 69.1625 9.66217 68.9982 9.56242 68.8445L8.82728 68.0178C8.82728 67.8341 8.67412 67.6503 8.61286 67.4972V67.191C8.1534 66.0581 7.72456 64.8945 7.32636 63.7309C6.51692 61.1843 5.93269 58.5716 5.5804 55.9228C5.21503 53.2653 5.092 50.5801 5.21283 47.9003C5.21283 46.6755 5.36598 45.4507 5.51914 44.2258C5.67229 43.001 5.79482 42.1743 6.03987 40.9495C6.36697 39.3346 6.78628 37.7397 7.29573 36.1727V35.9584L7.47952 35.4072C7.49323 35.3261 7.49323 35.2433 7.47952 35.1623C7.48693 35.0603 7.48693 34.958 7.47952 34.8561L7.63268 34.3967L4.01823 33.0801Z" fill="#FDFDFD"/>
<path opacity="0.81" d="M23.3466 20.0349L23.0096 20.3717L22.5808 20.7698L21.9988 21.321L21.2943 22.0252L20.8961 22.4539L20.4979 22.8826C19.9465 23.495 19.3033 24.1993 18.6907 25.026C18.078 25.8528 17.3735 26.7101 16.7303 27.69C16.0348 28.6768 15.3907 29.6988 14.8005 30.752C13.5468 33.1087 12.5211 35.5798 11.7374 38.1315C11.3352 39.4387 11.008 40.7677 10.7573 42.1121C10.4857 43.4047 10.3015 44.7142 10.2059 46.0315C10.2059 47.2869 10.0221 48.5424 10.0221 49.7059C10.0221 50.8695 10.0221 52.0025 10.0221 53.0129C10.0221 53.0129 10.0221 53.2885 10.0221 53.411V53.5947C10.0078 53.6551 10.0078 53.718 10.0221 53.7784C10.0221 54.0234 10.0221 54.2683 10.0221 54.4827V55.1563C10.0221 55.1563 10.0221 55.3707 10.0221 55.4932C10.0221 55.6156 10.0221 55.7075 10.0221 55.7994V56.4118V56.9629C10.0221 57.1467 10.0221 57.2998 10.0221 57.4529V57.9428C10.0368 58.0751 10.0368 58.2086 10.0221 58.3408V58.7083C10.0221 58.9226 10.0221 59.137 10.0221 59.2901L10.1753 59.78L5.97884 60.8517C5.96629 60.6682 5.96629 60.484 5.97884 60.3005C5.96518 60.0864 5.96518 59.8716 5.97884 59.6575V59.2595C5.97884 59.2595 5.97884 58.9839 5.97884 58.8002C5.96491 58.6371 5.96491 58.4732 5.97884 58.3102V57.7285C5.97884 57.5447 5.97884 57.3304 5.97884 57.116V56.4424C5.96158 56.3308 5.96158 56.2172 5.97884 56.1056C5.97884 56.1056 5.97884 55.8606 5.97884 55.7381V55.0033V54.2071V53.9928C5.9645 53.9324 5.9645 53.8694 5.97884 53.809C5.97884 53.809 5.97884 53.5028 5.97884 53.3804C5.97884 52.2474 5.82568 51.0226 5.82568 49.7059C5.82568 48.3893 5.82569 47.042 6.00947 45.6334C6.14055 44.1747 6.34501 42.7235 6.62208 41.2854C6.92839 39.8156 7.29596 38.2233 7.7248 36.9067C8.57083 34.061 9.71029 31.3108 11.1248 28.7005C11.7987 27.445 12.5338 26.2815 13.2384 25.1791C13.9429 24.0768 14.7086 23.0969 15.4132 22.1171C16.1177 21.1373 16.7915 20.4636 17.4348 19.7593L17.8636 19.2694L18.2925 18.8101L19.0889 18.0446L19.7015 17.4322L20.1916 16.9729L20.5898 16.6055L23.3466 20.0349Z" fill="#FDFDFD"/>
<path opacity="0.81" d="M7.11187 60.9753V60.4548C7.11187 60.2711 7.11187 60.0567 7.11187 59.8118C7.12901 59.7104 7.12901 59.6069 7.11187 59.5056V59.5056L6.9281 58.5563C6.91334 58.4343 6.91334 58.3109 6.9281 58.1889C6.9281 58.1889 6.9281 58.1889 6.9281 57.9745C6.9281 57.7602 6.9281 57.9746 6.9281 57.7908C6.9281 57.6071 6.9281 57.5152 6.9281 57.3621V57.1478C6.94305 56.9951 6.94305 56.8412 6.9281 56.6885C6.9281 56.6885 6.9281 56.4742 6.9281 56.3517C6.9281 56.2292 6.9281 56.168 6.9281 56.0761C6.9281 56.0761 6.9281 55.923 6.9281 55.8311C6.91321 55.6682 6.91321 55.5042 6.9281 55.3412V54.5451C6.96059 54.3908 6.93044 54.2299 6.84427 54.0978C6.7581 53.9658 6.62298 53.8733 6.46863 53.8408C6.31428 53.8083 6.15334 53.8385 6.02122 53.9246C5.8891 54.0107 5.79661 54.1458 5.76412 54.3001V54.3001V54.1164V53.6877C5.76412 52.4629 5.76412 51.2075 5.76412 50.0133C5.68149 48.5855 5.68149 47.1542 5.76412 45.7264C5.89315 44.2776 6.09763 42.8365 6.37674 41.409C6.65807 39.9319 7.0159 38.4703 7.44882 37.0303C8.31894 34.1885 9.46808 31.4397 10.8795 28.8241C11.5227 27.6299 12.2272 26.4357 12.993 25.3028C13.6621 24.2436 14.3881 23.2214 15.1678 22.2407C15.8417 21.3834 16.4849 20.6179 17.1588 19.883L17.6183 19.393C17.9237 19.0868 17.9237 19.0869 18.23 18.7807C18.384 18.7807 18.5372 18.4438 18.6904 18.3213L19.3336 17.6783L19.6705 17.3721H19.8237L20.2219 17.0047L23.285 20.0667L22.9174 20.4035H22.7643C22.6802 20.5029 22.588 20.5951 22.4886 20.6791L21.9066 21.2303L21.4778 21.6589L21.2021 21.9345L20.9264 22.2407L20.4976 22.6694C19.9769 23.2818 19.3336 23.9861 18.6904 24.8128C18.0471 25.6396 17.312 26.6194 16.73 27.5074C16.148 28.3954 15.4128 29.5896 14.8309 30.5694C13.5662 32.921 12.54 35.3931 11.7678 37.9489C11.3696 39.2656 11.0633 40.6129 10.7876 41.9295C10.5119 43.2462 10.3587 44.5323 10.2362 45.8489C10.1137 47.1656 10.0524 48.3292 10.0524 49.5234C10.0524 50.7176 10.0524 51.728 10.0524 52.8303V53.4121V54.3001C10.0524 54.4532 10.0524 54.5757 10.0524 54.7288C10.0524 54.8819 10.0524 54.8819 10.0524 54.9738V55.3106V55.8005V56.2292C10.0377 56.3512 10.0377 56.4746 10.0524 56.5966C10.0381 56.657 10.0381 56.72 10.0524 56.7804C10.0524 56.7804 10.0524 56.7804 10.0524 56.9641C10.0524 57.1478 10.0524 57.1784 10.0524 57.2703V57.7296V58.1583V58.5257C10.0524 58.7401 10.0524 58.9544 10.0524 59.1075C10.0524 59.2606 10.0524 59.5668 10.0524 59.5668L7.11187 60.9753ZM20.4669 16.8516L20.0687 17.1884V17.3415L19.7318 17.6477L19.0885 18.2601L18.5985 18.75L18.3228 19.0562C18.2131 19.1505 18.1107 19.2528 18.0165 19.3624V19.3624L17.557 19.8524C16.8831 20.6179 16.2399 21.3527 15.5354 22.2101C14.8309 23.0675 14.0345 24.231 13.3912 25.2721C12.748 26.3132 11.9209 27.5993 11.2777 28.7935C9.13054 32.7285 7.61134 36.9747 6.77494 41.3784C6.49365 42.8158 6.28915 44.2672 6.16232 45.7264C5.95191 47.0855 5.81896 48.4554 5.76412 49.8296C5.76412 51.0544 5.76412 52.2792 5.91727 53.504V53.9327C5.9316 53.9931 5.9316 54.056 5.91727 54.1164V54.1164C5.91727 54.1164 5.91727 54.1164 5.91727 54.3308V55.1269C5.90239 55.2898 5.90239 55.4538 5.91727 55.6168C5.89988 55.6975 5.89988 55.781 5.91727 55.8618C5.93214 55.953 5.93214 56.0461 5.91727 56.1373C5.91727 56.1373 5.91727 56.3823 5.91727 56.4742C5.93222 56.6269 5.93222 56.7807 5.91727 56.9335V57.3621V57.7908C5.91727 57.7908 5.91727 57.7908 5.91727 57.9745C5.93215 58.0452 5.93215 58.1182 5.91727 58.1889C5.92918 58.3008 5.92918 58.4138 5.91727 58.5257L6.13169 59.5056C6.13169 59.5056 6.13169 59.7199 6.13169 59.8118C6.11803 60.0259 6.11803 60.2407 6.13169 60.4548C6.13169 60.761 6.13169 60.9447 6.13169 60.9753L10.2975 59.9036V59.4443C10.2975 59.4443 10.2975 59.1075 10.2975 58.8625V58.4951V58.0664V57.6377C10.2975 57.6377 10.2975 57.4234 10.2975 57.3009V56.9335C10.2975 56.9335 10.2975 56.6885 10.2975 56.566C10.2975 56.4435 10.2975 56.2904 10.2975 56.1373V55.6474V55.3106C10.2801 55.2299 10.2801 55.1464 10.2975 55.0656C10.2805 54.9232 10.2805 54.7793 10.2975 54.6369V53.749V53.1672C10.2975 52.0648 10.2975 50.9625 10.2975 49.8602C10.2975 48.7579 10.2975 47.4106 10.2975 46.1858C10.4144 44.869 10.6087 43.5603 10.8795 42.2664C11.1245 40.9191 11.4615 39.6024 11.829 38.2857C12.6013 35.7299 13.6274 33.2578 14.8921 30.9063C15.4741 29.8039 16.1174 28.7628 16.7912 27.8442C17.4651 26.9256 18.0165 26.0989 18.7516 25.1803C19.4868 24.2617 20.0381 23.6186 20.5588 23.0369L20.957 22.6082L21.2327 22.3326L21.5084 22.057L21.9066 21.6283L22.4886 21.0772L22.7949 20.8016L23.1625 20.4648L20.4669 16.8516Z" fill="#FCFCFC"/>
<path opacity="0.82" d="M51.3738 5.49109H48.6477C46.2711 5.55993 43.9044 5.82623 41.5719 6.28722C40.0003 6.59184 38.4461 6.98024 36.916 7.45078L36.3034 7.63452L35.6908 7.84886H35.3845H35.0782L34.4656 8.0632L33.8223 8.30817L33.2097 8.55312L31.9232 9.10428C28.3886 10.7008 25.0821 12.7602 22.0907 15.2283C19.0796 17.6871 16.4023 20.5281 14.1267 23.6795C13.0879 25.1173 12.1267 26.6097 11.2474 28.1501C10.4657 29.5455 9.77014 30.9873 9.16446 32.4675C8.58248 33.8148 8.12302 35.1009 7.75545 36.2338C7.38788 37.3668 7.11219 38.4079 6.89777 39.2958C6.68336 40.1838 6.71399 40.092 6.65273 40.4288C6.59147 40.7656 6.65273 41.0412 6.46894 41.2555C6.28516 41.4699 6.46894 41.6536 6.46894 41.7761C6.46236 41.8372 6.46236 41.8987 6.46894 41.9598L0.924755 40.9493V40.7656C0.903988 40.5722 0.903988 40.3772 0.924755 40.1838C0.924755 39.9082 0.924753 39.6021 1.10854 39.2346C1.29232 38.8672 1.29232 38.4385 1.41485 37.9792C1.6599 37.0299 1.93557 35.897 2.3644 34.5803C2.81383 33.1324 3.34563 31.7114 3.95721 30.3241C4.66156 28.6728 5.44875 27.0581 6.31579 25.4861C7.3051 23.7961 8.39976 22.1701 9.59329 20.6175C10.8547 18.8968 12.2149 17.2507 13.6672 15.6876C13.7769 15.5934 13.8792 15.4911 13.9735 15.3814L14.2492 15.0752L14.9537 14.4934C15.1375 14.3097 15.3519 14.126 15.5357 13.9117L15.842 13.6361L16.1483 13.3605L16.7609 12.8093C16.9495 12.6089 17.1544 12.4246 17.3735 12.2582L18.66 11.1559C22.0551 8.4166 25.793 6.13145 29.779 4.35816L31.1881 3.74574L31.8926 3.43954L32.5971 3.16397L33.3016 2.919H33.6692H34.0061L34.7106 2.70466L35.3845 2.45969C37.106 1.93698 38.8545 1.50768 40.6224 1.17365C42.2458 0.836826 43.6855 0.653101 45.0945 0.5H46.0747H46.9936H47.8513H51.6495L51.3738 5.49109Z" fill="#FCFCFC"/>
<path opacity="0.85" d="M58.6943 10.7888H58.388H58.0205H57.4997H56.8871H56.1213H55.2637H54.8042H54.3141C52.997 10.7888 51.4348 10.5744 49.7807 10.5744H47.2077H46.5339H45.86H45.2167H44.5429H43.8996H43.2257L41.9392 10.8194L40.6527 11.0949L40.0401 11.2787L39.4581 11.4318C37.9934 11.8328 36.5517 12.3133 35.1392 12.8709L32.0761 14.1876L31.2797 14.6163L31.004 14.7694L29.6562 12.2891H29.9626L30.8202 11.8298C31.586 11.4624 32.6581 10.9725 33.8833 10.4213C35.3949 9.82412 36.9392 9.31297 38.5086 8.89029L39.4581 8.36975L40.132 8.18604C40.5609 8.18604 41.0203 7.97168 41.4798 7.91044C41.9392 7.8492 42.3987 7.72673 42.8888 7.63487H43.5933H44.2978H45.0023H45.7068H46.4113H47.1159H49.8726C51.4992 7.63142 53.1249 7.71317 54.743 7.87981H55.2637H55.7538H56.6727H57.4691H58.143H58.6943H59.0925H59.4295L58.6943 10.7888Z" fill="#FDFDFD"/>
<path opacity="0.89" d="M31.0963 14.4938L29.7485 12.0136L30.0548 11.8299L30.5449 11.5849L30.9125 11.4012C31.617 11.0644 32.7197 10.5132 33.9756 9.99266C35.4866 9.38524 37.0308 8.86385 38.6009 8.43103H39.0297L39.4585 8.3698H39.8874H40.1324L41.2351 8.12483L42.3991 7.91049H42.6441H43.073H43.4712H44.0532H44.7577H45.7991H46.8712H47.5757H47.9126H48.9541H49.628C51.2546 7.90426 52.8805 7.98604 54.4983 8.15545H55.019H55.6623H56.428H56.7343H57.2244H57.8983H58.3884H58.7866H59.0317L58.419 10.9113H58.0821H57.7145H57.2551H56.6424H56.183H55.8767H55.1722H54.774H54.2839C52.7795 10.7358 51.2648 10.6642 49.7505 10.6969H46.1973H45.2171H44.5432H44.0225H43.6549H43.2261H42.9811L41.9396 10.9113L40.9288 11.1256H40.6531H40.2856H40.0405H39.8261L39.4585 11.4318C37.9882 11.8605 36.3954 12.3504 35.1396 12.9016C33.8837 13.4528 32.9341 13.8508 32.0765 14.2183L31.7089 14.402L31.2801 14.6163L31.0044 14.7694L31.0963 14.4938ZM29.7792 12.0136L31.0963 14.4632H31.372C31.5028 14.362 31.6471 14.2796 31.8008 14.2183L32.1684 14.0345C32.9035 13.6671 33.8837 13.2078 35.2315 12.7179C36.614 12.2066 38.0255 11.7772 39.4585 11.4318H39.8567H40.0711H40.2856H40.6838H40.9594L41.9703 11.2175L43.0117 11.0031H43.2568H43.6856H43.9306H44.4514H45.1252H46.1054H46.473H47.0856H49.6892C51.2033 10.9857 52.717 11.0573 54.2226 11.2175H54.7127H55.3253H56.0298H56.3361H56.7956H57.4082H57.8677H58.2353H58.4803L59.0929 8.49228H58.8479H58.4497H57.9596H57.2857H56.7956H56.4893H55.7235H55.3866H55.0803H54.774C53.1574 8.30759 51.5306 8.22576 49.9037 8.24731H47.1469H46.0748H45.0333H44.3288H43.7468H43.3486H42.9198H42.6748L41.5108 8.46165L40.4081 8.70662H40.163L39.4585 8.3698H39.2441H38.8153C37.2467 8.80731 35.7027 9.32861 34.19 9.93143C32.8729 10.452 31.7702 10.9725 31.1269 11.34L30.7593 11.5237L30.2999 11.7686L29.7792 12.0136Z" fill="#FCFCFC"/>
<path opacity="0.77" d="M95.6048 53.5641V53.3804C95.5922 53.3095 95.5922 53.2369 95.6048 53.166V52.8292C95.6048 52.5842 95.6048 52.3087 95.6048 51.9412C95.5911 51.7578 95.5911 51.5735 95.6048 51.3901V50.747C95.6048 50.3183 95.6048 49.8284 95.6048 49.2773V48.4505C95.6048 48.1443 95.6048 47.8381 95.6048 47.5319C95.6048 46.2765 95.421 44.868 95.2066 43.3676C94.9764 41.729 94.6594 40.1039 94.257 38.4989L94.0732 37.8559L93.8894 37.2129V36.8761V36.5699C93.8894 36.3249 93.8894 36.1106 93.675 35.8962C93.3994 35.0082 93.093 34.1203 92.7255 33.2323C92.3579 32.3443 91.9903 31.4563 91.5921 30.5377C91.3777 30.109 91.1633 29.6497 90.9182 29.1904L90.5813 28.5474L90.2137 27.8737C89.7236 26.9857 89.2336 26.0978 88.6516 25.2404C88.0696 24.383 88.1002 24.4136 87.8245 23.9849L87.3651 23.3419L86.9362 22.7295L86.4768 22.1171L85.9867 21.5047L85.7416 21.1985L85.4047 20.9229L84.9146 20.3105L84.4245 19.7594L84.1795 19.4532L83.9344 19.1776L83.4137 18.6264L82.8623 18.0752C81.5003 16.6539 80.0363 15.3337 78.4821 14.1252L78.2064 13.8803L77.9308 13.6659L77.3488 13.2372L76.7974 12.8086L76.2154 12.4105C75.4803 11.89 74.7145 11.4 73.9487 10.9407C72.5439 10.0745 71.0918 9.28737 69.5992 8.58297C68.3412 7.97644 67.0531 7.43477 65.7397 6.9601L65.2802 6.80699H64.882L63.9631 6.37831L62.5234 5.94963H61.9108H61.3595H60.9H60.5324L59.8892 5.30661L60.5018 2.55078L61.2676 2.73452H61.6658H62.1559H62.7378L63.3811 2.91823L64.9126 3.37754L65.7397 3.65311L66.1991 3.80622L66.6586 3.98994C67.9145 4.44924 69.2929 5.0004 70.7631 5.70466C72.3538 6.44818 73.8984 7.28664 75.3884 8.21552C76.1848 8.67482 76.9812 9.226 77.8082 9.77716L78.3902 10.2058L79.0028 10.6345L79.6155 11.0938L79.9218 11.3388L80.1974 11.5838C81.8436 12.8739 83.3992 14.2755 84.8533 15.7787L85.4047 16.3605L85.956 16.9423L86.2317 17.2485L86.5074 17.5547C86.6912 17.769 86.875 17.9528 87.0281 18.1671L87.5489 18.7795L87.8245 19.1163L88.0696 19.4225L88.5903 20.0656L89.0498 20.7086L89.5399 21.3822L89.9993 22.0559L90.9182 23.4032C91.5002 24.3218 92.0516 25.2404 92.5723 26.1896L92.9399 26.8939L93.3075 27.5981C93.5525 28.0574 93.7669 28.5474 94.012 29.0067C94.4408 29.9865 94.8696 30.9357 95.2372 31.885C95.6048 32.8342 95.9111 33.7834 96.2174 34.702C96.3029 34.9323 96.3745 35.1675 96.4318 35.4063C96.4445 35.5182 96.4445 35.6312 96.4318 35.7431V36.08L96.6156 36.7842C96.691 37.0046 96.7524 37.2297 96.7994 37.4579C97.2588 39.2645 97.5958 41.0098 97.8408 42.6327C98.0617 44.0938 98.2048 45.5657 98.2697 47.042C98.2697 47.3788 98.2697 47.685 98.2697 48.0218C98.285 48.3176 98.285 48.614 98.2697 48.9098V50.4715C98.2697 50.7164 98.2697 50.9308 98.2697 51.1451C98.2858 51.3489 98.2858 51.5537 98.2697 51.7575C98.2697 52.1249 98.2697 52.4312 98.2697 52.6761C98.2697 52.9211 98.2697 52.9211 98.2697 53.0129V53.4723L95.6048 53.5641Z" fill="#FCFCFC"/>
<path opacity="0.68" d="M95.574 53.5947C95.5674 53.5336 95.5674 53.4721 95.574 53.411V53.1967C95.574 53.1967 95.574 53.1967 95.574 52.9823V52.5843C95.574 52.4005 95.574 52.2168 95.574 51.9718V51.237C95.5902 51.0843 95.5902 50.9303 95.574 50.7777V49.216C95.5887 48.9611 95.5887 48.7055 95.574 48.4505V48.1749C95.5893 47.9813 95.5893 47.7868 95.574 47.5931C95.574 46.2459 95.3596 44.8373 95.1758 43.4288C94.9376 41.7894 94.6104 40.1641 94.1956 38.5602C94.1956 38.5602 94.1956 38.5602 94.1956 38.3458V37.9172V37.6416V37.2741V36.9679V36.6617C94.1825 36.5089 94.1825 36.3552 94.1956 36.2024V35.9881C93.9506 35.2532 93.6136 34.304 93.2461 33.3241C92.8785 32.3443 92.5722 31.6706 92.0821 30.6295V30.4152L91.5307 29.3129C91.5363 29.2313 91.5363 29.1495 91.5307 29.0679C91.5307 29.0679 91.5307 28.7617 91.3163 28.6392L90.9488 27.9656C90.3668 26.9551 89.8767 26.0978 89.3866 25.3629L88.7433 24.383L88.5595 24.0768L88.2532 23.6788V23.4338L87.8244 22.852L87.3649 22.2396L87.0586 21.8415L86.9055 21.6272L86.6604 21.3516V21.1373L86.1703 20.5555L85.4352 19.6981L85.2514 19.5144L84.7613 18.9632L84.4244 18.5958L84.2406 18.4121C83.3523 17.4935 82.4027 16.6055 81.3919 15.7175L79.8604 14.4621L79.5847 14.2171H79.4009L78.8189 13.7884L78.4513 13.5435L78.2676 13.3903H78.0531L76.2153 12.4411C75.327 11.7981 74.6225 11.3388 73.9486 10.9407C72.5396 10.0834 71.0693 9.28724 69.599 8.58297C68.1287 7.87871 67.026 7.45003 65.7089 6.9601L65.2801 6.80699H65.0044H64.6981H64.208H63.9017L62.7683 6.47017L62.1557 6.28645L60.8998 5.55157H60.6548H60.5935L59.8584 5.30661L60.4404 2.55078L61.2062 2.73452H61.4818L62.5539 3.01009L63.1972 3.1938L64.453 3.56125H64.7287L65.2801 3.74497H65.5557H65.7395H66.0152H66.4747C67.8837 4.26551 69.2621 4.84731 70.5792 5.45972C72.1725 6.21765 73.7265 7.05567 75.2351 7.97058L77.6243 9.56282L78.0225 9.83841H78.2369L78.4513 9.9915L78.8189 10.2671L79.4315 10.7264H79.6459L79.9523 10.9407L81.5451 12.288C82.6173 13.1916 83.6398 14.1524 84.6082 15.1663L84.8226 15.35L85.1901 15.7481L85.7415 16.3299L85.8947 16.5442L86.1703 16.8504L86.3541 17.0342C86.4758 17.1694 86.5884 17.3126 86.691 17.4628L87.2118 18.0752L87.3956 18.2896L87.6406 18.5958L87.8244 18.8101L88.1613 19.2388L88.6514 19.8818L89.0803 20.5249L89.264 20.7392L89.5704 21.1985L89.7541 21.5047C90.0066 21.8395 90.2418 22.1869 90.4587 22.5458C90.9794 23.3419 91.5001 24.2299 92.1127 25.3322V25.5772C92.2125 25.72 92.2948 25.8741 92.3578 26.0365C92.4513 26.183 92.5332 26.3366 92.6028 26.4958C92.6193 26.5766 92.6193 26.66 92.6028 26.7408L93.2154 27.935V28.1493C93.7055 29.2516 94.1037 30.1396 94.4407 30.997C94.7776 31.8544 95.2064 33.0792 95.4515 33.8447L95.7578 34.8858V35.1613L95.9416 35.8656C95.9416 35.8656 95.9416 36.1718 95.9416 36.3249C95.9283 36.3957 95.9283 36.4684 95.9416 36.5392C96.3668 38.2458 96.7042 39.973 96.9524 41.7141C97.1668 43.2145 97.32 44.7761 97.3812 46.1234C97.3965 46.3375 97.3965 46.5523 97.3812 46.7664C97.3812 46.7664 97.3812 46.9808 97.3812 47.1032V47.9912C97.3812 48.4812 97.3812 48.9404 97.3812 49.3385V50.8389C97.3812 51.0839 97.3812 51.2982 97.3812 51.5125C97.3812 51.7269 97.3812 51.6963 97.3812 51.7575V52.5536L95.574 53.5947ZM79.9829 15.35C80.9937 16.238 81.9739 17.1566 82.8622 18.0752L83.046 18.259L83.3829 18.6264L83.9036 19.1776L84.0568 19.3613L84.8226 20.2187L85.3127 20.8004V20.9842L85.5271 21.2904L85.7109 21.5047C85.8203 21.6316 85.9226 21.7645 86.0172 21.9028L86.4766 22.5152L86.9055 23.097V23.3113L87.1812 23.74C87.2598 23.8368 87.3314 23.9392 87.3956 24.0462L88.0388 24.9954C88.5289 25.7609 89.019 26.5877 89.601 27.6288L89.9379 28.2718L90.183 28.7311C90.1729 28.8022 90.1729 28.8743 90.183 28.9454C90.3668 29.3129 90.5505 29.6803 90.7037 30.0478C90.8569 30.4152 90.7037 30.0478 90.7037 30.2927C91.1632 31.3338 91.5307 32.1912 91.837 32.9873C92.2012 33.8576 92.5182 34.7469 92.7866 35.6513V35.8656C92.769 36.008 92.769 36.1519 92.7866 36.2943V36.6617C92.8037 36.7631 92.8037 36.8666 92.7866 36.9679C92.7866 36.9679 92.7866 37.2129 92.7866 37.3354V37.611C92.8042 37.7533 92.8042 37.8973 92.7866 38.0397C92.7905 38.111 92.7905 38.1826 92.7866 38.254C93.2014 39.8579 93.5286 41.4832 93.7668 43.1226C93.9506 44.5311 94.1037 45.9397 94.165 47.287C94.165 47.4707 94.165 47.685 94.165 47.8687V48.2056C94.165 48.4505 94.165 48.6955 94.165 48.9404V50.5021C94.165 50.6858 94.165 50.8083 94.165 50.9614V51.4207C94.1799 51.5119 94.1799 51.605 94.165 51.6963C94.1819 51.9001 94.1819 52.1049 94.165 52.3087V52.9211C94.1819 52.9915 94.1819 53.065 94.165 53.1354V53.3191L96.9524 53.5335V52.768C96.9673 52.6767 96.9673 52.5837 96.9524 52.4924C96.9524 52.3087 96.9524 52.0943 96.9524 51.8494V51.237C96.9372 51.074 96.9372 50.91 96.9524 50.747V50.5327C96.9524 50.1346 96.9524 49.6753 96.9524 49.1854C96.9524 48.9405 96.9524 48.6649 96.9524 48.3893V48.1749C96.9372 47.9609 96.9372 47.746 96.9524 47.5319C96.9524 46.1234 96.738 44.623 96.5236 43.1226C96.3092 41.6222 95.911 39.6931 95.4821 37.9478C95.4821 37.9478 95.4821 37.9478 95.4821 37.7334C95.496 37.5806 95.496 37.4269 95.4821 37.2741L95.2983 36.6005V36.2943L94.9614 35.2532C94.7163 34.4877 94.3794 33.4772 93.9506 32.4361C93.5217 31.3951 93.2461 30.6602 92.7253 29.5885V29.3435L92.1434 28.1493C92.1324 28.068 92.1324 27.9856 92.1434 27.9043L91.8983 27.4451C91.8048 27.2986 91.7229 27.145 91.6533 26.9857L91.5001 26.7408C90.9983 25.7834 90.4462 24.8533 89.846 23.9543L89.1722 22.9132L88.9577 22.607L88.6514 22.1784V21.9334L88.192 21.321L88.4676 20.4024C88.348 20.2654 88.2355 20.1224 88.1307 19.9737L87.9776 19.7594L87.7019 19.4532L87.5487 19.2388L87.028 18.5958L86.6604 18.1977L86.4766 17.9834L86.2316 17.6772L86.0478 17.5547L85.4964 16.9423L85.1289 16.5749L84.9451 16.3605C83.9853 15.3807 82.9643 14.4314 81.882 13.5128L80.2586 12.1655L79.9523 11.9206H79.7685L79.1865 11.4613L78.7883 11.1551L78.5739 11.002H78.3901L77.9919 10.6958L75.572 9.13414C74.0769 8.21404 72.5329 7.37585 70.9468 6.62328C69.6296 6.01087 68.2513 5.4291 66.8422 4.90855L66.3828 4.75544H66.0765H65.9233H65.6476L65.0963 4.57173H64.79L63.5647 4.20428L62.9215 4.02056L61.8494 3.74497H61.5737L60.8386 3.59188L60.2566 6.31708L60.9611 6.47017H61.2062L62.217 6.71514L62.8296 6.89885L63.9629 7.23567H64.2692L64.79 7.41941H65.0657H65.2188H65.4945L65.9233 7.5725C67.2404 8.0318 68.5269 8.58298 69.7828 9.16476C71.284 9.88309 72.7461 10.6803 74.163 11.5531C74.8063 11.9206 75.5108 12.4105 76.3991 13.0229L76.7666 13.2679H76.9811H77.1955L77.563 13.5435L78.1144 13.9721H78.2982L78.6045 14.1865L79.9829 15.35Z" fill="#FCFCFC"/>
<path opacity="0.51" d="M91.837 59.4737C91.831 59.4023 91.831 59.3307 91.837 59.2593C91.8494 59.0656 91.8494 58.8713 91.837 58.6775C91.837 58.402 91.837 58.0958 92.0514 57.7283V57.1159C92.0393 56.8813 92.0393 56.6462 92.0514 56.4116C92.2046 55.4318 92.3577 54.2376 92.4496 52.8597C92.5284 51.3195 92.5284 49.7762 92.4496 48.236C92.4496 47.8073 92.4496 47.3787 92.4496 46.95C92.4359 46.7256 92.4359 46.5007 92.4496 46.2763C92.4496 46.062 92.4496 45.817 92.4496 45.6027C92.4496 45.3884 92.4496 45.1434 92.4496 44.8984V44.1942C92.4496 43.7349 92.4496 43.2756 92.2352 42.7856C92.2205 42.5409 92.2205 42.2955 92.2352 42.0507V41.6833C92.2496 41.5715 92.2496 41.4583 92.2352 41.3465C92.2352 41.1015 92.2352 40.8259 92.0821 40.581L91.8983 39.8461C91.6532 38.8662 91.3775 37.8558 91.0712 36.7841C90.7649 35.7124 90.3667 34.7631 89.9685 33.722C89.5703 32.681 89.1109 31.7011 88.6208 30.66C88.1307 29.6189 87.5793 28.6697 86.9973 27.598L86.7829 27.2306C86.7002 27.115 86.6284 26.992 86.5685 26.8631L86.109 26.1588L85.1288 24.7503C83.8235 22.9272 82.3796 21.2074 80.8099 19.6061C80.0135 18.81 79.2171 18.0445 78.39 17.3402L77.7468 16.7891L77.4405 16.5441L77.1342 16.2685L76.2153 16.0235L75.572 15.5336C72.4771 13.209 69.0755 11.3233 65.4638 9.93012H65.1881H64.8818L64.2998 9.71578L63.1665 9.31771L62.0944 9.01151L61.0836 8.70531L60.1953 8.36849L59.2764 8.15414H58.4493H58.2656H58.0511H57.6836L56.3664 7.9398H55.4169H54.8043H54.5898L54.9574 4.63281H55.1718H55.8151L56.8565 4.78592L58.2656 5.00026H58.6638H59.0926L60.0115 5.2146L60.9611 5.42895L62.0331 5.70452L63.1359 6.01074L64.2998 6.37817L65.4944 6.77624L66.1377 6.99058H66.444H66.7503C68.589 7.71203 70.3795 8.5507 72.1107 9.50144L73.5197 10.2669L74.1936 10.6956L74.5612 10.91L74.8981 11.1243L75.6026 11.5836L76.2765 12.0429L76.981 12.5328L77.318 12.7778H77.5017L78.2063 13.2983L78.8801 13.8189L79.2171 14.0945L79.554 14.37L80.2279 14.9518C81.1162 15.7173 81.9739 16.5441 82.8009 17.4014C84.5093 19.1311 86.0764 20.9947 87.4874 22.9743C87.855 23.4336 88.1919 23.9542 88.5289 24.4747L89.019 25.2402L89.264 25.6077L89.5091 26.0057C90.1217 27.0468 90.7037 28.1185 91.255 29.0678C91.8064 30.017 92.2658 31.2418 92.6947 32.3135C93.1235 33.3852 93.5217 34.5182 93.8893 35.5899C94.2568 36.6616 94.5325 37.7639 94.7776 38.8356L94.9614 39.6317L95.1451 40.4279C95.1598 40.5602 95.1598 40.6937 95.1451 40.8259V41.224C95.1451 41.469 95.1451 41.7446 95.1451 41.9895C95.1451 42.2345 95.3289 43.0306 95.3902 43.5205V44.286C95.4054 44.5308 95.4054 44.7762 95.3902 45.0209V45.7558C95.3902 46.0008 95.3902 46.2151 95.3902 46.4601V47.8686C95.485 49.5309 95.485 51.1973 95.3902 52.8597C95.3171 54.1322 95.1739 55.3998 94.9614 56.6566C94.9784 56.9115 94.9784 57.1672 94.9614 57.4221V58.0651L94.7469 59.1062C94.7469 59.3818 94.7469 59.5961 94.7469 59.7492V59.9636L91.837 59.4737Z" fill="#FCFCFC"/>
<path opacity="0.75" d="M91.8063 59.4738V59.2595V58.6777C91.8063 58.6777 91.8063 58.5246 91.8063 58.4327C91.8782 58.203 91.9295 57.9673 91.9594 57.7284V57.116C91.9424 56.9736 91.9424 56.8297 91.9594 56.6873V56.4118C92.1432 55.187 92.2964 54.0234 92.3576 52.8598C92.4348 51.3196 92.4348 49.7764 92.3576 48.2361C92.3576 47.9299 92.3576 47.5931 92.3576 47.2563C92.3576 46.9195 92.3576 47.042 92.3576 46.9501C92.3741 46.8077 92.3741 46.6638 92.3576 46.5214V46.2765C92.3427 46.1955 92.3427 46.1125 92.3576 46.0315C92.3576 46.0315 92.3576 45.7559 92.3576 45.6028C92.3576 45.4497 92.3576 45.2966 92.3576 45.1435V44.8986C92.3746 44.7562 92.3746 44.6123 92.3576 44.4699C92.375 44.3891 92.375 44.3056 92.3576 44.2249C92.3576 43.8575 92.3576 43.4594 92.3576 43.1226C92.3576 42.7857 92.3576 42.9082 92.3576 42.7857C92.3726 42.633 92.3726 42.4792 92.3576 42.3264C92.3576 42.3264 92.3576 42.1427 92.3576 42.0509V41.6834V41.3466C92.3576 41.3466 92.3576 41.1629 92.3576 41.071C92.3715 40.9182 92.3715 40.7645 92.3576 40.6117V40.3361C92.3402 40.1733 92.3402 40.009 92.3576 39.8462C92.082 38.7439 91.8063 37.764 91.5 36.7842C91.1937 35.8043 90.8261 34.7326 90.4279 33.7222C90.0297 32.7117 89.5396 31.6706 89.0495 30.6601C88.5594 29.6497 88.0693 28.7617 87.4567 27.5981L87.2423 27.2307C87.1536 27.113 87.0718 26.9903 86.9972 26.8632L86.5378 26.159V25.9446L85.7107 24.7811C84.4167 22.931 82.9612 21.1992 81.3611 19.6062C80.5938 18.8101 79.7861 18.0538 78.9413 17.3403L78.5737 17.0035L78.3287 16.8198L78.0224 16.5442L77.7161 16.2992L77.471 16.1155L76.2152 16.0237L75.5719 15.5644C72.4849 13.2275 69.0815 11.3408 65.4637 9.96085H65.188L64.2997 9.62405L63.5646 9.37908H63.1664H62.7682L62.0943 9.16474H61.7267H61.0835C61.0912 8.88804 61.0279 8.61397 60.8997 8.36861H60.2871L59.3682 8.15426L58.3267 7.93992H57.7754L56.7952 7.78681H56.4582H55.815H55.5087H55.0492H54.6816L55.0186 4.51045H55.4168H55.9069H56.2132H56.9483H57.3159L58.3573 4.69419H58.97H59.1844L60.1033 4.8779L61.0529 5.12287H61.7574H62.1249L62.8295 5.33721H63.2276L63.9934 5.55155H64.3916H64.7592L65.6169 5.85775L66.5358 6.19457H66.8727C68.7017 6.90389 70.4821 7.73241 72.2025 8.6748L73.3359 9.31783H73.6115L74.0404 9.59342H74.316L74.653 9.80776H74.8674L75.5719 10.2671L76.2458 10.7264L76.8278 11.1244L77.471 11.5837L78.3287 12.2268L78.7575 12.5942L79.0026 12.7779L79.3395 13.0535L79.6764 13.3291L79.9215 13.5434L80.3503 13.9109C81.208 14.6457 82.035 15.4419 82.9539 16.3605C84.6573 18.0838 86.2242 19.9368 87.6405 21.9027L88.5594 23.25V23.4032L89.0495 24.1993C89.1417 24.3144 89.2237 24.4374 89.2945 24.5667L89.5396 24.9648C90.2135 26.0977 90.7954 27.1388 91.2855 28.0268C91.7756 28.9148 92.2964 30.1702 92.7558 31.2726C93.2153 32.3749 93.5522 33.416 93.9198 34.5489C94.2874 35.6819 94.5324 36.6005 94.8387 37.7947L95.0225 38.5908V39.1113C95.0369 39.2026 95.0369 39.2956 95.0225 39.3869V39.785C95.0225 39.785 95.0225 40.0299 95.0225 40.183C95.0225 40.3361 95.0225 40.3668 95.0225 40.4586V40.9485C95.0225 40.9485 95.0225 41.1629 95.0225 41.2854C95.0225 41.4078 95.0225 42.0815 95.2063 42.4795C95.3901 42.8776 95.2063 42.6633 95.2063 42.7551C95.2231 42.918 95.2231 43.0822 95.2063 43.2451V43.9799C95.2063 43.9799 95.2063 44.2861 95.2063 44.4392C95.2212 44.5305 95.2212 44.6236 95.2063 44.7148C95.1913 44.7958 95.1913 44.8788 95.2063 44.9598C95.2063 44.9598 95.2063 45.266 95.2063 45.4191C95.1895 45.5307 95.1895 45.6443 95.2063 45.7559C95.2063 46.1234 95.2063 46.4908 95.2063 46.8276C95.2063 48.5117 95.2063 50.1652 95.2063 51.8187C95.2063 53.4722 94.9613 54.3296 94.7775 55.6463C94.7775 55.6463 94.7775 55.83 94.7775 55.9218C94.7924 56.0746 94.7924 56.2284 94.7775 56.3811V57.0242C94.7775 57.3304 94.7775 57.606 94.6243 57.8203C94.4712 58.0346 94.6243 58.004 94.6243 58.0653C94.6386 58.2794 94.6386 58.4942 94.6243 58.7083V58.9226L91.8063 59.4738ZM78.1143 17.5547C78.9107 18.2589 79.6764 18.9938 80.5341 19.8206C82.1091 21.4364 83.5629 23.166 84.8837 24.9954L85.7107 26.1896V26.4039L86.1702 27.1082C86.2529 27.2238 86.3247 27.3468 86.3846 27.4756L86.599 27.8431C87.2423 28.8842 87.763 29.864 88.2225 30.9051C88.6819 31.9462 89.172 32.8954 89.6008 33.9671C90.0297 35.0388 90.336 35.9574 90.6729 37.0292C91.0099 38.1009 91.2549 38.897 91.5306 40.0912V40.5811V40.8261C91.5451 40.989 91.5451 41.153 91.5306 41.316C91.5449 41.4073 91.5449 41.5003 91.5306 41.5916V41.9284V42.2958C91.5306 42.2958 91.5306 42.4795 91.5306 42.5714V43.0307C91.5306 43.0307 91.5306 43.2451 91.5306 43.3675C91.5306 43.49 91.5306 44.1024 91.5306 44.4392C91.5306 44.7761 91.5306 44.623 91.5306 44.7148C91.5476 44.8572 91.5476 45.0011 91.5306 45.1435V45.1129C91.5306 45.1129 91.5306 45.4191 91.5306 45.5722C91.5306 45.7253 91.5306 45.8478 91.5306 46.0009V46.2458C91.5306 46.2458 91.5306 46.3989 91.5306 46.4908C91.5306 46.5827 91.5306 46.7664 91.5306 46.9195C91.5306 47.0726 91.5306 47.1338 91.5306 47.2257C91.5306 47.3176 91.5306 47.8993 91.5306 48.2055C91.6228 49.7454 91.6228 51.2893 91.5306 52.8292C91.5306 53.9928 91.3162 55.1563 91.1324 56.3811C91.1324 56.3811 91.1324 56.5649 91.1324 56.6567C91.1176 56.7992 91.1176 56.9429 91.1324 57.0854V57.6978C91.1324 57.9734 91.1324 58.2183 91.1324 58.4327C91.1324 58.647 91.1324 58.4327 91.1324 58.647V59.2288V59.4432L94.1955 60.178V59.9637L94.3486 59.3207C94.3486 59.3207 94.3486 59.1676 94.3486 59.0757C94.4231 58.8154 94.4743 58.549 94.5018 58.2796V57.6366V57.1773C94.5018 57.1773 94.5018 56.9935 94.5018 56.9017C94.7162 55.585 94.8387 54.3296 94.9306 53.0741C95.0228 51.4117 95.0228 49.7455 94.9306 48.0831C94.9306 47.7156 94.9306 47.3788 94.9306 47.0114C94.9306 46.6439 94.9306 46.797 94.9306 46.6745C94.9306 46.552 94.9306 46.3683 94.9306 46.2152C94.9456 46.1343 94.9456 46.0512 94.9306 45.9703V45.7253C94.9306 45.7253 94.9306 45.4191 94.9306 45.266V44.5311C94.9474 44.3682 94.9474 44.2041 94.9306 44.0412C94.9455 43.9499 94.9455 43.8569 94.9306 43.7656C94.9306 43.3675 94.9306 42.9695 94.9306 42.5714C94.9162 42.4596 94.9162 42.3464 94.9306 42.2346V41.7447C94.9306 41.7447 94.9306 41.5609 94.9306 41.4691C94.9453 41.3368 94.9453 41.2033 94.9306 41.071V40.673C94.9306 40.673 94.9306 40.4892 94.9306 40.3974C94.9132 40.2243 94.9132 40.0499 94.9306 39.8768V38.9888C94.6243 37.7947 94.3486 36.723 94.0117 35.7431C93.6748 34.7633 93.2766 33.5385 92.8477 32.4667C92.4189 31.395 91.8982 30.2927 91.3774 29.221C90.8567 28.1493 90.3054 27.1694 89.6315 26.159L89.4171 25.7915L89.172 25.3935L88.6819 24.6279V24.4442L87.763 23.1276C86.3095 21.146 84.7015 19.2826 82.9539 17.5547C82.0657 16.6361 81.208 15.8399 80.3503 15.105L80.0134 14.8295L79.7071 14.4927L79.3701 14.1865L79.0332 13.9415C78.9381 13.887 78.8548 13.8141 78.7881 13.7271L78.3287 13.3903L77.471 12.7473L76.8584 12.288L76.2152 11.9206L75.6025 11.4306L74.898 10.9713H74.653L74.316 10.757H74.071L73.6115 10.512H73.3665L72.2331 9.86899C70.4993 8.93232 68.7091 8.10399 66.8727 7.38876H66.5664L65.6169 7.05193L64.7898 6.74574H64.4223H63.9934L63.2583 6.50077H62.8601L62.0024 5.30658H61.6655L60.8997 5.03101L59.9195 4.81665L59.0312 4.63293H58.7862H58.2042L57.1627 4.44922H56.7952H56.06H55.7537H55.2636H54.8961L54.7735 7.26628H55.1105H55.5699H55.8762H56.5195H56.8871H57.8366H58.4186L59.4294 7.48062L60.3483 7.69496L60.8997 8.36861H61.2673L61.9105 8.55232H62.2781L62.952 8.76666H63.3808H63.7484L64.4835 9.04225L65.3718 9.34845H65.6475C69.2662 10.7468 72.6773 12.632 75.7863 14.952L76.4296 15.4419L76.8278 15.7481L77.0422 15.9318L77.3791 16.2074L77.6854 16.4523L77.8998 16.6361C77.8713 16.7957 77.8756 16.9595 77.9125 17.1174C77.9493 17.2754 78.018 17.4241 78.1143 17.5547V17.5547Z" fill="#FCFCFC"/>
<path opacity="0.83" d="M80.3813 76.0405L80.6264 75.7343L81.3003 74.9076C81.8823 74.2033 82.6787 73.1316 83.567 71.8456C84.5596 70.335 85.4499 68.7596 86.2318 67.1301C87.1389 65.2568 87.8869 63.3107 88.4679 61.3122C88.7742 60.3018 89.0499 59.2607 89.2643 58.2502C89.4787 57.2397 89.6625 56.2293 89.785 55.1882V54.4533C89.8002 54.2086 89.8002 53.9631 89.785 53.7184C89.8001 53.4941 89.8001 53.269 89.785 53.0447C89.8001 52.9227 89.8001 52.7993 89.785 52.6773C89.8002 52.5655 89.8002 52.4523 89.785 52.3405C89.785 51.4219 89.785 50.5645 89.785 49.7684C89.785 48.1761 89.785 46.7064 89.5706 45.9408C89.3562 45.1753 89.5706 45.1141 89.5706 44.8691C89.5771 44.7467 89.5771 44.6241 89.5706 44.5017L93.8896 43.9199C93.8896 43.9199 93.8896 44.073 93.8896 44.3486C93.8896 44.6242 93.8896 45.0222 93.8896 45.5428C93.8896 46.5533 94.104 48.023 94.104 49.7684C94.104 50.6462 94.104 51.5954 94.104 52.6161C94.104 52.6161 94.104 52.861 94.104 52.9835C94.1179 53.1158 94.1179 53.2492 94.104 53.3816C94.104 53.6265 94.104 53.9021 94.104 54.1471V54.9432V55.77C94.104 56.8417 93.767 57.9746 93.522 59.1076C93.277 60.2405 93.0013 61.3735 92.6643 62.5064C92.0049 64.7008 91.1753 66.8405 90.1832 68.906C89.2759 70.7154 88.2527 72.4644 87.1201 74.1421C86.14 75.6119 85.2517 76.7754 84.6084 77.5716L83.8426 78.5208L83.567 78.827L80.3813 76.0405Z" fill="#FDFDFD"/>
<path opacity="0.56" d="M80.3506 76.0392L80.5956 75.733C80.5956 75.733 80.9326 75.3349 81.147 75.0593C81.9457 74.0787 82.6921 73.0566 83.383 71.9973C84.3927 70.4971 85.2837 68.9205 86.0479 67.2818C87.0062 65.3563 87.8152 63.3601 88.4678 61.3108C88.7741 60.3004 89.0191 59.2899 89.2335 58.2488C89.448 57.2077 89.6011 56.3504 89.7543 55.1868C89.7543 55.1868 89.7543 55.003 89.7543 54.9112C89.7543 54.8193 89.7543 54.605 89.7543 54.4519V53.8701C89.7694 53.7174 89.7694 53.5635 89.7543 53.4108C89.7691 53.3195 89.7691 53.2265 89.7543 53.1352V52.4616C89.7543 51.5736 89.7543 50.7468 89.7543 49.8895C89.7543 49.0321 89.7543 47.3786 89.5705 46.0619C89.5705 45.8782 89.5705 45.7251 89.5705 45.572C89.589 45.3785 89.589 45.1837 89.5705 44.9902V44.6228L93.8894 44.041V44.4697C93.8894 44.6534 93.8894 44.8678 93.8894 45.1433C93.8894 45.4189 93.8894 45.4495 93.8894 45.6333C94.1978 47.0183 94.4329 48.4185 94.594 49.8282C94.594 50.7162 94.594 51.6655 94.594 52.6759V53.4414C94.5791 53.5327 94.5791 53.6257 94.594 53.717C94.594 53.717 94.594 54.0538 94.594 54.2069C94.6106 54.4005 94.6106 54.5952 94.594 54.7887V55.0031C94.594 55.1868 94.594 55.3705 94.594 55.5542C94.594 55.738 94.594 55.7379 94.594 55.8298C94.594 57.0546 94.2264 58.1569 94.012 59.1674C93.7976 60.1779 93.4912 61.4639 93.1543 62.5662C92.4843 64.767 91.6551 66.9161 90.6732 68.9965C89.7774 70.8023 88.7538 72.5419 87.6101 74.2019C86.8427 75.3946 86.0039 76.5399 85.0984 77.6314L84.4858 78.4275V78.5806L84.2407 78.8868L80.3506 76.0392ZM89.7543 44.5616V44.929C89.7543 44.929 89.7543 45.2658 89.7543 45.5108C89.7543 45.7557 89.7543 45.817 89.7543 46.0007C89.7543 47.3174 89.9381 48.5728 89.9381 49.8282C89.9381 51.0837 89.9381 51.5123 89.9381 52.4003V53.1046C89.9207 53.1853 89.9207 53.2688 89.9381 53.3496C89.9381 53.3496 89.9381 53.6558 89.9381 53.8089C89.9531 54.0025 89.9531 54.197 89.9381 54.3906C89.953 54.5434 89.953 54.6972 89.9381 54.85C89.9529 54.9412 89.9529 55.0343 89.9381 55.1255C89.8172 56.1545 89.6434 57.1765 89.4173 58.1876C89.2029 59.2286 88.9272 60.2391 88.6516 61.2496C87.5392 64.9707 85.8881 68.5092 83.7506 71.7523C83.0485 72.8115 82.292 73.8335 81.4839 74.8143L80.9326 75.488V75.6411L80.6875 75.9167L83.965 78.7338L84.2407 78.4275C84.4245 78.2438 84.6389 77.9682 84.884 77.662C85.7723 76.5597 86.5993 75.3961 87.3651 74.2326C88.5033 72.5584 89.5266 70.809 90.4281 68.9965C91.4182 66.9337 92.2377 64.7933 92.8786 62.5969C93.2156 61.4639 93.5219 60.331 93.7669 59.198C94.012 58.0651 94.1651 57.0852 94.3183 55.8604V55.5542C94.3183 55.4011 94.3183 55.2174 94.3183 55.0337V54.8193C94.3033 54.6257 94.3033 54.4312 94.3183 54.2376C94.3183 54.2376 94.3183 53.9007 94.3183 53.7476C94.3183 53.5945 94.3183 53.5639 94.3183 53.4721V52.7065C94.3183 51.6961 94.3183 50.7469 94.3183 49.8589C94.3183 48.4503 94.3183 47.0724 94.1039 45.6027C94.0908 45.4396 94.0908 45.2758 94.1039 45.1127C94.1039 44.8371 94.1039 44.6228 94.1039 44.4391V44.041L89.7543 44.5616Z" fill="#FCFCFC"/>
<path opacity="0.82" d="M24.8781 77.1416L26.5016 75.2125L24.8475 77.1722L24.8781 77.1416ZM24.143 76.4067L25.8277 74.5389L24.143 76.4067ZM25.8889 77.9071L27.4817 75.9168L25.9196 77.9071H25.8889ZM23.1934 75.7331L24.97 73.8959L23.1934 75.7331ZM26.7772 78.7951L28.3088 76.7742L26.7772 78.7951ZM22.3358 74.8757L24.143 73.1304L22.3358 74.8757ZM27.788 79.53L29.2277 77.4478L27.788 79.53ZM21.4781 73.9877L23.3772 72.3036L21.4781 73.9877ZM28.7989 80.1118L30.1773 77.999L28.7989 80.1424V80.1118ZM20.6817 72.9773L22.6114 71.3544L20.6817 73.0079V72.9773ZM29.871 80.7548L31.2187 78.5808L29.9016 80.7548H29.871ZM19.9772 72.028L21.9682 70.4664L19.9772 72.028ZM30.943 81.3978L32.1989 79.1626L30.9124 81.4284L30.943 81.3978ZM19.2114 71.0788L21.2637 69.5478L19.2114 71.0788ZM31.9539 81.8571L33.1178 79.6218L31.9539 81.8878V81.8571ZM18.4456 69.9765L20.5592 68.5373L18.4456 69.9765ZM33.0259 82.4695L34.1593 80.173L33.0566 82.5002H33.0259V82.4695ZM17.7105 68.9966L19.8547 67.6187L17.7105 68.9966ZM34.1286 82.9595L35.1395 80.6323L34.1286 82.9595ZM17.0979 67.9555L19.242 66.547L17.0979 67.9555ZM35.2314 83.4494L36.1809 81.0916L35.2314 83.4494ZM16.4546 66.9145L18.6907 65.659L16.4546 66.9145ZM36.3953 83.8781L37.253 81.4897L36.3953 83.8781ZM15.9033 65.8121L18.2006 64.6485L15.9033 65.8121ZM37.5287 84.1843L38.3251 81.7653L37.5593 84.1536L37.5287 84.1843ZM15.3519 64.6485L17.6492 63.5768L15.3519 64.6485ZM38.6926 84.5517L39.4278 82.1021L38.7233 84.5517H38.5701H38.6926ZM14.9537 63.485L17.2817 62.4745L14.9537 63.485ZM40.0098 84.9192L40.6224 82.4695L39.9791 84.9498L40.0098 84.9192ZM14.4942 62.4439L16.8835 61.4947L14.4942 62.4439ZM41.1738 85.1947L41.7251 82.7145L41.1738 85.2254V85.1947ZM14.0654 61.311L16.4546 60.4536L14.0654 61.311ZM42.3684 85.4397L42.8585 82.9595L42.5215 85.5315L42.3684 85.4397ZM13.6672 60.1474L16.1177 59.3513L13.6672 60.1474ZM43.563 85.654L43.9612 83.1432H44.1143L43.7161 85.654H43.563ZM13.2996 58.9838L15.7501 58.3102L13.2996 58.9838ZM44.7882 85.8378L45.0945 83.2963L44.8188 85.8071L44.7882 85.8378ZM12.9014 57.8202L15.3825 57.2078L12.9014 57.8202ZM45.8909 85.9909L46.136 83.4494L45.9215 85.9602L45.8909 85.9909ZM12.6258 56.6567L15.1069 56.1055L12.6258 56.6567ZM47.1161 86.0827V83.5413V86.0827ZM12.3807 55.4625L14.8925 55.0032L12.3807 55.4625ZM48.3414 86.0827V83.5413V86.0827ZM12.1663 54.2989L14.678 53.9315L12.1663 54.2989ZM49.5666 86.144V83.6025H49.7198V86.144H49.5666ZM11.8906 53.0435L14.4024 52.7373L11.8906 53.0435ZM50.7919 86.1133V83.5719H50.945V86.1133H50.7919ZM11.8906 51.8187L14.433 51.6043L11.8906 51.8187ZM51.9865 86.0521L51.7108 83.5106L51.8946 86.0215L51.9865 86.0521ZM11.8906 50.5939V50.4408H14.433L11.8906 50.5939ZM53.2117 85.9296L52.936 83.4188H53.0892L53.3648 85.9602L53.2117 85.9296ZM11.8906 49.3691H14.433H11.8906ZM54.4369 85.7765L54.0694 83.2657L54.4063 85.7765H54.4369ZM11.8906 48.1749H14.433H11.8906ZM55.6315 85.5928L55.2027 83.0819L55.6315 85.5622V85.5928ZM11.8906 46.95H14.433H11.8906ZM56.918 85.3785L56.4279 82.8982L56.9487 85.4091L56.918 85.3785ZM11.8906 45.7252L14.433 45.9396L11.8906 45.7252ZM58.0207 85.1029L57.4387 82.6226L58.0514 85.0723L58.0207 85.1029ZM11.8906 44.5004L14.433 44.8066L11.8906 44.5004ZM59.2153 84.9192L58.5415 82.4695L59.2153 84.9192ZM12.1357 43.3063L14.6474 43.6737L12.1357 43.3063ZM60.3793 84.4598L59.6442 82.0408L60.4099 84.4598H60.2568H60.3793ZM12.3195 42.0508L14.8312 42.5101L12.3195 42.0508ZM61.5433 84.0924L60.7163 81.8571L61.5739 84.2455L61.5433 84.0924ZM12.5339 40.9179L15.015 41.4384L12.5339 40.9179ZM62.7073 83.7862L61.7883 81.4284L62.7073 83.8168V83.7862ZM12.8095 39.7237L15.26 40.3361L12.8095 39.7237ZM63.9631 83.235L62.9829 80.8773L63.9631 83.235ZM13.1159 38.5295L15.5663 39.2031L13.1159 38.5295ZM64.9433 82.7451L63.9631 80.418L65.0352 82.7145L64.9433 82.7451ZM13.4834 37.3659L15.9339 38.1621L13.4834 37.3659ZM66.046 82.194L64.9127 79.9281L66.0767 82.194H66.046ZM13.9735 36.2636L16.3627 37.121L13.9735 36.2636ZM67.0262 81.6428L65.8316 79.4075L67.0262 81.6122V81.6428ZM14.2798 35.0694L16.6384 36.0186L14.2798 35.0694ZM68.2208 80.9998L67.0262 78.7951L68.3127 80.9998H68.2208ZM14.7393 33.9364L17.0672 34.9163L14.7393 33.9364ZM69.2623 80.3873L67.9145 78.2439L69.2623 80.3873ZM15.2294 32.8647L17.5267 33.9671L15.2294 32.8647ZM70.365 79.775L68.956 77.6928L70.3956 79.8056L70.365 79.775ZM15.7807 31.7318L18.0168 32.8647L15.7807 31.7318ZM71.2839 79.0401L69.783 76.9579L71.2839 79.0094V79.0401ZM16.3321 30.6295L18.5682 31.8543L16.3321 30.6295ZM72.2641 78.3052L70.7019 76.2842L72.2641 78.3052ZM16.9447 29.5884L19.1501 30.8744L16.9447 29.5884ZM73.1524 77.5397L71.5902 75.7331L73.2137 77.6928L73.1524 77.5397ZM17.5267 28.5473L19.6402 29.9252L17.5267 28.5473ZM74.1326 76.7436L72.4479 74.8451L74.1326 76.7436ZM18.2619 27.5062L20.3447 28.9454L18.2619 27.5062ZM75.0515 75.9168L73.3055 74.0796L75.0515 75.9474V75.9168ZM18.9664 26.5264L21.0186 28.0267L18.9664 26.5264ZM75.9398 75.0594L74.102 73.2835L75.9092 75.0594H75.9398ZM19.7015 25.5465L21.6925 27.1387L19.7015 25.5465ZM76.7668 74.1714L74.8984 72.4567L76.7668 74.1714ZM20.4673 24.5973L22.4276 26.2508L20.4673 24.5973ZM77.5939 73.2835L75.6948 71.5994L77.6245 73.2835H77.5939ZM23.1628 25.3628L21.2637 23.6787L23.1628 25.3934V25.3628ZM76.4912 70.6195L78.4822 72.2117L76.4912 70.6195ZM23.9286 24.6891L22.0907 22.9438L23.9286 24.7197V24.6891ZM77.165 69.609L79.2173 71.14L77.165 69.609ZM24.725 23.6787L22.9484 21.8721L24.725 23.6787ZM77.8696 68.8129L79.9525 70.2827L77.8696 68.8129ZM25.552 22.8825L23.806 21.0147L25.5214 22.9132L25.552 22.8825ZM78.5128 67.8943L80.657 69.2722L78.5128 67.8943ZM26.4403 22.1783L24.7556 20.2492L26.4097 22.1783H26.4403ZM79.2786 66.9145L81.4534 68.2617L79.2786 66.9145ZM27.2061 21.4434L25.6133 19.4531L27.2061 21.4434ZM79.6768 65.9346L81.8822 67.1594L79.6768 65.9346ZM28.1556 20.6166L26.6241 18.5957L28.1556 20.6166ZM80.2281 64.8323L82.4642 66.0265L80.2281 64.8323ZM29.0746 20.0655L27.6043 17.9833L29.0746 20.0655ZM80.7489 63.9443L83.0462 65.0466L80.7489 63.9443ZM30.0241 19.4225L28.6457 17.3403L30.0547 19.4531L30.0241 19.4225ZM81.2389 62.9032L83.5669 63.9137L81.2389 62.9032ZM30.9737 18.8101L29.6565 16.636L30.9737 18.8101ZM81.6678 61.8621L84.0264 62.8113L81.6678 61.8621ZM31.9539 18.2283L30.698 16.0236L31.9539 18.2283ZM82.0966 60.7904L84.4858 61.6784L82.0966 60.7904ZM32.9647 17.5546L31.7701 15.3193L32.9647 17.5852V17.5546ZM82.3417 59.7187L84.7615 60.5148V60.423L82.3417 59.7187ZM33.9755 17.1566L32.8728 14.86L33.9755 17.1566ZM82.8318 58.647L85.3129 59.3819L82.8318 58.647ZM35.0169 16.6973L33.9755 14.4926L34.9863 16.8197L35.0169 16.6973ZM83.1074 57.5447L85.5579 58.1877L83.1074 57.5447ZM36.0584 16.238L35.1088 13.8802L36.0584 16.238ZM83.3831 56.4423L85.8948 56.9935L83.3831 56.4423ZM37.1305 15.8093L36.3953 13.4209L37.253 15.8093H37.1305ZM83.6282 55.34L86.1399 55.7993L83.6282 55.34ZM38.2026 15.5337L37.4062 13.1147H37.5593L38.3251 15.5337H38.2026ZM83.8426 54.2989L86.3849 54.697L83.8426 54.2989ZM39.4584 15.105L38.7539 12.6554L39.4584 15.105ZM83.9957 53.1047L86.5381 53.4109L83.9957 53.1047ZM40.3773 14.7988L39.7341 12.3186L40.3773 14.7988ZM84.1183 51.9718L86.6606 52.2167L84.1183 51.9718ZM41.5107 14.4926L40.9593 12.0124H41.1125L41.6638 14.4926H41.5107ZM84.2101 50.8388L86.7525 50.9919L84.2101 50.8388ZM42.5215 14.2783L42.0314 11.798H42.1846L42.644 14.3089L42.5215 14.2783ZM84.2714 49.7059H86.8138H84.2714ZM43.7467 14.0945L43.3179 11.5837H43.4711L43.8693 14.0945H43.7467ZM84.2714 48.5729H86.8138H84.2714ZM44.8801 13.9414L44.5738 11.4306H44.7269L45.0332 13.9414H44.8801ZM84.2408 47.4094H86.8138H84.2408ZM45.9828 13.7271L45.7377 11.4306H45.8909L46.136 13.9721L45.9828 13.7271ZM84.2101 46.1845L86.7219 46.0008L84.2101 46.1845ZM47.1468 13.7271V11.1856V13.7271ZM84.1183 45.1128L86.6606 44.8373L84.1183 45.1128ZM48.2801 13.6659V11.1244V13.6659ZM83.9651 44.0105L86.4768 43.6737L83.9651 44.0105ZM49.4135 13.6352V11.0938V13.6046V13.6352ZM83.8119 42.9082L86.3237 42.4795L83.8119 42.9082ZM50.5468 13.6659V11.1244H50.6999V13.6659H50.5468ZM83.5975 41.7752L86.1093 41.2547L83.5975 41.7752ZM51.7108 13.7271L51.8946 11.1856H52.0477L51.8333 13.7271H51.7108ZM83.3831 40.6729L85.8642 40.0911L83.3831 40.6729ZM52.7522 13.8189L52.9973 11.2775H53.1504L52.8748 13.8189H52.7522ZM83.0155 39.5706L85.466 38.8969L83.0155 39.5706ZM53.8856 13.9721L54.2225 11.4612L53.8549 13.9721H53.8856ZM82.7092 38.4683L85.1291 37.7334L82.7092 38.4683ZM55.1414 13.9721L55.5396 11.4612H55.6928L55.264 13.9721H55.1414ZM82.3417 37.3659L84.7615 36.5392L82.3417 37.3659ZM56.1829 14.4926L56.673 11.9817H56.8261L56.3054 14.4926H56.1829ZM82.0354 36.4473L84.3939 35.5593L82.0354 36.4473ZM57.2856 14.4926L57.8676 12.043H58.0207L57.4387 14.4926H57.2856ZM81.6065 35.1919L83.9651 34.1814L81.6065 35.1919ZM58.3883 14.7988L59.0622 12.3492L58.4189 14.8294L58.3883 14.7988ZM81.1777 34.1202L83.5056 33.0791L81.1777 34.1202ZM59.491 15.105L60.2262 12.686L59.4604 15.105H59.491ZM80.6876 33.1097L82.9543 31.9768L80.6876 33.1097ZM60.5631 15.4418L61.3901 13.0228L60.5631 15.4418ZM80.1669 32.0992L82.4029 30.8744L80.1669 32.0992ZM61.7883 15.8705L62.6766 13.4515L61.7577 15.8399L61.7883 15.8705ZM79.7687 31.1806L81.729 29.8027L79.7687 31.1806ZM62.8604 16.3298L63.81 14.0027H63.9631L62.9829 16.3604L62.8604 16.3298ZM79.1867 30.2008L81.3615 28.8535L79.1867 30.2008ZM63.8712 16.7891L64.9127 14.462L63.8712 16.7891ZM78.5128 29.2516L80.6263 27.8124L78.5128 29.2516ZM64.7595 17.2484L65.8929 14.9519L64.7595 17.2178V17.2484ZM77.747 28.2717L79.7993 26.8019L77.747 28.2717ZM65.7704 17.769L66.965 15.5337H67.0262L65.801 17.769H65.7704ZM77.0731 27.3531L79.0642 25.7915L77.0731 27.3531ZM66.7812 18.167L68.037 15.9624L66.7812 18.1364V18.167ZM76.3686 26.312L78.329 24.6891L76.3686 26.312ZM67.7614 18.7488L69.1091 16.6054L67.7307 18.7794L67.7614 18.7488ZM75.6335 25.4547L77.4407 23.6787L75.6335 25.4547ZM68.7109 19.3306L70.0893 17.5546L68.6803 19.6674L68.7109 19.3306ZM74.8371 24.5667L76.6749 22.8213L74.8371 24.5667ZM69.5992 19.9736L71.0695 17.9221L69.5686 19.9736H69.5992ZM74.0407 23.7705L75.8479 21.9639L74.0407 23.7705ZM70.5181 20.7085L72.0803 18.6876L70.5181 20.6779V20.7085ZM73.2443 23.005L74.9902 21.1372L73.2443 23.005ZM71.4064 21.4128L72.9992 19.4225L71.3758 21.3822L71.4064 21.4128ZM72.3866 22.2395L74.0407 20.3104L72.3866 22.2395Z" fill="#FDFDFD"/>
<path d="M27.4819 55.2793L27.4512 55.3716L27.4819 55.2793Z" fill="white"/>
<path d="M33.6079 66.0273L33.8836 66.3642L33.6079 66.0273Z" fill="white"/>
<path d="M32.2295 63.8843L32.2603 63.915L32.2295 63.8535V63.8843Z" fill="white"/>
<path d="M58.1738 29.5894L58.2046 29.6201V29.5894L58.1431 29.5586L58.1738 29.5894Z" fill="white"/>
<path d="M60.9917 30.8438L61.0225 30.8745L60.9917 30.8438Z" fill="white"/>
<path d="M56.6728 28.4258L56.6115 28.3952L56.5196 28.3646L56.4277 28.334L56.5196 28.3646L56.6728 28.4258Z" fill="white"/>
<path d="M47.0855 28.334C47.0855 28.334 47.0547 28.3647 47.0855 28.334V28.334Z" fill="white"/>
<path d="M48.8623 28.334L48.8315 28.3647H48.8623V28.334Z" fill="white"/>
<path d="M58.3882 29.2207H58.4189V29.2515L58.3882 29.2207Z" fill="white"/>
<path d="M58.7558 29.4043H58.5107L58.817 29.588C58.817 29.588 58.7864 29.4349 58.7558 29.4043Z" fill="white"/>
<path d="M45.646 28.5776V28.5469L45.6152 28.5776H45.646Z" fill="white"/>
<path d="M46.8096 30.0488C46.8096 30.0488 46.8403 29.9873 46.8096 30.0488V30.0488Z" fill="white"/>
<path d="M47.0244 30.0483V30.0176H46.9937L47.0244 30.0483Z" fill="white"/>
<path d="M46.8711 29.3125H47.1774C47.0771 29.3398 46.9714 29.3398 46.8711 29.3125V29.3125Z" fill="white"/>
<path d="M46.1973 28.3945C46.1973 28.3945 46.228 28.4561 46.1973 28.3945V28.3945Z" fill="white"/>
<path d="M47.9736 29.0996C47.9736 29.0996 48.0044 29.1304 47.9736 29.0996V29.0996Z" fill="white"/>
<path d="M48.2803 28.9761L48.3111 28.9453H48.2803V28.9761Z" fill="white"/>
<path d="M48.2495 28.7617L48.3111 28.7925L48.2495 28.7617Z" fill="white"/>
<path d="M48.5864 28.7617L48.6172 28.7925L48.5864 28.7617Z" fill="white"/>
<path d="M48.5864 28.6714H48.6172L48.5864 28.6406V28.6714Z" fill="white"/>
<path d="M65.3105 35.377C65.3105 35.377 65.3413 35.3462 65.3105 35.377V35.377Z" fill="white"/>
<path d="M66.2295 36.478H66.2603V36.5088V36.478L66.2295 36.4473V36.478Z" fill="white"/>
<path d="M65.8013 35.8667V35.8359H65.7705L65.8013 35.8667Z" fill="white"/>
<path d="M66.8115 37.398H66.8423L66.8115 37.3672V37.398Z" fill="white"/>
<path d="M66.8731 37.4272L66.8423 37.3965V37.4272H66.8731Z" fill="white"/>
<path d="M33.853 32.375L33.8223 32.4058L33.853 32.375Z" fill="white"/>
</svg>
