<svg width="52" height="53" viewBox="0 0 52 53" fill="none" xmlns="http://www.w3.org/2000/svg">
<g opacity="0.48">
<path d="M26.5576 52.064V49.9512H26.8639V52.064H26.5576Z" fill="white"/>
<path d="M23.862 51.9722H23.5557L23.7395 49.8594H24.0458L23.862 51.9722Z" fill="white"/>
<path d="M29.529 51.8204L29.2227 49.7383H29.4983L29.8353 51.8204H29.529V51.8204Z" fill="white"/>
<path d="M20.9216 51.5431H20.6152L21.0441 49.4609H21.3198L20.9216 51.5431Z" fill="white"/>
<path d="M32.4693 51.2078L31.918 49.1562H32.1937L32.745 51.1772H32.4387L32.4693 51.2078Z" fill="white"/>
<path d="M18.0114 50.7788H17.7051L18.379 48.7578H18.6546L18.0114 50.7788Z" fill="white"/>
<path d="M35.3179 50.2878L34.5215 48.3281H34.7972L35.5936 50.2572H35.2873L35.3179 50.2878Z" fill="white"/>
<path d="M15.2239 49.6771H14.9482L15.8672 47.748H16.1428L15.2239 49.6771Z" fill="white"/>
<path d="M38.0442 49.0026L37.064 47.1348H37.309L38.3505 49.0026L38.0748 49.1557L38.0442 49.0026Z" fill="white"/>
<path d="M12.5595 48.267L12.3145 48.1139L13.4478 46.3379H13.6929L12.5901 48.1139L12.5595 48.267Z" fill="white"/>
<path d="M40.5866 47.4102L39.3613 45.6954L39.5757 45.5117L40.801 47.2264L40.5559 47.4102H40.5866Z" fill="white"/>
<path d="M10.1088 46.5227L9.86377 46.339L11.2115 44.6855L11.4259 44.8693L10.1088 46.5227Z" fill="white"/>
<path d="M42.9144 45.5423L41.5054 43.9806L41.7198 43.7969L43.1288 45.3279C43.0622 45.4149 42.9789 45.4877 42.8838 45.5423H42.9144Z" fill="white"/>
<path d="M7.90338 44.5318L7.68896 44.3174L9.22051 42.8477L9.43492 43.062L7.90338 44.5318Z" fill="white"/>
<path d="M45.0279 43.4295L43.4351 42.021L43.6188 41.8066L45.2117 43.1845L44.9972 43.4295H45.0279Z" fill="white"/>
<path d="M5.91232 42.2654L5.72852 42.0204L7.41322 40.7344L7.597 40.9793L5.91232 42.2654Z" fill="white"/>
<path d="M46.8656 41.072L45.1196 39.8472V39.6328L46.8656 40.827C46.8261 40.9316 46.7633 41.0259 46.6818 41.1026L46.8656 41.072Z" fill="white"/>
<path d="M4.19727 39.8174V39.5418L6.03514 38.4395L6.18828 38.6844L4.19727 39.8174Z" fill="white"/>
<path d="M48.4281 38.5002L46.5596 37.5204C46.5705 37.4391 46.5705 37.3567 46.5596 37.2754V37.2754L48.4281 38.2246L48.2749 38.5002H48.4281Z" fill="white"/>
<path d="M2.81871 37.1531C2.80718 37.0616 2.80718 36.969 2.81871 36.8775L4.74844 36.0508C4.73194 36.1316 4.73194 36.2149 4.74844 36.2957V36.2957L2.81871 37.1531Z" fill="white"/>
<path d="M49.684 35.7755L47.7236 35.01V34.7344L49.684 35.4693V35.7755V35.7755Z" fill="white"/>
<path d="M1.74658 34.3659C1.76432 34.2646 1.76432 34.161 1.74658 34.0597V34.0597L3.76821 33.4473C3.76821 33.4473 3.76821 33.4473 3.76821 33.6922L1.74658 34.3659Z" fill="white"/>
<path d="M50.5723 32.927L48.52 32.4064C48.5344 32.3151 48.5344 32.2222 48.52 32.1309L50.6029 32.6208V32.927H50.5723Z" fill="white"/>
<path d="M0.980469 31.4562C0.980469 31.4562 0.980469 31.2419 0.980469 31.15L3.03273 30.752C3.03273 30.752 3.03273 30.9357 3.03273 31.0275L0.980469 31.4562Z" fill="white"/>
<path d="M51.1234 29.9574L49.0405 29.6818C49.0405 29.6818 49.0405 29.6818 49.0405 29.4062L51.154 29.6818C51.154 29.6818 51.154 29.8962 51.154 29.988L51.1234 29.9574Z" fill="white"/>
<path d="M0.612885 28.4878C0.597788 28.3863 0.597788 28.2832 0.612885 28.1816H2.72642C2.71293 28.2833 2.71293 28.3862 2.72642 28.4878H0.612885Z" fill="white"/>
<path d="M49.3164 26.6499V26.3438H51.4299C51.4165 26.4454 51.4165 26.5483 51.4299 26.6499H49.3164Z" fill="white"/>
<path d="M2.69606 25.5777H0.58252C0.597617 25.4762 0.597617 25.373 0.58252 25.2715H2.69606V25.5777Z" fill="white"/>
<path d="M49.0405 23.6189C49.0405 23.6189 49.0405 23.4352 49.0405 23.3433L51.1234 23.0371C51.1234 23.0371 51.1234 23.2514 51.1234 23.3433L49.0405 23.6189Z" fill="white"/>
<path d="M2.97157 22.852L0.888672 22.5152C0.888672 22.5152 0.888672 22.3008 0.888672 22.209L2.94094 22.5764C2.94094 22.5764 2.94094 22.7601 2.94094 22.852H2.97157Z" fill="white"/>
<path d="M48.52 20.9244C48.5135 20.8326 48.5135 20.7406 48.52 20.6488V20.6488L50.5416 20.0977V20.4039L48.52 20.9244Z" fill="white"/>
<path d="M3.58413 20.1888L1.5625 19.607C1.57075 19.5051 1.57075 19.4027 1.5625 19.3008V19.3008L3.58413 19.9132C3.5906 20.0049 3.5906 20.097 3.58413 20.1888V20.1888Z" fill="white"/>
<path d="M47.6929 18.2905C47.7044 18.199 47.7044 18.1064 47.6929 18.0149V18.0149L49.6839 17.2188V17.5249L47.6929 18.2905Z" fill="white"/>
<path d="M4.50349 17.5861L2.57373 16.7593C2.57884 16.6573 2.57884 16.5551 2.57373 16.4531L4.53411 17.3105C4.52257 17.402 4.52257 17.4946 4.53411 17.5861H4.50349Z" fill="white"/>
<path d="M46.5596 15.7183C46.5537 15.6368 46.5537 15.5549 46.5596 15.4734V15.4734L48.428 14.4629V14.7385L46.5596 15.7183Z" fill="white"/>
<path d="M5.69812 15.1363L3.89089 14.0646C3.88077 13.9731 3.88077 13.8806 3.89089 13.7891V13.7891L5.69812 14.8608C5.7131 14.9417 5.7131 15.0248 5.69812 15.1057V15.1363Z" fill="white"/>
<path d="M45.1201 13.4528V13.2079L46.8355 12.0137L47.0192 12.2586L45.1201 13.4528Z" fill="white"/>
<path d="M7.19887 12.8396L5.51416 11.5536L5.69796 11.3086L7.41328 12.5947V12.809L7.19887 12.8396Z" fill="white"/>
<path d="M43.5578 11.2791L43.2515 10.9423L45.7632 8.70703C45.8597 8.84314 45.9729 8.9666 46.1001 9.07448V9.07448L43.5578 11.2791Z" fill="white"/>
<path d="M8.85298 10.7586L6.09619 8.15587L6.46377 7.75781L9.15928 10.3912L8.7917 10.7586H8.85298Z" fill="white"/>
<path d="M41.5054 9.31959L41.291 9.13586L42.6694 7.57422L42.9145 7.78858L41.5054 9.31959Z" fill="white"/>
<path d="M10.9664 8.8294L9.61865 7.20653L9.86371 6.99219L11.2114 8.64568L10.9664 8.8294V8.8294Z" fill="white"/>
<path d="M39.5146 7.60372L39.147 7.32815L41.1073 4.48047L41.5362 4.75604L39.5146 7.60372Z" fill="white"/>
<path d="M13.0494 7.17593L11.2422 4.4201L11.6404 4.14453L13.417 6.90036L13.0494 7.1453V7.17593Z" fill="white"/>
<path d="M37.0639 6.16471H36.8188L37.799 4.29688H38.0747L37.0639 6.16471Z" fill="white"/>
<path d="M15.6224 5.82756L14.6729 3.95975L14.9485 3.80664L15.8675 5.7051H15.5918L15.6224 5.82756Z" fill="white"/>
<path d="M34.6746 5.00148H34.2764L35.4097 1.93945H35.8692L34.6746 5.00148Z" fill="white"/>
<path d="M17.95 4.72609L16.8779 1.66406H17.3068L18.3176 4.72609H17.9194H17.95Z" fill="white"/>
<path d="M31.9178 4.14399H31.6421L32.1628 2.12305H32.4691L31.9178 4.14399Z" fill="white"/>
<path d="M20.707 3.95978L20.2476 1.9082H20.5539L20.9827 3.95978H20.707V3.95978Z" fill="white"/>
<path d="M29.3449 3.47023H28.916L29.3142 0.408203H29.7737L29.3449 3.47023Z" fill="white"/>
<path d="M23.3106 3.47023L22.9736 0.408203H23.4637L23.77 3.68457H23.2799L23.3106 3.47023Z" fill="white"/>
<path d="M26.4656 3.47023H26.1899V1.35742H26.5269L26.4656 3.47023Z" fill="white"/>
</g>
</svg>
