<svg width="60" height="61" viewBox="0 0 60 61" fill="none" xmlns="http://www.w3.org/2000/svg">
<g opacity="0.66">
<path d="M2.38802 23.3427C2.2133 23.9643 2.09037 24.5992 2.02047 25.2411C1.76693 26.9024 1.66441 28.5831 1.71416 30.2628C1.80383 32.65 2.19491 35.0163 2.87813 37.3055C4.04887 41.0662 6.02557 44.5265 8.67059 47.4456C11.3156 50.3647 14.5654 52.6724 18.1936 54.2079C19.1738 54.5447 20.062 54.9121 20.8891 55.1571L23.0333 55.7083L24.9324 55.9838L24.7179 57.5149L22.6963 57.2087L20.4603 56.6269C19.6026 56.3819 18.653 55.9839 17.6116 55.6164C12.6056 53.4866 8.29726 49.9965 5.17545 45.5423C3.54739 43.1427 2.26855 40.524 1.37722 37.7648C0.657287 35.347 0.255704 32.8457 0.182621 30.3241C0.102481 28.5423 0.205115 26.757 0.488925 24.9962C0.577603 24.3269 0.70027 23.6626 0.85648 23.0059L2.38802 23.3427Z" fill="white"/>
<path d="M24.7488 57.5149L22.7272 57.2087L20.4912 56.6269C19.9092 56.6269 19.3272 56.2288 18.6839 56.0144L17.6425 55.6164C12.6176 53.5044 8.29479 50.0112 5.17572 45.5423C3.56882 43.1349 2.30105 40.5179 1.40811 37.7648C0.688652 35.3459 0.277017 32.8459 0.18289 30.3241C0.124552 28.5414 0.237361 26.7573 0.519809 24.9962C0.599655 24.3256 0.722439 23.6608 0.887388 23.0059V23.0059L2.41893 23.3427C2.26554 23.9572 2.15298 24.5812 2.08199 25.2105C1.79841 26.8684 1.69571 28.5522 1.77569 30.2322C1.8374 32.6198 2.21858 34.9884 2.90904 37.2749C3.75979 39.8776 4.96576 42.3506 6.49284 44.6238C9.44377 48.8442 13.5185 52.1538 18.2551 54.1773L19.2966 54.5447L20.9506 55.1265H21.5632L23.0948 55.4939L24.9939 55.8001L24.7488 57.5149ZM0.887388 23.0059C0.887388 23.1896 0.672963 23.8939 0.519809 24.9962C0.236425 26.7571 0.133794 28.5423 0.213504 30.3241C0.280567 32.8463 0.682276 35.3483 1.40811 37.7648C2.29269 40.5172 3.57212 43.1267 5.20635 45.5117C8.3141 49.9863 12.6258 53.4896 17.6425 55.6164L18.6839 55.9838C19.3272 56.2288 19.9398 56.4431 20.4912 56.5962L22.7578 57.178L24.7488 57.5149L24.9326 56.0144L23.0641 55.7083L21.502 55.3102H20.92L19.2659 54.7591L18.2245 54.361C13.4758 52.3576 9.39589 49.0439 6.46221 44.8075C4.91149 42.548 3.70381 40.0716 2.8784 37.4586C2.17935 35.1731 1.78792 32.8048 1.71443 30.416C1.66684 28.7363 1.76934 27.0557 2.02074 25.3942C2.09933 24.7537 2.22213 24.1194 2.38829 23.4958L0.887388 23.0059Z" fill="white"/>
</g>
<g opacity="0.51">
<path d="M14.15 6.74634L13.4149 7.20564L11.6689 8.52232C9.926 9.93005 8.37148 11.5561 7.04363 13.3603C5.70181 15.1426 4.59031 17.0871 3.73549 19.1475C3.39855 20.0049 3.1535 20.7092 2.96972 21.1991C2.87054 21.4692 2.78868 21.7453 2.72466 22.0259L1.25439 21.5972C1.31513 21.3058 1.39703 21.0193 1.49945 20.7398C1.71386 20.2193 1.98952 19.4538 2.29583 18.5351C3.21177 16.3558 4.39502 14.2987 5.81839 12.4111C7.22062 10.5089 8.85695 8.79086 10.6887 7.2975L12.5572 5.9196C12.7999 5.73756 13.0559 5.57381 13.3229 5.42969L14.15 6.74634Z" fill="white"/>
<path d="M2.75545 22.0265L1.28516 21.5978C1.34589 21.3065 1.42779 21.0199 1.53021 20.7405L2.32662 18.5358C3.24055 16.3555 4.42394 14.2981 5.84917 12.4117C7.24861 10.5163 8.88538 8.80803 10.7195 7.32877L12.588 5.92025L13.3537 5.46094L14.1808 6.74698L13.4763 7.20629L12.833 7.6656L11.6997 8.52296C8.22962 11.3665 5.50635 15.0138 3.76627 19.1482C3.45996 19.9443 3.24554 20.5873 3.06175 21.0467C2.9606 21.3137 2.88871 21.5909 2.84734 21.8734L2.75545 22.0265ZM1.28516 21.5978L2.72481 21.9959C2.72481 21.9959 2.72482 21.6284 2.96986 21.1997L3.64375 19.3013V19.1176C4.52668 17.0647 5.64724 15.1224 6.9825 13.3303C8.31435 11.5484 9.85712 9.93418 11.5771 8.52296L12.7411 7.6656L13.3537 7.20629L14.0583 6.74698L13.2618 5.46094C12.9962 5.60737 12.7404 5.77104 12.4961 5.95087L10.6276 7.32877C8.79973 8.82635 7.16392 10.5439 5.75729 12.4423C4.34032 14.3288 3.16708 16.3864 2.26537 18.5664C1.92843 19.485 1.65274 20.2505 1.43832 20.7711C1.3641 21.0418 1.31286 21.3184 1.28516 21.5978V21.5978Z" fill="white"/>
</g>
<g opacity="0.5">
<path d="M27.5969 56.2276C29.2357 56.3 30.8775 56.2077 32.4978 55.9521C36.082 55.4052 39.5201 54.1451 42.6085 52.2464C45.6969 50.3478 48.3729 47.849 50.4782 44.8982C51.1669 43.9191 51.791 42.8963 52.3467 41.8361L52.9593 40.6113L54.3377 41.2544L53.725 42.5404C53.1146 43.5947 52.4501 44.6167 51.734 45.6024C49.5114 48.7205 46.6895 51.3645 43.4331 53.38C40.1608 55.3908 36.513 56.7139 32.7122 57.2687C31.0012 57.5431 29.2671 57.6457 27.5356 57.5749L27.5969 56.2276Z" fill="white"/>
<path d="M28.5771 57.7899H27.5356V56.2283H28.5464C29.8596 56.2341 31.1709 56.1316 32.4672 55.922C36.0559 55.4148 39.499 54.1632 42.5754 52.2476C45.6668 50.3517 48.3442 47.8523 50.4475 44.8988C51.1391 43.9216 51.7634 42.8986 52.316 41.8368L52.898 40.6426L54.2764 41.2856L53.6638 42.5716C53.0643 43.6326 52.3994 44.6553 51.6728 45.6336C49.4584 48.7589 46.6348 51.4044 43.3718 53.4112C40.1014 55.4259 36.4528 56.7494 32.651 57.3C31.3072 57.5652 29.9454 57.7289 28.5771 57.7899ZM27.5356 57.7899H28.5771C29.9608 57.7805 31.3423 57.6782 32.7122 57.4837C36.5046 56.9174 40.1438 55.5923 43.4121 53.5878C46.6805 51.5833 49.5109 48.9405 51.734 45.8174C52.4406 44.8317 53.095 43.8096 53.6944 42.7554C54.062 41.9899 54.307 41.5306 54.3377 41.4693L52.9593 40.8263L52.3773 42.0511C51.814 43.107 51.1902 44.1293 50.5088 45.1131C48.4129 48.0797 45.7355 50.5894 42.6393 52.4897C39.5431 54.3899 36.0927 55.641 32.4978 56.167C30.8778 56.4253 29.2357 56.5177 27.5969 56.4426L27.5356 57.7899Z" fill="white"/>
</g>
<g opacity="0.79">
<path d="M53.8784 38.3454C53.8899 38.2232 53.8899 38.1002 53.8784 37.978C54.0192 37.6618 54.132 37.334 54.2154 36.9981C54.2154 36.1714 54.7667 35.0997 54.8892 33.9361C54.8892 33.3543 55.073 32.8032 55.1343 32.2826C55.1955 31.7621 55.1343 31.2415 55.1343 30.8128C55.1343 30.3841 55.1343 29.4043 55.1343 29.4043H56.6658C56.6658 29.4043 56.6658 29.9861 56.6658 30.9047C56.6658 31.8233 56.6658 31.8846 56.6658 32.4357C56.6658 32.9869 56.6658 33.5993 56.4208 34.1811C56.4208 35.3753 55.8694 36.5082 55.6856 37.2431C55.5018 37.978 55.4099 38.0392 55.3487 38.2842V38.6822L53.8784 38.3454Z" fill="white"/>
<path d="M55.3793 38.8666L53.909 38.346C53.9032 38.2236 53.9032 38.101 53.909 37.9786C53.9129 37.9072 53.9129 37.8356 53.909 37.7643C54.0224 37.5203 54.1048 37.2632 54.1541 36.9988C54.1541 36.7232 54.1541 36.3864 54.3991 36.0495C54.62 35.3721 54.7739 34.6748 54.8586 33.9674C54.8586 33.4162 55.0118 32.8956 55.1037 32.4057C55.1037 32.0689 55.1037 31.7321 55.1037 31.4259C55.1179 31.2629 55.1179 31.0989 55.1037 30.9359C55.1037 30.0786 55.1037 29.5274 55.1037 29.5274H56.6352C56.6352 29.5274 56.6352 30.1092 56.6352 31.0278C56.619 31.1907 56.619 31.3548 56.6352 31.5177C56.6352 31.8239 56.6352 32.1914 56.6352 32.5588V33.3243C56.5669 33.648 56.5158 33.9751 56.482 34.3042C56.3723 35.0701 56.2085 35.8273 55.9919 36.5701C55.9919 36.9069 55.8082 37.2437 55.7469 37.5193C55.6879 37.8048 55.5953 38.0823 55.4712 38.346C55.4751 38.4174 55.4751 38.489 55.4712 38.5604L55.3793 38.8666ZM53.9397 38.346L55.3793 38.836V38.4685V38.2542C55.4919 37.9887 55.5741 37.7114 55.6244 37.4274C55.6244 37.1212 55.7775 36.815 55.8694 36.4476C56.1038 35.7198 56.2679 34.9713 56.3595 34.2123C56.3595 33.8755 56.3595 33.5387 56.3595 33.2325V32.4669C56.3595 32.0995 56.3595 31.7627 56.3595 31.4259C56.3595 31.089 56.3595 31.089 56.3595 30.9359C56.3595 30.0786 56.3595 29.5274 56.3595 29.4355H55.3793C55.3793 29.4355 55.3793 30.0479 55.3793 30.8441C55.3641 31.007 55.3641 31.1711 55.3793 31.334C55.3793 31.6402 55.3793 31.977 55.3793 32.3139C55.3793 32.8038 55.3793 33.3549 55.1343 33.8755C55.0595 34.5818 54.9159 35.2792 54.7054 35.9576C54.7054 36.2945 54.5217 36.6313 54.4604 36.9069C54.3991 37.1825 54.2766 37.4887 54.2154 37.703V37.8867C53.9397 38.1929 53.8784 38.3154 53.8784 38.346H53.9397Z" fill="white"/>
</g>
<path d="M15.5594 5.85729L14.8242 4.51C14.8242 4.51 15.4062 4.2038 16.2639 3.77512C17.3216 3.25431 18.4173 2.81417 19.5414 2.45845C20.6135 2.091 21.6855 1.84603 22.6045 1.63169H23.0027L24.5955 1.38672L24.8099 2.91773L23.309 3.1627H22.8495C21.9069 3.36595 20.9763 3.62151 20.0621 3.9282C19.0095 4.26526 17.9853 4.68506 16.999 5.18365L15.6512 5.85729H15.5594ZM14.8548 4.51L15.59 5.82667L16.9377 5.15302C17.9354 4.67965 18.9579 4.26057 20.0008 3.8976C20.9142 3.59627 21.845 3.35084 22.7882 3.1627H23.2477L24.718 2.94836L24.5036 1.44797L22.9414 1.69294H22.5432C21.6549 1.87666 20.5828 2.15223 19.4801 2.48905C18.3618 2.87276 17.2674 3.32266 16.2026 3.83635L14.8548 4.51Z" fill="white"/>
<g opacity="0.59">
<path d="M49.5902 12.5948C48.7531 11.5034 47.8313 10.4796 46.8334 9.53277C44.6865 7.49272 42.1984 5.8449 39.482 4.66416C36.7796 3.47381 33.9054 2.71934 30.9666 2.42887C29.6208 2.32532 28.2691 2.32532 26.9233 2.42887V0.89786C28.3404 0.786651 29.764 0.786651 31.181 0.89786C34.3519 1.15961 37.4572 1.94603 40.3703 3.225C43.2432 4.47116 45.8682 6.22403 48.1199 8.39981C49.2155 9.34307 50.2394 10.3666 51.183 11.4618L49.5902 12.5948Z" fill="white"/>
<path d="M49.5593 12.594C48.7067 11.5156 47.7859 10.4928 46.8026 9.53201C44.6495 7.49977 42.1628 5.8529 39.4512 4.66341C36.749 3.47765 33.874 2.73329 30.9358 2.45875C30.1087 2.45875 29.3123 2.45875 28.5466 2.45875C27.7808 2.45875 27.0763 2.45875 26.9231 2.45875V0.927734C26.9231 0.927734 27.597 0.927734 28.6691 0.927734H31.1808C34.3493 1.22329 37.4509 2.01908 40.3701 3.28548C43.2362 4.5305 45.8598 6.27201 48.1197 8.42968C49.2195 9.36846 50.2437 10.3923 51.1828 11.4917L49.5593 12.594ZM28.5772 2.42812H30.9664C33.9053 2.71808 36.7795 3.47257 39.4818 4.66341C42.1994 5.8419 44.6879 7.48997 46.8332 9.53201C47.8313 10.4785 48.7531 11.5024 49.59 12.594L50.7846 11.6448C49.8337 10.5564 48.8103 9.53336 47.7215 8.58279C45.472 6.4474 42.8844 4.69883 40.0638 3.40797C37.1442 2.14814 34.042 1.36253 30.8745 1.08082C30.0168 1.08082 29.1898 1.08082 28.3628 1.08082C27.5357 1.08082 26.7087 1.08082 26.6475 1.08082V2.61183C27.2886 2.54772 27.9333 2.52727 28.5772 2.5506V2.42812Z" fill="white"/>
</g>
<g opacity="0.5">
<path d="M55.3789 29.375C55.3789 29.375 55.3789 28.3646 55.3789 26.8642C55.3789 26.1293 55.1339 25.2413 55.0114 24.3227C54.8888 23.4041 54.5519 22.4549 54.3069 21.475C54.0618 20.4952 53.633 19.5766 53.2654 18.7192C52.8978 17.8618 52.4996 17.0657 52.1321 16.4227C51.7645 15.7796 51.4276 15.2285 51.2131 14.861C51.093 14.6588 50.96 14.4645 50.8149 14.2793L52.1014 13.4219C52.2355 13.6189 52.3582 13.8234 52.469 14.0343L53.4798 15.6572C53.878 16.3614 54.2456 17.2188 54.6744 18.1068C55.1032 18.9948 55.4096 20.0359 55.7771 21.1688C56.1447 22.3018 56.3285 23.2204 56.5123 24.2308C56.6961 25.2413 56.8186 26.1293 56.8798 26.9254V29.5588L55.3789 29.375Z" fill="white"/>
<path d="M55.379 29.3744V26.8635C55.379 26.4042 55.379 25.8837 55.1646 25.3325C54.9502 24.7814 55.1646 24.6589 55.0114 24.322C54.9052 23.7117 54.762 23.1084 54.5826 22.5154L54.307 21.4744L54.0313 20.6782C53.7862 20.0046 53.5718 19.3309 53.2961 18.7185L52.8367 17.7999C52.6222 17.31 52.3772 16.8201 52.1628 16.422L51.9177 15.9933L51.2132 14.8604L50.8456 14.2786L52.1322 13.3906C52.1322 13.3906 52.3159 13.6662 52.5304 14.003L53.5105 15.6259L54.2763 17.1263C54.2763 17.4325 54.552 17.7387 54.7051 18.0755C54.8583 18.4123 55.2565 19.484 55.5322 20.2189L55.8079 20.9844L56.0835 22.0561C56.2673 22.7298 56.4205 23.3728 56.543 24.0159C56.6655 24.6589 56.543 24.6895 56.6962 25.0263C56.8493 25.3631 56.8799 26.1899 56.9412 26.7104C56.9412 28.2721 56.9412 29.3438 56.9412 29.3438H55.379V29.3744ZM50.7231 14.2786L51.0907 14.8604L51.7646 15.9933L52.0096 16.3914C52.2547 16.8201 52.4691 17.2794 52.7141 17.7999L53.143 18.7185C53.4186 19.3309 53.6637 20.0046 53.9087 20.6782L54.1844 21.4744L54.4601 22.5154C54.4601 23.1278 54.7664 23.7403 54.8889 24.322C55.0114 24.9038 54.8889 24.9957 54.8889 25.3325C54.8889 25.6693 54.8889 26.4042 55.1034 26.8635C55.1034 28.3027 55.1034 29.2825 55.1034 29.3744H56.6043C56.6043 29.3744 56.6043 28.2414 56.6043 26.7411C56.6043 26.2205 56.6043 25.6693 56.3899 25.0569L56.2061 24.0465C56.0965 23.3938 55.943 22.7493 55.7466 22.1174C55.7466 21.7499 55.5628 21.3825 55.4709 21.0151L55.1953 20.2496C54.9502 19.5147 54.6745 18.7798 54.3988 18.1061C54.1232 17.4325 54.0925 17.4631 53.9394 17.1875C53.7862 16.9119 53.4493 16.1158 53.2042 15.6565L52.1934 14.0336C52.0096 13.6968 51.8565 13.5131 51.8258 13.4519L50.7231 14.2786Z" fill="white"/>
</g>
</svg>


