<svg width="203" height="19" viewBox="0 0 203 19" fill="none" xmlns="http://www.w3.org/2000/svg">
<path d="M96.7279 18.6477H78.3493L72.2231 12.7074H60.8897L53.814 5.41978H9.64423C9.49595 6.6435 8.886 7.7645 7.9389 8.55387C6.99181 9.34325 5.77901 9.74146 4.54815 9.66721C3.31729 9.59296 2.16121 9.05184 1.31595 8.15435C0.470686 7.25685 0 6.07066 0 4.83799C0 3.60532 0.470686 2.41915 1.31595 1.52165C2.16121 0.624155 3.31729 0.0830427 4.54815 0.00879168C5.77901 -0.0654593 6.99181 0.332752 7.9389 1.12213C8.886 1.9115 9.49595 3.0325 9.64423 4.25622H54.3041L61.5636 11.5438H72.897L78.8394 17.4842H96.2377L100.618 13.1361H202.251V14.2997H101.169L96.7279 18.6477ZM4.83519 0.734887C4.07458 0.734864 3.33014 0.954285 2.69122 1.36681C2.0523 1.77934 1.54605 2.36744 1.23327 3.06051C0.92048 3.75358 0.814438 4.52217 0.927875 5.274C1.04131 6.02584 1.36941 6.72898 1.87277 7.29899C2.37614 7.86901 3.03336 8.28166 3.76558 8.48746C4.49779 8.69325 5.27386 8.68342 6.00062 8.45914C6.72738 8.23486 7.37395 7.80568 7.8627 7.22309C8.35144 6.64051 8.66161 5.92928 8.75595 5.17481V4.25622C8.64276 3.28198 8.17375 2.38378 7.43889 1.73394C6.70402 1.08409 5.75503 0.728339 4.77392 0.734887H4.83519Z" fill="white"/>
</svg>
